#N canvas 0 25 1440 847 12;
#X obj 16 137 s ms-tempo;
#X obj 39 45 s global-bang;
#X obj 39 17 loadbang;
#X obj 17 18 bng 15 250 50 0 empty empty empty 17 7 0 10 -262144 -1
-1;
#X obj 16 83 r global-bang;
#X msg 16 111 150;
#X obj 62 231 r ms-tempo;
#X floatatom 14 291 10 0 0 0 - - -;
#X obj 14 260 /;
#X obj 14 314 s osc-sync;
#X msg 14 230 1000;
#X obj 14 199 r global-bang;
#X obj 354 339 delwrite~ delbuf 1000;
#X obj 300 182 osc~;
#X floatatom 300 157 5 0 0 0 - - -;
#X obj 784 614 clip~ -1 1;
#X obj 784 649 dac~;
#X obj 635 194 vline~;
#X msg 637 168 1 500 0 \, 0.25 1000 500 \, 0 1000 1500;
#X obj 677 33 tgl 15 0 empty empty empty 17 7 0 10 -262144 -1 -1 1
1;
#X obj 677 102 metro;
#X obj 710 39 r ms-tempo;
#X obj 676 4 r global-bang;
#X obj 710 63 * 25;
#X obj 248 182 osc~;
#X floatatom 248 157 5 0 0 0 - - -;
#X msg 321 67 150;
#X obj 300 133 * 2;
#X obj 321 35 r global-bang;
#X obj 354 273 *~;
#X obj 354 297 *~ 0.25;
#X obj 806 430 rev1~;
#X obj 822 371 r global-bang;
#X msg 821 400 99.5;
#X obj 785 470 *~ 0.25;
#X obj 785 219 r ms-tempo;
#X obj 965 492 rev1~;
#X obj 981 433 r global-bang;
#X msg 980 462 99.5;
#X obj 965 516 *~ 0.5;
#X obj 348 160 osc~;
#X floatatom 348 135 5 0 0 0 - - -;
#X obj 348 111 * 3;
#X obj 348 184 *~ 0.15;
#X obj 421 160 osc~;
#X floatatom 421 135 5 0 0 0 - - -;
#X obj 421 111 * 4;
#X obj 484 159 osc~;
#X floatatom 484 134 5 0 0 0 - - -;
#X obj 484 110 * 5;
#X floatatom 1000 778 5 0 0 0 - - -;
#X obj 1000 664 snapshot~;
#X obj 141 411 tgl 15 0 empty empty empty 17 7 0 10 -262144 -1 -1 1
1;
#X obj 141 431 metro 1;
#X obj 141 455 s 1ms;
#X obj 1075 620 r 1ms;
#X obj 810 540 r global-bang;
#X obj 1000 620 osc~;
#X obj 1000 545 r osc-sync;
#X floatatom 1000 593 5 0 0 0 - - -;
#X obj 1001 569 / 12;
#X obj 1000 688 + 1;
#X obj 421 184 *~ 0.25;
#X obj 484 183 *~;
#X obj 1000 736 + 0.1;
#X obj 1000 712 / 8;
#X obj 786 339 delread~ delbuf 18.75;
#X obj 932 339 delread~ delbuf 37.5;
#X obj 1098 330 delread~ delbuf 75;
#X obj 1246 330 delread~ delbuf 250;
#X connect 2 0 1 0;
#X connect 3 0 1 0;
#X connect 4 0 5 0;
#X connect 5 0 0 0;
#X connect 6 0 8 1;
#X connect 7 0 9 0;
#X connect 8 0 7 0;
#X connect 10 0 8 0;
#X connect 11 0 10 0;
#X connect 13 0 29 0;
#X connect 14 0 13 0;
#X connect 15 0 16 0;
#X connect 15 0 16 1;
#X connect 17 0 29 1;
#X connect 18 0 17 0;
#X connect 19 0 20 0;
#X connect 20 0 18 0;
#X connect 21 0 23 0;
#X connect 22 0 19 0;
#X connect 23 0 20 1;
#X connect 24 0 29 0;
#X connect 25 0 24 0;
#X connect 26 0 27 0;
#X connect 26 0 25 0;
#X connect 26 0 42 0;
#X connect 26 0 46 0;
#X connect 26 0 49 0;
#X connect 27 0 14 0;
#X connect 28 0 26 0;
#X connect 29 0 30 0;
#X connect 30 0 12 0;
#X connect 31 0 34 0;
#X connect 32 0 33 0;
#X connect 33 0 31 1;
#X connect 34 0 36 0;
#X connect 34 0 15 0;
#X connect 36 0 39 0;
#X connect 37 0 38 0;
#X connect 38 0 36 1;
#X connect 40 0 43 0;
#X connect 41 0 40 0;
#X connect 42 0 41 0;
#X connect 43 0 29 0;
#X connect 44 0 62 0;
#X connect 45 0 44 0;
#X connect 46 0 45 0;
#X connect 47 0 63 0;
#X connect 48 0 47 0;
#X connect 49 0 48 0;
#X connect 50 0 63 1;
#X connect 51 0 61 0;
#X connect 52 0 53 0;
#X connect 53 0 54 0;
#X connect 55 0 51 0;
#X connect 57 0 51 0;
#X connect 58 0 60 0;
#X connect 59 0 57 0;
#X connect 60 0 59 0;
#X connect 61 0 65 0;
#X connect 62 0 29 0;
#X connect 63 0 29 0;
#X connect 64 0 50 0;
#X connect 65 0 64 0;
#X connect 66 0 31 0;
#X connect 66 0 34 0;
#X connect 67 0 34 0;
#X connect 68 0 34 0;
#X connect 69 0 34 0;
