#N canvas 0 38 1512 916 12;
#X declare -path ../lib;
#X declare -path ../samples;
#X obj 15 11 loadbang;
#X obj 15 37 bng 15 250 50 0 empty empty empty 17 7 0 10 #fcfcfc #000000 #000000;
#X obj 15 160 tgl 15 0 empty empty empty 17 7 0 10 #fcfcfc #000000 #000000 0 1;
#X obj 15 132 t b b;
#X obj 15 185 metro;
#X obj 69 185 s bpms;
#X obj 15 211 bng 15 250 50 0 empty empty empty 17 7 0 10 #fcfcfc #000000 #000000;
#X obj 15 233 s beat;
#X obj 175 11 declare -path ../lib;
#X obj 175 36 declare -path ../samples;
#X obj 16 390 clip~ -1 1;
#X obj 16 414 dac~;
#X obj 16 366 *~ 1;
#X obj 16 342 catch~ out;
#X obj 15 59 s bang-all;
#X obj 15 107 r bang-all;
#X msg 47 158 500;
#X obj 593 21 r beat;
#X obj 593 45 counter;
#X floatatom 593 93 5 0 0 0 - - - 0;
#X obj 593 116 sel 0;
#X obj 593 141 counter;
#X floatatom 593 191 5 0 0 0 - - - 0;
#X obj 593 167 % 4;
#X msg 15 289 440;
#X obj 553 514 ttet 7;
#X obj 15 313 s bfq;
#X obj 553 462 r bfq;
#X floatatom 553 538 5 0 0 0 - - - 0;
#X obj 637 515 ttet 7;
#X obj 637 463 r bfq;
#X floatatom 637 539 5 0 0 0 - - - 0;
#X obj 722 516 ttet 7;
#X obj 722 464 r bfq;
#X floatatom 722 540 5 0 0 0 - - - 0;
#X obj 15 265 r bang-all;
#X obj 592 430 unpack f f f f, f 37;
#X floatatom 592 489 5 0 0 0 - - - 0;
#X floatatom 677 491 5 0 0 0 - - - 0;
#X floatatom 762 491 5 0 0 0 - - - 0;
#X obj 805 517 ttet 7;
#X obj 805 465 r bfq;
#X floatatom 805 541 5 0 0 0 - - - 0;
#X floatatom 848 492 5 0 0 0 - - - 0;
#X obj 683 674 *~;
#X obj 867 632 vline~;
#X obj 411 849 throw~ out;
#X obj 683 701 lop~ 1000;
#X obj 683 725 lop~ 1000;
#X obj 683 749 hip~ 100;
#X msg 592 374 -2 1 4 7;
#X msg 669 375 -1 2 6 7;
#X msg 746 375 -6 -2 0 3;
#X obj 592 328 sel 0 1 2 3, f 22;
#X msg 828 376 -3 0 3 6;
#X obj 593 214 t b f;
#X floatatom 670 239 5 0 0 0 - - - 0;
#X obj 593 238 bng 19 250 50 0 empty empty empty 0 -10 0 12 #fcfcfc #000000 #000000;
#X obj 593 262 s envtrig;
#X obj 670 262 s chordnum;
#X obj 592 302 r chordnum;
#X obj 867 580 r envtrig;
#X obj 324 489 rev1~;
#X obj 339 643 *~ 0.5;
#X obj 324 513 *~ 0.5;
#X obj 324 538 lop~ 2000;
#X obj 324 562 lop~ 2000;
#X obj 324 586 hip~ 500;
#X obj 340 438 r bang-all;
#X obj 553 569 osc~;
#X obj 637 569 tri~;
#X obj 722 570 osc~;
#X obj 805 571 tri~;
#X msg 340 463 99;
#X msg 867 608 0.5 5000 0 \, 0 5000 7500;
#X obj 1116 196 vline~;
#X msg 1116 165 500 2000 0 \, 0 500 2000;
#X obj 1115 81 tgl 19 0 empty empty empty 0 -10 0 12 #fcfcfc #000000 #000000 0 1;
#X obj 1116 113 metro 2500;
#X obj 1116 137 bng 19 250 50 0 empty empty empty 0 -10 0 12 #fcfcfc #000000 #000000;
#X obj 1115 297 lop~ 1500;
#X obj 1115 321 lop~ 1500;
#X obj 1115 345 hip~ 350;
#X obj 1116 243 delread4~ padbuf;
#X obj 325 695 throw~ pad;
#X obj 411 793 catch~ pad;
#X obj 1116 389 throw~ pad;
#X obj 1325 193 vline~;
#X obj 1324 78 tgl 19 0 empty empty empty 0 -10 0 12 #fcfcfc #000000 #000000 0 1;
#X obj 1325 134 bng 19 250 50 0 empty empty empty 0 -10 0 12 #fcfcfc #000000 #000000;
#X obj 1324 294 lop~ 1500;
#X obj 1324 318 lop~ 1500;
#X obj 1324 342 hip~ 350;
#X obj 1325 240 delread4~ padbuf;
#X obj 1325 386 throw~ pad;
#X msg 1325 162 250 1000 0 \, 0 250 1000;
#X obj 683 777 s~ padsig;
#X obj 325 405 r~ padsig;
#X obj 1325 264 *~ 0.05;
#X obj 593 68 % 32;
#X obj 169 657 delwrite~ padbuf 2000;
#X obj 1116 267 *~ 0.1;
#X obj 1115 50 r bang-all;
#X obj 1324 47 r bang-all;
#X obj 1325 110 metro 4500;
#X obj 338 619 r~ padsig;
#X obj 169 609 r~ padsig;
#X obj 411 821 *~ 0.1;
#X obj 160 449 writesf~ 2;
#X msg 191 417 stop;
#X msg 192 392 start;
#X msg 159 354 open al-exp1.wav;
#X obj 427 496 bng 19 250 50 0 empty empty empty 0 -10 0 12 #fcfcfc #000000 #000000;
#X connect 0 0 1 0;
#X connect 1 0 14 0;
#X connect 2 0 4 0;
#X connect 3 0 2 0;
#X connect 3 1 16 0;
#X connect 4 0 6 0;
#X connect 6 0 7 0;
#X connect 10 0 11 0;
#X connect 10 0 11 1;
#X connect 10 0 108 0;
#X connect 10 0 108 1;
#X connect 12 0 10 0;
#X connect 13 0 12 0;
#X connect 15 0 3 0;
#X connect 16 0 4 1;
#X connect 16 0 5 0;
#X connect 17 0 18 0;
#X connect 18 0 99 0;
#X connect 19 0 20 0;
#X connect 20 0 21 0;
#X connect 21 0 23 0;
#X connect 22 0 55 0;
#X connect 23 0 22 0;
#X connect 24 0 26 0;
#X connect 25 0 28 0;
#X connect 27 0 25 0;
#X connect 28 0 69 0;
#X connect 29 0 31 0;
#X connect 30 0 29 0;
#X connect 31 0 70 0;
#X connect 32 0 34 0;
#X connect 33 0 32 0;
#X connect 34 0 71 0;
#X connect 35 0 24 0;
#X connect 36 0 37 0;
#X connect 36 1 38 0;
#X connect 36 2 39 0;
#X connect 36 3 43 0;
#X connect 37 0 25 1;
#X connect 38 0 29 1;
#X connect 39 0 32 1;
#X connect 40 0 42 0;
#X connect 41 0 40 0;
#X connect 42 0 72 0;
#X connect 43 0 40 1;
#X connect 44 0 47 0;
#X connect 45 0 44 1;
#X connect 47 0 48 0;
#X connect 48 0 49 0;
#X connect 49 0 96 0;
#X connect 50 0 36 0;
#X connect 51 0 36 0;
#X connect 52 0 36 0;
#X connect 53 0 50 0;
#X connect 53 1 51 0;
#X connect 53 2 52 0;
#X connect 53 3 54 0;
#X connect 54 0 36 0;
#X connect 55 0 57 0;
#X connect 55 1 56 0;
#X connect 56 0 59 0;
#X connect 57 0 58 0;
#X connect 60 0 53 0;
#X connect 61 0 74 0;
#X connect 62 0 64 0;
#X connect 63 0 84 0;
#X connect 64 0 65 0;
#X connect 65 0 66 0;
#X connect 66 0 67 0;
#X connect 67 0 84 0;
#X connect 67 0 100 0;
#X connect 68 0 73 0;
#X connect 69 0 44 0;
#X connect 70 0 44 0;
#X connect 71 0 44 0;
#X connect 72 0 44 0;
#X connect 73 0 62 1;
#X connect 74 0 45 0;
#X connect 75 0 83 0;
#X connect 76 0 75 0;
#X connect 77 0 78 0;
#X connect 78 0 79 0;
#X connect 79 0 76 0;
#X connect 80 0 81 0;
#X connect 81 0 82 0;
#X connect 82 0 86 0;
#X connect 83 0 101 0;
#X connect 85 0 107 0;
#X connect 87 0 93 0;
#X connect 88 0 104 0;
#X connect 89 0 95 0;
#X connect 90 0 91 0;
#X connect 91 0 92 0;
#X connect 92 0 94 0;
#X connect 93 0 98 0;
#X connect 95 0 87 0;
#X connect 97 0 62 0;
#X connect 98 0 90 0;
#X connect 99 0 19 0;
#X connect 101 0 80 0;
#X connect 102 0 77 0;
#X connect 103 0 88 0;
#X connect 104 0 89 0;
#X connect 105 0 63 0;
#X connect 106 0 100 0;
#X connect 107 0 46 0;
#X connect 109 0 108 0;
#X connect 110 0 108 0;
#X connect 111 0 108 0;
#X connect 112 0 62 2;
#X coords 0 0 1 1 85 60 0;
