#N canvas 0 38 1512 916 12;
#X declare -path ../lib;
#X declare -path ../samples;
#X obj 15 11 loadbang;
#X obj 15 37 bng 15 250 50 0 empty empty empty 17 7 0 10 #fcfcfc #000000 #000000;
#X obj 15 160 tgl 15 0 empty empty empty 17 7 0 10 #fcfcfc #000000 #000000 0 1;
#X obj 15 132 t b b;
#X obj 15 185 metro;
#X obj 69 185 s bpms;
#X obj 15 211 bng 15 250 50 0 empty empty empty 17 7 0 10 #fcfcfc #000000 #000000;
#X obj 15 233 s beat;
#X obj 175 11 declare -path ../lib;
#X obj 175 36 declare -path ../samples;
#X obj 16 390 clip~ -1 1;
#X obj 16 414 dac~;
#X obj 16 366 *~ 1;
#X obj 16 342 catch~ out;
#X obj 15 59 s bang-all;
#X obj 15 107 r bang-all;
#X obj 976 285 vline~;
#X obj 928 420 *~;
#X obj 976 230 bng 19 250 50 0 empty empty empty 0 -10 0 12 #fcfcfc #000000 #000000;
#X obj 928 545 s~ sig2;
#X obj 195 538 throw~ out;
#X obj 1094 17 r beat;
#X obj 1094 41 counter;
#X floatatom 1094 89 5 0 0 0 - - - 0;
#X obj 1094 65 % 4;
#X obj 1094 112 sel 0 1 2 3 4, f 35;
#X msg 1094 142 440;
#X msg 1190 144 554.045;
#X obj 1139 211 t b f;
#X obj 919 114 osc~;
#X msg 47 158 500;
#X obj 971 119 *~ 0.25;
#X obj 971 95 tri~;
#X msg 976 258 1 5 0 \, 0 50 5;
#X obj 332 309 delwrite~ delaybuf 1000;
#X obj 286 93 r~ sig2;
#X obj 1310 386 *~ 0.25;
#X obj 1148 385 *~ 0.5;
#X obj 195 486 catch~ drop;
#X obj 212 343 throw~ drop;
#X obj 1147 495 throw~ drop;
#X obj 1148 361 delread4~ delaybuf;
#X obj 1310 362 delread4~ delaybuf;
#X obj 1310 484 throw~ drop;
#X obj 1148 314 vline~;
#X msg 1148 284 500 2000 0 \, 0 500 2000;
#X obj 1261 194 tgl 19 0 empty empty empty 0 -10 0 12 #fcfcfc #000000 #000000 0 1;
#X obj 1262 226 metro 2500;
#X obj 1262 250 bng 19 250 50 0 empty empty empty 0 -10 0 12 #fcfcfc #000000 #000000;
#X obj 1331 312 vline~;
#X msg 1331 282 250 1000 0 \, 0 250 1000;
#X obj 1385 182 tgl 19 0 empty empty empty 0 -10 0 12 #fcfcfc #000000 #000000 0 1;
#X obj 1386 238 bng 19 250 50 0 empty empty empty 0 -10 0 12 #fcfcfc #000000 #000000;
#X obj 212 202 rev1~;
#X obj 212 258 lop~ 2000;
#X obj 212 282 lop~ 2000;
#X obj 212 306 hip~ 500;
#X msg 229 176 75;
#X obj 294 204 *~ 0.5;
#X obj 212 226 *~ 0.3;
#X obj 1147 415 lop~ 1500;
#X obj 1147 439 lop~ 1500;
#X obj 1147 463 hip~ 350;
#X obj 1310 412 lop~ 1500;
#X obj 1310 436 lop~ 1500;
#X obj 1310 460 hip~ 350;
#X obj 558 109 r beat;
#X obj 558 133 counter;
#X floatatom 558 181 5 0 0 0 - - - 0;
#X obj 558 204 sel 0;
#X obj 558 229 counter;
#X floatatom 558 279 5 0 0 0 - - - 0;
#X obj 558 255 % 4;
#X msg 37 485 440;
#X obj 518 602 ttet 7;
#X obj 37 509 s bfq;
#X obj 518 550 r bfq;
#X floatatom 518 626 5 0 0 0 - - - 0;
#X obj 602 603 ttet 7;
#X obj 602 551 r bfq;
#X floatatom 602 627 5 0 0 0 - - - 0;
#X obj 687 604 ttet 7;
#X obj 687 552 r bfq;
#X floatatom 687 628 5 0 0 0 - - - 0;
#X obj 37 461 r bang-all;
#X obj 557 518 unpack f f f f, f 37;
#X floatatom 557 577 5 0 0 0 - - - 0;
#X floatatom 642 579 5 0 0 0 - - - 0;
#X floatatom 727 579 5 0 0 0 - - - 0;
#X obj 770 605 ttet 7;
#X obj 770 553 r bfq;
#X floatatom 770 629 5 0 0 0 - - - 0;
#X floatatom 813 580 5 0 0 0 - - - 0;
#X obj 648 762 *~;
#X obj 832 720 vline~;
#X obj 414 845 throw~ out;
#X obj 648 789 lop~ 1000;
#X obj 648 813 lop~ 1000;
#X obj 648 837 hip~ 100;
#X obj 557 416 sel 0 1 2 3, f 22;
#X obj 558 302 t b f;
#X floatatom 635 327 5 0 0 0 - - - 0;
#X obj 558 326 bng 19 250 50 0 empty empty empty 0 -10 0 12 #fcfcfc #000000 #000000;
#X obj 558 350 s envtrig;
#X obj 635 350 s chordnum;
#X obj 557 390 r chordnum;
#X obj 832 668 r envtrig;
#X obj 150 117 r bang-all;
#X obj 128 653 rev1~;
#X obj 221 675 *~ 0.5;
#X obj 128 677 *~ 0.5;
#X obj 128 702 lop~ 2000;
#X obj 128 726 lop~ 2000;
#X obj 128 750 hip~ 500;
#X obj 147 578 r bang-all;
#X obj 518 657 osc~;
#X obj 602 657 tri~;
#X obj 687 658 osc~;
#X obj 770 659 tri~;
#X msg 145 627 99;
#X obj 411 821 *~ 0.05;
#X msg 832 696 0.5 5000 0 \, 0 5000 7500;
#X obj 1113 652 vline~;
#X msg 1113 621 500 2000 0 \, 0 500 2000;
#X obj 1112 537 tgl 19 0 empty empty empty 0 -10 0 12 #fcfcfc #000000 #000000 0 1;
#X obj 1113 569 metro 2500;
#X obj 1113 593 bng 19 250 50 0 empty empty empty 0 -10 0 12 #fcfcfc #000000 #000000;
#X obj 1112 753 lop~ 1500;
#X obj 1112 777 lop~ 1500;
#X obj 1113 699 delread4~ padbuf;
#X obj 191 807 throw~ pad;
#X obj 410 792 catch~ pad;
#X obj 1113 845 throw~ pad;
#X obj 1322 649 vline~;
#X obj 1321 534 tgl 19 0 empty empty empty 0 -10 0 12 #fcfcfc #000000 #000000 0 1;
#X obj 1322 590 bng 19 250 50 0 empty empty empty 0 -10 0 12 #fcfcfc #000000 #000000;
#X obj 1321 750 lop~ 1500;
#X obj 1321 774 lop~ 1500;
#X obj 1322 696 delread4~ padbuf;
#X obj 1322 842 throw~ pad;
#X msg 1322 618 250 1000 0 \, 0 250 1000;
#X obj 648 865 s~ padsig;
#X obj 223 641 r~ padsig;
#X obj 1322 720 *~ 0.05;
#X obj 558 156 % 32;
#X obj 328 695 delwrite~ padbuf 2000;
#X obj 1113 723 *~ 0.1;
#X obj 195 513 *~ 0.25;
#X msg 557 462 -3 0 3 6;
#X msg 634 463 -6 -3 3 0;
#X msg 711 463 -9 -6 -3 0;
#X msg 793 464 0 3 6 9;
#X obj 1322 566 metro 4500;
#X obj 1386 214 metro 1000;
#X obj 1270 155 r bang-all;
#X obj 1386 150 r bang-all;
#X obj 1038 487 r bang-all;
#X obj 1368 523 r bang-all;
#X obj 928 444 lop~ 1000;
#X obj 928 468 lop~ 1000;
#X obj 928 492 hip~ 500;
#X obj 1112 801 hip~ 500;
#X obj 1321 798 hip~ 500;
#X connect 0 0 1 0;
#X connect 1 0 14 0;
#X connect 2 0 4 0;
#X connect 3 0 2 0;
#X connect 3 1 30 0;
#X connect 4 0 6 0;
#X connect 6 0 7 0;
#X connect 10 0 11 0;
#X connect 10 0 11 1;
#X connect 12 0 10 0;
#X connect 13 0 12 0;
#X connect 15 0 3 0;
#X connect 16 0 17 1;
#X connect 17 0 158 0;
#X connect 18 0 33 0;
#X connect 21 0 22 0;
#X connect 22 0 24 0;
#X connect 23 0 25 0;
#X connect 24 0 23 0;
#X connect 25 0 26 0;
#X connect 25 2 27 0;
#X connect 26 0 28 0;
#X connect 27 0 28 0;
#X connect 28 0 18 0;
#X connect 28 1 29 0;
#X connect 28 1 32 0;
#X connect 29 0 17 0;
#X connect 30 0 4 1;
#X connect 30 0 5 0;
#X connect 31 0 17 0;
#X connect 32 0 31 0;
#X connect 33 0 16 0;
#X connect 35 0 34 0;
#X connect 35 0 53 0;
#X connect 35 0 58 0;
#X connect 36 0 63 0;
#X connect 37 0 60 0;
#X connect 38 0 147 0;
#X connect 41 0 37 0;
#X connect 42 0 36 0;
#X connect 44 0 41 0;
#X connect 45 0 44 0;
#X connect 46 0 47 0;
#X connect 47 0 48 0;
#X connect 48 0 45 0;
#X connect 49 0 42 0;
#X connect 50 0 49 0;
#X connect 51 0 153 0;
#X connect 52 0 50 0;
#X connect 53 0 59 0;
#X connect 54 0 55 0;
#X connect 55 0 56 0;
#X connect 56 0 39 0;
#X connect 56 0 34 0;
#X connect 57 0 53 1;
#X connect 58 0 54 0;
#X connect 59 0 54 0;
#X connect 60 0 61 0;
#X connect 61 0 62 0;
#X connect 62 0 40 0;
#X connect 63 0 64 0;
#X connect 64 0 65 0;
#X connect 65 0 43 0;
#X connect 66 0 67 0;
#X connect 67 0 144 0;
#X connect 68 0 69 0;
#X connect 69 0 70 0;
#X connect 70 0 72 0;
#X connect 71 0 100 0;
#X connect 72 0 71 0;
#X connect 73 0 75 0;
#X connect 74 0 77 0;
#X connect 76 0 74 0;
#X connect 77 0 115 0;
#X connect 78 0 80 0;
#X connect 79 0 78 0;
#X connect 80 0 116 0;
#X connect 81 0 83 0;
#X connect 82 0 81 0;
#X connect 83 0 117 0;
#X connect 84 0 73 0;
#X connect 85 0 86 0;
#X connect 85 1 87 0;
#X connect 85 2 88 0;
#X connect 85 3 92 0;
#X connect 86 0 74 1;
#X connect 87 0 78 1;
#X connect 88 0 81 1;
#X connect 89 0 91 0;
#X connect 90 0 89 0;
#X connect 91 0 118 0;
#X connect 92 0 89 1;
#X connect 93 0 96 0;
#X connect 94 0 93 1;
#X connect 96 0 97 0;
#X connect 97 0 98 0;
#X connect 98 0 141 0;
#X connect 99 0 148 0;
#X connect 99 1 149 0;
#X connect 99 2 150 0;
#X connect 99 3 151 0;
#X connect 100 0 102 0;
#X connect 100 1 101 0;
#X connect 101 0 104 0;
#X connect 102 0 103 0;
#X connect 105 0 99 0;
#X connect 106 0 121 0;
#X connect 107 0 57 0;
#X connect 108 0 110 0;
#X connect 109 0 130 0;
#X connect 110 0 111 0;
#X connect 111 0 112 0;
#X connect 112 0 113 0;
#X connect 113 0 130 0;
#X connect 113 0 145 0;
#X connect 114 0 119 0;
#X connect 115 0 93 0;
#X connect 116 0 93 0;
#X connect 117 0 93 0;
#X connect 118 0 93 0;
#X connect 119 0 108 1;
#X connect 120 0 95 0;
#X connect 121 0 94 0;
#X connect 122 0 129 0;
#X connect 123 0 122 0;
#X connect 124 0 125 0;
#X connect 125 0 126 0;
#X connect 126 0 123 0;
#X connect 127 0 128 0;
#X connect 128 0 161 0;
#X connect 129 0 146 0;
#X connect 131 0 120 0;
#X connect 133 0 138 0;
#X connect 134 0 152 0;
#X connect 135 0 140 0;
#X connect 136 0 137 0;
#X connect 137 0 162 0;
#X connect 138 0 143 0;
#X connect 140 0 133 0;
#X connect 142 0 109 0;
#X connect 142 0 108 0;
#X connect 142 0 145 0;
#X connect 143 0 136 0;
#X connect 144 0 68 0;
#X connect 146 0 127 0;
#X connect 147 0 20 0;
#X connect 148 0 85 0;
#X connect 149 0 85 0;
#X connect 150 0 85 0;
#X connect 151 0 85 0;
#X connect 152 0 135 0;
#X connect 153 0 52 0;
#X connect 154 0 46 0;
#X connect 155 0 51 0;
#X connect 156 0 124 0;
#X connect 157 0 134 0;
#X connect 158 0 159 0;
#X connect 159 0 160 0;
#X connect 160 0 19 0;
#X connect 161 0 132 0;
#X connect 162 0 139 0;
#X coords 0 0 1 1 85 60 0;
