#N canvas 324 49 972 565 12;
#X declare -path ../lib;
#X declare -path ../samples;
#X floatatom 717 478 5 0 0 0 - - - 0;
#X obj 754 592 readsf~;
#X obj 717 501 select 0 1 2 3 4;
#X obj 717 453 inlet;
#X obj 714 717 outlet~;
#X obj 754 616 *~ 1.2;
#X obj 958 590 readsf~;
#X obj 958 614 *~ 2;
#X obj 1162 590 readsf~;
#X obj 548 592 readsf~;
#X obj 548 616 *~ 1.25;
#X obj 341 593 readsf~;
#X obj 341 617 *~ 0.35;
#X obj 392 410 declare -path ../lib;
#X obj 391 435 declare -path ../samples;
#X msg 342 569 open drums/0.wav \, 1;
#X msg 548 568 open drums/1.wav \, 1;
#X msg 754 567 open drums/2.wav \, 1;
#X msg 958 566 open drums/3.wav \, 1;
#X msg 1162 566 open drums/4.wav \, 1;
#X connect 0 0 2 0;
#X connect 1 0 5 0;
#X connect 2 0 15 0;
#X connect 2 1 16 0;
#X connect 2 2 17 0;
#X connect 2 3 18 0;
#X connect 2 4 19 0;
#X connect 3 0 0 0;
#X connect 5 0 4 0;
#X connect 6 0 7 0;
#X connect 7 0 4 0;
#X connect 8 0 4 0;
#X connect 9 0 10 0;
#X connect 10 0 4 0;
#X connect 11 0 12 0;
#X connect 12 0 4 0;
#X connect 15 0 11 0;
#X connect 16 0 9 0;
#X connect 17 0 1 0;
#X connect 18 0 6 0;
#X connect 19 0 8 0;
