#N canvas 0 39 1512 916 12;
#X declare -path ../lib;
#X obj 19 18 declare -path ../lib;
#X obj 19 96 metro 100;
#X obj 19 71 tgl 19 0 empty empty empty 0 -10 0 12 #fcfcfc #000000 #000000 0 1;
#X obj 19 47 loadbang;
#X obj 19 146 s clock;
#X obj 19 120 bng 19 250 50 0 empty empty empty 0 -10 0 12 #fcfcfc #000000 #000000;
#X obj 183 141 r clock;
#X obj 183 191 bng 19 250 50 0 empty empty empty 0 -10 0 12 #fcfcfc #000000 #000000;
#X obj 183 215 kick~;
#X obj 183 283 throw~ out;
#X obj 21 186 catch~ out;
#X obj 21 234 dac~;
#X obj 21 210 clip~ -1 1;
#X obj 284 143 r clock;
#X obj 284 193 bng 19 250 50 0 empty empty empty 0 -10 0 12 #fcfcfc #000000 #000000;
#X obj 284 285 throw~ out;
#X obj 284 169 eseq 1 8 0;
#X obj 284 217 snare~;
#X obj 284 241 *~ 0.25;
#X obj 260 43 s counter-reset;
#X obj 259 18 bng 19 250 50 0 empty empty empty 0 -10 0 12 #fcfcfc #000000 #000000;
#X obj 465 141 r clock;
#X obj 465 191 bng 19 250 50 0 empty empty empty 0 -10 0 12 #fcfcfc #000000 #000000;
#X obj 465 285 throw~ out;
#X obj 465 215 hh~;
#X floatatom 921 642 5 0 0 0 - - - 0;
#X obj 800 717 acidfilter~, f 35;
#X floatatom 974 643 5 0 0 0 - - - 0;
#X obj 921 665 pack f f;
#X obj 820 787 vline~;
#X obj 803 810 *~;
#X obj 736 345 s \$0-env;
#X obj 820 742 r \$0-env;
#X obj 803 865 throw~ out;
#X obj 868 223 t b b;
#X floatatom 868 437 5 0 0 0 - - - 0;
#X obj 867 188 bng 19 250 50 0 empty empty empty 0 -10 0 12 #fcfcfc #000000 #000000;
#X obj 921 617 * 10;
#X obj 973 617 * 5;
#X msg 1042 692 12;
#X obj 867 132 r clock;
#X msg 868 384 110;
#X obj 921 308 counter 5;
#X obj 921 332 % 15;
#X obj 802 834 *~ 0.15;
#X obj 1042 666 loadbang;
#X obj 800 650 saw~;
#X obj 839 650 saw~;
#X obj 758 647 saw~;
#X obj 776 621 * 2;
#X obj 839 625 * 0.5;
#X obj 183 167 eseq 5 16 0;
#X obj 183 239 *~ 0.75;
#X obj 995 309 counter 2;
#X obj 995 333 % 6;
#X obj 953 390 -;
#X msg 820 765 1 5 0 \, 0 90 5;
#X obj 465 167 eseq 7 8 0;
#X obj 465 239 *~ 2.5;
#X msg 921 690 10 100 \$1 \$2;
#X obj 868 413 ttet 11;
#X obj 550 287 throw~ out;
#X obj 550 239 clap~;
#X obj 550 263 *~ 0.5;
#X obj 550 141 r clock;
#X obj 550 167 eseq 5 16 0;
#X connect 1 0 5 0;
#X connect 2 0 1 0;
#X connect 3 0 2 0;
#X connect 5 0 4 0;
#X connect 6 0 51 0;
#X connect 7 0 8 0;
#X connect 8 0 52 0;
#X connect 10 0 12 0;
#X connect 12 0 11 0;
#X connect 12 0 11 1;
#X connect 13 0 16 0;
#X connect 14 0 17 0;
#X connect 16 0 14 0;
#X connect 17 0 18 0;
#X connect 18 0 15 0;
#X connect 20 0 19 0;
#X connect 21 0 57 0;
#X connect 22 0 24 0;
#X connect 24 0 58 0;
#X connect 25 0 28 0;
#X connect 26 0 30 0;
#X connect 27 0 28 1;
#X connect 28 0 59 0;
#X connect 29 0 30 1;
#X connect 30 0 44 0;
#X connect 32 0 56 0;
#X connect 34 0 31 0;
#X connect 34 1 42 0;
#X connect 34 1 53 0;
#X connect 34 1 41 0;
#X connect 35 0 37 0;
#X connect 35 0 38 0;
#X connect 35 0 49 0;
#X connect 35 0 46 0;
#X connect 35 0 50 0;
#X connect 36 0 34 0;
#X connect 37 0 25 0;
#X connect 38 0 27 0;
#X connect 39 0 26 2;
#X connect 40 0 36 0;
#X connect 41 0 60 0;
#X connect 42 0 43 0;
#X connect 43 0 55 0;
#X connect 44 0 33 0;
#X connect 45 0 39 0;
#X connect 46 0 26 0;
#X connect 47 0 26 0;
#X connect 48 0 26 0;
#X connect 49 0 48 0;
#X connect 50 0 47 0;
#X connect 51 0 7 0;
#X connect 52 0 9 0;
#X connect 53 0 54 0;
#X connect 54 0 55 1;
#X connect 55 0 60 1;
#X connect 56 0 29 0;
#X connect 57 0 22 0;
#X connect 58 0 23 0;
#X connect 59 0 26 1;
#X connect 60 0 35 0;
#X connect 62 0 63 0;
#X connect 63 0 61 0;
#X connect 64 0 65 0;
#X connect 65 0 62 0;
