#N canvas 0 25 1440 847 12;
#X obj 531 204 noise~;
#X obj 604 632 dac~;
#X obj 530 352 lop~ 100;
#X obj 530 283 bob~ 680 4;
#X msg 563 258 680;
#X msg 597 258 4;
#X msg 583 330 100;
#X obj 563 229 loadbang;
#X obj 583 305 loadbang;
#X obj 837 370 osc~;
#X text 879 370 carrier;
#X text 656 346 carrier frequency;
#X obj 836 194 osc~;
#X text 888 222 modulation amplitude;
#X obj 530 406 s~ noiz;
#X obj 531 449 r~ noiz;
#X obj 835 81 *~ 75;
#X obj 836 169 +~ 200;
#X obj 836 220 *~ 250;
#X obj 835 481 s~ fm;
#X obj 606 482 r~ fm;
#X obj 531 473 *~ 0.5;
#X obj 221 401 osc~;
#X obj 269 448 phasor~;
#X msg 230 344 250;
#X obj 269 392 * 2;
#X obj 248 508 s~ idk;
#X obj 269 420 +~;
#X obj 227 377 +~;
#X obj 671 474 r~ idk;
#X obj 607 551 *~ 1;
#X obj 706 567 osc~ 0.2;
#X obj 318 485 bob~ 680 4;
#X msg 382 436 3.5;
#X msg 338 436 2000;
#X obj 671 498 *~ 0.05;
#X obj 836 457 *~ 0.1;
#X obj 837 420 *~;
#X obj 981 378 abs~;
#X obj 982 507 osc~ 0.5;
#X obj 837 344 +~ 360;
#X text 878 80 modulation amplitude;
#X obj 981 402 cos~;
#X obj 981 354 osc~ 0.75;
#X obj 837 304 +~;
#X obj 1141 86 tgl 15 0 empty empty empty 17 7 0 10 -262144 -1 -1 1
1;
#X obj 1141 108 metro 1000;
#X obj 1141 202 select 0 1 2 3 4;
#X msg 1234 235 60;
#X obj 1141 132 f;
#X obj 1192 136 + 1;
#X obj 1141 156 % 5;
#X msg 1124 231 40;
#X msg 1161 232 45;
#X msg 1197 233 50;
#X msg 1275 236 65;
#X obj 835 56 osc~ 300;
#X connect 0 0 3 0;
#X connect 2 0 14 0;
#X connect 3 0 2 0;
#X connect 4 0 3 1;
#X connect 5 0 3 2;
#X connect 6 0 2 1;
#X connect 7 0 4 0;
#X connect 7 0 5 0;
#X connect 8 0 6 0;
#X connect 9 0 37 0;
#X connect 12 0 18 0;
#X connect 15 0 21 0;
#X connect 16 0 17 0;
#X connect 17 0 12 0;
#X connect 18 0 44 0;
#X connect 20 0 30 0;
#X connect 22 0 32 0;
#X connect 23 0 32 0;
#X connect 24 0 25 0;
#X connect 24 0 28 0;
#X connect 25 0 27 0;
#X connect 27 0 23 0;
#X connect 28 0 22 0;
#X connect 29 0 35 0;
#X connect 30 0 1 0;
#X connect 30 0 1 1;
#X connect 32 0 26 0;
#X connect 33 0 32 2;
#X connect 34 0 32 1;
#X connect 36 0 19 0;
#X connect 37 0 36 0;
#X connect 38 0 42 0;
#X connect 40 0 9 0;
#X connect 42 0 37 1;
#X connect 43 0 38 0;
#X connect 44 0 40 0;
#X connect 45 0 46 0;
#X connect 46 0 49 0;
#X connect 47 0 52 0;
#X connect 47 1 53 0;
#X connect 47 2 54 0;
#X connect 47 3 48 0;
#X connect 47 4 55 0;
#X connect 48 0 44 1;
#X connect 49 0 50 0;
#X connect 49 0 51 0;
#X connect 50 0 49 1;
#X connect 51 0 47 0;
#X connect 52 0 44 1;
#X connect 53 0 44 1;
#X connect 54 0 44 1;
#X connect 55 0 44 1;
#X connect 56 0 16 0;
