#N canvas 0 25 1440 847 12;
#X declare -path ../lib;
#X declare -path ../samples;
#X msg 16 50 60000;
#X obj 75 116 /;
#X obj 76 163 s 4th-time;
#X obj 76 214 r 4th-time;
#X obj 186 27 tgl 15 0 empty empty empty 17 7 0 10 #fcfcfc #000000 #000000 0 1;
#X obj 186 48 s ON;
#X obj 26 215 r ON;
#X obj 26 242 tgl 15 0 empty empty empty 17 7 0 10 #fcfcfc #000000 #000000 0 1;
#X obj 26 265 metro;
#X obj 343 32 r 4th-time;
#X obj 298 51 r ON;
#X obj 298 78 tgl 15 0 empty empty empty 17 7 0 10 #fcfcfc #000000 #000000 0 1;
#X obj 298 101 metro;
#X obj 298 128 bng 15 250 50 0 empty empty empty 17 7 0 10 #fcfcfc #000000 #000000;
#X obj 343 56 / 4;
#X obj 298 148 f;
#X obj 348 148 + 1;
#X floatatom 298 172 5 0 0 0 - - - 0;
#X obj 298 195 % 16;
#X obj 298 220 select 0 1 2 3 4 5 6 7 8 9 10 11 12 13 14 15;
#X obj 298 278 s 1/16;
#X obj 349 278 s 2/16;
#X obj 401 278 s 3/16;
#X obj 453 278 s 4/16;
#X obj 506 279 s 5/16;
#X obj 557 279 s 6/16;
#X obj 609 279 s 7/16;
#X obj 661 279 s 8/16;
#X obj 715 280 s 9/16;
#X obj 766 280 s 10/16;
#X obj 827 280 s 11/16;
#X obj 885 280 s 12/16;
#X obj 945 280 s 13/16;
#X obj 1005 280 s 14/16;
#X obj 1065 280 s 15/16;
#X obj 1125 281 s 16/16;
#X obj 28 384 r 1/16;
#X obj 26 289 s 4-measures;
#X obj 28 414 bng 15 250 50 0 empty empty empty 17 7 0 10 #fcfcfc #000000 #000000;
#X floatatom 76 139 5 0 0 0 - - - 0;
#X msg 28 460 2;
#X obj 258 382 r 4-measures;
#X obj 258 409 bng 15 250 50 0 empty empty empty 17 7 0 10 #fcfcfc #000000 #000000;
#X obj 258 430 random 5;
#X obj 203 413 bng 15 250 50 0 empty empty empty 17 7 0 10 #fcfcfc #000000 #000000;
#X msg 203 459 1;
#X msg 258 454 set \$1;
#X obj 203 383 r 2/16;
#X obj 420 381 r 4-measures;
#X obj 420 408 bng 15 250 50 0 empty empty empty 17 7 0 10 #fcfcfc #000000 #000000;
#X obj 420 429 random 5;
#X obj 365 412 bng 15 250 50 0 empty empty empty 17 7 0 10 #fcfcfc #000000 #000000;
#X msg 365 458 2;
#X msg 420 453 set \$1;
#X obj 365 382 r 3/16;
#X obj 718 742 drum-selector;
#X obj 718 717 r drumnote;
#X obj 28 484 s drumnote;
#X obj 203 483 s drumnote;
#X obj 365 486 s drumnote;
#X obj 530 413 bng 15 250 50 0 empty empty empty 17 7 0 10 #fcfcfc #000000 #000000;
#X msg 530 459 4;
#X obj 530 487 s drumnote;
#X obj 530 383 r 4/16;
#X obj 695 411 bng 15 250 50 0 empty empty empty 17 7 0 10 #fcfcfc #000000 #000000;
#X msg 695 457 4;
#X obj 695 485 s drumnote;
#X obj 695 380 r 5/16;
#X obj 918 382 r 4-measures;
#X obj 918 409 bng 15 250 50 0 empty empty empty 17 7 0 10 #fcfcfc #000000 #000000;
#X obj 918 430 random 5;
#X obj 863 413 bng 15 250 50 0 empty empty empty 17 7 0 10 #fcfcfc #000000 #000000;
#X msg 863 459 0;
#X msg 918 454 set \$1;
#X obj 863 487 s drumnote;
#X obj 863 382 r 6/16;
#X obj 1086 381 r 4-measures;
#X obj 1086 408 bng 15 250 50 0 empty empty empty 17 7 0 10 #fcfcfc #000000 #000000;
#X obj 1086 429 random 5;
#X obj 1031 412 bng 15 250 50 0 empty empty empty 17 7 0 10 #fcfcfc #000000 #000000;
#X msg 1031 458 4;
#X msg 1086 453 set \$1;
#X obj 1031 486 s drumnote;
#X obj 1031 381 r 7/16;
#X obj 1257 383 r 4-measures;
#X obj 1257 410 bng 15 250 50 0 empty empty empty 17 7 0 10 #fcfcfc #000000 #000000;
#X obj 1257 431 random 5;
#X obj 1202 414 bng 15 250 50 0 empty empty empty 17 7 0 10 #fcfcfc #000000 #000000;
#X msg 1202 460 2;
#X msg 1257 455 set \$1;
#X obj 1202 488 s drumnote;
#X obj 1202 383 r 8/16;
#X obj 29 575 bng 15 250 50 0 empty empty empty 17 7 0 10 #fcfcfc #000000 #000000;
#X msg 29 621 2;
#X obj 259 543 r 4-measures;
#X obj 259 570 bng 15 250 50 0 empty empty empty 17 7 0 10 #fcfcfc #000000 #000000;
#X obj 259 591 random 5;
#X obj 204 574 bng 15 250 50 0 empty empty empty 17 7 0 10 #fcfcfc #000000 #000000;
#X msg 204 620 4;
#X msg 259 615 set \$1;
#X obj 421 542 r 4-measures;
#X obj 421 569 bng 15 250 50 0 empty empty empty 17 7 0 10 #fcfcfc #000000 #000000;
#X obj 421 590 random 5;
#X obj 366 573 bng 15 250 50 0 empty empty empty 17 7 0 10 #fcfcfc #000000 #000000;
#X msg 366 619 4;
#X msg 421 614 set \$1;
#X obj 29 645 s drumnote;
#X obj 204 644 s drumnote;
#X obj 366 647 s drumnote;
#X obj 586 543 r 4-measures;
#X obj 586 570 bng 15 250 50 0 empty empty empty 17 7 0 10 #fcfcfc #000000 #000000;
#X obj 586 591 random 5;
#X obj 531 574 bng 15 250 50 0 empty empty empty 17 7 0 10 #fcfcfc #000000 #000000;
#X msg 531 620 2;
#X msg 586 615 set \$1;
#X obj 531 648 s drumnote;
#X obj 751 541 r 4-measures;
#X obj 751 568 bng 15 250 50 0 empty empty empty 17 7 0 10 #fcfcfc #000000 #000000;
#X obj 751 589 random 5;
#X obj 696 572 bng 15 250 50 0 empty empty empty 17 7 0 10 #fcfcfc #000000 #000000;
#X msg 696 618 0;
#X msg 751 613 set \$1;
#X obj 696 646 s drumnote;
#X obj 919 543 r 4-measures;
#X obj 919 570 bng 15 250 50 0 empty empty empty 17 7 0 10 #fcfcfc #000000 #000000;
#X obj 919 591 random 5;
#X obj 864 574 bng 15 250 50 0 empty empty empty 17 7 0 10 #fcfcfc #000000 #000000;
#X msg 864 620 4;
#X msg 919 615 set \$1;
#X obj 864 648 s drumnote;
#X obj 1087 542 r 4-measures;
#X obj 1087 569 bng 15 250 50 0 empty empty empty 17 7 0 10 #fcfcfc #000000 #000000;
#X obj 1087 590 random 5;
#X obj 1032 573 bng 15 250 50 0 empty empty empty 17 7 0 10 #fcfcfc #000000 #000000;
#X msg 1032 619 3;
#X msg 1087 614 set \$1;
#X obj 1032 647 s drumnote;
#X obj 1258 544 r 4-measures;
#X obj 1258 571 bng 15 250 50 0 empty empty empty 17 7 0 10 #fcfcfc #000000 #000000;
#X obj 1258 592 random 5;
#X obj 1203 575 bng 15 250 50 0 empty empty empty 17 7 0 10 #fcfcfc #000000 #000000;
#X msg 1203 621 1;
#X msg 1258 616 set \$1;
#X obj 1203 649 s drumnote;
#X obj 29 545 r 9/16;
#X obj 204 544 r 10/16;
#X obj 366 543 r 11/16;
#X obj 531 544 r 12/16;
#X obj 696 541 r 13/16;
#X obj 864 543 r 14/16;
#X obj 1032 542 r 15/16;
#X obj 1203 544 r 16/16;
#X msg 83 455 set 2;
#X obj 83 425 loadbang;
#X msg 84 616 set 2;
#X obj 84 586 loadbang;
#X obj 75 238 * 32;
#X obj 718 769 *~ 0.25;
#X msg 93 73 140;
#X obj 93 11 bng 15 250 50 0 empty empty empty 17 7 0 10 #fcfcfc #000000 #000000;
#X obj 718 793 dac~ 1 2;
#X msg 93 49 set 140;
#X obj 589 373 r 4-measures;
#X obj 589 400 bng 15 250 50 0 empty empty empty 17 7 0 10 #fcfcfc #000000 #000000;
#X obj 589 424 random 5;
#X msg 585 454 set \$1;
#X msg 750 452 set 4;
#X obj 750 419 loadbang;
#X obj 565 16 declare -path ../lib;
#X obj 564 41 declare -path ../samples;
#X connect 0 0 1 0;
#X connect 1 0 39 0;
#X connect 3 0 156 0;
#X connect 4 0 5 0;
#X connect 6 0 7 0;
#X connect 7 0 8 0;
#X connect 8 0 37 0;
#X connect 9 0 14 0;
#X connect 10 0 11 0;
#X connect 11 0 12 0;
#X connect 12 0 13 0;
#X connect 13 0 15 0;
#X connect 14 0 12 1;
#X connect 15 0 16 0;
#X connect 15 0 17 0;
#X connect 16 0 15 1;
#X connect 17 0 18 0;
#X connect 18 0 19 0;
#X connect 19 0 20 0;
#X connect 19 1 21 0;
#X connect 19 2 22 0;
#X connect 19 3 23 0;
#X connect 19 4 24 0;
#X connect 19 5 25 0;
#X connect 19 6 26 0;
#X connect 19 7 27 0;
#X connect 19 8 28 0;
#X connect 19 9 29 0;
#X connect 19 10 30 0;
#X connect 19 11 31 0;
#X connect 19 12 32 0;
#X connect 19 13 33 0;
#X connect 19 14 34 0;
#X connect 19 15 35 0;
#X connect 36 0 38 0;
#X connect 38 0 40 0;
#X connect 39 0 2 0;
#X connect 40 0 57 0;
#X connect 41 0 42 0;
#X connect 42 0 43 0;
#X connect 43 0 46 0;
#X connect 44 0 45 0;
#X connect 45 0 58 0;
#X connect 46 0 45 0;
#X connect 47 0 44 0;
#X connect 48 0 49 0;
#X connect 49 0 50 0;
#X connect 50 0 53 0;
#X connect 51 0 52 0;
#X connect 52 0 59 0;
#X connect 53 0 52 0;
#X connect 54 0 51 0;
#X connect 55 0 157 0;
#X connect 56 0 55 0;
#X connect 60 0 61 0;
#X connect 61 0 62 0;
#X connect 63 0 60 0;
#X connect 64 0 65 0;
#X connect 65 0 66 0;
#X connect 67 0 64 0;
#X connect 68 0 69 0;
#X connect 69 0 70 0;
#X connect 70 0 73 0;
#X connect 71 0 72 0;
#X connect 72 0 74 0;
#X connect 73 0 72 0;
#X connect 75 0 71 0;
#X connect 76 0 77 0;
#X connect 77 0 78 0;
#X connect 78 0 81 0;
#X connect 79 0 80 0;
#X connect 80 0 82 0;
#X connect 81 0 80 0;
#X connect 83 0 79 0;
#X connect 84 0 85 0;
#X connect 85 0 86 0;
#X connect 86 0 89 0;
#X connect 87 0 88 0;
#X connect 88 0 90 0;
#X connect 89 0 88 0;
#X connect 91 0 87 0;
#X connect 92 0 93 0;
#X connect 93 0 106 0;
#X connect 94 0 95 0;
#X connect 95 0 96 0;
#X connect 96 0 99 0;
#X connect 97 0 98 0;
#X connect 98 0 107 0;
#X connect 99 0 98 0;
#X connect 100 0 101 0;
#X connect 101 0 102 0;
#X connect 102 0 105 0;
#X connect 103 0 104 0;
#X connect 104 0 108 0;
#X connect 105 0 104 0;
#X connect 109 0 110 0;
#X connect 110 0 111 0;
#X connect 111 0 114 0;
#X connect 112 0 113 0;
#X connect 113 0 115 0;
#X connect 114 0 113 0;
#X connect 116 0 117 0;
#X connect 117 0 118 0;
#X connect 118 0 121 0;
#X connect 119 0 120 0;
#X connect 120 0 122 0;
#X connect 121 0 120 0;
#X connect 123 0 124 0;
#X connect 124 0 125 0;
#X connect 125 0 128 0;
#X connect 126 0 127 0;
#X connect 127 0 129 0;
#X connect 128 0 127 0;
#X connect 130 0 131 0;
#X connect 131 0 132 0;
#X connect 132 0 135 0;
#X connect 133 0 134 0;
#X connect 134 0 136 0;
#X connect 135 0 134 0;
#X connect 137 0 138 0;
#X connect 138 0 139 0;
#X connect 139 0 142 0;
#X connect 140 0 141 0;
#X connect 141 0 143 0;
#X connect 142 0 141 0;
#X connect 144 0 92 0;
#X connect 145 0 97 0;
#X connect 146 0 103 0;
#X connect 147 0 112 0;
#X connect 148 0 119 0;
#X connect 149 0 126 0;
#X connect 150 0 133 0;
#X connect 151 0 140 0;
#X connect 152 0 40 0;
#X connect 153 0 152 0;
#X connect 154 0 93 0;
#X connect 155 0 154 0;
#X connect 156 0 8 1;
#X connect 157 0 160 0;
#X connect 157 0 160 1;
#X connect 158 0 1 1;
#X connect 159 0 161 0;
#X connect 159 0 0 0;
#X connect 161 0 158 0;
#X connect 162 0 163 0;
#X connect 163 0 164 0;
#X connect 164 0 165 0;
#X connect 165 0 61 0;
#X connect 166 0 65 0;
#X connect 167 0 166 0;
