#N canvas 771 137 526 555 12;
#X obj 48 518 dac~;
#X obj 48 491 clip~ -1 1;
#X obj 77 397 s~ out;
#X obj 47 423 r~ out;
#X obj 48 465 *~ 0.1;
#N canvas 0 22 450 278 (subpatch) 0;
#X array points 1000 float 2;
#X coords 0 1 1000 -1 200 140 1;
#X restore 309 19 graph;
#X floatatom 77 193 5 0 9 0 - - - 0;
#X obj 77 144 counter;
#X obj 77 10 tgl 19 0 empty empty empty 0 -10 0 12 #fcfcfc #000000 #000000 0 1;
#X obj 77 270 tabread points;
#X floatatom 77 294 5 0 0 0 - - - 0;
#X obj 77 319 pack;
#X msg 77 345 \$1 \$2;
#X obj 77 369 vline~;
#X obj 234 526 tabwrite points;
#X obj 77 60 bng 19 250 50 0 empty empty empty 0 -10 0 12 #fcfcfc #000000 #000000;
#X obj 77 84 s refresh;
#X obj 77 118 r refresh;
#X obj 77 221 s i;
#X obj 77 246 r i;
#X obj 336 502 r i;
#X obj 280 195 r refresh;
#X obj 77 36 metro 1;
#X floatatom 280 303 5 0 0 0 - - - 0;
#X obj 234 352 tabread points;
#X obj 234 304 r i;
#X obj 234 328 - 1;
#X floatatom 234 376 5 0 0 0 - - - 0;
#X floatatom 234 438 5 0 0 0 - - - 0;
#X obj 280 279 / 100;
#X obj 280 253 random 50;
#X obj 159 425 snapshot~;
#X obj 155 344 r refresh;
#X obj 234 496 +;
#X obj 167 205 +;
#X floatatom 167 229 5 0 0 0 - - - 0;
#X obj 163 14 r refresh;
#X obj 163 38 counter;
#X obj 163 86 sel 0;
#X obj 163 62 mod 1000;
#X obj 167 135 random 990;
#X obj 119 463 rev1~;
#X msg 127 436 99.5;
#X obj 159 401 osc~ 10;
#X obj 234 414 expr if($f1 + $f2 >= 1 \, $f1 - $f2 \, $f1 + $f2);
#X obj 234 465 expr if($f1 - $f2 <= -1 \, $f1 + $f2 \, $f1 - $f2);
#X obj 77 168 mod 200;
#X connect 1 0 0 0;
#X connect 1 0 0 1;
#X connect 3 0 41 0;
#X connect 4 0 1 0;
#X connect 6 0 34 0;
#X connect 7 0 46 0;
#X connect 8 0 22 0;
#X connect 9 0 10 0;
#X connect 10 0 11 0;
#X connect 11 0 12 0;
#X connect 12 0 13 0;
#X connect 13 0 2 0;
#X connect 15 0 16 0;
#X connect 17 0 7 0;
#X connect 19 0 9 0;
#X connect 20 0 14 1;
#X connect 21 0 30 0;
#X connect 22 0 15 0;
#X connect 23 0 44 1;
#X connect 23 0 45 1;
#X connect 24 0 27 0;
#X connect 25 0 26 0;
#X connect 26 0 24 0;
#X connect 27 0 44 0;
#X connect 28 0 45 0;
#X connect 29 0 23 0;
#X connect 30 0 29 0;
#X connect 31 0 33 1;
#X connect 32 0 31 0;
#X connect 33 0 14 0;
#X connect 34 0 35 0;
#X connect 35 0 18 0;
#X connect 36 0 37 0;
#X connect 37 0 39 0;
#X connect 38 0 40 0;
#X connect 39 0 38 0;
#X connect 40 0 34 1;
#X connect 41 0 4 0;
#X connect 42 0 41 1;
#X connect 43 0 31 0;
#X connect 44 0 28 0;
#X connect 45 0 33 0;
#X connect 46 0 6 0;
