#N canvas 0 38 1512 916 12;
#X declare -path ../lib;
#X declare -path ../samples;
#X obj 15 11 loadbang;
#X obj 15 37 bng 15 250 50 0 empty empty empty 17 7 0 10 #fcfcfc #000000 #000000;
#X obj 15 160 tgl 15 0 empty empty empty 17 7 0 10 #fcfcfc #000000 #000000 0 1;
#X obj 15 132 t b b;
#X obj 15 185 metro;
#X obj 69 185 s bpms;
#X obj 15 211 bng 15 250 50 0 empty empty empty 17 7 0 10 #fcfcfc #000000 #000000;
#X obj 15 233 s beat;
#X obj 175 11 declare -path ../lib;
#X obj 175 36 declare -path ../samples;
#X obj 16 390 clip~ -1 1;
#X obj 16 414 dac~;
#X obj 16 366 *~ 1;
#X obj 16 342 catch~ out;
#X obj 15 59 s bang-all;
#X obj 15 107 r bang-all;
#X obj 349 126 catch~ drums;
#X obj 349 153 *~ 0.5;
#X obj 349 190 throw~ out;
#X msg 47 158 100;
#X obj 179 194 throw~ out;
#X obj 179 126 catch~ acid;
#X obj 179 151 *~ 0.1;
#N canvas 211 386 1167 300 drums 1;
#X obj 16 111 eseq;
#X obj 16 34 r beat;
#X obj 16 135 bng 19 250 50 0 empty empty empty 0 -10 0 12 #fcfcfc #000000 #000000;
#X obj 16 135 bng 19 250 50 0 empty empty empty 0 -10 0 12 #fcfcfc #000000 #000000;
#X obj 41 135 bng 19 250 50 0 empty empty empty 0 -10 0 12 #fcfcfc #000000 #000000;
#X msg 41 86 1 4 0;
#X obj 41 61 r bang-all;
#X obj 16 163 kick~;
#X obj 16 188 throw~ drums;
#X obj 132 115 eseq;
#X obj 132 38 r beat;
#X obj 132 139 bng 19 250 50 0 empty empty empty 0 -10 0 12 #fcfcfc #000000 #000000;
#X obj 132 139 bng 19 250 50 0 empty empty empty 0 -10 0 12 #fcfcfc #000000 #000000;
#X obj 157 139 bng 19 250 50 0 empty empty empty 0 -10 0 12 #fcfcfc #000000 #000000;
#X obj 157 65 r bang-all;
#X obj 132 164 kick~;
#X obj 132 189 throw~ drums;
#X msg 157 90 1 9 4;
#X obj 316 115 eseq;
#X obj 316 38 r beat;
#X obj 316 139 bng 19 250 50 0 empty empty empty 0 -10 0 12 #fcfcfc #000000 #000000;
#X obj 316 139 bng 19 250 50 0 empty empty empty 0 -10 0 12 #fcfcfc #000000 #000000;
#X obj 341 139 bng 19 250 50 0 empty empty empty 0 -10 0 12 #fcfcfc #000000 #000000;
#X obj 341 65 r bang-all;
#X obj 316 226 throw~ drums;
#X obj 316 171 snare~;
#X obj 316 195 *~ 0.25;
#X msg 341 90 1 8 4;
#X obj 455 115 eseq;
#X obj 455 38 r beat;
#X obj 455 139 bng 19 250 50 0 empty empty empty 0 -10 0 12 #fcfcfc #000000 #000000;
#X obj 455 139 bng 19 250 50 0 empty empty empty 0 -10 0 12 #fcfcfc #000000 #000000;
#X obj 480 139 bng 19 250 50 0 empty empty empty 0 -10 0 12 #fcfcfc #000000 #000000;
#X obj 480 65 r bang-all;
#X obj 455 226 throw~ drums;
#X obj 455 171 snare~;
#X msg 480 90 3 18 0;
#X obj 641 116 eseq;
#X obj 641 39 r beat;
#X obj 641 140 bng 19 250 50 0 empty empty empty 0 -10 0 12 #fcfcfc #000000 #000000;
#X obj 641 140 bng 19 250 50 0 empty empty empty 0 -10 0 12 #fcfcfc #000000 #000000;
#X obj 666 140 bng 19 250 50 0 empty empty empty 0 -10 0 12 #fcfcfc #000000 #000000;
#X obj 666 66 r bang-all;
#X obj 641 224 throw~ drums;
#X obj 641 172 hat~;
#X obj 782 117 eseq;
#X obj 782 40 r beat;
#X obj 782 141 bng 19 250 50 0 empty empty empty 0 -10 0 12 #fcfcfc #000000 #000000;
#X obj 782 141 bng 19 250 50 0 empty empty empty 0 -10 0 12 #fcfcfc #000000 #000000;
#X obj 807 141 bng 19 250 50 0 empty empty empty 0 -10 0 12 #fcfcfc #000000 #000000;
#X obj 807 67 r bang-all;
#X obj 782 228 throw~ drums;
#X obj 782 173 hat~;
#X msg 807 92 24 27 0;
#X obj 782 197 *~ 0.05;
#X msg 666 91 1 4 2;
#X obj 455 195 *~ 0.075;
#X obj 641 196 *~ 0.75;
#X connect 0 0 2 0;
#X connect 0 0 3 0;
#X connect 0 1 4 0;
#X connect 1 0 0 0;
#X connect 2 0 7 0;
#X connect 5 0 0 1;
#X connect 6 0 5 0;
#X connect 7 0 8 0;
#X connect 9 0 11 0;
#X connect 9 0 12 0;
#X connect 9 1 13 0;
#X connect 10 0 9 0;
#X connect 11 0 15 0;
#X connect 14 0 17 0;
#X connect 15 0 16 0;
#X connect 17 0 9 1;
#X connect 18 0 20 0;
#X connect 18 0 21 0;
#X connect 18 1 22 0;
#X connect 19 0 18 0;
#X connect 20 0 25 0;
#X connect 23 0 27 0;
#X connect 25 0 26 0;
#X connect 26 0 24 0;
#X connect 27 0 18 1;
#X connect 28 0 30 0;
#X connect 28 0 31 0;
#X connect 28 1 32 0;
#X connect 29 0 28 0;
#X connect 30 0 35 0;
#X connect 33 0 36 0;
#X connect 35 0 56 0;
#X connect 36 0 28 1;
#X connect 37 0 39 0;
#X connect 37 0 40 0;
#X connect 37 1 41 0;
#X connect 38 0 37 0;
#X connect 39 0 44 0;
#X connect 42 0 55 0;
#X connect 44 0 57 0;
#X connect 45 0 47 0;
#X connect 45 0 48 0;
#X connect 45 1 49 0;
#X connect 46 0 45 0;
#X connect 47 0 52 0;
#X connect 49 0 35 0;
#X connect 50 0 53 0;
#X connect 52 0 54 0;
#X connect 53 0 45 1;
#X connect 54 0 51 0;
#X connect 55 0 37 1;
#X connect 56 0 34 0;
#X connect 57 0 43 0;
#X restore 349 99 pd drums;
#N canvas 0 39 1512 916 acid 0;
#X obj 229 521 *;
#X floatatom 229 545 5 0 0 0 - - - 0;
#X floatatom 308 599 5 0 0 0 - - - 0;
#X obj 187 674 acidfilter~, f 35;
#X obj 361 574 * 5;
#X floatatom 361 600 5 0 0 0 - - - 0;
#X obj 308 622 pack f f;
#X obj 118 -3 r beat;
#X obj 118 22 bng 19 250 50 0 empty empty empty 0 -10 0 12 #fcfcfc #000000 #000000;
#X obj 118 47 counter;
#X floatatom 118 95 5 0 0 0 - - - 0;
#X obj 247 475 ctof;
#X floatatom 247 451 5 0 0 0 - - - 0;
#X floatatom 247 499 5 0 0 0 - - - 0;
#X obj 307 750 vline~;
#X obj 193 765 *~;
#X msg 307 728 1 1 0 \, 0 250 5;
#X msg 308 647 5 55 \$1 \$2;
#X obj 118 71 % 8;
#X obj 255 180 t b b f b;
#X floatatom 296 356 5 0 0 0 - - - 0;
#X obj 429 348 osc~ 0.1;
#X obj 429 459 snapshot~;
#X obj 523 421 metro 1;
#X obj 523 398 tgl 19 0 empty empty empty 0 -10 0 12 #fcfcfc #000000 #000000 0 1;
#X floatatom 429 483 5 0 0 0 - - - 0;
#X floatatom 429 530 5 0 0 0 - - - 0;
#X floatatom 429 586 5 0 0 0 - - - 0;
#X obj 429 644 +;
#X obj 429 389 *~;
#X obj 495 349 phasor~ 0.3;
#X msg 230 387 110;
#X obj 429 506 + 0.5;
#X obj 523 375 r bang-all;
#N canvas 63 88 1070 496 acidsynth 0;
#X obj 225 283 saw~;
#X obj 264 283 saw~;
#X obj 264 445 outlet~;
#X obj 97 13 inlet;
#X floatatom 97 37 5 0 0 0 - - - 0;
#X obj 97 60 s \$0-freq;
#X obj 248 226 r \$0-freq;
#X obj 183 280 saw~;
#X obj 201 254 * 2;
#X obj 264 258 * 0.5;
#X connect 0 0 2 0;
#X connect 1 0 2 0;
#X connect 3 0 4 0;
#X connect 4 0 5 0;
#X connect 6 0 0 0;
#X connect 6 0 8 0;
#X connect 6 0 9 0;
#X connect 7 0 2 0;
#X connect 8 0 7 0;
#X connect 9 0 1 0;
#X restore 128 595 pd acidsynth;
#X obj 123 302 s \$0-env;
#X obj 307 705 r \$0-env;
#X obj 193 820 throw~ acid;
#X msg 524 581 3;
#X obj 1301 631 *~;
#X obj 1301 802 throw~ acid;
#X obj 1301 706 rev1~;
#X obj 1346 504 eseq;
#X obj 1346 427 r beat;
#X obj 1346 528 bng 19 250 50 0 empty empty empty 0 -10 0 12 #fcfcfc #000000 #000000;
#X obj 1346 528 bng 19 250 50 0 empty empty empty 0 -10 0 12 #fcfcfc #000000 #000000;
#X obj 1371 528 bng 19 250 50 0 empty empty empty 0 -10 0 12 #fcfcfc #000000 #000000;
#X obj 1371 454 r bang-all;
#X msg 1319 596 1;
#X obj 1317 656 r bang-all;
#X obj 1371 552 bern 3;
#X obj 412 818 delwrite~ abuf 1000;
#X obj 1299 387 delread~ abuf 1000;
#X msg 1317 681 5;
#X msg 1363 596 0.25;
#X msg 1371 479 14 37 0;
#X obj 1301 746 *~ 0.15;
#X obj 193 789 *~ 0.75;
#X obj 247 427 * 171.429;
#X obj 308 574 * 15;
#X obj 429 562 * 6;
#X obj 118 118 s seq-counter;
#X obj 555 91 r seq-counter;
#X obj 555 169 s acidnote;
#X obj 255 145 r acidnote;
#X obj 488 672 r beat;
#X obj 487 701 bern 8;
#X floatatom 555 142 5 0 0 0 - - - 0;
#N canvas 530 220 664 300 sequ0 0;
#X obj 40 101 sel 0 1 2 3 4 5 6 7, f 76;
#X obj 40 76 inlet;
#X obj 156 244 outlet;
#X msg 106 159 9;
#X obj 106 135 bern 8;
#X obj 167 130 bern 8;
#X obj 167 154 random 14;
#X obj 246 132 bern 2;
#X obj 246 156 random 3;
#X obj 246 180 - 3;
#X obj 379 126 bern 8;
#X obj 447 136 bern 2;
#X msg 448 160 3;
#X msg 41 153 3;
#X obj 167 178 - 6;
#X msg 339 150 0;
#X msg 380 150 6;
#X msg 509 158 -3;
#X connect 0 0 13 0;
#X connect 0 1 4 0;
#X connect 0 2 5 0;
#X connect 0 3 7 0;
#X connect 0 4 15 0;
#X connect 0 5 10 0;
#X connect 0 6 11 0;
#X connect 0 7 17 0;
#X connect 1 0 0 0;
#X connect 3 0 2 0;
#X connect 4 0 3 0;
#X connect 5 0 6 0;
#X connect 6 0 14 0;
#X connect 7 0 8 0;
#X connect 8 0 9 0;
#X connect 9 0 2 0;
#X connect 10 0 16 0;
#X connect 11 0 12 0;
#X connect 12 0 2 0;
#X connect 13 0 2 0;
#X connect 14 0 2 0;
#X connect 15 0 2 0;
#X connect 16 0 2 0;
#X connect 17 0 2 0;
#X restore 555 116 pd sequ0;
#X msg 487 733 0 1;
#X obj 296 332 +;
#X obj 314 309 - 1;
#X obj 314 285 r offset;
#X connect 0 0 1 0;
#X connect 1 0 4 0;
#X connect 1 0 34 0;
#X connect 1 0 59 0;
#X connect 2 0 6 0;
#X connect 3 0 15 0;
#X connect 4 0 5 0;
#X connect 5 0 6 1;
#X connect 6 0 17 0;
#X connect 7 0 8 0;
#X connect 8 0 9 0;
#X connect 9 0 18 0;
#X connect 10 0 61 0;
#X connect 11 0 13 0;
#X connect 12 0 11 0;
#X connect 13 0 0 1;
#X connect 14 0 15 1;
#X connect 15 0 57 0;
#X connect 15 0 51 0;
#X connect 16 0 14 0;
#X connect 17 0 3 1;
#X connect 18 0 10 0;
#X connect 19 0 35 0;
#X connect 19 1 31 0;
#X connect 19 2 70 0;
#X connect 20 0 58 0;
#X connect 21 0 29 0;
#X connect 22 0 25 0;
#X connect 23 0 22 0;
#X connect 23 0 38 0;
#X connect 24 0 23 0;
#X connect 25 0 32 0;
#X connect 26 0 60 0;
#X connect 27 0 28 0;
#X connect 28 0 3 2;
#X connect 29 0 22 0;
#X connect 30 0 29 1;
#X connect 31 0 0 0;
#X connect 32 0 26 0;
#X connect 33 0 24 0;
#X connect 34 0 3 0;
#X connect 36 0 16 0;
#X connect 38 0 28 1;
#X connect 39 0 41 0;
#X connect 41 0 56 0;
#X connect 42 0 44 0;
#X connect 42 0 45 0;
#X connect 42 1 46 0;
#X connect 43 0 42 0;
#X connect 44 0 48 0;
#X connect 46 0 50 0;
#X connect 47 0 55 0;
#X connect 48 0 39 1;
#X connect 49 0 53 0;
#X connect 50 0 54 0;
#X connect 52 0 39 0;
#X connect 53 0 41 1;
#X connect 54 0 39 1;
#X connect 55 0 42 1;
#X connect 56 0 40 0;
#X connect 57 0 37 0;
#X connect 58 0 12 0;
#X connect 59 0 2 0;
#X connect 60 0 27 0;
#X connect 62 0 68 0;
#X connect 64 0 19 0;
#X connect 65 0 66 0;
#X connect 66 0 69 0;
#X connect 67 0 63 0;
#X connect 68 0 67 0;
#X connect 69 0 14 0;
#X connect 70 0 20 0;
#X connect 71 0 70 1;
#X connect 72 0 71 0;
#X restore 179 99 pd acid;
#X msg 573 358 220;
#X obj 677 480 vline~;
#X obj 574 547 *~;
#X obj 574 693 throw~ out;
#X obj 653 281 ctof;
#X floatatom 653 257 5 0 0 0 - - - 0;
#X floatatom 653 305 5 0 0 0 - - - 0;
#X obj 653 233 * 171.429;
#X msg 653 201 3;
#X msg 614 280 220;
#X obj 627 345 *;
#X floatatom 627 369 5 0 0 0 - - - 0;
#X obj 774 279 ctof;
#X floatatom 774 255 5 0 0 0 - - - 0;
#X floatatom 774 303 5 0 0 0 - - - 0;
#X obj 774 231 * 171.429;
#X msg 735 278 220;
#X obj 748 343 *;
#X floatatom 748 367 5 0 0 0 - - - 0;
#X msg 774 199 6;
#X obj 690 564 rev1~;
#X msg 950 202 220;
#X obj 1054 324 vline~;
#X obj 951 391 *~;
#X obj 951 511 throw~ out;
#X obj 1030 125 ctof;
#X floatatom 1030 101 5 0 0 0 - - - 0;
#X floatatom 1030 149 5 0 0 0 - - - 0;
#X obj 1030 77 * 171.429;
#X msg 991 124 220;
#X obj 1004 189 *;
#X floatatom 1004 213 5 0 0 0 - - - 0;
#X obj 1151 123 ctof;
#X floatatom 1151 99 5 0 0 0 - - - 0;
#X floatatom 1151 147 5 0 0 0 - - - 0;
#X obj 1151 75 * 171.429;
#X msg 1112 122 220;
#X obj 1125 187 *;
#X floatatom 1125 211 5 0 0 0 - - - 0;
#X obj 1145 412 rev1~;
#X msg 1030 45 -1;
#X msg 1151 43 -4;
#X obj 882 594 eseq;
#X obj 881 558 r beat;
#X obj 990 573 r bang-all;
#X obj 882 623 bng 19 250 50 0 empty empty empty 0 -10 0 12 #fcfcfc #000000 #000000;
#X obj 1187 542 eseq;
#X obj 1186 506 r beat;
#X obj 1295 521 r bang-all;
#X obj 1187 571 bng 19 250 50 0 empty empty empty 0 -10 0 12 #fcfcfc #000000 #000000;
#X msg 990 597 1 256 0;
#X obj 612 137 bng 19 250 50 0 empty empty empty 0 -10 0 12 #fcfcfc #000000 #000000;
#X obj 637 170 t b b;
#X obj 739 171 t b b;
#X obj 611 111 r bang-all;
#X obj 334 358 osc~ 0.1;
#X obj 334 469 snapshot~;
#X obj 428 431 metro 1;
#X obj 428 408 tgl 19 0 empty empty empty 0 -10 0 12 #fcfcfc #000000 #000000 0 1;
#X floatatom 334 493 5 0 0 0 - - - 0;
#X floatatom 334 540 5 0 0 0 - - - 0;
#X floatatom 334 596 5 0 0 0 - - - 0;
#X obj 334 399 *~;
#X obj 428 385 r bang-all;
#X obj 334 516 + 1;
#X obj 334 572 * 1000;
#X obj 574 578 lop~;
#X msg 1295 545 1 256 128;
#X obj 400 359 phasor~ 0.1;
#X obj 839 59 bng 19 250 50 0 empty empty empty 0 -10 0 12 #fcfcfc #000000 #000000;
#X obj 838 33 r bang-all;
#X obj 828 103 t b b;
#X obj 930 104 t b b;
#X obj 1250 619 osc~ 0.1;
#X obj 1250 730 snapshot~;
#X obj 1344 692 metro 1;
#X obj 1344 669 tgl 19 0 empty empty empty 0 -10 0 12 #fcfcfc #000000 #000000 0 1;
#X floatatom 1250 754 5 0 0 0 - - - 0;
#X floatatom 1250 801 5 0 0 0 - - - 0;
#X floatatom 1250 857 5 0 0 0 - - - 0;
#X obj 1250 660 *~;
#X obj 1344 646 r bang-all;
#X obj 1250 777 + 1;
#X obj 1316 620 phasor~ 0.1;
#X obj 1250 833 * 750;
#X obj 951 422 lop~;
#X obj 690 588 *~ 0.5;
#X obj 1145 436 *~ 0.5;
#X msg 1168 385 99;
#X msg 712 537 99;
#X obj 773 507 r bang-all;
#X obj 1169 353 r bang-all;
#X msg 677 456 0.5 2000 0 \, 0 4000 4000;
#X msg 1054 300 0.5 2000 0 \, 0 4000 4000;
#X obj 628 396 sinabs~;
#X obj 1005 240 sinabs~;
#X obj 690 395 square~;
#X obj 1067 239 square~;
#X obj 569 397 tri~;
#X obj 946 240 tri~;
#X obj 951 453 *~ 0.075;
#X floatatom 161 332 5 0 0 0 - - - 0;
#X obj 161 308 random 3;
#X obj 161 253 r beat;
#X obj 161 355 s offset;
#X obj 161 279 bern 128;
#X obj 574 609 *~ 0.05;
#X text 296 270 TODO chords change in response to offset;
#X connect 0 0 1 0;
#X connect 1 0 14 0;
#X connect 2 0 4 0;
#X connect 3 0 2 0;
#X connect 3 1 19 0;
#X connect 4 0 6 0;
#X connect 6 0 7 0;
#X connect 10 0 11 0;
#X connect 10 0 11 1;
#X connect 12 0 10 0;
#X connect 13 0 12 0;
#X connect 15 0 3 0;
#X connect 16 0 17 0;
#X connect 17 0 18 0;
#X connect 19 0 4 1;
#X connect 19 0 5 0;
#X connect 21 0 22 0;
#X connect 22 0 20 0;
#X connect 25 0 123 0;
#X connect 26 0 27 1;
#X connect 27 0 91 0;
#X connect 29 0 31 0;
#X connect 30 0 29 0;
#X connect 31 0 35 1;
#X connect 32 0 30 0;
#X connect 33 0 32 0;
#X connect 34 0 35 0;
#X connect 35 0 36 0;
#X connect 36 0 119 0;
#X connect 37 0 39 0;
#X connect 38 0 37 0;
#X connect 39 0 42 1;
#X connect 40 0 38 0;
#X connect 41 0 42 0;
#X connect 42 0 43 0;
#X connect 43 0 121 0;
#X connect 44 0 40 0;
#X connect 45 0 111 0;
#X connect 46 0 124 0;
#X connect 47 0 48 1;
#X connect 48 0 110 0;
#X connect 50 0 52 0;
#X connect 51 0 50 0;
#X connect 52 0 55 1;
#X connect 53 0 51 0;
#X connect 54 0 55 0;
#X connect 55 0 56 0;
#X connect 56 0 120 0;
#X connect 57 0 59 0;
#X connect 58 0 57 0;
#X connect 59 0 62 1;
#X connect 60 0 58 0;
#X connect 61 0 62 0;
#X connect 62 0 63 0;
#X connect 63 0 122 0;
#X connect 64 0 112 0;
#X connect 65 0 53 0;
#X connect 66 0 60 0;
#X connect 67 0 70 0;
#X connect 68 0 67 0;
#X connect 69 0 75 0;
#X connect 70 0 117 0;
#X connect 71 0 74 0;
#X connect 72 0 71 0;
#X connect 73 0 92 0;
#X connect 74 0 118 0;
#X connect 75 0 67 1;
#X connect 76 0 25 0;
#X connect 76 0 77 0;
#X connect 76 0 78 0;
#X connect 77 0 34 0;
#X connect 77 1 33 0;
#X connect 78 0 41 0;
#X connect 78 1 44 0;
#X connect 79 0 76 0;
#X connect 80 0 87 0;
#X connect 81 0 84 0;
#X connect 82 0 81 0;
#X connect 83 0 82 0;
#X connect 84 0 89 0;
#X connect 85 0 90 0;
#X connect 86 0 91 1;
#X connect 87 0 81 0;
#X connect 88 0 83 0;
#X connect 89 0 85 0;
#X connect 90 0 86 0;
#X connect 91 0 45 0;
#X connect 91 0 131 0;
#X connect 92 0 71 1;
#X connect 93 0 87 1;
#X connect 94 0 97 0;
#X connect 94 0 96 0;
#X connect 94 0 46 0;
#X connect 95 0 94 0;
#X connect 96 0 54 0;
#X connect 96 1 65 0;
#X connect 97 0 61 0;
#X connect 97 1 66 0;
#X connect 98 0 105 0;
#X connect 99 0 102 0;
#X connect 100 0 99 0;
#X connect 101 0 100 0;
#X connect 102 0 107 0;
#X connect 103 0 109 0;
#X connect 104 0 110 1;
#X connect 105 0 99 0;
#X connect 106 0 101 0;
#X connect 107 0 103 0;
#X connect 108 0 105 1;
#X connect 109 0 104 0;
#X connect 110 0 64 0;
#X connect 110 0 125 0;
#X connect 111 0 131 0;
#X connect 112 0 125 0;
#X connect 113 0 64 1;
#X connect 114 0 45 1;
#X connect 115 0 114 0;
#X connect 116 0 113 0;
#X connect 117 0 26 0;
#X connect 118 0 47 0;
#X connect 119 0 27 0;
#X connect 120 0 48 0;
#X connect 121 0 27 0;
#X connect 122 0 48 0;
#X connect 123 0 27 0;
#X connect 124 0 48 0;
#X connect 125 0 49 0;
#X connect 126 0 129 0;
#X connect 127 0 126 0;
#X connect 128 0 130 0;
#X connect 130 0 127 0;
#X connect 131 0 28 0;
