#N canvas 0 38 1512 916 12;
#X declare -path ../lib;
#X declare -path ../samples;
#X obj 18 81 loadbang;
#X obj 18 107 bng 15 250 50 0 empty empty empty 17 7 0 10 #fcfcfc #000000 #000000;
#X obj 18 230 tgl 15 0 empty empty empty 17 7 0 10 #fcfcfc #000000 #000000 0 1;
#X obj 18 202 t b b;
#X obj 18 255 metro;
#X obj 72 255 s bpms;
#X obj 18 281 bng 15 250 50 0 empty empty empty 17 7 0 10 #fcfcfc #000000 #000000;
#X obj 18 303 s beat;
#X obj 18 24 declare -path ../lib;
#X obj 18 49 declare -path ../samples;
#X obj 19 405 clip~ -1 1;
#X obj 19 429 dac~;
#X obj 19 381 *~ 1;
#X obj 19 357 catch~ out;
#X obj 18 129 s bang-all;
#X obj 18 177 r bang-all;
#X obj 607 139 catch~ drums;
#X obj 607 162 *~ 0.5;
#X obj 607 189 throw~ out;
#X msg 50 228 100;
#X obj 721 189 throw~ out;
#X obj 721 138 catch~ acid;
#X obj 721 163 *~ 0.1;
#N canvas 211 386 1167 300 drums 0;
#X obj 16 111 eseq;
#X obj 16 34 r beat;
#X obj 16 135 bng 19 250 50 0 empty empty empty 0 -10 0 12 #fcfcfc #000000 #000000;
#X obj 16 135 bng 19 250 50 0 empty empty empty 0 -10 0 12 #fcfcfc #000000 #000000;
#X obj 41 135 bng 19 250 50 0 empty empty empty 0 -10 0 12 #fcfcfc #000000 #000000;
#X msg 41 86 1 4 0;
#X obj 41 61 r bang-all;
#X obj 16 163 kick~;
#X obj 16 188 throw~ drums;
#X obj 132 115 eseq;
#X obj 132 38 r beat;
#X obj 132 139 bng 19 250 50 0 empty empty empty 0 -10 0 12 #fcfcfc #000000 #000000;
#X obj 132 139 bng 19 250 50 0 empty empty empty 0 -10 0 12 #fcfcfc #000000 #000000;
#X obj 157 139 bng 19 250 50 0 empty empty empty 0 -10 0 12 #fcfcfc #000000 #000000;
#X obj 157 65 r bang-all;
#X obj 132 164 kick~;
#X obj 132 189 throw~ drums;
#X msg 157 90 1 9 4;
#X obj 316 115 eseq;
#X obj 316 38 r beat;
#X obj 316 139 bng 19 250 50 0 empty empty empty 0 -10 0 12 #fcfcfc #000000 #000000;
#X obj 316 139 bng 19 250 50 0 empty empty empty 0 -10 0 12 #fcfcfc #000000 #000000;
#X obj 341 139 bng 19 250 50 0 empty empty empty 0 -10 0 12 #fcfcfc #000000 #000000;
#X obj 341 65 r bang-all;
#X obj 316 226 throw~ drums;
#X obj 316 171 snare~;
#X obj 316 195 *~ 0.25;
#X msg 341 90 1 8 4;
#X obj 455 115 eseq;
#X obj 455 38 r beat;
#X obj 455 139 bng 19 250 50 0 empty empty empty 0 -10 0 12 #fcfcfc #000000 #000000;
#X obj 455 139 bng 19 250 50 0 empty empty empty 0 -10 0 12 #fcfcfc #000000 #000000;
#X obj 480 139 bng 19 250 50 0 empty empty empty 0 -10 0 12 #fcfcfc #000000 #000000;
#X obj 480 65 r bang-all;
#X obj 455 226 throw~ drums;
#X obj 455 171 snare~;
#X msg 480 90 3 18 0;
#X obj 641 116 eseq;
#X obj 641 39 r beat;
#X obj 641 140 bng 19 250 50 0 empty empty empty 0 -10 0 12 #fcfcfc #000000 #000000;
#X obj 641 140 bng 19 250 50 0 empty empty empty 0 -10 0 12 #fcfcfc #000000 #000000;
#X obj 666 140 bng 19 250 50 0 empty empty empty 0 -10 0 12 #fcfcfc #000000 #000000;
#X obj 666 66 r bang-all;
#X obj 641 224 throw~ drums;
#X obj 641 172 hat~;
#X obj 782 117 eseq;
#X obj 782 40 r beat;
#X obj 782 141 bng 19 250 50 0 empty empty empty 0 -10 0 12 #fcfcfc #000000 #000000;
#X obj 782 141 bng 19 250 50 0 empty empty empty 0 -10 0 12 #fcfcfc #000000 #000000;
#X obj 807 141 bng 19 250 50 0 empty empty empty 0 -10 0 12 #fcfcfc #000000 #000000;
#X obj 807 67 r bang-all;
#X obj 782 228 throw~ drums;
#X obj 782 173 hat~;
#X msg 807 92 24 27 0;
#X obj 782 197 *~ 0.05;
#X msg 666 91 1 4 2;
#X obj 455 195 *~ 0.075;
#X obj 641 196 *~ 0.75;
#X connect 0 0 2 0;
#X connect 0 0 3 0;
#X connect 0 1 4 0;
#X connect 1 0 0 0;
#X connect 2 0 7 0;
#X connect 5 0 0 1;
#X connect 6 0 5 0;
#X connect 7 0 8 0;
#X connect 9 0 11 0;
#X connect 9 0 12 0;
#X connect 9 1 13 0;
#X connect 10 0 9 0;
#X connect 11 0 15 0;
#X connect 14 0 17 0;
#X connect 15 0 16 0;
#X connect 17 0 9 1;
#X connect 18 0 20 0;
#X connect 18 0 21 0;
#X connect 18 1 22 0;
#X connect 19 0 18 0;
#X connect 20 0 25 0;
#X connect 23 0 27 0;
#X connect 25 0 26 0;
#X connect 26 0 24 0;
#X connect 27 0 18 1;
#X connect 28 0 30 0;
#X connect 28 0 31 0;
#X connect 28 1 32 0;
#X connect 29 0 28 0;
#X connect 30 0 35 0;
#X connect 33 0 36 0;
#X connect 35 0 56 0;
#X connect 36 0 28 1;
#X connect 37 0 39 0;
#X connect 37 0 40 0;
#X connect 37 1 41 0;
#X connect 38 0 37 0;
#X connect 39 0 44 0;
#X connect 42 0 55 0;
#X connect 44 0 57 0;
#X connect 45 0 47 0;
#X connect 45 0 48 0;
#X connect 45 1 49 0;
#X connect 46 0 45 0;
#X connect 47 0 52 0;
#X connect 49 0 35 0;
#X connect 50 0 53 0;
#X connect 52 0 54 0;
#X connect 53 0 45 1;
#X connect 54 0 51 0;
#X connect 55 0 37 1;
#X connect 56 0 34 0;
#X connect 57 0 43 0;
#X restore 607 113 pd drums;
#N canvas 0 38 1512 916 acid 0;
#X obj 229 521 *;
#X floatatom 229 545 5 0 0 0 - - - 0;
#X floatatom 308 599 5 0 0 0 - - - 0;
#X obj 187 674 acidfilter~, f 35;
#X floatatom 361 600 5 0 0 0 - - - 0;
#X obj 308 622 pack f f;
#X obj 118 -3 r beat;
#X obj 118 22 bng 19 250 50 0 empty empty empty 0 -10 0 12 #fcfcfc #000000 #000000;
#X obj 118 47 counter;
#X floatatom 118 95 5 0 0 0 - - - 0;
#X obj 247 475 ctof;
#X floatatom 247 451 5 0 0 0 - - - 0;
#X floatatom 247 499 5 0 0 0 - - - 0;
#X obj 307 750 vline~;
#X obj 193 765 *~;
#X msg 307 728 1 1 0 \, 0 250 5;
#X msg 308 647 5 55 \$1 \$2;
#X obj 118 71 % 8;
#X obj 255 180 t b b f b;
#X floatatom 296 356 5 0 0 0 - - - 0;
#X obj 429 348 osc~ 0.1;
#X obj 429 459 snapshot~;
#X obj 523 421 metro 1;
#X obj 523 398 tgl 19 0 empty empty empty 0 -10 0 12 #fcfcfc #000000 #000000 0 1;
#X floatatom 429 483 5 0 0 0 - - - 0;
#X floatatom 429 530 5 0 0 0 - - - 0;
#X floatatom 429 586 5 0 0 0 - - - 0;
#X obj 429 644 +;
#X obj 429 389 *~;
#X obj 495 349 phasor~ 0.3;
#X msg 230 387 110;
#X obj 429 506 + 0.5;
#X obj 523 375 r bang-all;
#N canvas 63 88 1070 496 acidsynth 0;
#X obj 225 283 saw~;
#X obj 264 283 saw~;
#X obj 264 445 outlet~;
#X obj 97 13 inlet;
#X floatatom 97 37 5 0 0 0 - - - 0;
#X obj 97 60 s \$0-freq;
#X obj 248 226 r \$0-freq;
#X obj 183 280 saw~;
#X obj 201 254 * 2;
#X obj 264 258 * 0.5;
#X connect 0 0 2 0;
#X connect 1 0 2 0;
#X connect 3 0 4 0;
#X connect 4 0 5 0;
#X connect 6 0 0 0;
#X connect 6 0 8 0;
#X connect 6 0 9 0;
#X connect 7 0 2 0;
#X connect 8 0 7 0;
#X connect 9 0 1 0;
#X restore 128 595 pd acidsynth;
#X obj 123 302 s \$0-env;
#X obj 307 705 r \$0-env;
#X obj 193 820 throw~ acid;
#X obj 1301 631 *~;
#X obj 1301 802 throw~ acid;
#X obj 1301 706 rev1~;
#X obj 1346 504 eseq;
#X obj 1346 427 r beat;
#X obj 1346 528 bng 19 250 50 0 empty empty empty 0 -10 0 12 #fcfcfc #000000 #000000;
#X obj 1346 528 bng 19 250 50 0 empty empty empty 0 -10 0 12 #fcfcfc #000000 #000000;
#X obj 1371 528 bng 19 250 50 0 empty empty empty 0 -10 0 12 #fcfcfc #000000 #000000;
#X obj 1371 454 r bang-all;
#X msg 1319 596 1;
#X obj 1317 656 r bang-all;
#X obj 1371 552 bern 3;
#X obj 412 818 delwrite~ abuf 1000;
#X obj 1299 387 delread~ abuf 1000;
#X msg 1317 681 5;
#X msg 1363 596 0.25;
#X msg 1371 479 14 37 0;
#X obj 1301 746 *~ 0.15;
#X obj 193 789 *~ 0.75;
#X obj 247 427 * 171.429;
#X obj 429 562 * 6;
#X obj 118 118 s seq-counter;
#X obj 555 86 r seq-counter;
#X obj 555 188 s acidnote;
#X obj 255 145 r acidnote;
#X obj 488 672 r beat;
#X obj 487 701 bern 8;
#X floatatom 555 156 5 0 0 0 - - - 0;
#N canvas 530 220 664 300 sequ0 0;
#X obj 40 101 sel 0 1 2 3 4 5 6 7, f 76;
#X obj 40 76 inlet;
#X obj 156 244 outlet;
#X msg 106 159 9;
#X obj 106 135 bern 8;
#X obj 167 130 bern 8;
#X obj 167 154 random 14;
#X obj 246 132 bern 2;
#X obj 246 156 random 3;
#X obj 246 180 - 3;
#X obj 379 126 bern 8;
#X obj 447 136 bern 2;
#X msg 448 160 3;
#X msg 41 153 3;
#X obj 167 178 - 6;
#X msg 339 150 0;
#X msg 380 150 6;
#X msg 509 158 -3;
#X connect 0 0 13 0;
#X connect 0 1 4 0;
#X connect 0 2 5 0;
#X connect 0 3 7 0;
#X connect 0 4 15 0;
#X connect 0 5 10 0;
#X connect 0 6 11 0;
#X connect 0 7 17 0;
#X connect 1 0 0 0;
#X connect 3 0 2 0;
#X connect 4 0 3 0;
#X connect 5 0 6 0;
#X connect 6 0 14 0;
#X connect 7 0 8 0;
#X connect 8 0 9 0;
#X connect 9 0 2 0;
#X connect 10 0 16 0;
#X connect 11 0 12 0;
#X connect 12 0 2 0;
#X connect 13 0 2 0;
#X connect 14 0 2 0;
#X connect 15 0 2 0;
#X connect 16 0 2 0;
#X connect 17 0 2 0;
#X restore 428 64 pd sequ0;
#X msg 487 733 0 1;
#X obj 296 332 +;
#X obj 314 309 - 1;
#X obj 314 285 r offset;
#N canvas 530 220 664 300 sequ1 0;
#X obj 40 101 sel 0 1 2 3 4 5 6 7, f 76;
#X obj 40 76 inlet;
#X obj 156 244 outlet;
#X msg 90 157 0;
#X msg 172 154 -3;
#X msg 304 153 6;
#X obj 40 128 bern 8;
#X msg 40 156 9;
#X msg 436 159 3;
#X obj 436 131 bern 4;
#X connect 0 0 6 0;
#X connect 0 2 4 0;
#X connect 0 4 5 0;
#X connect 0 6 9 0;
#X connect 1 0 0 0;
#X connect 3 0 2 0;
#X connect 4 0 2 0;
#X connect 5 0 2 0;
#X connect 6 0 7 0;
#X connect 6 1 3 0;
#X connect 7 0 2 0;
#X connect 8 0 2 0;
#X connect 9 0 8 0;
#X restore 555 122 pd sequ1;
#X msg 768 250 -3;
#X obj 768 198 eseq;
#X obj 793 150 r bang-all;
#X obj 768 109 r beat;
#X obj 768 222 bng 19 250 50 0 empty empty empty 0 -10 0 12 #fcfcfc #000000 #000000;
#X obj 794 223 bng 19 250 50 0 empty empty empty 0 -10 0 12 #fcfcfc #000000 #000000;
#X obj 768 327 s acidnote;
#X msg 793 174 3 8 0;
#X obj 913 201 eseq;
#X obj 938 153 r bang-all;
#X obj 913 112 r beat;
#X msg 938 177 5 12 0;
#X obj 913 227 bng 19 250 50 0 empty empty empty 0 -10 0 12 #fcfcfc #000000 #000000;
#X obj 939 228 bng 19 250 50 0 empty empty empty 0 -10 0 12 #fcfcfc #000000 #000000;
#X obj 913 282 s acidnote;
#X obj 1042 201 eseq;
#X obj 1067 153 r bang-all;
#X obj 1042 112 r beat;
#X obj 1042 227 bng 19 250 50 0 empty empty empty 0 -10 0 12 #fcfcfc #000000 #000000;
#X obj 1068 228 bng 19 250 50 0 empty empty empty 0 -10 0 12 #fcfcfc #000000 #000000;
#X obj 1042 281 s acidnote;
#X msg 1067 177 5 16 0;
#X msg 1042 254 6;
#X msg 913 254 0;
#X msg 804 282 9;
#X obj 804 258 bern 16;
#X obj 361 574 * 1.5;
#X msg 524 581 1;
#X obj 308 574 * 1.5;
#X connect 0 0 1 0;
#X connect 1 0 33 0;
#X connect 1 0 97 0;
#X connect 1 0 99 0;
#X connect 2 0 5 0;
#X connect 3 0 14 0;
#X connect 4 0 5 1;
#X connect 5 0 16 0;
#X connect 6 0 7 0;
#X connect 7 0 8 0;
#X connect 8 0 17 0;
#X connect 9 0 58 0;
#X connect 10 0 12 0;
#X connect 11 0 10 0;
#X connect 12 0 0 1;
#X connect 13 0 14 1;
#X connect 14 0 55 0;
#X connect 14 0 49 0;
#X connect 15 0 13 0;
#X connect 16 0 3 1;
#X connect 17 0 9 0;
#X connect 18 0 34 0;
#X connect 18 1 30 0;
#X connect 18 2 67 0;
#X connect 19 0 56 0;
#X connect 20 0 28 0;
#X connect 21 0 24 0;
#X connect 22 0 21 0;
#X connect 22 0 98 0;
#X connect 23 0 22 0;
#X connect 24 0 31 0;
#X connect 25 0 57 0;
#X connect 26 0 27 0;
#X connect 27 0 3 2;
#X connect 28 0 21 0;
#X connect 29 0 28 1;
#X connect 30 0 0 0;
#X connect 31 0 25 0;
#X connect 32 0 23 0;
#X connect 33 0 3 0;
#X connect 35 0 15 0;
#X connect 37 0 39 0;
#X connect 39 0 54 0;
#X connect 40 0 42 0;
#X connect 40 0 43 0;
#X connect 40 1 44 0;
#X connect 41 0 40 0;
#X connect 42 0 46 0;
#X connect 44 0 48 0;
#X connect 45 0 53 0;
#X connect 46 0 37 1;
#X connect 47 0 51 0;
#X connect 48 0 52 0;
#X connect 50 0 37 0;
#X connect 51 0 39 1;
#X connect 52 0 37 1;
#X connect 53 0 40 1;
#X connect 54 0 38 0;
#X connect 55 0 36 0;
#X connect 56 0 11 0;
#X connect 57 0 26 0;
#X connect 59 0 70 0;
#X connect 61 0 18 0;
#X connect 62 0 63 0;
#X connect 63 0 66 0;
#X connect 66 0 13 0;
#X connect 67 0 19 0;
#X connect 68 0 67 1;
#X connect 69 0 68 0;
#X connect 70 0 64 0;
#X connect 71 0 77 0;
#X connect 72 0 75 0;
#X connect 72 1 76 0;
#X connect 73 0 78 0;
#X connect 74 0 72 0;
#X connect 75 0 71 0;
#X connect 76 0 96 0;
#X connect 78 0 72 1;
#X connect 79 0 83 0;
#X connect 79 1 84 0;
#X connect 80 0 82 0;
#X connect 81 0 79 0;
#X connect 82 0 79 1;
#X connect 83 0 94 0;
#X connect 86 0 89 0;
#X connect 86 1 90 0;
#X connect 87 0 92 0;
#X connect 88 0 86 0;
#X connect 89 0 93 0;
#X connect 92 0 86 1;
#X connect 93 0 91 0;
#X connect 94 0 85 0;
#X connect 95 0 77 0;
#X connect 96 0 95 0;
#X connect 97 0 4 0;
#X connect 98 0 27 1;
#X connect 99 0 2 0;
#X restore 721 112 pd acid;
#X floatatom 284 164 5 0 0 0 - - - 0;
#X obj 284 140 random 3;
#X obj 284 85 r beat;
#X obj 284 187 s offset;
#X msg 146 106 220;
#X obj 146 83 r bang-all;
#X obj 146 130 s bfq;
#N canvas 0 38 1512 916 pad 0;
#X obj 744 2 eseq;
#X obj 744 -70 r beat;
#X obj 769 -45 r bang-all;
#X obj 744 29 counter;
#X obj 744 53 % 2;
#X floatatom 744 77 5 0 0 0 - - - 0;
#X obj 776 133 sel 0 1;
#X msg 776 169 0 3 6;
#X msg 832 170 0 -1 -4;
#X obj 776 210 unpack f f f, f 43;
#X obj 1058 493 vline~;
#X obj 1040 517 *~;
#X floatatom 889 379 5 0 0 0 - - - 0;
#X obj 1067 864 rev1~;
#X obj 1065 548 osc~ 0.1;
#X obj 1065 659 snapshot~;
#X obj 1159 621 metro 1;
#X obj 1159 598 tgl 19 0 empty empty empty 0 -10 0 12 #fcfcfc #000000 #000000 0 1;
#X floatatom 1065 683 5 0 0 0 - - - 0;
#X floatatom 1065 730 5 0 0 0 - - - 0;
#X floatatom 1065 786 5 0 0 0 - - - 0;
#X obj 1065 589 *~;
#X obj 1159 575 r bang-all;
#X obj 1065 706 + 1;
#X obj 1065 762 * 1000;
#X obj 1040 827 lop~;
#X obj 1131 549 phasor~ 0.1;
#X obj 1067 888 *~ 0.5;
#X msg 1083 837 99;
#X obj 1083 812 r bang-all;
#X msg 1058 469 0.5 2000 0 \, 0 4000 4000;
#X obj 889 405 sinabs~;
#X obj 1040 406 square~;
#X obj 737 399 tri~;
#X obj 946 280 r offset;
#X obj 928 305 +;
#X floatatom 928 329 5 0 0 0 - - - 0;
#X obj 889 353 ttet 7;
#X obj 889 272 r bfq;
#X floatatom 737 373 5 0 0 0 - - - 0;
#X obj 794 275 r offset;
#X obj 776 299 +;
#X floatatom 776 323 5 0 0 0 - - - 0;
#X obj 737 347 ttet 7;
#X obj 737 266 r bfq;
#X floatatom 1040 381 5 0 0 0 - - - 0;
#X obj 1096 282 r offset;
#X obj 1079 307 +;
#X floatatom 1079 331 5 0 0 0 - - - 0;
#X obj 1040 355 ttet 7;
#X obj 1040 274 r bfq;
#X obj 1041 946 throw~ pad;
#X floatatom 776 235 5 0 0 0 - - - 0;
#X floatatom 928 244 5 0 0 0 - - - 0;
#X floatatom 1078 239 5 0 0 0 - - - 0;
#X obj 744 103 t b f;
#X obj 672 169 s \$0-envtrig;
#X obj 1058 442 r \$0-envtrig;
#X msg 769 -21 2 256 0;
#X connect 0 0 3 0;
#X connect 1 0 0 0;
#X connect 2 0 58 0;
#X connect 3 0 4 0;
#X connect 4 0 5 0;
#X connect 5 0 55 0;
#X connect 6 0 7 0;
#X connect 6 1 8 0;
#X connect 7 0 9 0;
#X connect 8 0 9 0;
#X connect 9 0 52 0;
#X connect 9 1 53 0;
#X connect 9 2 54 0;
#X connect 10 0 11 1;
#X connect 11 0 25 0;
#X connect 12 0 31 0;
#X connect 13 0 27 0;
#X connect 14 0 21 0;
#X connect 15 0 18 0;
#X connect 16 0 15 0;
#X connect 17 0 16 0;
#X connect 18 0 23 0;
#X connect 19 0 24 0;
#X connect 20 0 25 1;
#X connect 21 0 15 0;
#X connect 22 0 17 0;
#X connect 23 0 19 0;
#X connect 24 0 20 0;
#X connect 25 0 13 0;
#X connect 25 0 51 0;
#X connect 26 0 21 1;
#X connect 27 0 51 0;
#X connect 28 0 13 1;
#X connect 29 0 28 0;
#X connect 30 0 10 0;
#X connect 31 0 11 0;
#X connect 32 0 11 0;
#X connect 33 0 11 0;
#X connect 34 0 35 1;
#X connect 35 0 36 0;
#X connect 36 0 37 1;
#X connect 37 0 12 0;
#X connect 38 0 37 0;
#X connect 39 0 33 0;
#X connect 40 0 41 1;
#X connect 41 0 42 0;
#X connect 42 0 43 1;
#X connect 43 0 39 0;
#X connect 44 0 43 0;
#X connect 45 0 32 0;
#X connect 46 0 47 1;
#X connect 47 0 48 0;
#X connect 48 0 49 1;
#X connect 49 0 45 0;
#X connect 50 0 49 0;
#X connect 52 0 41 0;
#X connect 53 0 35 0;
#X connect 54 0 47 0;
#X connect 55 0 56 0;
#X connect 55 1 6 0;
#X connect 57 0 30 0;
#X connect 58 0 0 1;
#X restore 500 112 pd pad;
#X obj 500 137 catch~ pad;
#X obj 500 188 throw~ out;
#X obj 284 111 bern 128;
#X obj 500 161 *~ 0.06;
#X obj 829 137 catch~ arp;
#X obj 829 190 throw~ out;
#N canvas 0 38 1512 916 arp 0;
#X floatatom 756 391 5 0 0 0 - - - 0;
#X floatatom 795 341 5 0 0 0 - - - 0;
#X obj 756 365 ttet 7;
#X obj 756 284 r bfq;
#X obj 755 647 *~;
#X obj 823 597 vline~;
#X obj 755 861 throw~ arp;
#X obj 775 114 t b f;
#X obj 657 238 s \$0-env-trig;
#X obj 776 6 r beat;
#X obj 776 30 counter;
#X obj 776 54 % 8;
#X floatatom 776 78 5 0 0 0 - - - 0;
#X floatatom 794 214 5 0 0 0 - - - 0;
#X obj 823 544 r \$0-env-trig;
#X obj 1097 503 snapshot~;
#X obj 1191 465 metro 1;
#X obj 1191 442 tgl 19 0 empty empty empty 0 -10 0 12 #fcfcfc #000000 #000000 0 1;
#X floatatom 1097 527 5 0 0 0 - - - 0;
#X floatatom 1097 574 5 0 0 0 - - - 0;
#X floatatom 1097 630 5 0 0 0 - - - 0;
#X obj 1097 433 *~;
#X obj 1191 419 r bang-all;
#X obj 1097 550 + 1;
#X obj 1163 393 phasor~ 0.1;
#X obj 755 713 lop~;
#X obj 755 737 lop~;
#X msg 823 571 1 5 0 \, 0 75 5;
#X floatatom 819 444 5 0 0 0 - - - 0;
#X obj 755 768 hip~;
#X floatatom 1097 677 5 0 0 0 - - - 0;
#X obj 1097 653 * 0.1;
#X obj 92 649 sel 0 1 2 3 4 5 6 7, f 32;
#X obj 201 788 s \$0-note;
#X obj 794 187 r \$0-note;
#X obj 1097 392 osc~ 0.5;
#X obj 1097 606 * 1500;
#X obj 97 394 sel 0 1 2 3 4 5 6 7, f 32;
#X obj 202 544 s \$0-note;
#X msg 55 451 0;
#X obj 237 689 bern 4;
#X obj 819 420 * 2;
#X floatatom 883 442 5 0 0 0 - - - 0;
#X obj 883 498 *~ 0.5;
#X obj 883 418 * 0.5;
#X obj 819 500 *~ 0.25;
#X obj 756 501 *~ 1;
#X floatatom 429 131 5 0 0 0 - - - 0;
#X floatatom 323 203 5 0 0 0 - - - 0;
#X obj 429 181 == 1;
#X floatatom 429 205 5 0 0 0 - - - 0;
#X floatatom 531 204 5 0 0 0 - - - 0;
#X obj 284 257 spigot;
#X floatatom 284 280 5 0 0 0 - - - 0;
#X obj 897 125 s \$0-seqno;
#X obj 284 227 r \$0-seqno;
#X obj 390 260 spigot;
#X floatatom 390 283 5 0 0 0 - - - 0;
#X obj 390 230 r \$0-seqno;
#X obj 493 261 spigot;
#X floatatom 493 284 5 0 0 0 - - - 0;
#X obj 493 231 r \$0-seqno;
#X obj 284 303 s \$0-seq1;
#X obj 389 307 s \$0-seq2;
#X obj 493 308 s \$0-seq3;
#X obj 92 622 r \$0-seq2;
#X obj 97 367 r \$0-seq1;
#X obj 323 179 == 0;
#X obj 531 176 == 2;
#X obj 290 430 bern 4;
#X obj 420 516 sel 0 1 2 3 4 5 6 7, f 32;
#X obj 529 655 s \$0-note;
#X obj 565 556 bern 4;
#X obj 420 489 r \$0-seq3;
#X obj 849 236 r offset;
#X floatatom 849 260 5 0 0 0 - - - 0;
#X obj 824 289 +;
#X obj 251 119 eseq;
#X obj 286 49 r bang-all;
#X obj 227 41 r beat;
#X obj 251 143 counter;
#X obj 251 167 % 3;
#X msg 277 78 2 256 0;
#X msg 93 452 3;
#X msg 137 453 0;
#X msg 290 456 6;
#X msg 329 456 9;
#X msg 376 456 12;
#X msg 177 454 3;
#X msg 217 454 3;
#X msg 255 456 6;
#X msg 363 577 9;
#X msg 401 578 6;
#X msg 445 579 3;
#X msg 485 580 0;
#X msg 525 580 3;
#X msg 565 582 6;
#X msg 604 582 12;
#X msg 645 582 12;
#X msg 689 584 15;
#X msg 35 710 6;
#X msg 73 711 0;
#X msg 117 712 6;
#X msg 157 713 0;
#X msg 197 713 0;
#X msg 317 715 3;
#X msg 361 717 12;
#X msg 237 715 12;
#X msg 276 715 15;
#X obj 883 473 osc~;
#X obj 756 475 tri~;
#X obj 819 475 saw~;
#X obj 910 802 rev1~;
#X obj 910 826 *~ 0.75;
#X obj 926 754 r bang-all;
#X msg 926 778 90;
#X obj 998 795 bng 19 250 50 0 empty empty empty 0 -10 0 12 #fcfcfc #000000 #000000;
#X connect 0 0 41 0;
#X connect 0 0 44 0;
#X connect 0 0 110 0;
#X connect 1 0 2 1;
#X connect 2 0 0 0;
#X connect 3 0 2 0;
#X connect 4 0 25 0;
#X connect 5 0 4 1;
#X connect 7 0 8 0;
#X connect 7 1 54 0;
#X connect 9 0 10 0;
#X connect 10 0 11 0;
#X connect 11 0 12 0;
#X connect 12 0 7 0;
#X connect 13 0 76 0;
#X connect 14 0 27 0;
#X connect 15 0 18 0;
#X connect 16 0 15 0;
#X connect 17 0 16 0;
#X connect 18 0 23 0;
#X connect 19 0 36 0;
#X connect 20 0 25 1;
#X connect 20 0 26 1;
#X connect 20 0 31 0;
#X connect 21 0 15 0;
#X connect 22 0 17 0;
#X connect 23 0 19 0;
#X connect 24 0 21 1;
#X connect 25 0 26 0;
#X connect 26 0 29 0;
#X connect 27 0 5 0;
#X connect 28 0 111 0;
#X connect 29 0 112 0;
#X connect 29 0 6 0;
#X connect 30 0 29 1;
#X connect 31 0 30 0;
#X connect 32 0 100 0;
#X connect 32 1 101 0;
#X connect 32 2 102 0;
#X connect 32 3 103 0;
#X connect 32 4 104 0;
#X connect 32 5 40 0;
#X connect 32 6 105 0;
#X connect 32 7 106 0;
#X connect 34 0 13 0;
#X connect 35 0 21 0;
#X connect 36 0 20 0;
#X connect 37 0 39 0;
#X connect 37 1 83 0;
#X connect 37 2 84 0;
#X connect 37 3 88 0;
#X connect 37 4 89 0;
#X connect 37 5 90 0;
#X connect 37 6 69 0;
#X connect 37 7 87 0;
#X connect 39 0 38 0;
#X connect 40 0 107 0;
#X connect 40 1 108 0;
#X connect 41 0 28 0;
#X connect 42 0 109 0;
#X connect 43 0 4 0;
#X connect 44 0 42 0;
#X connect 45 0 4 0;
#X connect 46 0 4 0;
#X connect 47 0 68 0;
#X connect 47 0 49 0;
#X connect 47 0 67 0;
#X connect 48 0 52 1;
#X connect 49 0 50 0;
#X connect 50 0 56 1;
#X connect 51 0 59 1;
#X connect 52 0 53 0;
#X connect 53 0 62 0;
#X connect 55 0 52 0;
#X connect 56 0 57 0;
#X connect 57 0 63 0;
#X connect 58 0 56 0;
#X connect 59 0 60 0;
#X connect 60 0 64 0;
#X connect 61 0 59 0;
#X connect 65 0 32 0;
#X connect 66 0 37 0;
#X connect 67 0 48 0;
#X connect 68 0 51 0;
#X connect 69 0 85 0;
#X connect 69 1 86 0;
#X connect 70 0 91 0;
#X connect 70 1 92 0;
#X connect 70 2 93 0;
#X connect 70 3 94 0;
#X connect 70 4 95 0;
#X connect 70 5 72 0;
#X connect 70 6 98 0;
#X connect 70 7 99 0;
#X connect 72 0 96 0;
#X connect 72 1 97 0;
#X connect 73 0 70 0;
#X connect 74 0 75 0;
#X connect 75 0 76 1;
#X connect 76 0 1 0;
#X connect 77 0 80 0;
#X connect 78 0 82 0;
#X connect 79 0 77 0;
#X connect 80 0 81 0;
#X connect 81 0 47 0;
#X connect 82 0 77 1;
#X connect 83 0 38 0;
#X connect 84 0 38 0;
#X connect 85 0 38 0;
#X connect 86 0 38 0;
#X connect 87 0 38 0;
#X connect 88 0 38 0;
#X connect 89 0 38 0;
#X connect 90 0 38 0;
#X connect 91 0 71 0;
#X connect 92 0 71 0;
#X connect 93 0 71 0;
#X connect 94 0 71 0;
#X connect 95 0 71 0;
#X connect 96 0 71 0;
#X connect 97 0 71 0;
#X connect 98 0 71 0;
#X connect 99 0 71 0;
#X connect 100 0 33 0;
#X connect 101 0 33 0;
#X connect 102 0 33 0;
#X connect 103 0 33 0;
#X connect 104 0 33 0;
#X connect 105 0 33 0;
#X connect 106 0 33 0;
#X connect 107 0 33 0;
#X connect 108 0 33 0;
#X connect 109 0 43 0;
#X connect 110 0 46 0;
#X connect 111 0 45 0;
#X connect 112 0 113 0;
#X connect 113 0 6 0;
#X connect 114 0 115 0;
#X connect 115 0 112 1;
#X restore 829 112 pd arp;
#X obj 829 161 *~ 0.1;
#X connect 0 0 1 0;
#X connect 1 0 14 0;
#X connect 2 0 4 0;
#X connect 3 0 2 0;
#X connect 3 1 19 0;
#X connect 4 0 6 0;
#X connect 6 0 7 0;
#X connect 10 0 11 0;
#X connect 10 0 11 1;
#X connect 12 0 10 0;
#X connect 13 0 12 0;
#X connect 15 0 3 0;
#X connect 16 0 17 0;
#X connect 17 0 18 0;
#X connect 19 0 4 1;
#X connect 19 0 5 0;
#X connect 21 0 22 0;
#X connect 22 0 20 0;
#X connect 25 0 28 0;
#X connect 26 0 25 0;
#X connect 27 0 35 0;
#X connect 29 0 31 0;
#X connect 30 0 29 0;
#X connect 33 0 36 0;
#X connect 35 0 26 0;
#X connect 36 0 34 0;
#X connect 37 0 40 0;
#X connect 40 0 38 0;
