#N canvas -5 38 1512 916 12;
#X declare -path ../lib;
#X declare -path ../samples;
#X obj 15 11 loadbang;
#X obj 15 37 bng 15 250 50 0 empty empty empty 17 7 0 10 #fcfcfc #000000 #000000;
#X obj 15 160 tgl 15 0 empty empty empty 17 7 0 10 #fcfcfc #000000 #000000 0 1;
#X obj 15 132 t b b;
#X obj 15 185 metro;
#X obj 69 185 s bpms;
#X obj 15 211 bng 15 250 50 0 empty empty empty 17 7 0 10 #fcfcfc #000000 #000000;
#X obj 15 233 s beat;
#X obj 175 11 declare -path ../lib;
#X obj 175 36 declare -path ../samples;
#X obj 16 390 clip~ -1 1;
#X obj 16 414 dac~;
#X obj 16 366 *~ 1;
#X obj 16 342 catch~ out;
#X obj 15 59 s bang-all;
#X obj 15 107 r bang-all;
#X obj 349 126 catch~ drums;
#X obj 349 150 *~ 0.5;
#X obj 349 174 throw~ out;
#X msg 47 158 100;
#X obj 179 175 throw~ out;
#X obj 179 126 catch~ acid;
#X obj 179 151 *~ 0.1;
#N canvas 63 101 1016 300 drums 0;
#X obj 502 117 eseq;
#X obj 502 40 r beat;
#X obj 502 141 bng 19 250 50 0 empty empty empty 0 -10 0 12 #fcfcfc #000000 #000000;
#X obj 502 141 bng 19 250 50 0 empty empty empty 0 -10 0 12 #fcfcfc #000000 #000000;
#X obj 527 141 bng 19 250 50 0 empty empty empty 0 -10 0 12 #fcfcfc #000000 #000000;
#X msg 527 92 1 4 0;
#X obj 527 67 r bang-all;
#X obj 502 169 kick~;
#X obj 502 194 throw~ drums;
#X obj 618 121 eseq;
#X obj 618 44 r beat;
#X obj 618 145 bng 19 250 50 0 empty empty empty 0 -10 0 12 #fcfcfc #000000 #000000;
#X obj 618 145 bng 19 250 50 0 empty empty empty 0 -10 0 12 #fcfcfc #000000 #000000;
#X obj 643 145 bng 19 250 50 0 empty empty empty 0 -10 0 12 #fcfcfc #000000 #000000;
#X obj 643 71 r bang-all;
#X obj 618 170 kick~;
#X obj 618 195 throw~ drums;
#X msg 643 96 1 9 4;
#X obj 802 121 eseq;
#X obj 802 44 r beat;
#X obj 802 145 bng 19 250 50 0 empty empty empty 0 -10 0 12 #fcfcfc #000000 #000000;
#X obj 802 145 bng 19 250 50 0 empty empty empty 0 -10 0 12 #fcfcfc #000000 #000000;
#X obj 827 145 bng 19 250 50 0 empty empty empty 0 -10 0 12 #fcfcfc #000000 #000000;
#X obj 827 71 r bang-all;
#X obj 802 232 throw~ drums;
#X obj 802 177 snare~;
#X obj 802 201 *~ 0.25;
#X msg 827 96 1 8 4;
#X obj 941 121 eseq;
#X obj 941 44 r beat;
#X obj 941 145 bng 19 250 50 0 empty empty empty 0 -10 0 12 #fcfcfc #000000 #000000;
#X obj 941 145 bng 19 250 50 0 empty empty empty 0 -10 0 12 #fcfcfc #000000 #000000;
#X obj 966 145 bng 19 250 50 0 empty empty empty 0 -10 0 12 #fcfcfc #000000 #000000;
#X obj 966 71 r bang-all;
#X obj 941 232 throw~ drums;
#X obj 941 177 snare~;
#X msg 966 96 3 18 0;
#X obj 1127 122 eseq;
#X obj 1127 45 r beat;
#X obj 1127 146 bng 19 250 50 0 empty empty empty 0 -10 0 12 #fcfcfc #000000 #000000;
#X obj 1127 146 bng 19 250 50 0 empty empty empty 0 -10 0 12 #fcfcfc #000000 #000000;
#X obj 1152 146 bng 19 250 50 0 empty empty empty 0 -10 0 12 #fcfcfc #000000 #000000;
#X obj 1152 72 r bang-all;
#X obj 1127 233 throw~ drums;
#X obj 1127 178 hat~;
#X obj 1268 123 eseq;
#X obj 1268 46 r beat;
#X obj 1268 147 bng 19 250 50 0 empty empty empty 0 -10 0 12 #fcfcfc #000000 #000000;
#X obj 1268 147 bng 19 250 50 0 empty empty empty 0 -10 0 12 #fcfcfc #000000 #000000;
#X obj 1293 147 bng 19 250 50 0 empty empty empty 0 -10 0 12 #fcfcfc #000000 #000000;
#X obj 1293 73 r bang-all;
#X obj 1268 234 throw~ drums;
#X obj 1268 179 hat~;
#X msg 1293 98 24 27 0;
#X obj 1268 203 *~ 0.05;
#X msg 1152 97 1 4 2;
#X obj 941 201 *~ 0.075;
#X obj 1127 202 *~ 0.75;
#X connect 0 0 2 0;
#X connect 0 0 3 0;
#X connect 0 1 4 0;
#X connect 1 0 0 0;
#X connect 2 0 7 0;
#X connect 5 0 0 1;
#X connect 6 0 5 0;
#X connect 7 0 8 0;
#X connect 9 0 11 0;
#X connect 9 0 12 0;
#X connect 9 1 13 0;
#X connect 10 0 9 0;
#X connect 11 0 15 0;
#X connect 14 0 17 0;
#X connect 15 0 16 0;
#X connect 17 0 9 1;
#X connect 18 0 20 0;
#X connect 18 0 21 0;
#X connect 18 1 22 0;
#X connect 19 0 18 0;
#X connect 20 0 25 0;
#X connect 23 0 27 0;
#X connect 25 0 26 0;
#X connect 26 0 24 0;
#X connect 27 0 18 1;
#X connect 28 0 30 0;
#X connect 28 0 31 0;
#X connect 28 1 32 0;
#X connect 29 0 28 0;
#X connect 30 0 35 0;
#X connect 33 0 36 0;
#X connect 35 0 56 0;
#X connect 36 0 28 1;
#X connect 37 0 39 0;
#X connect 37 0 40 0;
#X connect 37 1 41 0;
#X connect 38 0 37 0;
#X connect 39 0 44 0;
#X connect 42 0 55 0;
#X connect 44 0 57 0;
#X connect 45 0 47 0;
#X connect 45 0 48 0;
#X connect 45 1 49 0;
#X connect 46 0 45 0;
#X connect 47 0 52 0;
#X connect 49 0 35 0;
#X connect 50 0 53 0;
#X connect 52 0 54 0;
#X connect 53 0 45 1;
#X connect 54 0 51 0;
#X connect 55 0 37 1;
#X connect 56 0 34 0;
#X connect 57 0 43 0;
#X restore 349 99 pd drums;
#N canvas 0 38 1512 916 acid 1;
#X obj 229 521 *;
#X floatatom 229 545 5 0 0 0 - - - 0;
#X floatatom 308 599 5 0 0 0 - - - 0;
#X obj 187 674 acidfilter~, f 35;
#X obj 361 574 * 5;
#X floatatom 361 600 5 0 0 0 - - - 0;
#X obj 308 622 pack f f;
#X obj 118 -3 r beat;
#X obj 118 22 bng 19 250 50 0 empty empty empty 0 -10 0 12 #fcfcfc #000000 #000000;
#X obj 118 47 counter;
#X floatatom 118 95 5 0 0 0 - - - 0;
#X msg 194 177 -2;
#X obj 247 475 ctof;
#X obj 247 427 * 240;
#X floatatom 247 451 5 0 0 0 - - - 0;
#X floatatom 247 499 5 0 0 0 - - - 0;
#X obj 307 750 vline~;
#X obj 193 765 *~;
#X msg 307 728 1 1 0 \, 0 250 5;
#X obj 308 574 * 15;
#X msg 308 647 5 55 \$1 \$2;
#X obj 118 71 % 8;
#X obj 118 125 sel 0 1 2 3 4 5 6 7, f 44;
#X floatatom 314 286 5 0 0 0 - - - 0;
#X obj 296 332 -;
#X obj 255 234 t b b f b;
#X floatatom 296 356 5 0 0 0 - - - 0;
#X obj 429 348 osc~ 0.1;
#X obj 429 459 snapshot~;
#X obj 523 421 metro 1;
#X obj 523 398 tgl 19 0 empty empty empty 0 -10 0 12 #fcfcfc #000000 #000000 0 1;
#X floatatom 429 483 5 0 0 0 - - - 0;
#X floatatom 429 530 5 0 0 0 - - - 0;
#X floatatom 429 586 5 0 0 0 - - - 0;
#X obj 429 644 +;
#X obj 429 389 *~;
#X obj 495 349 phasor~ 0.3;
#X obj 429 562 * 12;
#X msg 230 387 110;
#X msg 346 177 -2;
#X obj 429 506 + 0.5;
#X obj 314 309 - 1;
#X obj 314 262 random 3;
#X obj 232 152 bern 4;
#X obj 523 375 r bang-all;
#X msg 118 177 -1;
#X msg 232 176 -3;
#X msg 270 177 -5;
#X msg 308 177 -3;
#X msg 384 178 1;
#N canvas 63 88 1070 496 acidsynth 0;
#X obj 225 283 saw~;
#X obj 264 283 saw~;
#X obj 264 445 outlet~;
#X obj 97 13 inlet;
#X floatatom 97 37 5 0 0 0 - - - 0;
#X obj 97 60 s \$0-freq;
#X obj 248 226 r \$0-freq;
#X obj 183 280 saw~;
#X obj 201 254 * 2;
#X obj 264 258 * 0.5;
#X connect 0 0 2 0;
#X connect 1 0 2 0;
#X connect 3 0 4 0;
#X connect 4 0 5 0;
#X connect 6 0 0 0;
#X connect 6 0 8 0;
#X connect 6 0 9 0;
#X connect 7 0 2 0;
#X connect 8 0 7 0;
#X connect 9 0 1 0;
#X restore 128 595 pd acidsynth;
#X obj 123 302 s \$0-env;
#X obj 307 705 r \$0-env;
#X obj 193 820 throw~ acid;
#X msg 524 581 3;
#X obj 958 561 *~;
#X obj 958 732 throw~ acid;
#X obj 958 636 rev1~;
#X obj 1003 434 eseq;
#X obj 1003 357 r beat;
#X obj 1003 458 bng 19 250 50 0 empty empty empty 0 -10 0 12 #fcfcfc #000000 #000000;
#X obj 1003 458 bng 19 250 50 0 empty empty empty 0 -10 0 12 #fcfcfc #000000 #000000;
#X obj 1028 458 bng 19 250 50 0 empty empty empty 0 -10 0 12 #fcfcfc #000000 #000000;
#X obj 1028 384 r bang-all;
#X msg 976 526 1;
#X obj 974 586 r bang-all;
#X obj 1028 482 bern 3;
#X obj 412 818 delwrite~ abuf 1000;
#X obj 956 317 delread~ abuf 1000;
#X obj 958 676 *~ 0.25;
#X msg 974 611 5;
#X msg 1020 526 0.25;
#X msg 1028 409 14 37 0;
#X connect 0 0 1 0;
#X connect 1 0 4 0;
#X connect 1 0 50 0;
#X connect 1 0 19 0;
#X connect 2 0 6 0;
#X connect 3 0 17 0;
#X connect 4 0 5 0;
#X connect 5 0 6 1;
#X connect 6 0 20 0;
#X connect 7 0 8 0;
#X connect 8 0 9 0;
#X connect 9 0 21 0;
#X connect 10 0 22 0;
#X connect 11 0 25 0;
#X connect 12 0 15 0;
#X connect 13 0 14 0;
#X connect 14 0 12 0;
#X connect 15 0 0 1;
#X connect 16 0 17 1;
#X connect 17 0 67 0;
#X connect 17 0 53 0;
#X connect 18 0 16 0;
#X connect 19 0 2 0;
#X connect 20 0 3 1;
#X connect 21 0 10 0;
#X connect 22 0 45 0;
#X connect 22 2 11 0;
#X connect 22 3 43 0;
#X connect 22 4 47 0;
#X connect 22 5 48 0;
#X connect 22 6 39 0;
#X connect 22 7 49 0;
#X connect 23 0 41 0;
#X connect 24 0 26 0;
#X connect 25 0 51 0;
#X connect 25 1 38 0;
#X connect 25 2 24 0;
#X connect 25 3 42 0;
#X connect 26 0 13 0;
#X connect 27 0 35 0;
#X connect 28 0 31 0;
#X connect 29 0 28 0;
#X connect 29 0 54 0;
#X connect 30 0 29 0;
#X connect 31 0 40 0;
#X connect 32 0 37 0;
#X connect 33 0 34 0;
#X connect 34 0 3 2;
#X connect 35 0 28 0;
#X connect 36 0 35 1;
#X connect 37 0 33 0;
#X connect 38 0 0 0;
#X connect 39 0 25 0;
#X connect 40 0 32 0;
#X connect 41 0 24 1;
#X connect 42 0 23 0;
#X connect 43 0 46 0;
#X connect 44 0 30 0;
#X connect 45 0 25 0;
#X connect 46 0 25 0;
#X connect 47 0 25 0;
#X connect 48 0 25 0;
#X connect 49 0 25 0;
#X connect 50 0 3 0;
#X connect 52 0 18 0;
#X connect 54 0 34 1;
#X connect 55 0 57 0;
#X connect 57 0 69 0;
#X connect 58 0 60 0;
#X connect 58 0 61 0;
#X connect 58 1 62 0;
#X connect 59 0 58 0;
#X connect 60 0 64 0;
#X connect 62 0 66 0;
#X connect 63 0 72 0;
#X connect 64 0 55 1;
#X connect 65 0 70 0;
#X connect 66 0 71 0;
#X connect 68 0 55 0;
#X connect 69 0 56 0;
#X connect 70 0 57 1;
#X connect 71 0 55 1;
#X connect 72 0 58 1;
#X restore 179 99 pd acid;
#X connect 0 0 1 0;
#X connect 1 0 14 0;
#X connect 2 0 4 0;
#X connect 3 0 2 0;
#X connect 3 1 19 0;
#X connect 4 0 6 0;
#X connect 6 0 7 0;
#X connect 10 0 11 0;
#X connect 10 0 11 1;
#X connect 12 0 10 0;
#X connect 13 0 12 0;
#X connect 15 0 3 0;
#X connect 16 0 17 0;
#X connect 17 0 18 0;
#X connect 19 0 4 1;
#X connect 19 0 5 0;
#X connect 21 0 22 0;
#X connect 22 0 20 0;
