#N canvas 0 38 1512 916 12;
#X declare -path ../lib;
#X declare -path ../samples;
#X obj 15 11 loadbang;
#X obj 15 37 bng 15 250 50 0 empty empty empty 17 7 0 10 #fcfcfc #000000 #000000;
#X obj 15 160 tgl 15 0 empty empty empty 17 7 0 10 #fcfcfc #000000 #000000 0 1;
#X obj 15 132 t b b;
#X obj 15 185 metro;
#X obj 69 185 s bpms;
#X obj 15 211 bng 15 250 50 0 empty empty empty 17 7 0 10 #fcfcfc #000000 #000000;
#X obj 15 233 s beat;
#X obj 175 11 declare -path ../lib;
#X obj 175 36 declare -path ../samples;
#X obj 16 390 clip~ -1 1;
#X obj 16 414 dac~;
#X obj 16 366 *~ 1;
#X obj 16 342 catch~ out;
#X obj 15 59 s bang-all;
#X obj 15 107 r bang-all;
#X obj 502 117 eseq;
#X obj 502 40 r beat;
#X obj 502 141 bng 19 250 50 0 empty empty empty 0 -10 0 12 #fcfcfc #000000 #000000;
#X obj 502 141 bng 19 250 50 0 empty empty empty 0 -10 0 12 #fcfcfc #000000 #000000;
#X obj 527 141 bng 19 250 50 0 empty empty empty 0 -10 0 12 #fcfcfc #000000 #000000;
#X msg 527 92 1 4 0;
#X obj 527 67 r bang-all;
#X obj 502 169 kick~;
#X obj 502 194 throw~ drums;
#X obj 848 277 catch~ drums;
#X obj 848 315 *~ 0.5;
#X obj 848 339 throw~ out;
#X msg 47 158 100;
#X obj 618 121 eseq;
#X obj 618 44 r beat;
#X obj 618 145 bng 19 250 50 0 empty empty empty 0 -10 0 12 #fcfcfc #000000 #000000;
#X obj 618 145 bng 19 250 50 0 empty empty empty 0 -10 0 12 #fcfcfc #000000 #000000;
#X obj 643 145 bng 19 250 50 0 empty empty empty 0 -10 0 12 #fcfcfc #000000 #000000;
#X obj 643 71 r bang-all;
#X obj 618 170 kick~;
#X obj 618 195 throw~ drums;
#X msg 643 96 1 9 4;
#X obj 802 121 eseq;
#X obj 802 44 r beat;
#X obj 802 145 bng 19 250 50 0 empty empty empty 0 -10 0 12 #fcfcfc #000000 #000000;
#X obj 802 145 bng 19 250 50 0 empty empty empty 0 -10 0 12 #fcfcfc #000000 #000000;
#X obj 827 145 bng 19 250 50 0 empty empty empty 0 -10 0 12 #fcfcfc #000000 #000000;
#X obj 827 71 r bang-all;
#X obj 802 232 throw~ drums;
#X obj 802 177 snare~;
#X obj 802 201 *~ 0.25;
#X msg 827 96 1 8 4;
#X obj 941 121 eseq;
#X obj 941 44 r beat;
#X obj 941 145 bng 19 250 50 0 empty empty empty 0 -10 0 12 #fcfcfc #000000 #000000;
#X obj 941 145 bng 19 250 50 0 empty empty empty 0 -10 0 12 #fcfcfc #000000 #000000;
#X obj 966 145 bng 19 250 50 0 empty empty empty 0 -10 0 12 #fcfcfc #000000 #000000;
#X obj 966 71 r bang-all;
#X obj 941 232 throw~ drums;
#X obj 941 177 snare~;
#X msg 966 96 3 18 0;
#X obj 1127 122 eseq;
#X obj 1127 45 r beat;
#X obj 1127 146 bng 19 250 50 0 empty empty empty 0 -10 0 12 #fcfcfc #000000 #000000;
#X obj 1127 146 bng 19 250 50 0 empty empty empty 0 -10 0 12 #fcfcfc #000000 #000000;
#X obj 1152 146 bng 19 250 50 0 empty empty empty 0 -10 0 12 #fcfcfc #000000 #000000;
#X obj 1152 72 r bang-all;
#X obj 1127 233 throw~ drums;
#X obj 1127 178 hat~;
#X obj 1268 123 eseq;
#X obj 1268 46 r beat;
#X obj 1268 147 bng 19 250 50 0 empty empty empty 0 -10 0 12 #fcfcfc #000000 #000000;
#X obj 1268 147 bng 19 250 50 0 empty empty empty 0 -10 0 12 #fcfcfc #000000 #000000;
#X obj 1293 147 bng 19 250 50 0 empty empty empty 0 -10 0 12 #fcfcfc #000000 #000000;
#X obj 1293 73 r bang-all;
#X obj 1268 234 throw~ drums;
#X obj 1268 179 hat~;
#X msg 1293 98 24 27 0;
#X obj 1268 203 *~ 0.05;
#X msg 1152 97 1 4 2;
#X obj 226 632 *;
#X floatatom 226 656 5 0 0 0 - - - 0;
#X obj 1296 303 r beat;
#X floatatom 305 710 5 0 0 0 - - - 0;
#X obj 184 785 acidfilter~, f 35;
#X obj 358 685 * 5;
#X floatatom 358 711 5 0 0 0 - - - 0;
#X obj 305 733 pack f f;
#X obj 533 730 r bang-all;
#N canvas 63 88 1070 496 acid 0;
#X obj 225 283 saw~;
#X obj 264 283 saw~;
#X obj 264 445 outlet~;
#X obj 97 13 inlet;
#X floatatom 97 37 5 0 0 0 - - - 0;
#X obj 97 60 s \$0-freq;
#X obj 248 226 r \$0-freq;
#X obj 183 280 saw~;
#X obj 201 254 * 2;
#X obj 264 258 * 0.5;
#X connect 0 0 2 0;
#X connect 1 0 2 0;
#X connect 3 0 4 0;
#X connect 4 0 5 0;
#X connect 6 0 0 0;
#X connect 6 0 8 0;
#X connect 6 0 9 0;
#X connect 7 0 2 0;
#X connect 8 0 7 0;
#X connect 9 0 1 0;
#X restore 125 706 pd acid;
#X obj 197 428 throw~ out;
#X obj 197 351 catch~ acid;
#X obj 1295 426 eseq;
#X obj 315 273 r beat;
#X obj 1295 450 bng 19 250 50 0 empty empty empty 0 -10 0 12 #fcfcfc #000000 #000000;
#X obj 1295 450 bng 19 250 50 0 empty empty empty 0 -10 0 12 #fcfcfc #000000 #000000;
#X obj 1320 450 bng 19 250 50 0 empty empty empty 0 -10 0 12 #fcfcfc #000000 #000000;
#X obj 1320 376 r bang-all;
#X obj 315 298 bng 19 250 50 0 empty empty empty 0 -10 0 12 #fcfcfc #000000 #000000;
#X obj 315 323 counter;
#X floatatom 315 371 5 0 0 0 - - - 0;
#X msg 396 453 -2;
#X obj 244 586 ctof;
#X obj 244 538 * 240;
#X floatatom 244 562 5 0 0 0 - - - 0;
#X floatatom 244 610 5 0 0 0 - - - 0;
#X obj 305 839 vline~;
#X obj 190 876 *~;
#X obj 190 900 throw~ acid;
#X msg 305 817 1 1 0 \, 0 250 5;
#X obj 305 685 * 15;
#X obj 197 404 *~ 0.1;
#X obj 1278 679 vline~;
#X obj 1203 720 *~;
#X obj 1074 524 *;
#X obj 1149 524 *;
#X obj 1149 267 r cents;
#X obj 1092 472 r bsw;
#X obj 1278 629 r bsw;
#X obj 1167 475 r bsw;
#X obj 1085 632 hip~;
#X obj 1074 549 tri~;
#X msg 305 758 5 55 \$1 \$2;
#X obj 315 347 % 8;
#X obj 315 401 sel 0 1 2 3 4 5 6 7, f 44;
#X floatatom 535 541 5 0 0 0 - - - 0;
#X obj 511 592 -;
#X obj 368 495 t b b f b;
#X floatatom 511 616 5 0 0 0 - - - 0;
#X obj 623 641 osc~ 0.1;
#X obj 622 710 snapshot~;
#X obj 782 692 metro 1;
#X obj 781 667 tgl 19 0 empty empty empty 0 -10 0 12 #fcfcfc #000000 #000000 0 1;
#X floatatom 622 734 5 0 0 0 - - - 0;
#X floatatom 622 781 5 0 0 0 - - - 0;
#X floatatom 618 849 5 0 0 0 - - - 0;
#X obj 578 858 +;
#X obj 623 682 *~;
#X obj 689 642 phasor~ 0.3;
#X obj 618 825 * 12;
#X msg 533 756 3;
#X msg 227 498 110;
#X obj 438 660 s cents;
#X obj 1259 503 s bsw;
#X obj 1310 502 s bsw-o;
#X obj 1134 808 throw~ out;
#X obj 1073 387 ctof;
#X msg 1320 401 1 24 0;
#X msg 1092 500 220;
#X msg 542 453 -2;
#X msg 1278 655 1 2000 0 \, 0 100 2000;
#X obj 1149 548 sinabs~;
#X obj 622 757 + 0.5;
#X obj 1149 410 ctof;
#X floatatom 1222 588 5 0 0 0 - - - 0;
#X obj 1222 564 / 50;
#X msg 502 453 4;
#X obj 535 564 - 1;
#X obj 535 517 random 3;
#X msg 584 452 -5;
#X msg 461 453 -3;
#X obj 941 201 *~ 0.075;
#X obj 1127 202 *~ 0.75;
#X obj 1187 641 *~ 0.25;
#X obj 1119 606 + 3500;
#X obj 1134 780 *~ 0.1;
#X msg 1167 499 220;
#X obj 355 429 bern 4;
#X msg 355 453 7;
#X obj 429 428 bern 4;
#X msg 429 452 -7;
#X msg 315 453 -2;
#X floatatom 1149 314 5 0 0 0 - - - 0;
#X obj 1149 291 / 240;
#X obj 1149 337 % 5;
#X obj 1149 361 * 240;
#X obj 1073 268 r cents;
#X floatatom 1073 315 5 0 0 0 - - - 0;
#X obj 1073 292 / 240;
#X obj 1073 338 % 5;
#X obj 1073 362 * 240;
#X obj 1149 385 + 240;
#X obj 836 588 square~;
#X obj 909 588 square~;
#X obj 934 839 throw~ out;
#X obj 964 741 *~;
#X obj 964 711 vline~;
#X obj 934 815 *~ 0.1;
#X floatatom 718 772 5 0 0 0 - - - 0;
#X obj 718 795 + 100;
#X floatatom 718 819 5 0 0 0 - - - 0;
#X obj 925 640 lop~;
#X obj 782 640 r bang-all;
#X obj 718 748 * 20;
#X obj 711 245 r beat;
#X obj 710 322 eseq;
#X obj 710 346 bng 19 250 50 0 empty empty empty 0 -10 0 12 #fcfcfc #000000 #000000;
#X obj 710 346 bng 19 250 50 0 empty empty empty 0 -10 0 12 #fcfcfc #000000 #000000;
#X obj 735 346 bng 19 250 50 0 empty empty empty 0 -10 0 12 #fcfcfc #000000 #000000;
#X obj 735 272 r bang-all;
#X obj 710 371 random 5;
#X obj 710 431 - 1;
#X floatatom 710 395 5 0 0 0 - - - 0;
#X floatatom 710 455 5 0 0 0 - - - 0;
#X floatatom 753 455 5 0 0 0 - - - 0;
#X obj 706 493 * 240;
#X obj 755 494 * 240;
#X obj 720 526 ctof;
#X obj 764 528 ctof;
#X obj 808 554 *;
#X obj 750 551 *;
#X obj 924 407 t b b;
#X msg 808 521 440;
#X msg 750 518 440;
#X obj 753 431 + 4;
#X msg 735 297 1 24 0;
#X msg 965 687 0.25 5 0 \, 0 10000 5;
#X connect 0 0 1 0;
#X connect 1 0 14 0;
#X connect 2 0 4 0;
#X connect 3 0 2 0;
#X connect 3 1 28 0;
#X connect 4 0 6 0;
#X connect 6 0 7 0;
#X connect 10 0 11 0;
#X connect 10 0 11 1;
#X connect 12 0 10 0;
#X connect 13 0 12 0;
#X connect 15 0 3 0;
#X connect 16 0 18 0;
#X connect 16 0 19 0;
#X connect 16 1 20 0;
#X connect 17 0 16 0;
#X connect 18 0 23 0;
#X connect 21 0 16 1;
#X connect 22 0 21 0;
#X connect 23 0 24 0;
#X connect 25 0 26 0;
#X connect 26 0 27 0;
#X connect 28 0 4 1;
#X connect 28 0 5 0;
#X connect 29 0 31 0;
#X connect 29 0 32 0;
#X connect 29 1 33 0;
#X connect 30 0 29 0;
#X connect 31 0 35 0;
#X connect 34 0 37 0;
#X connect 35 0 36 0;
#X connect 37 0 29 1;
#X connect 38 0 40 0;
#X connect 38 0 41 0;
#X connect 38 1 42 0;
#X connect 39 0 38 0;
#X connect 40 0 45 0;
#X connect 43 0 47 0;
#X connect 45 0 46 0;
#X connect 46 0 44 0;
#X connect 47 0 38 1;
#X connect 48 0 50 0;
#X connect 48 0 51 0;
#X connect 48 1 52 0;
#X connect 49 0 48 0;
#X connect 50 0 55 0;
#X connect 53 0 56 0;
#X connect 55 0 157 0;
#X connect 56 0 48 1;
#X connect 57 0 59 0;
#X connect 57 0 60 0;
#X connect 57 1 61 0;
#X connect 58 0 57 0;
#X connect 59 0 64 0;
#X connect 62 0 75 0;
#X connect 64 0 158 0;
#X connect 65 0 67 0;
#X connect 65 0 68 0;
#X connect 65 1 69 0;
#X connect 66 0 65 0;
#X connect 67 0 72 0;
#X connect 69 0 55 0;
#X connect 70 0 73 0;
#X connect 72 0 74 0;
#X connect 73 0 65 1;
#X connect 74 0 71 0;
#X connect 75 0 57 1;
#X connect 76 0 77 0;
#X connect 77 0 81 0;
#X connect 77 0 85 0;
#X connect 77 0 106 0;
#X connect 78 0 88 0;
#X connect 79 0 83 0;
#X connect 80 0 103 0;
#X connect 81 0 82 0;
#X connect 82 0 83 1;
#X connect 83 0 118 0;
#X connect 84 0 136 0;
#X connect 85 0 80 0;
#X connect 87 0 107 0;
#X connect 88 0 90 0;
#X connect 88 0 91 0;
#X connect 88 1 92 0;
#X connect 89 0 94 0;
#X connect 90 0 139 0;
#X connect 92 0 140 0;
#X connect 93 0 143 0;
#X connect 94 0 95 0;
#X connect 95 0 119 0;
#X connect 96 0 120 0;
#X connect 97 0 123 0;
#X connect 98 0 101 0;
#X connect 99 0 100 0;
#X connect 100 0 98 0;
#X connect 100 0 138 0;
#X connect 101 0 76 1;
#X connect 102 0 103 1;
#X connect 103 0 104 0;
#X connect 105 0 102 0;
#X connect 106 0 79 0;
#X connect 107 0 86 0;
#X connect 108 0 109 1;
#X connect 109 0 161 0;
#X connect 110 0 117 0;
#X connect 110 0 160 0;
#X connect 111 0 147 0;
#X connect 111 0 151 0;
#X connect 112 0 169 0;
#X connect 113 0 144 0;
#X connect 114 0 146 0;
#X connect 115 0 162 0;
#X connect 116 0 109 0;
#X connect 117 0 116 0;
#X connect 118 0 80 1;
#X connect 119 0 96 0;
#X connect 120 0 167 0;
#X connect 120 1 163 0;
#X connect 120 2 97 0;
#X connect 120 3 165 0;
#X connect 120 4 156 0;
#X connect 120 5 152 0;
#X connect 120 6 145 0;
#X connect 120 7 155 0;
#X connect 121 0 153 0;
#X connect 122 0 124 0;
#X connect 123 0 105 0;
#X connect 123 1 137 0;
#X connect 123 2 122 0;
#X connect 123 3 154 0;
#X connect 124 0 99 0;
#X connect 125 0 133 0;
#X connect 126 0 129 0;
#X connect 127 0 126 0;
#X connect 127 0 136 0;
#X connect 128 0 127 0;
#X connect 129 0 148 0;
#X connect 130 0 135 0;
#X connect 131 0 132 1;
#X connect 131 0 189 0;
#X connect 132 0 80 2;
#X connect 133 0 126 0;
#X connect 134 0 133 1;
#X connect 135 0 131 0;
#X connect 136 0 132 0;
#X connect 137 0 76 0;
#X connect 142 0 110 0;
#X connect 143 0 88 1;
#X connect 144 0 110 1;
#X connect 145 0 123 0;
#X connect 146 0 108 0;
#X connect 147 0 116 0;
#X connect 147 0 159 0;
#X connect 148 0 130 0;
#X connect 149 0 111 0;
#X connect 151 0 150 0;
#X connect 152 0 123 0;
#X connect 153 0 122 1;
#X connect 154 0 121 0;
#X connect 155 0 123 0;
#X connect 156 0 123 0;
#X connect 157 0 54 0;
#X connect 158 0 63 0;
#X connect 159 0 109 0;
#X connect 160 0 116 1;
#X connect 161 0 141 0;
#X connect 162 0 111 1;
#X connect 163 0 164 0;
#X connect 164 0 123 0;
#X connect 165 0 166 0;
#X connect 166 0 123 0;
#X connect 167 0 123 0;
#X connect 168 0 170 0;
#X connect 169 0 168 0;
#X connect 170 0 171 0;
#X connect 171 0 177 0;
#X connect 172 0 174 0;
#X connect 173 0 175 0;
#X connect 174 0 173 0;
#X connect 175 0 176 0;
#X connect 176 0 142 0;
#X connect 177 0 149 0;
#X connect 178 0 187 0;
#X connect 179 0 187 0;
#X connect 181 0 183 0;
#X connect 182 0 181 1;
#X connect 183 0 180 0;
#X connect 184 0 185 0;
#X connect 185 0 186 0;
#X connect 186 0 187 1;
#X connect 187 0 181 0;
#X connect 188 0 128 0;
#X connect 189 0 184 0;
#X connect 190 0 191 0;
#X connect 191 0 192 0;
#X connect 191 0 193 0;
#X connect 191 1 194 0;
#X connect 192 0 207 0;
#X connect 195 0 211 0;
#X connect 196 0 198 0;
#X connect 197 0 199 0;
#X connect 198 0 197 0;
#X connect 198 0 210 0;
#X connect 199 0 201 0;
#X connect 200 0 202 0;
#X connect 201 0 203 0;
#X connect 202 0 204 0;
#X connect 203 0 206 0;
#X connect 204 0 205 0;
#X connect 205 0 178 0;
#X connect 206 0 179 0;
#X connect 207 0 212 0;
#X connect 207 1 196 0;
#X connect 208 0 205 1;
#X connect 209 0 206 1;
#X connect 210 0 200 0;
#X connect 211 0 191 1;
#X connect 212 0 182 0;
