#N canvas 0 38 1512 916 12;
#X declare -path ../lib;
#X declare -path ../samples;
#X obj 15 11 loadbang;
#X obj 15 37 bng 15 250 50 0 empty empty empty 17 7 0 10 #fcfcfc #000000 #000000;
#X obj 15 160 tgl 15 0 empty empty empty 17 7 0 10 #fcfcfc #000000 #000000 0 1;
#X obj 15 132 t b b;
#X obj 15 185 metro;
#X obj 69 185 s bpms;
#X obj 15 211 bng 15 250 50 0 empty empty empty 17 7 0 10 #fcfcfc #000000 #000000;
#X obj 15 233 s beat;
#X obj 175 11 declare -path ../lib;
#X obj 175 36 declare -path ../samples;
#X obj 16 390 clip~ -1 1;
#X obj 16 414 dac~;
#X obj 16 366 *~ 1;
#X obj 16 342 catch~ out;
#X obj 15 59 s bang-all;
#X obj 15 107 r bang-all;
#X obj 298 336 *~;
#X obj 482 417 vline~;
#X obj 299 481 throw~ out;
#X obj 298 384 lop~ 350;
#X obj 298 408 lop~ 350;
#X obj 296 253 osc~;
#X obj 482 342 bng 19 250 50 0 empty empty empty 0 -10 0 12 #fcfcfc #000000 #000000;
#X obj 482 366 t b b;
#X obj 337 254 osc~;
#X msg 47 158 100;
#X obj 799 227 eseq;
#X msg 824 192 3 8 0;
#X obj 824 167 r bang-all;
#X obj 799 251 bng 19 250 50 0 empty empty empty 0 -10 0 12 #fcfcfc #000000 #000000;
#X obj 826 252 bng 19 250 50 0 empty empty empty 0 -10 0 12 #fcfcfc #000000 #000000;
#X obj 798 133 r beat;
#X obj 799 275 kick~;
#X obj 799 299 throw~ drums;
#X obj 802 653 catch~ drums;
#X obj 802 677 *~ 0.1;
#X obj 802 701 throw~ out;
#X obj 535 246 eseq;
#X obj 560 186 r bang-all;
#X obj 535 270 bng 19 250 50 0 empty empty empty 0 -10 0 12 #fcfcfc #000000 #000000;
#X obj 562 271 bng 19 250 50 0 empty empty empty 0 -10 0 12 #fcfcfc #000000 #000000;
#X obj 534 152 r beat;
#X msg 560 211 3 16 0;
#X msg 296 206 45;
#X obj 925 229 eseq;
#X obj 950 169 r bang-all;
#X obj 925 253 bng 19 250 50 0 empty empty empty 0 -10 0 12 #fcfcfc #000000 #000000;
#X obj 952 254 bng 19 250 50 0 empty empty empty 0 -10 0 12 #fcfcfc #000000 #000000;
#X obj 924 135 r beat;
#X obj 925 329 throw~ drums;
#X obj 925 277 snare~;
#X msg 950 194 1 4 2;
#X obj 800 439 eseq;
#X obj 825 379 r bang-all;
#X obj 800 463 bng 19 250 50 0 empty empty empty 0 -10 0 12 #fcfcfc #000000 #000000;
#X obj 827 464 bng 19 250 50 0 empty empty empty 0 -10 0 12 #fcfcfc #000000 #000000;
#X obj 799 345 r beat;
#X obj 800 615 throw~ drums;
#X obj 800 522 hat~;
#X floatatom 839 561 5 0 0 0 - - - 0;
#X obj 800 487 t b b;
#X obj 800 576 *~;
#X obj 839 537 / 10;
#X obj 839 584 + 0.1;
#X obj 839 513 random 9;
#X obj 1044 307 throw~ drums;
#X obj 1044 256 snare~;
#X msg 825 404 21 24 2;
#X obj 1043 203 eseq;
#X obj 1068 143 r bang-all;
#X obj 1043 227 bng 19 250 50 0 empty empty empty 0 -10 0 12 #fcfcfc #000000 #000000;
#X obj 1070 228 bng 19 250 50 0 empty empty empty 0 -10 0 12 #fcfcfc #000000 #000000;
#X obj 1042 109 r beat;
#X msg 1068 168 3 17 2;
#X obj 1044 280 *~ 0.1;
#X obj 925 303 *~ 0.65;
#X msg 482 392 1 5 0 \, 0 500 250;
#X obj 337 278 *~ 0.1;
#X obj 337 231 *~ 1.01;
#X obj 298 432 clip~ -1 1;
#X obj 298 456 *~ 0.25;
#X obj 492 586 osc~;
#X obj 533 587 osc~;
#X msg 492 494 220;
#X obj 533 611 *~ 0.5;
#X obj 619 648 vline~;
#X obj 525 701 *~;
#X obj 524 791 throw~ bell;
#X obj 519 818 catch~ bell;
#X obj 519 877 throw~ out;
#X msg 619 623 1 1 0 \, 0 250 10;
#X obj 524 728 lop~ 500;
#X obj 524 752 lop~ 500;
#X msg 1178 428 220;
#X obj 1219 545 *~ 0.5;
#X obj 1305 582 vline~;
#X obj 1211 635 *~;
#X obj 1210 662 lop~ 500;
#X obj 1210 686 lop~ 500;
#X obj 1273 271 counter;
#X obj 1274 431 t b b f;
#X obj 1180 522 tri~;
#X obj 1208 787 throw~ out;
#X obj 1208 738 catch~ tribell;
#X obj 1210 711 throw~ tribell;
#X obj 519 842 *~ 0.01;
#X msg 1192 367 1;
#X msg 1234 367 4;
#X msg 1278 369 7;
#X msg 1322 370 10;
#X msg 572 504 4;
#X obj 1219 521 square~;
#X obj 1138 521 saw~;
#X obj 1138 545 *~ 0.25;
#X obj 476 450 r bang-all;
#X obj 295 179 r bang-all;
#X msg 1443 372 1;
#X msg 1399 371 4;
#X msg 1362 371 7;
#X obj 1273 295 % 7;
#X obj 1273 217 eseq;
#X obj 1298 157 r bang-all;
#X obj 1273 241 bng 19 250 50 0 empty empty empty 0 -10 0 12 #fcfcfc #000000 #000000;
#X obj 1300 242 bng 19 250 50 0 empty empty empty 0 -10 0 12 #fcfcfc #000000 #000000;
#X obj 1272 123 r beat;
#X msg 1298 182 7 8 0;
#X obj 1274 325 sel 0 1 2 3 4 5 6;
#X obj 151 612 *~ 0.5;
#X obj 237 649 vline~;
#X obj 143 702 *~;
#X obj 142 729 lop~ 500;
#X obj 142 753 lop~ 500;
#X obj 206 498 t b b f;
#X obj 112 589 tri~;
#X obj 141 880 throw~ out;
#X obj 151 588 square~;
#X obj 70 588 saw~;
#X obj 70 612 *~ 0.25;
#X msg 110 495 440;
#X obj 142 778 throw~ lead;
#X obj 140 805 catch~ lead;
#X obj 182 340 random 3;
#X obj 182 391 * 4;
#X floatatom 182 415 5 0 0 0 - - - 0;
#X obj 182 367 - 1;
#X obj 252 881 throw~ lead;
#X obj 221 759 delwrite~ leadbuf 10000;
#X obj 252 841 *~ 0.5;
#X obj 252 817 delread~ leadbuf 500;
#X obj 345 893 throw~ lead;
#X obj 345 843 delread~ leadbuf 750;
#X obj 345 867 *~ 0.25;
#X obj 170 220 eseq;
#X obj 195 160 r bang-all;
#X obj 170 244 bng 19 250 50 0 empty empty empty 0 -10 0 12 #fcfcfc #000000 #000000;
#X obj 197 245 bng 19 250 50 0 empty empty empty 0 -10 0 12 #fcfcfc #000000 #000000;
#X obj 169 126 r beat;
#X msg 194 185 5 16 0;
#X obj 141 856 *~ 0.025;
#X obj 313 652 delread~ leadbuf 1000;
#X obj 313 688 rev1~;
#X msg 398 698 99;
#X obj 403 732 throw~ lead;
#X obj 313 712 *~ 0.75;
#X obj 1208 763 *~ 0.01;
#X obj 152 538 ttet 7;
#X obj 533 537 ttet 7;
#X obj 1220 471 ttet 7;
#X msg 1305 557 1 50 0 \, 0 100 50;
#X msg 237 624 1 50 0 \, 0 150 50;
#X obj 444 688 r bang-all;
#X connect 0 0 1 0;
#X connect 1 0 14 0;
#X connect 2 0 4 0;
#X connect 3 0 2 0;
#X connect 3 1 25 0;
#X connect 4 0 6 0;
#X connect 6 0 7 0;
#X connect 10 0 11 0;
#X connect 10 0 11 1;
#X connect 12 0 10 0;
#X connect 13 0 12 0;
#X connect 15 0 3 0;
#X connect 16 0 19 0;
#X connect 17 0 16 1;
#X connect 19 0 20 0;
#X connect 20 0 79 0;
#X connect 21 0 16 0;
#X connect 22 0 23 0;
#X connect 23 0 76 0;
#X connect 24 0 77 0;
#X connect 25 0 4 1;
#X connect 25 0 5 0;
#X connect 26 0 29 0;
#X connect 26 1 30 0;
#X connect 27 0 26 1;
#X connect 28 0 27 0;
#X connect 29 0 32 0;
#X connect 31 0 26 0;
#X connect 32 0 33 0;
#X connect 34 0 35 0;
#X connect 35 0 36 0;
#X connect 37 0 39 0;
#X connect 37 1 40 0;
#X connect 38 0 42 0;
#X connect 39 0 22 0;
#X connect 40 0 90 0;
#X connect 41 0 37 0;
#X connect 42 0 37 1;
#X connect 43 0 21 0;
#X connect 43 0 78 0;
#X connect 44 0 46 0;
#X connect 44 1 47 0;
#X connect 45 0 51 0;
#X connect 46 0 50 0;
#X connect 48 0 44 0;
#X connect 50 0 75 0;
#X connect 51 0 44 1;
#X connect 52 0 54 0;
#X connect 52 1 55 0;
#X connect 53 0 67 0;
#X connect 54 0 60 0;
#X connect 56 0 52 0;
#X connect 58 0 61 0;
#X connect 59 0 63 0;
#X connect 60 0 58 0;
#X connect 60 1 64 0;
#X connect 61 0 57 0;
#X connect 62 0 59 0;
#X connect 63 0 61 1;
#X connect 64 0 62 0;
#X connect 66 0 74 0;
#X connect 67 0 52 1;
#X connect 68 0 70 0;
#X connect 68 1 71 0;
#X connect 69 0 73 0;
#X connect 70 0 66 0;
#X connect 72 0 68 0;
#X connect 73 0 68 1;
#X connect 74 0 65 0;
#X connect 75 0 49 0;
#X connect 76 0 17 0;
#X connect 77 0 16 0;
#X connect 78 0 24 0;
#X connect 79 0 80 0;
#X connect 80 0 18 0;
#X connect 81 0 86 0;
#X connect 82 0 84 0;
#X connect 83 0 81 0;
#X connect 83 0 166 0;
#X connect 84 0 86 0;
#X connect 85 0 86 1;
#X connect 86 0 91 0;
#X connect 88 0 105 0;
#X connect 90 0 85 0;
#X connect 91 0 92 0;
#X connect 92 0 87 0;
#X connect 93 0 101 0;
#X connect 93 0 167 0;
#X connect 94 0 96 0;
#X connect 95 0 96 1;
#X connect 96 0 97 0;
#X connect 97 0 98 0;
#X connect 98 0 104 0;
#X connect 99 0 119 0;
#X connect 100 0 168 0;
#X connect 100 1 93 0;
#X connect 100 2 167 1;
#X connect 101 0 96 0;
#X connect 103 0 164 0;
#X connect 105 0 89 0;
#X connect 106 0 100 0;
#X connect 107 0 100 0;
#X connect 108 0 100 0;
#X connect 109 0 100 0;
#X connect 110 0 166 1;
#X connect 111 0 94 0;
#X connect 112 0 113 0;
#X connect 113 0 96 0;
#X connect 114 0 83 0;
#X connect 114 0 110 0;
#X connect 115 0 43 0;
#X connect 116 0 100 0;
#X connect 117 0 100 0;
#X connect 118 0 100 0;
#X connect 119 0 126 0;
#X connect 120 0 122 0;
#X connect 120 1 123 0;
#X connect 121 0 125 0;
#X connect 122 0 99 0;
#X connect 124 0 120 0;
#X connect 125 0 120 1;
#X connect 126 0 106 0;
#X connect 126 1 107 0;
#X connect 126 2 108 0;
#X connect 126 3 109 0;
#X connect 126 4 118 0;
#X connect 126 5 117 0;
#X connect 126 6 116 0;
#X connect 127 0 129 0;
#X connect 128 0 129 1;
#X connect 129 0 130 0;
#X connect 130 0 131 0;
#X connect 131 0 146 0;
#X connect 131 0 139 0;
#X connect 132 0 169 0;
#X connect 132 1 138 0;
#X connect 132 2 165 1;
#X connect 133 0 129 0;
#X connect 135 0 127 0;
#X connect 136 0 137 0;
#X connect 137 0 129 0;
#X connect 138 0 133 0;
#X connect 138 0 165 0;
#X connect 140 0 158 0;
#X connect 141 0 144 0;
#X connect 142 0 143 0;
#X connect 143 0 132 0;
#X connect 144 0 142 0;
#X connect 147 0 145 0;
#X connect 148 0 147 0;
#X connect 150 0 151 0;
#X connect 151 0 149 0;
#X connect 152 0 154 0;
#X connect 152 1 155 0;
#X connect 153 0 157 0;
#X connect 154 0 141 0;
#X connect 156 0 152 0;
#X connect 157 0 152 1;
#X connect 158 0 134 0;
#X connect 159 0 160 0;
#X connect 160 0 163 0;
#X connect 161 0 160 1;
#X connect 163 0 162 0;
#X connect 164 0 102 0;
#X connect 165 0 135 0;
#X connect 165 0 136 0;
#X connect 166 0 82 0;
#X connect 167 0 111 0;
#X connect 167 0 112 0;
#X connect 168 0 95 0;
#X connect 169 0 128 0;
#X connect 170 0 161 0;
