#N canvas 0 38 1512 916 12;
#X declare -path ../lib;
#X declare -path ../samples;
#X obj 15 11 loadbang;
#X obj 15 37 bng 15 250 50 0 empty empty empty 17 7 0 10 #fcfcfc #000000 #000000;
#X obj 15 160 tgl 15 0 empty empty empty 17 7 0 10 #fcfcfc #000000 #000000 0 1;
#X obj 15 132 t b b;
#X obj 15 185 metro;
#X obj 69 185 s bpms;
#X obj 15 211 bng 15 250 50 0 empty empty empty 17 7 0 10 #fcfcfc #000000 #000000;
#X obj 15 233 s beat;
#X obj 175 11 declare -path ../lib;
#X obj 175 36 declare -path ../samples;
#X obj 16 390 clip~ -1 1;
#X obj 16 414 dac~;
#X obj 16 366 *~ 1;
#X obj 16 342 catch~ out;
#X obj 15 59 s bang-all;
#X obj 15 107 r bang-all;
#X obj 298 336 *~;
#X obj 316 312 vline~;
#X obj 299 481 throw~ out;
#X obj 296 150 osc~;
#X obj 337 151 osc~;
#X msg 47 158 100;
#X obj 997 223 eseq;
#X obj 1022 163 r bang-all;
#X obj 997 247 bng 19 250 50 0 empty empty empty 0 -10 0 12 #fcfcfc #000000 #000000;
#X obj 1024 248 bng 19 250 50 0 empty empty empty 0 -10 0 12 #fcfcfc #000000 #000000;
#X obj 996 129 r beat;
#X obj 997 271 kick~;
#X obj 997 296 throw~ drums;
#X obj 1357 339 catch~ drums;
#X obj 1357 363 *~ 0.1;
#X obj 1357 387 throw~ out;
#X obj 439 163 eseq;
#X obj 464 103 r bang-all;
#X obj 439 187 bng 19 250 50 0 empty empty empty 0 -10 0 12 #fcfcfc #000000 #000000;
#X obj 466 188 bng 19 250 50 0 empty empty empty 0 -10 0 12 #fcfcfc #000000 #000000;
#X obj 438 69 r beat;
#X msg 464 128 3 16 0;
#X msg 295 101 45;
#X obj 1107 198 eseq;
#X obj 1132 138 r bang-all;
#X obj 1107 222 bng 19 250 50 0 empty empty empty 0 -10 0 12 #fcfcfc #000000 #000000;
#X obj 1134 223 bng 19 250 50 0 empty empty empty 0 -10 0 12 #fcfcfc #000000 #000000;
#X obj 1106 104 r beat;
#X obj 1107 298 throw~ drums;
#X obj 1107 246 snare~;
#X msg 1132 163 1 4 2;
#X obj 1355 125 eseq;
#X obj 1380 65 r bang-all;
#X obj 1355 149 bng 19 250 50 0 empty empty empty 0 -10 0 12 #fcfcfc #000000 #000000;
#X obj 1382 150 bng 19 250 50 0 empty empty empty 0 -10 0 12 #fcfcfc #000000 #000000;
#X obj 1354 31 r beat;
#X obj 1355 301 throw~ drums;
#X obj 1355 208 hat~;
#X floatatom 1394 247 5 0 0 0 - - - 0;
#X obj 1355 173 t b b;
#X obj 1355 262 *~;
#X obj 1394 223 / 10;
#X obj 1394 270 + 0.1;
#X obj 1394 199 random 9;
#X obj 1230 300 throw~ drums;
#X obj 1230 249 snare~;
#X msg 1380 90 21 24 2;
#X obj 1229 196 eseq;
#X obj 1254 136 r bang-all;
#X obj 1229 220 bng 19 250 50 0 empty empty empty 0 -10 0 12 #fcfcfc #000000 #000000;
#X obj 1256 221 bng 19 250 50 0 empty empty empty 0 -10 0 12 #fcfcfc #000000 #000000;
#X obj 1228 102 r beat;
#X msg 1254 161 3 17 2;
#X obj 1230 273 *~ 0.1;
#X obj 1107 272 *~ 0.65;
#X obj 337 175 *~ 0.1;
#X obj 337 128 *~ 1.01;
#X obj 298 432 clip~ -1 1;
#X obj 298 456 *~ 0.25;
#X obj 488 381 osc~;
#X obj 529 382 osc~;
#X msg 488 289 220;
#X obj 529 406 *~ 0.5;
#X obj 615 443 vline~;
#X obj 521 496 *~;
#X obj 521 577 throw~ bell;
#X obj 522 608 catch~ bell;
#X obj 522 667 throw~ out;
#X msg 615 418 1 1 0 \, 0 250 10;
#X obj 521 522 lop~ 500;
#X obj 521 546 lop~ 500;
#X obj 487 246 r bang-all;
#X obj 295 74 r bang-all;
#X obj 151 612 *~ 0.5;
#X obj 237 649 vline~;
#X obj 143 702 *~;
#X obj 142 729 lop~ 500;
#X obj 142 753 lop~ 500;
#X obj 161 447 t b b f;
#X obj 112 589 tri~;
#X obj 141 880 throw~ out;
#X obj 151 588 square~;
#X obj 70 588 saw~;
#X obj 70 612 *~ 0.25;
#X msg 110 495 440;
#X obj 142 778 throw~ lead;
#X obj 140 805 catch~ lead;
#X floatatom 182 415 5 0 0 0 - - - 0;
#X obj 252 881 throw~ lead;
#X obj 221 759 delwrite~ leadbuf 10000;
#X obj 252 841 *~ 0.5;
#X obj 252 817 delread~ leadbuf 500;
#X obj 345 893 throw~ lead;
#X obj 345 843 delread~ leadbuf 750;
#X obj 345 867 *~ 0.25;
#X obj 170 220 eseq;
#X obj 195 160 r bang-all;
#X obj 170 244 bng 19 250 50 0 empty empty empty 0 -10 0 12 #fcfcfc #000000 #000000;
#X obj 197 245 bng 19 250 50 0 empty empty empty 0 -10 0 12 #fcfcfc #000000 #000000;
#X obj 169 126 r beat;
#X msg 194 185 5 16 0;
#X obj 141 856 *~ 0.025;
#X obj 313 652 delread~ leadbuf 1000;
#X obj 313 688 rev1~;
#X msg 398 698 99;
#X obj 403 732 throw~ lead;
#X obj 313 712 *~ 0.75;
#X obj 152 538 ttet 7;
#X obj 529 332 ttet 7;
#X msg 237 624 1 50 0 \, 0 150 50;
#X obj 398 676 r bang-all;
#X obj 182 365 + 0;
#X obj 182 340 random 4;
#X msg 316 287 1 5 0 \, 0 500 50;
#X obj 182 391 * 3;
#X msg 568 299 3;
#X obj 522 632 *~ 0.01;
#X obj 298 393 lop~ 625;
#X obj 298 369 lop~ 625;
#X msg 1022 188 3 8 6;
#X connect 0 0 1 0;
#X connect 1 0 14 0;
#X connect 2 0 4 0;
#X connect 3 0 2 0;
#X connect 3 1 21 0;
#X connect 4 0 6 0;
#X connect 6 0 7 0;
#X connect 10 0 11 0;
#X connect 10 0 11 1;
#X connect 12 0 10 0;
#X connect 13 0 12 0;
#X connect 15 0 3 0;
#X connect 16 0 134 0;
#X connect 17 0 16 1;
#X connect 19 0 16 0;
#X connect 20 0 71 0;
#X connect 21 0 4 1;
#X connect 21 0 5 0;
#X connect 22 0 24 0;
#X connect 22 1 25 0;
#X connect 23 0 135 0;
#X connect 24 0 27 0;
#X connect 26 0 22 0;
#X connect 27 0 28 0;
#X connect 29 0 30 0;
#X connect 30 0 31 0;
#X connect 32 0 34 0;
#X connect 32 1 35 0;
#X connect 33 0 37 0;
#X connect 34 0 129 0;
#X connect 35 0 84 0;
#X connect 36 0 32 0;
#X connect 37 0 32 1;
#X connect 38 0 19 0;
#X connect 38 0 72 0;
#X connect 39 0 41 0;
#X connect 39 1 42 0;
#X connect 40 0 46 0;
#X connect 41 0 45 0;
#X connect 43 0 39 0;
#X connect 45 0 70 0;
#X connect 46 0 39 1;
#X connect 47 0 49 0;
#X connect 47 1 50 0;
#X connect 48 0 62 0;
#X connect 49 0 55 0;
#X connect 51 0 47 0;
#X connect 53 0 56 0;
#X connect 54 0 58 0;
#X connect 55 0 53 0;
#X connect 55 1 59 0;
#X connect 56 0 52 0;
#X connect 57 0 54 0;
#X connect 58 0 56 1;
#X connect 59 0 57 0;
#X connect 61 0 69 0;
#X connect 62 0 47 1;
#X connect 63 0 65 0;
#X connect 63 1 66 0;
#X connect 64 0 68 0;
#X connect 65 0 61 0;
#X connect 67 0 63 0;
#X connect 68 0 63 1;
#X connect 69 0 60 0;
#X connect 70 0 44 0;
#X connect 71 0 16 0;
#X connect 72 0 20 0;
#X connect 73 0 74 0;
#X connect 74 0 18 0;
#X connect 75 0 80 0;
#X connect 76 0 78 0;
#X connect 77 0 75 0;
#X connect 77 0 124 0;
#X connect 78 0 80 0;
#X connect 79 0 80 1;
#X connect 80 0 85 0;
#X connect 82 0 132 0;
#X connect 84 0 79 0;
#X connect 85 0 86 0;
#X connect 86 0 81 0;
#X connect 87 0 77 0;
#X connect 87 0 131 0;
#X connect 88 0 38 0;
#X connect 89 0 91 0;
#X connect 90 0 91 1;
#X connect 91 0 92 0;
#X connect 92 0 93 0;
#X connect 93 0 105 0;
#X connect 93 0 101 0;
#X connect 94 0 125 0;
#X connect 94 1 100 0;
#X connect 94 2 123 1;
#X connect 95 0 91 0;
#X connect 97 0 89 0;
#X connect 98 0 99 0;
#X connect 99 0 91 0;
#X connect 100 0 123 0;
#X connect 100 0 95 0;
#X connect 102 0 117 0;
#X connect 103 0 94 0;
#X connect 106 0 104 0;
#X connect 107 0 106 0;
#X connect 109 0 110 0;
#X connect 110 0 108 0;
#X connect 111 0 113 0;
#X connect 111 1 114 0;
#X connect 112 0 116 0;
#X connect 113 0 128 0;
#X connect 115 0 111 0;
#X connect 116 0 111 1;
#X connect 117 0 96 0;
#X connect 118 0 119 0;
#X connect 119 0 122 0;
#X connect 120 0 119 1;
#X connect 122 0 121 0;
#X connect 123 0 98 0;
#X connect 123 0 97 0;
#X connect 124 0 76 0;
#X connect 125 0 90 0;
#X connect 126 0 120 0;
#X connect 127 0 130 0;
#X connect 128 0 127 0;
#X connect 129 0 17 0;
#X connect 130 0 103 0;
#X connect 131 0 124 1;
#X connect 132 0 83 0;
#X connect 133 0 73 0;
#X connect 134 0 133 0;
#X connect 135 0 22 1;
