#N canvas 6 25 1440 847 12;
#X declare -path ../lib;
#X declare -path ../samples;
#X obj 36 161 netsend, f 8;
#X msg 47 137 connect localhost 8080;
#X floatatom 36 186 5 0 0 0 - - - 0;
#X msg 36 114 send banetwork sampedge;
#X obj 36 497 mtof;
#X obj 112 496 mtof;
#X obj 1290 19 tgl 15 0 empty empty empty 17 7 0 10 #fcfcfc #000000 #000000 0 1;
#X msg 1290 45 \; pd dsp \$1;
#X obj 1149 756 dac~ 1 2;
#X obj 1294 112 tgl 15 0 empty empty empty 17 7 0 10 #fcfcfc #000000 #000000 0 1;
#X obj 837 330 + 1;
#X floatatom 785 360 5 0 0 0 - - - 0;
#X obj 785 427 hradio 15 1 0 8 empty empty empty 0 -8 0 10 #fcfcfc #000000 #000000 0;
#X obj 785 331 f;
#X obj 1149 688 *~;
#X floatatom 1189 669 5 0 1 0 - - - 0;
#X obj 785 388 mod 8;
#X obj 785 463 select 0 1 2 3 4 5 6 7;
#X obj 1143 548 *~ 0.02;
#X obj 36 420 * 5;
#X obj 112 420 * 5;
#X obj 1032 381 *~ 0.003;
#X obj 112 548 *~ 2;
#X obj 36 65 r beat;
#X obj 785 305 r beat;
#X obj 308 332 mtof;
#X obj 310 473 *~;
#X obj 786 704 s~ hat;
#X obj 1143 522 r~ hat;
#X obj 784 569 s~ kick;
#X obj 1073 523 r~ kick;
#X obj 112 641 s~ synth;
#X obj 1032 355 r~ synth;
#X obj 112 335 r node2;
#X obj 36 336 r node1;
#X text 34 31 sending messages to the server and handling a response;
#X text 1029 329 mixing patch;
#X obj 1034 524 *~;
#X obj 1052 433 r beat;
#X obj 1295 522 r~ beep;
#X obj 881 569 s~ snare;
#X obj 1218 521 r~ snare;
#X obj 1052 461 f 8;
#X obj 1119 458 f 150;
#X obj 112 469 + 35;
#X obj 112 615 *~ 5;
#X obj 112 591 vcf~ 6;
#X obj 214 538 +~ 1000;
#X obj 214 514 *~ 500;
#X obj 214 490 osc~ 0.1;
#X obj 36 396 mod 3;
#X obj 36 470 + 42;
#X obj 306 771 s~ beep;
#X obj 112 395 mod 2;
#X obj 1295 548 *~ 0.01;
#X obj 325 686 +~ 3000;
#X obj 306 719 vcf~ 3;
#X obj 325 662 *~ 700;
#X obj 786 604 r node1;
#X obj 786 628 mod 4;
#X obj 786 652 select 0 2;
#X obj 1218 548 *~ 0.005;
#X obj 1073 548 *~ 0.015;
#X obj 658 266 + 1;
#X obj 622 266 f;
#X obj 622 237 r beat;
#X obj 622 318 sel 0;
#X obj 354 332 mtof;
#X obj 401 332 mtof;
#X obj 325 637 noise~ 0.1;
#X obj 521 566 f 5000;
#X obj 622 294 mod 128;
#X obj 308 308 f 62;
#X obj 354 308 f 59;
#X obj 401 308 f 55;
#X obj 306 743 *~ 0.45;
#X obj 444 332 mtof;
#X obj 490 332 mtof;
#X obj 537 332 mtof;
#X obj 444 308 f 64;
#X obj 490 308 f 61;
#X obj 537 308 f 57;
#X obj 444 479 *~;
#X obj 623 456 select 0 1;
#X obj 307 609 *~;
#X obj 634 486 f 1;
#X obj 704 488 f 1;
#X obj 622 535 f 0;
#X obj 686 537 f 0;
#X obj 623 430 random 2;
#X obj 622 344 s chordtrig;
#X obj 454 535 r chordtrig;
#X obj 623 404 r chordtrig;
#X obj 704 512 s c2;
#X obj 686 564 s c1;
#X obj 622 562 s c2;
#X obj 634 510 s c1;
#X obj 475 453 r c2;
#X obj 340 448 r c1;
#X obj 307 270 r chordtrig;
#X obj 454 566 f 350;
#X obj 1285 760 writesf~ 2;
#X msg 1316 728 stop;
#X msg 1317 703 start;
#X msg 1281 638 open nettest.wav;
#X obj 89 185 unpack f f;
#X obj 156 209 s node2;
#X obj 89 209 s node1;
#X obj 36 89 t b b;
#X obj 1294 132 metro 100;
#X obj 1294 156 s beat;
#X obj 919 16 declare -path ../lib;
#X obj 918 41 declare -path ../samples;
#X obj 308 356 add2~;
#X obj 353 357 add2~;
#X obj 401 356 add2~;
#X obj 445 356 add2~;
#X obj 490 356 add2~;
#X obj 537 356 add2~;
#X obj 784 544 kick~;
#X obj 881 545 snare~;
#X obj 1052 488 ad-env~;
#X obj 112 523 add1~;
#X obj 36 523 add1~;
#X obj 454 593 ad-env~;
#X obj 786 680 hat~;
#X connect 0 0 2 0;
#X connect 0 1 105 0;
#X connect 1 0 0 0;
#X connect 3 0 0 0;
#X connect 4 0 123 0;
#X connect 5 0 122 0;
#X connect 6 0 7 0;
#X connect 9 0 109 0;
#X connect 10 0 13 1;
#X connect 11 0 16 0;
#X connect 12 0 17 0;
#X connect 13 0 10 0;
#X connect 13 0 11 0;
#X connect 14 0 8 0;
#X connect 14 0 8 1;
#X connect 14 0 101 0;
#X connect 14 0 101 1;
#X connect 15 0 14 1;
#X connect 16 0 12 0;
#X connect 17 0 119 0;
#X connect 17 3 119 0;
#X connect 17 4 120 0;
#X connect 17 6 119 0;
#X connect 18 0 14 0;
#X connect 19 0 51 0;
#X connect 20 0 44 0;
#X connect 21 0 37 0;
#X connect 22 0 46 0;
#X connect 23 0 108 0;
#X connect 24 0 13 0;
#X connect 25 0 113 0;
#X connect 26 0 84 0;
#X connect 28 0 18 0;
#X connect 30 0 62 0;
#X connect 32 0 21 0;
#X connect 33 0 53 0;
#X connect 34 0 50 0;
#X connect 37 0 14 0;
#X connect 38 0 42 0;
#X connect 38 0 43 0;
#X connect 39 0 54 0;
#X connect 41 0 61 0;
#X connect 42 0 121 0;
#X connect 43 0 121 1;
#X connect 44 0 5 0;
#X connect 45 0 31 0;
#X connect 46 0 45 0;
#X connect 47 0 46 1;
#X connect 48 0 47 0;
#X connect 49 0 48 0;
#X connect 50 0 19 0;
#X connect 51 0 4 0;
#X connect 53 0 20 0;
#X connect 54 0 14 0;
#X connect 55 0 56 1;
#X connect 56 0 75 0;
#X connect 57 0 55 0;
#X connect 58 0 59 0;
#X connect 59 0 60 0;
#X connect 60 0 125 0;
#X connect 60 1 125 0;
#X connect 61 0 14 0;
#X connect 62 0 14 0;
#X connect 63 0 64 1;
#X connect 64 0 63 0;
#X connect 64 0 71 0;
#X connect 65 0 64 0;
#X connect 66 0 90 0;
#X connect 67 0 114 0;
#X connect 68 0 115 0;
#X connect 69 0 57 0;
#X connect 70 0 124 1;
#X connect 71 0 66 0;
#X connect 72 0 25 0;
#X connect 73 0 67 0;
#X connect 74 0 68 0;
#X connect 75 0 52 0;
#X connect 76 0 116 0;
#X connect 77 0 117 0;
#X connect 78 0 118 0;
#X connect 79 0 76 0;
#X connect 80 0 77 0;
#X connect 81 0 78 0;
#X connect 82 0 84 0;
#X connect 83 0 85 0;
#X connect 83 0 87 0;
#X connect 83 1 86 0;
#X connect 83 1 88 0;
#X connect 84 0 56 0;
#X connect 85 0 96 0;
#X connect 86 0 93 0;
#X connect 87 0 95 0;
#X connect 88 0 94 0;
#X connect 89 0 83 0;
#X connect 91 0 70 0;
#X connect 91 0 100 0;
#X connect 92 0 89 0;
#X connect 97 0 82 1;
#X connect 98 0 26 1;
#X connect 99 0 72 0;
#X connect 99 0 73 0;
#X connect 99 0 74 0;
#X connect 99 0 79 0;
#X connect 99 0 80 0;
#X connect 99 0 81 0;
#X connect 100 0 124 0;
#X connect 102 0 101 0;
#X connect 103 0 101 0;
#X connect 104 0 101 0;
#X connect 105 0 107 0;
#X connect 105 1 106 0;
#X connect 108 0 3 0;
#X connect 108 1 1 0;
#X connect 109 0 110 0;
#X connect 113 0 26 0;
#X connect 114 0 26 0;
#X connect 115 0 26 0;
#X connect 116 0 82 0;
#X connect 117 0 82 0;
#X connect 118 0 82 0;
#X connect 119 0 29 0;
#X connect 120 0 40 0;
#X connect 121 0 37 1;
#X connect 122 0 22 0;
#X connect 123 0 46 0;
#X connect 124 0 84 1;
#X connect 125 0 27 0;
