#N canvas 152 25 1440 847 12;
#X declare -path ../lib;
#X declare -path ../samples;
#X obj 15 11 loadbang;
#X obj 15 37 bng 15 250 50 0 empty empty empty 17 7 0 10 #fcfcfc #000000 #000000;
#X obj 15 160 tgl 15 0 empty empty empty 17 7 0 10 #fcfcfc #000000 #000000 0 1;
#X obj 15 132 t b b;
#X obj 15 185 metro;
#X obj 69 185 s bpms;
#X obj 15 211 bng 15 250 50 0 empty empty empty 17 7 0 10 #fcfcfc #000000 #000000;
#X obj 15 233 s beat;
#X msg 47 158 200;
#X obj 175 11 declare -path ../lib;
#X obj 175 36 declare -path ../samples;
#X obj 25 784 clip~ -1 1;
#X obj 25 808 dac~;
#X obj 25 760 *~ 1;
#X obj 25 736 catch~ out;
#X obj 15 59 s bang-all;
#X obj 15 107 r bang-all;
#X obj 46 348 catch~ synth;
#X obj 47 632 throw~ out;
#X obj 963 315 saw~;
#X obj 1070 317 saw~;
#X obj 1184 313 saw~;
#X obj 1301 314 saw~;
#X obj 963 237 ctof;
#X obj 963 213 * 171.43;
#X obj 1184 288 *;
#X obj 1070 239 ctof;
#X obj 1070 292 *;
#X obj 1184 237 ctof;
#X obj 963 287 *;
#X obj 1227 34 r bang-all;
#X obj 1109 74 bng 19 250 50 0 empty empty empty 0 -10 0 12 #fcfcfc #000000 #000000;
#X msg 1228 73 220;
#X obj 1137 786 throw~ synth;
#X obj 1301 238 ctof;
#X obj 1301 288 *;
#X obj 1109 98 t b b b b b;
#X obj 175 64 table chord;
#X obj 963 188 tabread chord;
#X msg 963 161 0;
#X obj 1070 188 tabread chord;
#X msg 1070 161 1;
#X obj 1184 185 tabread chord;
#X msg 1184 158 2;
#X obj 1301 187 tabread chord;
#X msg 1301 160 3;
#X obj 790 39 r beat;
#X obj 815 66 r bang-all;
#X msg 815 90 1 39 0;
#X obj 790 115 eseq;
#X obj 790 139 bng 19 250 50 0 empty empty empty 0 -10 0 12 #fcfcfc #000000 #000000;
#X obj 816 139 bng 19 250 50 0 empty empty empty 0 -10 0 12 #fcfcfc #000000 #000000;
#X obj 835 210 counter;
#X obj 817 595 tabwrite chord;
#X obj 835 234 % 4;
#X floatatom 835 258 5 0 0 0 - - - 0;
#X obj 834 465 tabread chord;
#X obj 814 320 random 3;
#X obj 814 344 sel 0 1 2;
#X msg 896 381 0;
#X floatatom 834 489 5 0 0 0 - - - 0;
#X obj 816 514 +;
#X obj 790 186 t b b b;
#X floatatom 814 418 5 0 0 0 - - - 0;
#X obj 1162 634 snapshot~;
#X obj 1178 602 metro 1;
#X obj 1178 574 tgl 19 0 empty empty empty 0 -10 0 12 #fcfcfc #000000 #000000 0 1;
#X msg 854 380 3;
#X obj 1161 485 osc~ 0.1;
#X obj 1246 484 phasor~ 0.1;
#X obj 1161 521 *~;
#X obj 1162 659 + 1;
#X obj 1162 683 * 100;
#X floatatom 1162 707 5 0 0 0 - - - 0;
#X obj 1162 730 + 100;
#X obj 1137 757 lop~;
#X msg 814 379 -3;
#X obj 74 465 rev1~;
#X obj 74 489 *~ 0.5;
#X obj 1070 215 * 171.43;
#X obj 1184 213 * 171.43;
#X obj 1301 214 * 171.43;
#X obj 90 409 r bang-all;
#X obj 154 458 bng 19 250 50 0 empty empty empty 0 -10 0 12 #fcfcfc #000000 #000000;
#X msg 90 435 99.95;
#X obj 447 815 throw~ out;
#X floatatom 816 571 5 0 0 0 - - - 0;
#X obj 816 542 % 9;
#X obj 68 380 delwrite~ synthbuf 1000;
#X obj 83 552 delread~ synthbuf 1000;
#X obj 83 576 *~ 0.25;
#X obj 835 282 s i;
#X obj 834 441 r i;
#X obj 912 570 r i;
#X obj 794 628 s notechange;
#X obj 1228 97 s basefreq;
#X obj 1319 263 r basefreq;
#X obj 1202 262 r basefreq;
#X obj 1088 265 r basefreq;
#X obj 981 264 r basefreq;
#X obj 1178 548 r bang-all;
#X obj 1109 34 r notechange;
#X obj 1250 435 vline~;
#X obj 1250 385 r notechange;
#X obj 1136 455 *~;
#X msg 1250 411 0.25 50 0 \, 1 1000 50;
#X obj 518 537 r beat;
#X obj 543 564 r bang-all;
#X obj 518 613 eseq;
#X obj 518 637 bng 19 250 50 0 empty empty empty 0 -10 0 12 #fcfcfc #000000 #000000;
#X obj 544 637 bng 19 250 50 0 empty empty empty 0 -10 0 12 #fcfcfc #000000 #000000;
#X obj 518 695 throw~ drums;
#X obj 447 767 catch~ drums;
#X obj 447 791 *~ 0.2;
#X obj 411 510 r beat;
#X obj 436 537 r bang-all;
#X obj 411 586 eseq;
#X obj 411 610 bng 19 250 50 0 empty empty empty 0 -10 0 12 #fcfcfc #000000 #000000;
#X obj 437 610 bng 19 250 50 0 empty empty empty 0 -10 0 12 #fcfcfc #000000 #000000;
#X obj 411 639 snare~;
#X obj 411 689 throw~ drums;
#X obj 411 663 *~ 0.33;
#X obj 518 666 kick~;
#X obj 304 509 r beat;
#X obj 329 536 r bang-all;
#X obj 304 585 eseq;
#X obj 304 609 bng 19 250 50 0 empty empty empty 0 -10 0 12 #fcfcfc #000000 #000000;
#X obj 330 609 bng 19 250 50 0 empty empty empty 0 -10 0 12 #fcfcfc #000000 #000000;
#X obj 304 638 snare~;
#X obj 304 688 throw~ drums;
#X msg 329 560 3 16 2;
#X obj 304 662 *~ 0.7;
#X obj 637 517 r beat;
#X obj 662 544 r bang-all;
#X obj 637 593 eseq;
#X obj 637 617 bng 19 250 50 0 empty empty empty 0 -10 0 12 #fcfcfc #000000 #000000;
#X obj 663 617 bng 19 250 50 0 empty empty empty 0 -10 0 12 #fcfcfc #000000 #000000;
#X obj 638 695 throw~ drums;
#X obj 637 646 hat~;
#X msg 662 568 32 39 0;
#X obj 637 670 *~ 0.22;
#X msg 543 588 1 4 2;
#X msg 436 561 6 21 0;
#X obj 559 257 square~;
#X obj 559 35 random 4;
#X obj 559 61 tabread chord;
#X obj 559 139 ctof;
#X obj 559 115 * 171.43;
#X obj 559 202 *;
#X floatatom 559 226 5 0 0 0 - - - 0;
#X msg 602 169 326.59;
#X obj 602 146 r notechange;
#X obj 559 296 lop~;
#X obj 576 376 vline~;
#X obj 558 500 throw~ arp;
#X obj 306 231 catch~ arp;
#X obj 306 408 throw~ out;
#X obj 151 170 tgl 15 0 empty empty empty 17 7 0 10 #fcfcfc #000000 #000000 0 1;
#X obj 151 195 metro;
#X obj 151 221 bng 15 250 50 0 empty empty empty 17 7 0 10 #fcfcfc #000000 #000000;
#X obj 151 117 r bang-all;
#X obj 151 243 s halftime;
#X obj 559 9 r halftime;
#X obj 183 147 r bpms;
#X obj 183 171 / 2;
#X obj 306 384 *~ 0.5;
#X obj 576 326 r notechange;
#X obj 657 412 random 2;
#X obj 657 436 sel 0;
#X obj 564 467 *~;
#X obj 655 385 r beat;
#X obj 588 440 vline~;
#X obj 485 38 random 2;
#X obj 485 62 sel 0;
#X obj 509 148 +;
#X msg 657 465 1 100 0;
#X msg 714 465 0 100 0;
#X obj 558 406 *~ 1;
#X msg 463 93 3;
#X msg 510 92 -3;
#X obj 333 357 *~ 0.75;
#X obj 333 333 delread~ arpbuf 4600;
#X obj 322 271 delwrite~ arpbuf 4600;
#X msg 576 352 0.5 1000 0 \, 0.25 1000 500;
#X obj 642 257 * 0.15;
#X obj 47 608 *~ 0.05;
#X connect 0 0 1 0;
#X connect 1 0 15 0;
#X connect 2 0 4 0;
#X connect 3 0 2 0;
#X connect 3 1 8 0;
#X connect 4 0 6 0;
#X connect 6 0 7 0;
#X connect 8 0 4 1;
#X connect 8 0 5 0;
#X connect 11 0 12 0;
#X connect 11 0 12 1;
#X connect 13 0 11 0;
#X connect 14 0 13 0;
#X connect 16 0 3 0;
#X connect 17 0 77 0;
#X connect 17 0 88 0;
#X connect 17 0 185 0;
#X connect 19 0 104 0;
#X connect 20 0 104 0;
#X connect 21 0 104 0;
#X connect 22 0 104 0;
#X connect 23 0 29 0;
#X connect 24 0 23 0;
#X connect 25 0 21 0;
#X connect 26 0 27 0;
#X connect 27 0 20 0;
#X connect 28 0 25 0;
#X connect 29 0 19 0;
#X connect 30 0 31 0;
#X connect 31 0 36 0;
#X connect 32 0 95 0;
#X connect 34 0 35 0;
#X connect 35 0 22 0;
#X connect 36 0 39 0;
#X connect 36 1 41 0;
#X connect 36 2 43 0;
#X connect 36 3 45 0;
#X connect 36 4 32 0;
#X connect 38 0 24 0;
#X connect 39 0 38 0;
#X connect 40 0 79 0;
#X connect 41 0 40 0;
#X connect 42 0 80 0;
#X connect 43 0 42 0;
#X connect 44 0 81 0;
#X connect 45 0 44 0;
#X connect 46 0 49 0;
#X connect 47 0 48 0;
#X connect 48 0 49 1;
#X connect 49 0 50 0;
#X connect 49 1 51 0;
#X connect 50 0 62 0;
#X connect 52 0 54 0;
#X connect 54 0 55 0;
#X connect 55 0 91 0;
#X connect 56 0 60 0;
#X connect 57 0 58 0;
#X connect 58 0 76 0;
#X connect 58 1 67 0;
#X connect 58 2 59 0;
#X connect 59 0 63 0;
#X connect 60 0 61 1;
#X connect 61 0 87 0;
#X connect 62 0 94 0;
#X connect 62 1 57 0;
#X connect 62 2 52 0;
#X connect 63 0 61 0;
#X connect 64 0 71 0;
#X connect 65 0 64 0;
#X connect 66 0 65 0;
#X connect 67 0 63 0;
#X connect 68 0 70 0;
#X connect 69 0 70 1;
#X connect 70 0 64 0;
#X connect 71 0 72 0;
#X connect 72 0 73 0;
#X connect 73 0 74 0;
#X connect 74 0 75 1;
#X connect 75 0 33 0;
#X connect 76 0 63 0;
#X connect 77 0 78 0;
#X connect 78 0 185 0;
#X connect 79 0 26 0;
#X connect 80 0 28 0;
#X connect 81 0 34 0;
#X connect 82 0 84 0;
#X connect 83 0 77 2;
#X connect 84 0 77 1;
#X connect 86 0 53 0;
#X connect 87 0 86 0;
#X connect 89 0 90 0;
#X connect 90 0 185 0;
#X connect 92 0 56 0;
#X connect 93 0 53 1;
#X connect 96 0 35 1;
#X connect 97 0 25 1;
#X connect 98 0 27 1;
#X connect 99 0 29 1;
#X connect 100 0 66 0;
#X connect 101 0 31 0;
#X connect 102 0 104 1;
#X connect 103 0 105 0;
#X connect 104 0 75 0;
#X connect 105 0 102 0;
#X connect 106 0 108 0;
#X connect 107 0 141 0;
#X connect 108 0 109 0;
#X connect 108 1 110 0;
#X connect 109 0 122 0;
#X connect 112 0 113 0;
#X connect 113 0 85 0;
#X connect 114 0 116 0;
#X connect 115 0 142 0;
#X connect 116 0 117 0;
#X connect 116 1 118 0;
#X connect 117 0 119 0;
#X connect 119 0 121 0;
#X connect 121 0 120 0;
#X connect 122 0 111 0;
#X connect 123 0 125 0;
#X connect 124 0 130 0;
#X connect 125 0 126 0;
#X connect 125 1 127 0;
#X connect 126 0 128 0;
#X connect 128 0 131 0;
#X connect 130 0 125 1;
#X connect 131 0 129 0;
#X connect 132 0 134 0;
#X connect 133 0 139 0;
#X connect 134 0 135 0;
#X connect 134 1 136 0;
#X connect 135 0 138 0;
#X connect 138 0 140 0;
#X connect 139 0 134 1;
#X connect 140 0 137 0;
#X connect 141 0 108 1;
#X connect 142 0 116 1;
#X connect 143 0 152 0;
#X connect 144 0 145 0;
#X connect 145 0 174 1;
#X connect 146 0 148 0;
#X connect 147 0 146 0;
#X connect 148 0 149 0;
#X connect 149 0 143 0;
#X connect 149 0 184 0;
#X connect 150 0 148 1;
#X connect 151 0 150 0;
#X connect 152 0 177 0;
#X connect 153 0 177 1;
#X connect 155 0 165 0;
#X connect 155 0 182 0;
#X connect 157 0 158 0;
#X connect 158 0 159 0;
#X connect 159 0 161 0;
#X connect 160 0 157 0;
#X connect 162 0 144 0;
#X connect 162 0 172 0;
#X connect 163 0 164 0;
#X connect 164 0 158 1;
#X connect 165 0 156 0;
#X connect 166 0 183 0;
#X connect 167 0 168 0;
#X connect 168 0 175 0;
#X connect 168 1 176 0;
#X connect 169 0 154 0;
#X connect 170 0 167 0;
#X connect 171 0 169 1;
#X connect 172 0 173 0;
#X connect 173 0 178 0;
#X connect 173 1 179 0;
#X connect 174 0 147 0;
#X connect 175 0 171 0;
#X connect 176 0 171 0;
#X connect 177 0 169 0;
#X connect 178 0 174 0;
#X connect 179 0 174 0;
#X connect 180 0 165 0;
#X connect 181 0 180 0;
#X connect 183 0 153 0;
#X connect 184 0 152 1;
#X connect 185 0 18 0;
