#N canvas 0 25 1440 847 12;
#X declare -path ../lib;
#X declare -path ../samples;
#X obj 15 11 loadbang;
#X obj 15 37 bng 15 250 50 0 empty empty empty 17 7 0 10 #fcfcfc #000000 #000000;
#X obj 15 160 tgl 15 0 empty empty empty 17 7 0 10 #fcfcfc #000000 #000000 0 1;
#X obj 15 132 t b b;
#X obj 15 185 metro;
#X obj 69 185 s bpms;
#X obj 15 211 bng 15 250 50 0 empty empty empty 17 7 0 10 #fcfcfc #000000 #000000;
#X obj 15 233 s beat;
#X obj 175 11 declare -path ../lib;
#X obj 175 36 declare -path ../samples;
#X obj 229 722 clip~ -1 1;
#X obj 229 746 dac~;
#X obj 35 386 counter;
#X floatatom 35 410 5 0 0 0 - - - 0;
#X obj 15 59 s gbang;
#X obj 15 107 r gbang;
#X obj 35 482 eseq;
#X obj 229 698 *~ 0.25;
#X obj 60 432 r gbang;
#X obj 35 508 bng 15 250 50 0 empty empty empty 0 -10 0 6 #fcfcfc #000000 #000000;
#X obj 60 508 bng 15 250 50 0 empty empty empty 0 -10 0 6 #fcfcfc #000000 #000000;
#X obj 34 530 kick~;
#X obj 128 386 counter;
#X floatatom 128 410 5 0 0 0 - - - 0;
#X obj 128 484 eseq;
#X obj 153 434 r gbang;
#X obj 128 510 bng 15 250 50 0 empty empty empty 0 -10 0 6 #fcfcfc #000000 #000000;
#X obj 153 510 bng 15 250 50 0 empty empty empty 0 -10 0 6 #fcfcfc #000000 #000000;
#X obj 128 533 hat~;
#X obj 548 531 *~;
#X obj 566 486 vline~;
#X floatatom 1013 401 5 0 0 0 - - - 0;
#X obj 1087 125 random 2;
#X floatatom 1087 149 5 0 0 0 - - - 0;
#X msg 1087 201 -1;
#X floatatom 1087 233 5 0 0 0 - - - 0;
#X obj 1087 172 sel 0 1;
#X obj 973 37 bng 15 250 50 0 empty empty empty 17 7 0 10 #fcfcfc #000000 #000000;
#X floatatom 1013 282 5 0 0 0 - - - 0;
#X floatatom 1013 329 5 0 0 0 - - - 0;
#X obj 973 441 *;
#X obj 973 57 t b b b, f 12;
#X floatatom 973 465 5 0 0 0 - - - 0;
#X obj 973 13 r beat;
#X obj 1013 377 ctof;
#X text 1145 162 random walk;
#X text 1069 341 map to 5-edo;
#X obj 566 296 counter;
#X floatatom 566 320 5 0 0 0 - - - 0;
#X obj 566 395 eseq;
#X obj 591 345 r gbang;
#X obj 566 421 bng 15 250 50 0 empty empty empty 0 -10 0 6 #fcfcfc #000000 #000000;
#X obj 591 421 bng 15 250 50 0 empty empty empty 0 -10 0 6 #fcfcfc #000000 #000000;
#X obj 566 271 r beat;
#X floatatom 1051 614 5 0 0 0 - - - 0;
#X obj 500 486 r~ aout;
#X obj 930 689 acidfilter~, f 35;
#X obj 1172 637 r gbang;
#X obj 930 713 s~ aout;
#X obj 1051 589 * 10;
#X obj 1104 589 * 5;
#X floatatom 1104 615 5 0 0 0 - - - 0;
#X obj 1051 637 pack f f;
#X obj 701 486 vline~;
#X msg 591 370 6 8 0;
#X msg 47 158 92;
#X obj 176 137 r bpms;
#X obj 144 160 tgl 15 0 empty empty empty 17 7 0 10 #fcfcfc #000000 #000000 0 1;
#X obj 144 185 metro;
#X obj 144 211 bng 15 250 50 0 empty empty empty 17 7 0 10 #fcfcfc #000000 #000000;
#X obj 144 112 r gbang;
#X obj 1013 352 * 240;
#X obj 176 161 * 2;
#X msg 153 459 7 8 0;
#X obj 229 387 counter;
#X floatatom 229 411 5 0 0 0 - - - 0;
#X obj 229 485 eseq;
#X obj 254 435 r gbang;
#X obj 229 510 bng 15 250 50 0 empty empty empty 0 -10 0 6 #fcfcfc #000000 #000000;
#X obj 254 511 bng 15 250 50 0 empty empty empty 0 -10 0 6 #fcfcfc #000000 #000000;
#X obj 229 534 snare~;
#X obj 229 558 *~ 0.25;
#X msg 254 460 1 4 0;
#X msg 973 402 45;
#X obj 548 555 *~ 0.35;
#X obj 144 233 s 2beat;
#X obj 128 361 r 2beat;
#X obj 229 362 r 2beat;
#X obj 35 361 r 2beat;
#X msg 1130 201 4;
#X obj 1013 258 accumulator;
#X obj 34 554 *~ 1;
#N canvas 63 88 1070 496 acidselektor 0;
#X obj 51 171 saw~;
#X obj 90 171 saw~;
#X obj 90 146 * 1.001;
#X obj 264 445 outlet~;
#X obj 183 170 saw~;
#X obj 222 170 saw~;
#X obj 222 145 * 4;
#X obj 261 170 saw~;
#X obj 378 161 saw~;
#X obj 417 161 saw~;
#X obj 456 161 saw~;
#X obj 261 145 * 0.5;
#X obj 108 255 sel 0;
#X msg 108 279 1;
#X msg 140 279 0;
#X obj 90 304 *~;
#X msg 279 275 1;
#X msg 311 275 0;
#X obj 261 300 *~;
#X obj 279 251 sel 1;
#X msg 475 280 1;
#X msg 507 280 0;
#X obj 457 305 *~;
#X obj 475 256 sel 2;
#X obj 17 11 inlet;
#X floatatom 17 35 5 0 0 0 - - - 0;
#X obj 17 58 s \$0-mode;
#X obj 108 231 r \$0-mode;
#X obj 279 226 r \$0-mode;
#X obj 475 228 r \$0-mode;
#X obj 97 13 inlet;
#X floatatom 97 37 5 0 0 0 - - - 0;
#X obj 97 60 s \$0-freq;
#X obj 74 114 r \$0-freq;
#X obj 222 117 r \$0-freq;
#X obj 421 106 r \$0-freq;
#X obj 456 136 * 0.25;
#X obj 551 155 saw~;
#X obj 590 155 saw~;
#X obj 629 155 saw~;
#X obj 590 130 * 8;
#X msg 648 274 1;
#X msg 680 274 0;
#X obj 630 299 *~;
#X obj 648 222 r \$0-mode;
#X obj 594 100 r \$0-freq;
#X obj 648 250 sel 3;
#X obj 629 130 * 0.5;
#X obj 733 149 saw~;
#X obj 772 149 saw~;
#X obj 811 149 saw~;
#X obj 811 124 * 0.5;
#X msg 829 254 1;
#X msg 861 254 0;
#X obj 811 279 *~;
#X obj 829 205 r \$0-mode;
#X obj 772 96 r \$0-freq;
#X obj 896 139 saw~;
#X obj 935 139 saw~;
#X obj 981 139 saw~;
#X msg 992 244 1;
#X msg 1024 244 0;
#X obj 974 269 *~;
#X obj 992 195 r \$0-mode;
#X obj 935 86 r \$0-freq;
#X obj 829 230 sel 4;
#X obj 992 220 sel 5;
#X obj 417 136 * 6;
#X obj 772 124 * 4;
#X obj 935 114 * 2;
#X obj 9 168 saw~;
#X obj 27 142 * 0.999;
#X obj 981 114 * 0.75;
#X connect 0 0 15 0;
#X connect 1 0 15 0;
#X connect 2 0 1 0;
#X connect 4 0 18 0;
#X connect 5 0 18 0;
#X connect 6 0 5 0;
#X connect 7 0 18 0;
#X connect 8 0 22 0;
#X connect 9 0 22 0;
#X connect 10 0 22 0;
#X connect 11 0 7 0;
#X connect 12 0 13 0;
#X connect 12 1 14 0;
#X connect 13 0 15 1;
#X connect 14 0 15 1;
#X connect 15 0 3 0;
#X connect 16 0 18 1;
#X connect 17 0 18 1;
#X connect 18 0 3 0;
#X connect 19 0 16 0;
#X connect 19 1 17 0;
#X connect 20 0 22 1;
#X connect 21 0 22 1;
#X connect 22 0 3 0;
#X connect 23 0 20 0;
#X connect 23 1 21 0;
#X connect 24 0 25 0;
#X connect 25 0 26 0;
#X connect 27 0 12 0;
#X connect 28 0 19 0;
#X connect 29 0 23 0;
#X connect 30 0 31 0;
#X connect 31 0 32 0;
#X connect 33 0 0 0;
#X connect 33 0 2 0;
#X connect 33 0 71 0;
#X connect 34 0 4 0;
#X connect 34 0 6 0;
#X connect 34 0 11 0;
#X connect 35 0 8 0;
#X connect 35 0 36 0;
#X connect 35 0 67 0;
#X connect 36 0 10 0;
#X connect 37 0 43 0;
#X connect 38 0 43 0;
#X connect 39 0 43 0;
#X connect 40 0 38 0;
#X connect 41 0 43 1;
#X connect 42 0 43 1;
#X connect 43 0 3 0;
#X connect 44 0 46 0;
#X connect 45 0 40 0;
#X connect 45 0 37 0;
#X connect 45 0 47 0;
#X connect 46 0 41 0;
#X connect 46 1 42 0;
#X connect 47 0 39 0;
#X connect 48 0 54 0;
#X connect 49 0 54 0;
#X connect 50 0 54 0;
#X connect 51 0 50 0;
#X connect 52 0 54 1;
#X connect 53 0 54 1;
#X connect 54 0 3 0;
#X connect 55 0 65 0;
#X connect 56 0 48 0;
#X connect 56 0 51 0;
#X connect 56 0 68 0;
#X connect 57 0 62 0;
#X connect 58 0 62 0;
#X connect 59 0 62 0;
#X connect 60 0 62 1;
#X connect 61 0 62 1;
#X connect 62 0 3 0;
#X connect 63 0 66 0;
#X connect 64 0 57 0;
#X connect 64 0 69 0;
#X connect 64 0 72 0;
#X connect 65 0 52 0;
#X connect 65 1 53 0;
#X connect 66 0 60 0;
#X connect 66 1 61 0;
#X connect 67 0 9 0;
#X connect 68 0 49 0;
#X connect 69 0 58 0;
#X connect 70 0 15 0;
#X connect 71 0 70 0;
#X connect 72 0 59 0;
#X restore 871 610 pd acidselektor;
#X obj 871 363 counter;
#X floatatom 871 387 5 0 0 0 - - - 0;
#X obj 871 464 eseq;
#X obj 896 414 r gbang;
#X obj 871 490 bng 15 250 50 0 empty empty empty 0 -10 0 6 #fcfcfc #000000 #000000;
#X obj 896 490 bng 15 250 50 0 empty empty empty 0 -10 0 6 #fcfcfc #000000 #000000;
#X obj 871 338 r beat;
#X obj 871 512 counter;
#X floatatom 871 540 5 0 0 0 - - - 0;
#X floatatom 871 587 5 0 0 0 - - - 0;
#X obj 871 563 % 6;
#X msg 1051 662 5 55 \$1 \$2;
#X msg 60 457 1 2 0;
#X obj 343 383 counter;
#X floatatom 343 407 5 0 0 0 - - - 0;
#X obj 343 481 eseq;
#X obj 368 431 r gbang;
#X obj 343 506 bng 15 250 50 0 empty empty empty 0 -10 0 6 #fcfcfc #000000 #000000;
#X obj 368 507 bng 15 250 50 0 empty empty empty 0 -10 0 6 #fcfcfc #000000 #000000;
#X obj 343 530 snare~;
#X obj 343 358 r 2beat;
#X obj 343 554 *~ 0.15;
#X msg 368 456 5 32 0;
#X obj 128 557 *~ 0.5;
#X msg 896 439 1 40 0;
#X msg 701 462 0.5 1 0 \, 0 75 5;
#X msg 566 462 1 1 0 \, 0 150 5;
#X obj 1013 305 mod 12;
#X obj 454 770 writesf~ 2;
#X msg 485 738 stop;
#X msg 486 713 start;
#X msg 450 648 open pintree.wav;
#X obj 1275 545 vline~;
#X obj 1254 586 *~;
#X obj 1256 638 s~ pout;
#X obj 355 652 r~ pout;
#X obj 1157 416 *;
#X obj 1232 416 *;
#X obj 1013 424 s cents;
#X obj 1156 270 r cents;
#X obj 1232 268 r cents;
#X obj 775 557 s bsw;
#X obj 1175 364 r bsw;
#X obj 1275 495 r bsw;
#X obj 1250 363 r bsw;
#X obj 1168 524 hip~;
#X obj 1321 616 rev1~;
#X obj 1372 616 bng 19 250 50 0 empty empty empty 0 -10 0 12 #fcfcfc #000000 #000000;
#X obj 1202 498 + 2500;
#X obj 1157 441 tri~;
#X obj 1232 440 sinabs~;
#X obj 1291 268 r bsw;
#X msg 1291 292 1;
#X obj 1232 332 spigot;
#X obj 783 603 s bsw-o;
#X obj 1342 267 r bsw-o;
#X msg 1342 292 0;
#X obj 1156 335 spigot;
#X obj 355 676 *~ 0.25;
#X msg 1275 521 1 10 0 \, 0 4500 10;
#X msg 1172 663 12;
#X msg 1175 392 240;
#X msg 1250 392 240;
#X obj 1156 296 * 1;
#X obj 1232 292 * 0.5;
#X msg 1324 585 99.5;
#X connect 0 0 1 0;
#X connect 1 0 14 0;
#X connect 2 0 4 0;
#X connect 3 0 2 0;
#X connect 3 1 65 0;
#X connect 4 0 6 0;
#X connect 6 0 7 0;
#X connect 10 0 11 0;
#X connect 10 0 11 1;
#X connect 10 0 121 0;
#X connect 10 0 121 1;
#X connect 12 0 13 0;
#X connect 13 0 16 0;
#X connect 15 0 3 0;
#X connect 16 0 19 0;
#X connect 16 1 20 0;
#X connect 17 0 10 0;
#X connect 18 0 105 0;
#X connect 19 0 21 0;
#X connect 21 0 91 0;
#X connect 22 0 23 0;
#X connect 23 0 24 0;
#X connect 24 0 26 0;
#X connect 24 1 27 0;
#X connect 25 0 73 0;
#X connect 26 0 28 0;
#X connect 28 0 116 0;
#X connect 29 0 84 0;
#X connect 30 0 29 1;
#X connect 31 0 40 1;
#X connect 31 0 131 0;
#X connect 32 0 33 0;
#X connect 33 0 36 0;
#X connect 34 0 35 0;
#X connect 35 0 90 1;
#X connect 36 0 34 0;
#X connect 36 1 89 0;
#X connect 37 0 41 0;
#X connect 38 0 120 0;
#X connect 39 0 71 0;
#X connect 40 0 42 0;
#X connect 41 0 83 0;
#X connect 41 1 90 0;
#X connect 41 2 32 0;
#X connect 42 0 59 0;
#X connect 42 0 60 0;
#X connect 42 0 92 1;
#X connect 43 0 37 0;
#X connect 44 0 31 0;
#X connect 47 0 48 0;
#X connect 48 0 49 0;
#X connect 49 0 51 0;
#X connect 49 1 52 0;
#X connect 50 0 64 0;
#X connect 51 0 119 0;
#X connect 52 0 118 0;
#X connect 53 0 47 0;
#X connect 54 0 62 0;
#X connect 55 0 29 0;
#X connect 56 0 58 0;
#X connect 57 0 153 0;
#X connect 59 0 54 0;
#X connect 60 0 61 0;
#X connect 61 0 62 1;
#X connect 62 0 104 0;
#X connect 63 0 29 1;
#X connect 64 0 49 1;
#X connect 65 0 4 1;
#X connect 65 0 5 0;
#X connect 66 0 72 0;
#X connect 67 0 68 0;
#X connect 68 0 69 0;
#X connect 69 0 85 0;
#X connect 70 0 67 0;
#X connect 71 0 44 0;
#X connect 72 0 68 1;
#X connect 73 0 24 1;
#X connect 74 0 75 0;
#X connect 75 0 76 0;
#X connect 76 0 78 0;
#X connect 76 1 79 0;
#X connect 77 0 82 0;
#X connect 78 0 80 0;
#X connect 80 0 81 0;
#X connect 81 0 17 0;
#X connect 82 0 76 1;
#X connect 83 0 40 0;
#X connect 84 0 17 0;
#X connect 86 0 22 0;
#X connect 87 0 74 0;
#X connect 88 0 12 0;
#X connect 89 0 35 0;
#X connect 90 0 38 0;
#X connect 91 0 17 0;
#X connect 92 0 56 0;
#X connect 93 0 94 0;
#X connect 94 0 95 0;
#X connect 95 0 97 0;
#X connect 95 1 98 0;
#X connect 96 0 117 0;
#X connect 97 0 100 0;
#X connect 97 0 134 0;
#X connect 98 0 147 0;
#X connect 99 0 93 0;
#X connect 100 0 101 0;
#X connect 101 0 103 0;
#X connect 102 0 92 0;
#X connect 103 0 102 0;
#X connect 104 0 56 1;
#X connect 105 0 16 1;
#X connect 106 0 107 0;
#X connect 107 0 108 0;
#X connect 108 0 110 0;
#X connect 108 1 111 0;
#X connect 109 0 115 0;
#X connect 110 0 112 0;
#X connect 112 0 114 0;
#X connect 113 0 106 0;
#X connect 114 0 17 0;
#X connect 115 0 108 1;
#X connect 116 0 17 0;
#X connect 117 0 95 1;
#X connect 118 0 63 0;
#X connect 119 0 30 0;
#X connect 120 0 39 0;
#X connect 122 0 121 0;
#X connect 123 0 121 0;
#X connect 124 0 121 0;
#X connect 125 0 126 1;
#X connect 126 0 127 0;
#X connect 126 0 139 0;
#X connect 128 0 151 0;
#X connect 129 0 141 0;
#X connect 129 0 142 0;
#X connect 130 0 143 0;
#X connect 132 0 156 0;
#X connect 133 0 157 0;
#X connect 135 0 154 0;
#X connect 136 0 152 0;
#X connect 137 0 155 0;
#X connect 138 0 126 0;
#X connect 139 0 127 0;
#X connect 140 0 139 2;
#X connect 141 0 138 1;
#X connect 142 0 138 0;
#X connect 143 0 138 0;
#X connect 144 0 145 0;
#X connect 145 0 146 1;
#X connect 145 0 150 1;
#X connect 146 0 130 0;
#X connect 148 0 149 0;
#X connect 149 0 146 1;
#X connect 149 0 150 1;
#X connect 150 0 129 0;
#X connect 152 0 125 0;
#X connect 153 0 56 2;
#X connect 154 0 129 1;
#X connect 155 0 130 1;
#X connect 156 0 150 0;
#X connect 157 0 146 0;
#X connect 158 0 139 1;
