#N canvas 0 38 1512 916 12;
#X declare -path ../lib;
#X declare -path ../samples;
#X obj 18 81 loadbang;
#X obj 18 107 bng 15 250 50 0 empty empty empty 17 7 0 10 #fcfcfc #000000 #000000;
#X obj 18 230 tgl 15 0 empty empty empty 17 7 0 10 #fcfcfc #000000 #000000 0 1;
#X obj 18 202 t b b;
#X obj 18 255 metro;
#X obj 72 255 s bpms;
#X obj 18 281 bng 15 250 50 0 empty empty empty 17 7 0 10 #fcfcfc #000000 #000000;
#X obj 18 303 s beat;
#X obj 18 24 declare -path ../lib;
#X obj 18 49 declare -path ../samples;
#X obj 19 405 clip~ -1 1;
#X obj 19 448 dac~;
#X obj 19 381 *~ 1;
#X obj 19 357 catch~ out;
#X obj 18 129 s bang-all;
#X obj 18 177 r bang-all;
#X obj 454 89 catch~ drums;
#X obj 454 148 throw~ out;
#X msg 50 228 100;
#X obj 568 147 throw~ out;
#X obj 568 88 catch~ acid;
#N canvas 211 386 1167 300 drums 0;
#X obj 16 111 eseq;
#X obj 16 34 r beat;
#X obj 16 135 bng 19 250 50 0 empty empty empty 0 -10 0 12 #fcfcfc #000000 #000000;
#X obj 16 135 bng 19 250 50 0 empty empty empty 0 -10 0 12 #fcfcfc #000000 #000000;
#X obj 41 135 bng 19 250 50 0 empty empty empty 0 -10 0 12 #fcfcfc #000000 #000000;
#X obj 41 61 r bang-all;
#X obj 16 163 kick~;
#X obj 16 221 throw~ drums;
#X obj 132 115 eseq;
#X obj 132 38 r beat;
#X obj 132 139 bng 19 250 50 0 empty empty empty 0 -10 0 12 #fcfcfc #000000 #000000;
#X obj 132 139 bng 19 250 50 0 empty empty empty 0 -10 0 12 #fcfcfc #000000 #000000;
#X obj 157 139 bng 19 250 50 0 empty empty empty 0 -10 0 12 #fcfcfc #000000 #000000;
#X obj 157 65 r bang-all;
#X obj 132 164 kick~;
#X obj 132 222 throw~ drums;
#X obj 316 115 eseq;
#X obj 316 38 r beat;
#X obj 316 139 bng 19 250 50 0 empty empty empty 0 -10 0 12 #fcfcfc #000000 #000000;
#X obj 316 139 bng 19 250 50 0 empty empty empty 0 -10 0 12 #fcfcfc #000000 #000000;
#X obj 341 139 bng 19 250 50 0 empty empty empty 0 -10 0 12 #fcfcfc #000000 #000000;
#X obj 341 65 r bang-all;
#X obj 316 226 throw~ drums;
#X obj 316 171 snare~;
#X obj 316 195 *~ 0.25;
#X obj 455 115 eseq;
#X obj 455 38 r beat;
#X obj 455 139 bng 19 250 50 0 empty empty empty 0 -10 0 12 #fcfcfc #000000 #000000;
#X obj 455 139 bng 19 250 50 0 empty empty empty 0 -10 0 12 #fcfcfc #000000 #000000;
#X obj 480 139 bng 19 250 50 0 empty empty empty 0 -10 0 12 #fcfcfc #000000 #000000;
#X obj 480 65 r bang-all;
#X obj 455 226 throw~ drums;
#X obj 455 171 snare~;
#X obj 641 116 eseq;
#X obj 641 39 r beat;
#X obj 641 140 bng 19 250 50 0 empty empty empty 0 -10 0 12 #fcfcfc #000000 #000000;
#X obj 641 140 bng 19 250 50 0 empty empty empty 0 -10 0 12 #fcfcfc #000000 #000000;
#X obj 666 140 bng 19 250 50 0 empty empty empty 0 -10 0 12 #fcfcfc #000000 #000000;
#X obj 666 66 r bang-all;
#X obj 641 224 throw~ drums;
#X obj 641 172 hat~;
#X obj 782 117 eseq;
#X obj 782 40 r beat;
#X obj 782 141 bng 19 250 50 0 empty empty empty 0 -10 0 12 #fcfcfc #000000 #000000;
#X obj 782 141 bng 19 250 50 0 empty empty empty 0 -10 0 12 #fcfcfc #000000 #000000;
#X obj 807 141 bng 19 250 50 0 empty empty empty 0 -10 0 12 #fcfcfc #000000 #000000;
#X obj 807 67 r bang-all;
#X obj 782 228 throw~ drums;
#X obj 782 173 hat~;
#X obj 782 197 *~ 0.05;
#X obj 455 195 *~ 0.075;
#X obj 641 196 *~ 0.75;
#X obj 16 192 *~ 0.5;
#X msg 41 86 3 7 0;
#X msg 157 90 1 3 0;
#X obj 132 192 *~ 0.25;
#X msg 341 90 1 8 0;
#X msg 480 90 1 5 0;
#X msg 666 91 2 5 2;
#X msg 807 92 7 8 0;
#X connect 0 0 2 0;
#X connect 0 0 3 0;
#X connect 0 1 4 0;
#X connect 1 0 0 0;
#X connect 2 0 6 0;
#X connect 5 0 53 0;
#X connect 6 0 52 0;
#X connect 8 0 10 0;
#X connect 8 0 11 0;
#X connect 8 1 12 0;
#X connect 9 0 8 0;
#X connect 10 0 14 0;
#X connect 13 0 54 0;
#X connect 14 0 55 0;
#X connect 16 0 18 0;
#X connect 16 0 19 0;
#X connect 16 1 20 0;
#X connect 17 0 16 0;
#X connect 18 0 23 0;
#X connect 21 0 56 0;
#X connect 23 0 24 0;
#X connect 24 0 22 0;
#X connect 25 0 27 0;
#X connect 25 0 28 0;
#X connect 25 1 29 0;
#X connect 26 0 25 0;
#X connect 27 0 32 0;
#X connect 30 0 57 0;
#X connect 32 0 50 0;
#X connect 33 0 35 0;
#X connect 33 0 36 0;
#X connect 33 1 37 0;
#X connect 34 0 33 0;
#X connect 35 0 40 0;
#X connect 38 0 58 0;
#X connect 40 0 51 0;
#X connect 41 0 43 0;
#X connect 41 0 44 0;
#X connect 41 1 45 0;
#X connect 42 0 41 0;
#X connect 43 0 48 0;
#X connect 45 0 32 0;
#X connect 46 0 59 0;
#X connect 48 0 49 0;
#X connect 49 0 47 0;
#X connect 50 0 31 0;
#X connect 51 0 39 0;
#X connect 52 0 7 0;
#X connect 53 0 0 1;
#X connect 54 0 8 1;
#X connect 55 0 15 0;
#X connect 56 0 16 1;
#X connect 57 0 25 1;
#X connect 58 0 33 1;
#X connect 59 0 41 1;
#X restore 454 63 pd drums;
#N canvas 0 38 1512 916 acid 1;
#X floatatom 256 460 5 0 0 0 - - - 0;
#X floatatom 308 599 5 0 0 0 - - - 0;
#X obj 187 674 acidfilter~, f 35;
#X floatatom 361 600 5 0 0 0 - - - 0;
#X obj 308 622 pack f f;
#X obj 307 750 vline~;
#X obj 193 765 *~;
#X msg 307 728 1 1 0 \, 0 250 5;
#X msg 308 647 5 55 \$1 \$2;
#X obj 429 348 osc~ 0.1;
#X obj 429 459 snapshot~;
#X obj 523 421 metro 1;
#X obj 523 398 tgl 19 0 empty empty empty 0 -10 0 12 #fcfcfc #000000 #000000 0 1;
#X floatatom 429 483 5 0 0 0 - - - 0;
#X floatatom 429 530 5 0 0 0 - - - 0;
#X floatatom 429 586 5 0 0 0 - - - 0;
#X obj 429 644 +;
#X obj 523 375 r bang-all;
#N canvas 63 88 1070 496 acidsynth 0;
#X obj 264 445 outlet~;
#X obj 97 13 inlet;
#X floatatom 97 37 5 0 0 0 - - - 0;
#X obj 97 60 s \$0-freq;
#X obj 248 226 r \$0-freq;
#X obj 188 256 * 2;
#X obj 306 257 * 0.5;
#X obj 306 282 square~;
#X obj 189 280 square~;
#X obj 249 281 square~;
#X connect 1 0 2 0;
#X connect 2 0 3 0;
#X connect 4 0 5 0;
#X connect 4 0 6 0;
#X connect 4 0 9 0;
#X connect 5 0 8 0;
#X connect 6 0 7 0;
#X connect 7 0 0 0;
#X connect 8 0 0 0;
#X connect 9 0 0 0;
#X restore 128 595 pd acidsynth;
#X obj 194 295 s \$0-env;
#X obj 307 705 r \$0-env;
#X obj 193 820 throw~ acid;
#X obj 193 789 *~ 0.75;
#X obj 255 145 r acidnote;
#X obj 741 228 eseq;
#X obj 766 180 r bang-all;
#X obj 741 139 r beat;
#X obj 741 252 bng 19 250 50 0 empty empty empty 0 -10 0 12 #fcfcfc #000000 #000000;
#X obj 767 253 bng 19 250 50 0 empty empty empty 0 -10 0 12 #fcfcfc #000000 #000000;
#X obj 741 357 s acidnote;
#X obj 777 288 bern 16;
#X msg 766 204 1 8 0;
#X msg 741 280 4;
#X msg 777 312 8;
#X obj 308 574 * 12;
#X obj 361 574 * 5;
#X obj 863 222 eseq;
#X obj 888 174 r bang-all;
#X obj 863 133 r beat;
#X obj 863 246 bng 19 250 50 0 empty empty empty 0 -10 0 12 #fcfcfc #000000 #000000;
#X obj 889 247 bng 19 250 50 0 empty empty empty 0 -10 0 12 #fcfcfc #000000 #000000;
#X obj 863 351 s acidnote;
#X msg 863 274 5;
#X msg 888 198 1 9 0;
#X obj 997 227 eseq;
#X obj 1022 179 r bang-all;
#X obj 997 138 r beat;
#X obj 997 251 bng 19 250 50 0 empty empty empty 0 -10 0 12 #fcfcfc #000000 #000000;
#X obj 1023 252 bng 19 250 50 0 empty empty empty 0 -10 0 12 #fcfcfc #000000 #000000;
#X obj 997 356 s acidnote;
#X msg 1022 203 1 10 0;
#X msg 997 279 -4;
#X obj 1117 229 eseq;
#X obj 1142 181 r bang-all;
#X obj 1117 140 r beat;
#X obj 1117 253 bng 19 250 50 0 empty empty empty 0 -10 0 12 #fcfcfc #000000 #000000;
#X obj 1143 254 bng 19 250 50 0 empty empty empty 0 -10 0 12 #fcfcfc #000000 #000000;
#X obj 1117 358 s acidnote;
#X msg 1141 205 1 11 0;
#X msg 1117 281 -5;
#X obj 902 276 bern 16;
#X msg 902 300 10;
#X obj 1033 281 bern 16;
#X msg 1033 305 -8;
#X obj 1163 287 bern 16;
#X msg 1163 311 -10;
#X obj 255 180 t b b f;
#X obj 429 506 + 1;
#X msg 524 581 3;
#X msg 256 407 220, f 4;
#X obj 256 434 ttet 7;
#X obj 429 562 * 3;
#X connect 0 0 18 0;
#X connect 0 0 34 0;
#X connect 0 0 35 0;
#X connect 1 0 4 0;
#X connect 2 0 6 0;
#X connect 3 0 4 1;
#X connect 4 0 8 0;
#X connect 5 0 6 1;
#X connect 6 0 22 0;
#X connect 7 0 5 0;
#X connect 8 0 2 1;
#X connect 9 0 10 0;
#X connect 10 0 13 0;
#X connect 11 0 10 0;
#X connect 11 0 68 0;
#X connect 12 0 11 0;
#X connect 13 0 67 0;
#X connect 14 0 71 0;
#X connect 15 0 16 0;
#X connect 16 0 2 2;
#X connect 17 0 12 0;
#X connect 18 0 2 0;
#X connect 20 0 7 0;
#X connect 22 0 21 0;
#X connect 23 0 66 0;
#X connect 24 0 27 0;
#X connect 24 1 28 0;
#X connect 25 0 31 0;
#X connect 26 0 24 0;
#X connect 27 0 32 0;
#X connect 28 0 30 0;
#X connect 30 0 33 0;
#X connect 31 0 24 1;
#X connect 32 0 29 0;
#X connect 33 0 29 0;
#X connect 34 0 1 0;
#X connect 35 0 3 0;
#X connect 36 0 39 0;
#X connect 36 1 40 0;
#X connect 37 0 43 0;
#X connect 38 0 36 0;
#X connect 39 0 42 0;
#X connect 40 0 60 0;
#X connect 42 0 41 0;
#X connect 43 0 36 1;
#X connect 44 0 47 0;
#X connect 44 1 48 0;
#X connect 45 0 50 0;
#X connect 46 0 44 0;
#X connect 47 0 51 0;
#X connect 48 0 62 0;
#X connect 50 0 44 1;
#X connect 51 0 49 0;
#X connect 52 0 55 0;
#X connect 52 1 56 0;
#X connect 53 0 58 0;
#X connect 54 0 52 0;
#X connect 55 0 59 0;
#X connect 56 0 64 0;
#X connect 58 0 52 1;
#X connect 59 0 57 0;
#X connect 60 0 61 0;
#X connect 61 0 41 0;
#X connect 62 0 63 0;
#X connect 63 0 49 0;
#X connect 64 0 65 0;
#X connect 65 0 57 0;
#X connect 66 0 19 0;
#X connect 66 1 69 0;
#X connect 66 2 70 1;
#X connect 67 0 14 0;
#X connect 68 0 16 1;
#X connect 69 0 70 0;
#X connect 70 0 0 0;
#X connect 71 0 15 0;
#X restore 568 62 pd acid;
#X msg 146 106 220;
#X obj 146 83 r bang-all;
#X obj 146 130 s bfq;
#N canvas 0 38 1492 896 pad 0;
#X obj 744 2 eseq;
#X obj 744 -70 r beat;
#X obj 769 -45 r bang-all;
#X obj 744 29 counter;
#X floatatom 744 77 5 0 0 0 - - - 0;
#X obj 776 210 unpack f f f, f 43;
#X obj 1058 493 vline~;
#X obj 1040 517 *~;
#X floatatom 889 379 5 0 0 0 - - - 0;
#X obj 1075 886 rev1~;
#X obj 1065 659 snapshot~;
#X obj 1159 621 metro 1;
#X obj 1159 598 tgl 19 0 empty empty empty 0 -10 0 12 #fcfcfc #000000 #000000 0 1;
#X floatatom 1065 683 5 0 0 0 - - - 0;
#X floatatom 1065 730 5 0 0 0 - - - 0;
#X floatatom 1065 786 5 0 0 0 - - - 0;
#X obj 1065 589 *~;
#X obj 1159 575 r bang-all;
#X obj 1040 827 lop~;
#X obj 1091 834 r bang-all;
#X obj 946 280 r offset;
#X obj 928 305 +;
#X floatatom 928 329 5 0 0 0 - - - 0;
#X obj 889 272 r bfq;
#X floatatom 737 373 5 0 0 0 - - - 0;
#X obj 794 275 r offset;
#X obj 776 299 +;
#X floatatom 776 323 5 0 0 0 - - - 0;
#X obj 737 266 r bfq;
#X floatatom 1040 381 5 0 0 0 - - - 0;
#X obj 1096 282 r offset;
#X obj 1079 307 +;
#X floatatom 1079 331 5 0 0 0 - - - 0;
#X obj 1040 274 r bfq;
#X obj 1041 946 throw~ pad;
#X floatatom 776 235 5 0 0 0 - - - 0;
#X floatatom 928 244 5 0 0 0 - - - 0;
#X floatatom 1078 239 5 0 0 0 - - - 0;
#X obj 1214 269 s \$0-envtrig;
#X obj 1058 442 r \$0-envtrig;
#X obj 744 103 t b f b;
#X obj 1040 851 lop~;
#X obj 744 53 % 4;
#X obj 776 133 sel 0 1 2 3;
#X obj 737 399 osc~;
#X obj 1040 406 osc~;
#X obj 889 405 sinabs~;
#X msg 769 -21 1 8 0;
#X obj 129 336 s \$0-chord;
#X obj 129 201 eseq;
#X obj 129 129 r beat;
#X obj 154 154 r bang-all;
#X obj 129 225 bng 19 250 50 0 empty empty empty 0 -10 0 12 #fcfcfc #000000 #000000;
#X obj 155 226 bng 19 250 50 0 empty empty empty 0 -10 0 12 #fcfcfc #000000 #000000;
#X obj 1217 143 r \$0-chord;
#X obj 1217 167 t b f;
#X msg 130 276 0;
#X msg 1058 469 0.5 10 0 \, 0 150 10;
#X msg 154 178 3 8 0;
#X obj 173 262 bern 16;
#X msg 174 285 3;
#X obj 288 337 s \$0-chord;
#X obj 288 202 eseq;
#X obj 288 130 r beat;
#X obj 313 155 r bang-all;
#X obj 288 226 bng 19 250 50 0 empty empty empty 0 -10 0 12 #fcfcfc #000000 #000000;
#X obj 314 227 bng 19 250 50 0 empty empty empty 0 -10 0 12 #fcfcfc #000000 #000000;
#X obj 332 263 bern 16;
#X msg 289 277 1;
#X msg 333 286 2;
#X msg 313 179 1 7 1;
#X obj 1065 762 * 1000;
#X obj 1131 549 phasor~ 0.01;
#X obj 1065 548 osc~ 0.1;
#X obj 1065 706 + 1;
#X msg 776 168 0 5 8;
#X msg 835 169 3 8 11;
#X msg 908 169 -1 4 7;
#X msg 979 169 10 16 14;
#X obj 459 617 *~ 0.25;
#X obj 459 641 throw~ pad;
#X obj 652 646 throw~ pad;
#X obj 652 622 *~ 0.15;
#X obj 1206 888 delwrite~ \$0-delaybuf 1000;
#X obj 652 598 delread~ \$0-delaybuf 500;
#X obj 459 593 delread~ \$0-delaybuf 200;
#X obj 652 739 throw~ pad;
#X obj 652 691 delread~ \$0-delaybuf 1000;
#X obj 652 715 *~ 0.05;
#X obj 1015 909 *~ 0.5;
#X msg 1091 859 70;
#X obj 1075 910 *~ 0.15;
#X obj 737 347 ttet 7;
#X obj 889 353 ttet 7;
#X obj 1040 355 ttet 7;
#X connect 0 0 3 0;
#X connect 1 0 0 0;
#X connect 2 0 47 0;
#X connect 3 0 42 0;
#X connect 4 0 40 0;
#X connect 5 0 35 0;
#X connect 5 1 36 0;
#X connect 5 2 37 0;
#X connect 6 0 7 1;
#X connect 7 0 18 0;
#X connect 8 0 46 0;
#X connect 9 0 91 0;
#X connect 10 0 13 0;
#X connect 11 0 10 0;
#X connect 12 0 11 0;
#X connect 13 0 74 0;
#X connect 14 0 71 0;
#X connect 15 0 18 1;
#X connect 15 0 41 1;
#X connect 16 0 10 0;
#X connect 17 0 12 0;
#X connect 18 0 41 0;
#X connect 19 0 90 0;
#X connect 20 0 21 1;
#X connect 21 0 22 0;
#X connect 22 0 93 1;
#X connect 23 0 93 0;
#X connect 24 0 44 0;
#X connect 25 0 26 1;
#X connect 26 0 27 0;
#X connect 27 0 92 1;
#X connect 28 0 92 0;
#X connect 29 0 45 0;
#X connect 30 0 31 1;
#X connect 31 0 32 0;
#X connect 32 0 94 1;
#X connect 33 0 94 0;
#X connect 35 0 26 0;
#X connect 36 0 21 0;
#X connect 37 0 31 0;
#X connect 39 0 57 0;
#X connect 41 0 9 0;
#X connect 41 0 83 0;
#X connect 41 0 89 0;
#X connect 42 0 4 0;
#X connect 43 0 75 0;
#X connect 43 1 76 0;
#X connect 43 2 77 0;
#X connect 43 3 78 0;
#X connect 44 0 7 0;
#X connect 45 0 7 0;
#X connect 46 0 7 0;
#X connect 47 0 0 1;
#X connect 49 0 52 0;
#X connect 49 1 53 0;
#X connect 50 0 49 0;
#X connect 51 0 58 0;
#X connect 52 0 56 0;
#X connect 53 0 59 0;
#X connect 54 0 55 0;
#X connect 55 0 38 0;
#X connect 55 1 43 0;
#X connect 56 0 48 0;
#X connect 57 0 6 0;
#X connect 58 0 49 1;
#X connect 59 0 60 0;
#X connect 60 0 48 0;
#X connect 62 0 65 0;
#X connect 62 1 66 0;
#X connect 63 0 62 0;
#X connect 64 0 70 0;
#X connect 65 0 68 0;
#X connect 66 0 67 0;
#X connect 67 0 69 0;
#X connect 68 0 61 0;
#X connect 69 0 61 0;
#X connect 70 0 62 1;
#X connect 71 0 15 0;
#X connect 72 0 16 1;
#X connect 73 0 16 0;
#X connect 74 0 14 0;
#X connect 75 0 5 0;
#X connect 76 0 5 0;
#X connect 77 0 5 0;
#X connect 78 0 5 0;
#X connect 79 0 80 0;
#X connect 82 0 81 0;
#X connect 84 0 82 0;
#X connect 85 0 79 0;
#X connect 87 0 88 0;
#X connect 88 0 86 0;
#X connect 89 0 34 0;
#X connect 90 0 9 1;
#X connect 91 0 34 0;
#X connect 92 0 24 0;
#X connect 93 0 8 0;
#X connect 94 0 29 0;
#X restore 347 62 pd pad;
#X obj 347 87 catch~ pad;
#X obj 347 145 throw~ out;
#X obj 676 87 catch~ arp;
#X obj 676 148 throw~ out;
#N canvas 0 38 1512 916 arp 0;
#X floatatom 756 391 5 0 0 0 - - - 0;
#X floatatom 795 341 5 0 0 0 - - - 0;
#X obj 756 284 r bfq;
#X obj 755 647 *~;
#X obj 823 597 vline~;
#X obj 755 861 throw~ arp;
#X obj 916 258 s \$0-env-trig;
#X floatatom 803 236 5 0 0 0 - - - 0;
#X obj 823 544 r \$0-env-trig;
#X obj 1097 503 snapshot~;
#X obj 1191 465 metro 1;
#X obj 1191 442 tgl 19 0 empty empty empty 0 -10 0 12 #fcfcfc #000000 #000000 0 1;
#X floatatom 1097 527 5 0 0 0 - - - 0;
#X floatatom 1097 574 5 0 0 0 - - - 0;
#X floatatom 1097 630 5 0 0 0 - - - 0;
#X obj 1097 433 *~;
#X obj 1191 419 r bang-all;
#X obj 1097 550 + 1;
#X obj 1163 393 phasor~ 0.1;
#X obj 755 713 lop~;
#X obj 755 737 lop~;
#X msg 823 571 1 5 0 \, 0 75 5;
#X floatatom 819 444 5 0 0 0 - - - 0;
#X obj 755 768 hip~;
#X floatatom 1097 677 5 0 0 0 - - - 0;
#X obj 1097 653 * 0.1;
#X obj 915 171 r \$0-note;
#X obj 1097 392 osc~ 0.5;
#X obj 819 420 * 2;
#X floatatom 883 442 5 0 0 0 - - - 0;
#X obj 883 498 *~ 0.5;
#X obj 883 418 * 0.5;
#X obj 819 500 *~ 0.25;
#X obj 756 501 *~ 1;
#X obj 821 265 r offset;
#X floatatom 821 289 5 0 0 0 - - - 0;
#X obj 803 312 +;
#X obj 756 475 tri~;
#X obj 910 802 rev1~;
#X obj 910 826 *~ 0.75;
#X obj 926 754 r bang-all;
#X obj 998 795 bng 19 250 50 0 empty empty empty 0 -10 0 12 #fcfcfc #000000 #000000;
#X obj 819 475 tri~;
#X obj 883 473 tri~;
#X obj 915 195 t b f;
#X obj 120 188 eseq;
#X obj 146 123 r bang-all;
#X obj 120 94 r beat;
#X obj 120 212 bng 19 250 50 0 empty empty empty 0 -10 0 12 #fcfcfc #000000 #000000;
#X obj 146 212 bng 19 250 50 0 empty empty empty 0 -10 0 12 #fcfcfc #000000 #000000;
#X obj 120 260 s \$0-note;
#X obj 244 187 eseq;
#X obj 270 122 r bang-all;
#X obj 244 93 r beat;
#X obj 244 211 bng 19 250 50 0 empty empty empty 0 -10 0 12 #fcfcfc #000000 #000000;
#X obj 270 211 bng 19 250 50 0 empty empty empty 0 -10 0 12 #fcfcfc #000000 #000000;
#X obj 244 259 s \$0-note;
#X msg 244 235 5;
#X obj 392 192 eseq;
#X obj 418 127 r bang-all;
#X obj 392 98 r beat;
#X obj 392 216 bng 19 250 50 0 empty empty empty 0 -10 0 12 #fcfcfc #000000 #000000;
#X obj 418 216 bng 19 250 50 0 empty empty empty 0 -10 0 12 #fcfcfc #000000 #000000;
#X obj 392 264 s \$0-note;
#X obj 519 195 eseq;
#X obj 545 130 r bang-all;
#X obj 519 101 r beat;
#X obj 519 219 bng 19 250 50 0 empty empty empty 0 -10 0 12 #fcfcfc #000000 #000000;
#X obj 545 219 bng 19 250 50 0 empty empty empty 0 -10 0 12 #fcfcfc #000000 #000000;
#X obj 519 267 s \$0-note;
#X msg 519 243 8;
#X msg 418 151 1 19 4;
#X msg 545 154 1 23 3;
#X msg 146 147 1 8 0;
#X msg 270 146 3 17 0;
#X obj 756 308 * 2;
#X obj 1097 606 * 2500;
#X msg 926 778 25;
#X msg 120 236 -1;
#X msg 392 240 13;
#X obj 756 365 ttet 7;
#X connect 0 0 28 0;
#X connect 0 0 31 0;
#X connect 0 0 37 0;
#X connect 1 0 80 1;
#X connect 2 0 75 0;
#X connect 3 0 19 0;
#X connect 4 0 3 1;
#X connect 7 0 36 0;
#X connect 8 0 21 0;
#X connect 9 0 12 0;
#X connect 10 0 9 0;
#X connect 11 0 10 0;
#X connect 12 0 17 0;
#X connect 13 0 76 0;
#X connect 14 0 19 1;
#X connect 14 0 20 1;
#X connect 14 0 25 0;
#X connect 15 0 9 0;
#X connect 16 0 11 0;
#X connect 17 0 13 0;
#X connect 18 0 15 1;
#X connect 19 0 20 0;
#X connect 20 0 23 0;
#X connect 21 0 4 0;
#X connect 22 0 42 0;
#X connect 23 0 38 0;
#X connect 23 0 5 0;
#X connect 24 0 23 1;
#X connect 25 0 24 0;
#X connect 26 0 44 0;
#X connect 27 0 15 0;
#X connect 28 0 22 0;
#X connect 29 0 43 0;
#X connect 30 0 3 0;
#X connect 31 0 29 0;
#X connect 32 0 3 0;
#X connect 33 0 3 0;
#X connect 34 0 35 0;
#X connect 35 0 36 1;
#X connect 36 0 1 0;
#X connect 37 0 33 0;
#X connect 38 0 39 0;
#X connect 39 0 5 0;
#X connect 40 0 77 0;
#X connect 42 0 32 0;
#X connect 43 0 30 0;
#X connect 44 0 6 0;
#X connect 44 1 7 0;
#X connect 45 0 48 0;
#X connect 45 1 49 0;
#X connect 46 0 73 0;
#X connect 47 0 45 0;
#X connect 48 0 78 0;
#X connect 51 0 54 0;
#X connect 51 1 55 0;
#X connect 52 0 74 0;
#X connect 53 0 51 0;
#X connect 54 0 57 0;
#X connect 57 0 56 0;
#X connect 58 0 61 0;
#X connect 58 1 62 0;
#X connect 59 0 71 0;
#X connect 60 0 58 0;
#X connect 61 0 79 0;
#X connect 64 0 67 0;
#X connect 64 1 68 0;
#X connect 65 0 72 0;
#X connect 66 0 64 0;
#X connect 67 0 70 0;
#X connect 70 0 69 0;
#X connect 71 0 58 1;
#X connect 72 0 64 1;
#X connect 73 0 45 1;
#X connect 74 0 51 1;
#X connect 75 0 80 0;
#X connect 76 0 14 0;
#X connect 77 0 38 1;
#X connect 78 0 50 0;
#X connect 79 0 63 0;
#X connect 80 0 0 0;
#X restore 676 62 pd arp;
#X obj 454 112 *~ 0.25;
#X obj 676 112 *~ 0.1;
#X obj 347 114 *~ 0.09;
#X obj 568 113 *~ 0.09;
#X connect 0 0 1 0;
#X connect 1 0 14 0;
#X connect 2 0 4 0;
#X connect 3 0 2 0;
#X connect 3 1 18 0;
#X connect 4 0 6 0;
#X connect 6 0 7 0;
#X connect 10 0 11 0;
#X connect 10 0 11 1;
#X connect 12 0 10 0;
#X connect 13 0 12 0;
#X connect 15 0 3 0;
#X connect 16 0 32 0;
#X connect 18 0 4 1;
#X connect 18 0 5 0;
#X connect 20 0 35 0;
#X connect 23 0 25 0;
#X connect 24 0 23 0;
#X connect 27 0 34 0;
#X connect 29 0 33 0;
#X connect 32 0 17 0;
#X connect 33 0 30 0;
#X connect 34 0 28 0;
#X connect 35 0 19 0;
