#N canvas 0 25 1440 847 12;
#X declare -path ../lib;
#X declare -path ../samples;
#X obj 15 11 loadbang;
#X obj 15 37 bng 15 250 50 0 empty empty empty 17 7 0 10 #fcfcfc #000000 #000000;
#X obj 15 152 tgl 15 0 empty empty empty 17 7 0 10 #fcfcfc #000000 #000000 0 1;
#X obj 15 124 t b b;
#X obj 15 177 metro;
#X obj 69 177 s bpms;
#X obj 15 203 bng 15 250 50 0 empty empty empty 17 7 0 10 #fcfcfc #000000 #000000;
#X obj 15 225 s beat;
#X msg 47 150 200;
#X obj 175 11 declare -path ../lib;
#X obj 175 36 declare -path ../samples;
#X obj 15 312 clip~ -1 1;
#X obj 15 336 dac~;
#X obj 15 264 catch~ out;
#X obj 15 59 s bang-all;
#X obj 15 99 r bang-all;
#X text 880 50 3: [220.0 \, 252.714 \, 290.292 \, 333.458 \, 383.04224785029464] \, 4: [440.0 \, 505.427 \, 580.583 \, 666.915 \, 766.0844957005893] \, 5: [880.0 \, 1010.85 \, 1161.17 \, 1333.83 \, 1532.1689914011786];
#X obj 15 288 *~ 0.1;
#X obj 541 739 throw~ out;
#X obj 538 275 2tone, f 15;
#X msg 589 252 240;
#X obj 556 337 vline~;
#X msg 556 312 1 500 0 \, 0 2000 500;
#X obj 538 362 *~;
#X obj 538 173 t b b b b;
#X obj 755 459 throw~ out;
#X obj 755 271 2tone, f 15;
#X msg 806 248 240;
#X obj 773 333 vline~;
#X obj 755 358 *~;
#X obj 755 169 t b b b b;
#X obj 322 647 throw~ out;
#X obj 322 361 2tone, f 15;
#X msg 373 338 240;
#X obj 322 448 *~;
#X obj 272 163 eseq;
#X obj 272 84 r beat;
#X obj 272 187 bng 19 250 50 0 empty empty empty 0 -10 0 12 #fcfcfc #000000 #000000;
#X obj 298 187 bng 19 250 50 0 empty empty empty 0 -10 0 12 #fcfcfc #000000 #000000;
#X obj 297 115 r bang-all;
#X obj 538 123 eseq;
#X obj 538 44 r beat;
#X obj 538 147 bng 19 250 50 0 empty empty empty 0 -10 0 12 #fcfcfc #000000 #000000;
#X obj 564 147 bng 19 250 50 0 empty empty empty 0 -10 0 12 #fcfcfc #000000 #000000;
#X obj 564 72 r bang-all;
#X obj 755 120 eseq;
#X obj 755 41 r beat;
#X obj 755 144 bng 19 250 50 0 empty empty empty 0 -10 0 12 #fcfcfc #000000 #000000;
#X obj 781 144 bng 19 250 50 0 empty empty empty 0 -10 0 12 #fcfcfc #000000 #000000;
#X obj 781 69 r bang-all;
#X msg 781 93 1 37 0;
#X obj 341 424 vline~;
#X msg 297 139 1 13 0;
#X obj 347 478 random 100;
#X obj 347 526 osc~;
#X obj 322 622 lop~;
#X obj 347 550 +~ 1;
#X obj 347 502 / 10;
#X obj 347 598 +~ 150;
#X obj 272 362 t b b;
#X msg 341 399 1 500 0 \, 0 2000 500;
#X obj 347 574 *~ 50;
#X obj 978 220 eseq;
#X obj 978 141 r beat;
#X obj 1004 169 r bang-all;
#X obj 978 257 kick~;
#X obj 978 281 throw~ out;
#X obj 1108 217 eseq;
#X obj 1108 138 r beat;
#X obj 1133 168 r bang-all;
#X obj 1108 278 throw~ out;
#X obj 1108 254 snare~;
#X msg 1133 192 703 9139 0;
#X obj 1248 219 eseq;
#X obj 1248 140 r beat;
#X obj 1274 168 r bang-all;
#X obj 1247 399 throw~ out;
#X obj 1247 374 hat~;
#X msg 1274 192 3515 9139 0;
#X obj 755 433 rev1~;
#X msg 857 247 5 -8;
#X msg 771 408 99.5;
#X obj 771 382 r bang-all;
#X msg 1004 193 2812 9139 1;
#X obj 1273 338 spigot;
#X floatatom 1312 315 5 0 0 0 - - - 0;
#X obj 1312 267 random 7;
#X obj 1312 291 > 5;
#X msg 773 308 1 500 0 \, 0 5000 500;
#X obj 566 462 +~ 1;
#X obj 541 713 hip~;
#X obj 566 618 snapshot~;
#X floatatom 566 642 5 0 0 0 - - - 0;
#X obj 577 589 metro 1;
#X obj 578 565 tgl 19 0 empty empty empty 0 -10 0 12 #fcfcfc #000000 #000000 0 1;
#X obj 578 540 r bang-all;
#X obj 566 434 *~;
#X obj 566 391 osc~ 0.5;
#X obj 566 486 *~ 1500;
#X obj 566 510 +~ 2500;
#X floatatom 650 641 5 0 0 0 - - - 0;
#X obj 566 666 +;
#X floatatom 566 690 5 0 0 0 - - - 0;
#X obj 650 567 r beat;
#X obj 650 593 random 5000;
#X obj 636 390 phasor~ 0.7;
#X obj 650 617 + 1000;
#X obj 424 265 random 3;
#X msg 424 313 set 5 \$1;
#X msg 424 337 5 -6;
#X obj 424 289 - 6;
#X obj 272 225 t b b b b b;
#X msg 564 96 1 23 5;
#X obj 1273 242 t b b;
#X msg 640 251 7 4;
#X connect 0 0 1 0;
#X connect 1 0 14 0;
#X connect 2 0 4 0;
#X connect 3 0 2 0;
#X connect 3 1 8 0;
#X connect 4 0 6 0;
#X connect 6 0 7 0;
#X connect 8 0 5 0;
#X connect 8 0 4 1;
#X connect 11 0 12 0;
#X connect 11 0 12 1;
#X connect 13 0 17 0;
#X connect 15 0 3 0;
#X connect 17 0 11 0;
#X connect 19 0 23 0;
#X connect 20 0 19 1;
#X connect 21 0 23 1;
#X connect 22 0 21 0;
#X connect 23 0 90 0;
#X connect 24 0 22 0;
#X connect 24 1 19 0;
#X connect 24 2 20 0;
#X connect 24 3 114 0;
#X connect 26 0 29 0;
#X connect 27 0 26 1;
#X connect 28 0 29 1;
#X connect 29 0 79 0;
#X connect 30 0 88 0;
#X connect 30 1 26 0;
#X connect 30 2 27 0;
#X connect 30 3 80 0;
#X connect 32 0 34 0;
#X connect 33 0 32 1;
#X connect 34 0 55 0;
#X connect 35 0 37 0;
#X connect 35 1 38 0;
#X connect 36 0 35 0;
#X connect 37 0 111 0;
#X connect 39 0 52 0;
#X connect 40 0 42 0;
#X connect 40 1 43 0;
#X connect 41 0 40 0;
#X connect 42 0 24 0;
#X connect 44 0 112 0;
#X connect 45 0 47 0;
#X connect 45 1 48 0;
#X connect 46 0 45 0;
#X connect 47 0 30 0;
#X connect 49 0 50 0;
#X connect 50 0 45 1;
#X connect 51 0 34 1;
#X connect 52 0 35 1;
#X connect 53 0 57 0;
#X connect 54 0 56 0;
#X connect 55 0 31 0;
#X connect 56 0 61 0;
#X connect 57 0 54 0;
#X connect 58 0 55 1;
#X connect 59 0 60 0;
#X connect 59 1 53 0;
#X connect 60 0 51 0;
#X connect 61 0 58 0;
#X connect 62 0 65 0;
#X connect 63 0 62 0;
#X connect 64 0 83 0;
#X connect 65 0 66 0;
#X connect 67 0 71 0;
#X connect 68 0 67 0;
#X connect 69 0 72 0;
#X connect 71 0 70 0;
#X connect 72 0 67 1;
#X connect 73 0 77 0;
#X connect 73 1 113 0;
#X connect 74 0 73 0;
#X connect 75 0 78 0;
#X connect 77 0 76 0;
#X connect 78 0 73 1;
#X connect 79 0 25 0;
#X connect 80 0 26 2;
#X connect 81 0 79 1;
#X connect 82 0 81 0;
#X connect 83 0 62 1;
#X connect 84 0 77 0;
#X connect 85 0 84 1;
#X connect 86 0 87 0;
#X connect 87 0 85 0;
#X connect 88 0 28 0;
#X connect 89 0 98 0;
#X connect 90 0 18 0;
#X connect 91 0 92 0;
#X connect 92 0 101 0;
#X connect 93 0 91 0;
#X connect 94 0 93 0;
#X connect 95 0 94 0;
#X connect 96 0 89 0;
#X connect 97 0 96 0;
#X connect 98 0 99 0;
#X connect 99 0 91 0;
#X connect 100 0 101 1;
#X connect 101 0 102 0;
#X connect 102 0 90 1;
#X connect 103 0 104 0;
#X connect 104 0 106 0;
#X connect 105 0 96 1;
#X connect 106 0 100 0;
#X connect 107 0 110 0;
#X connect 108 0 109 0;
#X connect 109 0 32 2;
#X connect 110 0 108 0;
#X connect 111 0 59 0;
#X connect 111 1 32 0;
#X connect 111 2 33 0;
#X connect 111 3 109 0;
#X connect 111 4 107 0;
#X connect 112 0 40 1;
#X connect 113 0 84 0;
#X connect 113 1 86 0;
#X connect 114 0 19 2;
