#N canvas 0 38 1440 847 12;
#X declare -path ../lib;
#X declare -path ../samples;
#X obj 15 11 loadbang;
#X obj 15 37 bng 15 250 50 0 empty empty empty 17 7 0 10 #fcfcfc #000000 #000000;
#X obj 15 160 tgl 15 0 empty empty empty 17 7 0 10 #fcfcfc #000000 #000000 0 1;
#X obj 15 132 t b b;
#X obj 15 185 metro;
#X obj 69 185 s bpms;
#X obj 15 211 bng 15 250 50 0 empty empty empty 17 7 0 10 #fcfcfc #000000 #000000;
#X obj 15 233 s beat;
#X obj 175 11 declare -path ../lib;
#X obj 175 36 declare -path ../samples;
#X obj 16 390 clip~ -1 1;
#X obj 16 414 dac~;
#X obj 16 366 *~ 1;
#X obj 16 342 catch~ out;
#X obj 15 59 s bang-all;
#X obj 15 107 r bang-all;
#X obj 738 279 vline~;
#X obj 690 414 *~;
#X obj 738 224 bng 19 250 50 0 empty empty empty 0 -10 0 12 #fcfcfc #000000 #000000;
#X obj 690 438 lop~ 50;
#X obj 690 506 s~ sig2;
#X msg 738 252 1 5 0 \, 0 50 5;
#X obj 690 462 lop~ 25;
#X obj 292 160 tapedelay~;
#X obj 292 135 r~ sig2;
#X obj 292 465 throw~ out;
#X obj 856 11 r beat;
#X obj 856 35 counter;
#X floatatom 856 83 5 0 0 0 - - - 0;
#X obj 856 59 % 4;
#X obj 856 106 sel 0 1 2 3 4, f 35;
#X msg 865 138 440;
#X msg 903 139 475.135;
#X msg 979 140 513.075;
#X msg 1062 139 554.045;
#X obj 901 205 t b f;
#X obj 681 108 osc~;
#X msg 47 158 500;
#X obj 733 113 *~ 0.25;
#X obj 733 89 tri~;
#X connect 0 0 1 0;
#X connect 1 0 14 0;
#X connect 2 0 4 0;
#X connect 3 0 2 0;
#X connect 3 1 37 0;
#X connect 4 0 6 0;
#X connect 6 0 7 0;
#X connect 10 0 11 0;
#X connect 10 0 11 1;
#X connect 12 0 10 0;
#X connect 13 0 12 0;
#X connect 15 0 3 0;
#X connect 16 0 17 1;
#X connect 17 0 19 0;
#X connect 18 0 21 0;
#X connect 19 0 22 0;
#X connect 21 0 16 0;
#X connect 22 0 20 0;
#X connect 23 0 25 0;
#X connect 24 0 23 0;
#X connect 26 0 27 0;
#X connect 27 0 29 0;
#X connect 28 0 30 0;
#X connect 29 0 28 0;
#X connect 30 0 31 0;
#X connect 30 1 32 0;
#X connect 30 2 33 0;
#X connect 30 3 34 0;
#X connect 31 0 35 0;
#X connect 32 0 35 0;
#X connect 33 0 35 0;
#X connect 34 0 35 0;
#X connect 35 0 18 0;
#X connect 35 1 36 0;
#X connect 35 1 39 0;
#X connect 36 0 17 0;
#X connect 37 0 4 1;
#X connect 37 0 5 0;
#X connect 38 0 17 0;
#X connect 39 0 38 0;
#X coords 0 0 1 1 85 60 0;
