#N canvas 0 25 1440 847 12;
#X declare -path ../lib;
#X declare -path ../samples;
#X obj 15 11 loadbang;
#X obj 15 37 bng 15 250 50 0 empty empty empty 17 7 0 10 #fcfcfc #000000 #000000;
#X obj 15 59 s global-bang;
#X obj 15 107 r global-bang;
#X obj 15 160 tgl 15 0 empty empty empty 17 7 0 10 #fcfcfc #000000 #000000 0 1;
#X obj 15 132 t b b;
#X obj 15 185 metro;
#X obj 69 185 s bpms;
#X obj 15 211 bng 15 250 50 0 empty empty empty 17 7 0 10 #fcfcfc #000000 #000000;
#X obj 15 233 s beat;
#X obj 75 693 clip~ -1 1;
#X obj 75 717 dac~;
#X obj 693 832 vline~;
#X obj 675 865 *~;
#X obj 224 93 r bpms;
#X msg 224 141 set \$1;
#X msg 224 165 800;
#X obj 177 188 metro;
#X obj 176 68 r global-bang;
#X obj 176 118 tgl 15 0 empty empty empty 17 7 0 10 #fcfcfc #000000 #000000 0 1;
#X obj 176 92 t b b;
#X obj 177 213 bng 15 250 50 0 empty empty empty 17 7 0 10 #fcfcfc #000000 #000000;
#X floatatom 715 376 5 0 0 0 - - - 0;
#X obj 769 100 random 2;
#X floatatom 769 124 5 0 0 0 - - - 0;
#X msg 769 176 -1;
#X floatatom 769 208 5 0 0 0 - - - 0;
#X msg 812 176 1;
#X obj 769 147 sel 0 1;
#X obj 675 42 bng 15 250 50 0 empty empty empty 17 7 0 10 #fcfcfc #000000 #000000;
#X obj 751 232 +;
#X floatatom 715 257 5 0 0 0 - - - 0;
#X obj 715 231 f;
#X obj 715 280 mod 6;
#X floatatom 715 304 5 0 0 0 - - - 0;
#X obj 715 327 * 250;
#X obj 675 408 *;
#X obj 675 68 t b b b;
#X floatatom 675 432 5 0 0 0 - - - 0;
#X obj 176 340 delread~ buf 1000;
#X msg 675 377 185;
#X obj 477 345 delread~ buf 2000;
#X floatatom 495 426 5 0 0 0 - - - 0;
#X obj 495 449 <= 0;
#X floatatom 495 473 5 0 0 0 - - - 0;
#X obj 495 376 r beat;
#X obj 477 499 *~;
#X obj 477 574 rev1~;
#X obj 477 598 *~ 0.25;
#X obj 493 525 r global-bang;
#X obj 198 467 r global-bang;
#X obj 495 402 random 7;
#X obj 675 577 lop~ 75;
#X msg 493 549 99;
#X obj 74 479 r~ out1;
#X obj 675 1043 s~ out1;
#X obj 714 475 * 1.001;
#X obj 176 525 rev2~, f 13;
#X obj 694 605 delwrite~ buf 5000;
#X obj 176 440 *~ 1;
#X msg 318 497 100;
#X msg 237 495 99.9;
#X msg 275 496 2000;
#X msg 693 807 1 100 0 \, 0 50 100;
#X obj 675 12 r beat;
#X obj 694 644 r 4beat;
#X obj 177 234 s 4beat;
#X obj 224 117 * 4;
#X msg 198 495 65;
#X obj 694 668 random 3;
#X obj 694 691 sel 0 1 2;
#X obj 734 743 delay;
#X obj 766 668 r bpms;
#X floatatom 766 716 5 0 0 0 - - - 0;
#X obj 766 692 / 1.25;
#X obj 693 917 random 5;
#X obj 693 890 r 4beat;
#X obj 693 991 + 0.05;
#X obj 675 1017 *~;
#X obj 693 942 / 30;
#X floatatom 693 966 5 0 0 0 - - - 0;
#X obj 1016 434 readsf~;
#X msg 1016 410 open k1.wav \, 1;
#X obj 1016 536 s~ k1;
#X obj 98 566 r~ k1;
#X obj 1016 23 r beat;
#X obj 1016 335 bng 15 250 50 0 empty empty empty 17 7 0 10 #fcfcfc #000000 #000000;
#X obj 1041 134 bng 15 250 50 0 empty empty empty 17 7 0 10 #fcfcfc #000000 #000000;
#X obj 98 590 *~ 0.2;
#X obj 1137 409 random 2;
#X obj 1137 433 sel 0 1;
#X obj 1041 154 s e-down;
#X obj 733 778 r e-down;
#X obj 1055 286 sel 0;
#X obj 1055 313 bng 15 250 50 0 empty empty empty 17 7 0 10 #fcfcfc #000000 #000000;
#X obj 1055 336 tgl 15 0 empty empty empty 17 7 0 10 #fcfcfc #000000 #000000 0 1;
#X msg 1137 459 1;
#X msg 1175 458 0.5;
#X obj 1016 509 *~;
#X obj 1016 385 bng 15 250 50 0 empty empty empty 17 7 0 10 #fcfcfc #000000 #000000;
#X obj 1016 358 spigot;
#X obj 1055 262 % 1024;
#X msg 47 158 200;
#X obj 75 669 *~ 1;
#X obj 675 500 saw~;
#X obj 714 500 saw~;
#X obj 715 352 ctof;
#X obj 176 9 declare -path ../lib;
#X obj 175 34 declare -path ../samples;
#X obj 1016 110 eseq;
#X obj 1041 53 r global-bang;
#X msg 1041 82 7 16 0;
#X obj 1055 190 r beat;
#X obj 1055 214 f;
#X obj 1088 214 + 1;
#X floatatom 1055 238 5 0 0 0 - - - 0;
#X text 826 806 bleeps;
#X text 777 965 bleep velocity control;
#X text 835 606 drone read;
#X text 827 137 random walk;
#X text 1133 154 euclidean sequencing of kick and bleep;
#X text 774 315 map to 5-edo;
#X obj 1132 533 r beat;
#X obj 1132 620 eseq;
#X obj 1157 563 r global-bang;
#X obj 1132 646 bng 19 250 50 0 empty empty empty 0 -10 0 12 #fcfcfc #000000 #000000;
#X obj 1157 647 bng 19 250 50 0 empty empty empty 0 -10 0 12 #fcfcfc #000000 #000000;
#X obj 1132 675 hat~;
#X obj 1132 699 s~ h1;
#X obj 244 579 r~ h1;
#X obj 244 603 *~ 0.1;
#X msg 1157 592 7 32 0;
#X obj 968 591 r beat;
#X obj 968 678 eseq;
#X obj 993 621 r global-bang;
#X obj 968 704 bng 19 250 50 0 empty empty empty 0 -10 0 12 #fcfcfc #000000 #000000;
#X obj 993 705 bng 19 250 50 0 empty empty empty 0 -10 0 12 #fcfcfc #000000 #000000;
#X obj 968 733 snare~;
#X obj 968 757 s~ s1;
#X obj 316 571 r~ s1;
#X obj 316 595 *~ 0.025;
#X msg 993 650 7 64 2;
#X text 1053 759 TODO: more natural elements - granulize windd or birdd sasmples?;
#X obj 307 783 writesf~ 2;
#X msg 338 751 stop;
#X msg 339 726 start;
#X msg 303 661 open tfield.wav;
#X connect 0 0 1 0;
#X connect 1 0 2 0;
#X connect 3 0 5 0;
#X connect 4 0 6 0;
#X connect 5 0 4 0;
#X connect 5 1 102 0;
#X connect 6 0 8 0;
#X connect 8 0 9 0;
#X connect 10 0 11 0;
#X connect 10 0 11 1;
#X connect 10 0 143 0;
#X connect 10 0 143 1;
#X connect 12 0 13 1;
#X connect 13 0 78 0;
#X connect 14 0 67 0;
#X connect 15 0 16 0;
#X connect 16 0 17 1;
#X connect 17 0 21 0;
#X connect 18 0 20 0;
#X connect 19 0 17 0;
#X connect 20 0 19 0;
#X connect 20 1 16 0;
#X connect 21 0 66 0;
#X connect 22 0 36 1;
#X connect 23 0 24 0;
#X connect 24 0 28 0;
#X connect 25 0 26 0;
#X connect 26 0 30 1;
#X connect 27 0 26 0;
#X connect 28 0 25 0;
#X connect 28 1 27 0;
#X connect 29 0 37 0;
#X connect 30 0 32 1;
#X connect 31 0 33 0;
#X connect 32 0 30 0;
#X connect 32 0 31 0;
#X connect 33 0 34 0;
#X connect 34 0 35 0;
#X connect 35 0 106 0;
#X connect 36 0 38 0;
#X connect 37 0 40 0;
#X connect 37 1 32 0;
#X connect 37 2 23 0;
#X connect 38 0 56 0;
#X connect 38 0 104 0;
#X connect 39 0 59 0;
#X connect 40 0 36 0;
#X connect 41 0 46 0;
#X connect 42 0 43 0;
#X connect 43 0 44 0;
#X connect 44 0 46 1;
#X connect 45 0 51 0;
#X connect 46 0 47 0;
#X connect 47 0 48 0;
#X connect 48 0 103 0;
#X connect 49 0 53 0;
#X connect 50 0 68 0;
#X connect 50 0 61 0;
#X connect 50 0 62 0;
#X connect 50 0 60 0;
#X connect 51 0 42 0;
#X connect 52 0 13 0;
#X connect 52 0 58 0;
#X connect 53 0 47 1;
#X connect 54 0 103 0;
#X connect 56 0 105 0;
#X connect 57 1 103 0;
#X connect 57 3 103 0;
#X connect 59 0 57 0;
#X connect 60 0 57 4;
#X connect 61 0 57 2;
#X connect 62 0 57 3;
#X connect 63 0 12 0;
#X connect 64 0 29 0;
#X connect 65 0 69 0;
#X connect 67 0 15 0;
#X connect 68 0 57 1;
#X connect 69 0 70 0;
#X connect 70 0 63 0;
#X connect 70 1 63 0;
#X connect 70 2 71 0;
#X connect 71 0 63 0;
#X connect 72 0 74 0;
#X connect 73 0 71 1;
#X connect 74 0 73 0;
#X connect 75 0 79 0;
#X connect 76 0 75 0;
#X connect 77 0 78 1;
#X connect 78 0 55 0;
#X connect 79 0 80 0;
#X connect 80 0 77 0;
#X connect 81 0 98 0;
#X connect 82 0 81 0;
#X connect 84 0 88 0;
#X connect 85 0 109 0;
#X connect 86 0 100 0;
#X connect 87 0 91 0;
#X connect 88 0 103 0;
#X connect 89 0 90 0;
#X connect 90 0 96 0;
#X connect 90 1 97 0;
#X connect 92 0 63 0;
#X connect 93 0 94 0;
#X connect 94 0 95 0;
#X connect 95 0 100 1;
#X connect 96 0 98 1;
#X connect 97 0 98 1;
#X connect 98 0 83 0;
#X connect 99 0 82 0;
#X connect 99 0 89 0;
#X connect 100 0 99 0;
#X connect 101 0 93 0;
#X connect 102 0 6 1;
#X connect 102 0 7 0;
#X connect 103 0 10 0;
#X connect 104 0 52 0;
#X connect 105 0 52 0;
#X connect 106 0 22 0;
#X connect 109 0 86 0;
#X connect 109 1 87 0;
#X connect 110 0 111 0;
#X connect 111 0 109 1;
#X connect 112 0 113 0;
#X connect 113 0 114 0;
#X connect 113 0 115 0;
#X connect 114 0 113 1;
#X connect 115 0 101 0;
#X connect 122 0 123 0;
#X connect 123 0 125 0;
#X connect 123 1 126 0;
#X connect 124 0 131 0;
#X connect 125 0 127 0;
#X connect 127 0 128 0;
#X connect 129 0 130 0;
#X connect 130 0 103 0;
#X connect 131 0 123 1;
#X connect 132 0 133 0;
#X connect 133 0 135 0;
#X connect 133 1 136 0;
#X connect 134 0 141 0;
#X connect 135 0 137 0;
#X connect 137 0 138 0;
#X connect 139 0 140 0;
#X connect 140 0 103 0;
#X connect 141 0 133 1;
#X connect 144 0 143 0;
#X connect 145 0 143 0;
#X connect 146 0 143 0;
