#N canvas 0 38 1440 847 12;
#X declare -path ../lib;
#X obj 19 221 clip~ -1 1;
#X obj 19 245 dac~;
#X obj 19 197 *~ 1;
#X obj 19 173 catch~ out;
#X obj 19 18 declare -path ../lib;
#X obj 19 96 metro 100;
#X obj 19 71 tgl 19 0 empty empty empty 0 -10 0 12 #fcfcfc #000000 #000000 0 1;
#X obj 19 47 loadbang;
#X obj 19 146 s clock;
#X obj 19 120 bng 19 250 50 0 empty empty empty 0 -10 0 12 #fcfcfc #000000 #000000;
#X connect 0 0 1 0;
#X connect 0 0 1 1;
#X connect 2 0 0 0;
#X connect 3 0 2 0;
#X connect 5 0 9 0;
#X connect 6 0 5 0;
#X connect 7 0 6 0;
#X connect 9 0 8 0;
