#N canvas 0 38 1512 916 12;
#X declare -path ../../lib;
#X obj 811 44 loadbang;
#X obj 706 983 clip~ -1 1;
#X obj 706 1007 dac~;
#X obj 706 959 catch~ out;
#X obj 811 93 metro 100;
#X obj 754 112 bng 36 250 50 0 empty empty empty 0 -10 0 24 #e3c6ff #9c00ff #000000;
#N canvas 0 22 450 278 (subpatch) 0;
#X coords 0 1 100 -1 540 960 1 0 0;
#X restore 1437 50 graph;
#X obj 754 154 s clock;
#X obj 489 31 bng 19 250 50 0 empty empty empty 0 -10 0 12 #fcfcfc #000000 #000000;
#X obj 490 55 s counter-reset;
#X obj 811 68 tgl 19 0 empty empty empty 0 -10 0 12 #fcfcfc #000000 #000000 0 1;
#X obj 567 788 throw~ out;
#X obj 611 260 r clock;
#X obj 567 709 catch~ pluck;
#X floatatom 611 454 5 0 0 0 - - - 0;
#X msg 611 504 220;
#X obj 611 479 t b f, f 6;
#X obj 582 663 throw~ pluck;
#X obj 1097 922 + 5;
#X floatatom 668 551 5 0 0 0 - - - 0;
#X obj 668 503 random 3500;
#X obj 611 308 bng 19 250 50 0 empty empty empty 0 -10 0 12 #fcfcfc #000000 #000000;
#X obj 668 527 + 2500;
#X msg 641 601 \$1 0.99;
#X obj 582 626 ks~, f 13;
#X floatatom 514 566 5 0 0 0 - - - 0;
#X msg 563 598 5 \$1 0;
#X obj 611 555 t b f;
#X obj 514 518 random 20;
#X obj 513 542 + 5;
#X obj 629 763 delwrite~ pbuf 1000;
#X obj 911 156 delread~ pbuf 500;
#X obj 911 208 throw~ pluck;
#X obj 911 181 *~ 0.25;
#X obj 923 128 throw~ pluck;
#X obj 923 76 delread~ pbuf 900;
#X obj 923 101 *~ 0.15;
#X obj 643 357 s pnote1;
#X obj 668 480 r pnote1;
#X obj 611 332 t b b;
#X obj 457 94 declare -path ../../lib;
#X obj 611 531 ttet 5;
#X obj 611 381 counter 2;
#X obj 611 406 % 5;
#X obj 269 222 eseq 5 16 0;
#X obj 269 195 r clock;
#X obj 269 246 bng 19 250 50 0 empty empty empty 0 -10 0 12 #fcfcfc #000000 #000000;
#X obj 269 351 throw~ out;
#X obj 366 196 r clock;
#X obj 366 248 bng 19 250 50 0 empty empty empty 0 -10 0 12 #fcfcfc #000000 #000000;
#X obj 366 365 throw~ out;
#X obj 366 273 snare~;
#X obj 366 223 eseq 1 8 2;
#X obj 463 196 r clock;
#X obj 463 248 bng 19 250 50 0 empty empty empty 0 -10 0 12 #fcfcfc #000000 #000000;
#X obj 463 365 throw~ out;
#X obj 463 272 hat~;
#X obj 463 223 eseq 7 9 0;
#X floatatom 812 531 5 0 0 0 - - - 0;
#X obj 811 787 *~;
#X obj 879 737 vline~;
#X obj 811 1001 throw~ arp;
#X obj 1012 669 snapshot~;
#X obj 1106 631 metro 1;
#X obj 1106 608 tgl 19 0 empty empty empty 0 -10 0 12 #fcfcfc #000000 #000000 0 1;
#X floatatom 1012 693 5 0 0 0 - - - 0;
#X floatatom 1012 740 5 0 0 0 - - - 0;
#X floatatom 1012 796 5 0 0 0 - - - 0;
#X obj 1012 599 *~;
#X obj 1012 716 + 1;
#X obj 1078 559 phasor~ 0.1;
#X obj 811 853 lop~;
#X obj 811 877 lop~;
#X msg 879 711 1 5 0 \, 0 75 5;
#X floatatom 875 584 5 0 0 0 - - - 0;
#X obj 811 908 hip~;
#X floatatom 1012 843 5 0 0 0 - - - 0;
#X obj 1012 819 * 0.1;
#X obj 1012 558 osc~ 0.5;
#X obj 875 560 * 2;
#X floatatom 939 582 5 0 0 0 - - - 0;
#X obj 939 638 *~ 0.5;
#X obj 939 558 * 0.5;
#X obj 875 640 *~ 0.25;
#X obj 812 641 *~ 1;
#X obj 939 613 osc~;
#X obj 812 615 tri~;
#X obj 875 615 saw~;
#X obj 966 942 rev1~;
#X obj 966 966 *~ 0.75;
#X obj 982 894 r bang-all;
#X msg 982 918 90;
#X obj 1054 935 bng 19 250 50 0 empty empty empty 0 -10 0 12 #fcfcfc #000000 #000000;
#X obj 812 505 ttet 5;
#X msg 812 480 440;
#X obj 808 448 t b b f;
#X obj 741 614 s arpenv;
#X obj 879 684 r arpenv;
#X obj 335 885 catch~ arp;
#X obj 335 933 throw~ out;
#X obj 809 326 eseq 5 16 0;
#X obj 809 299 r clock;
#X obj 809 375 % 5;
#X obj 809 350 counter 4;
#X obj 809 399 - 3;
#X floatatom 809 423 5 0 0 0 - - - 0;
#X obj 1012 772 * 3500;
#X obj 883 376 bern 3;
#X obj 883 400 bng 19 250 50 0 empty empty empty 0 -10 0 12 #fcfcfc #000000 #000000;
#X obj 713 294 sel 0;
#X obj 713 318 counter 2;
#X floatatom 713 342 5 0 0 0 - - - 0;
#X obj 713 389 * -1;
#X floatatom 713 413 5 0 0 0 - - - 0;
#X obj 611 430 +;
#X obj 713 365 % 6;
#X obj 713 270 % 50;
#X obj 713 246 counter;
#X obj 1106 585 loadbang;
#X obj 1036 357 osc~;
#X obj 1074 357 osc~;
#X obj 1141 356 osc~;
#X obj 1074 331 * 0.999;
#X obj 1097 91 counter 2;
#X obj 1097 116 % 5;
#X obj 1098 255 ttet 5;
#X obj 1215 370 vline~;
#X obj 1215 317 r bassenv;
#X obj 1098 203 t b b f;
#X obj 992 247 s bassenv;
#X obj 1085 461 *~;
#X obj 1085 512 throw~ bass;
#X obj 495 867 catch~ bass;
#X obj 495 915 throw~ out;
#X floatatom 1097 140 5 0 0 0 - - - 0;
#X obj 1141 331 * 0.5;
#X obj 1097 164 - 2;
#X obj 1097 64 bng 19 250 50 0 empty empty empty 0 -10 0 12 #fcfcfc #000000 #000000;
#X obj 1141 381 *~ 0.5;
#X obj 1074 381 *~ 0.25;
#X obj 1261 44 r clock;
#X obj 1132 467 lop~ 500;
#X obj 1132 491 lop~ 500;
#X msg 1098 228 55;
#X obj 495 891 *~ 0.5;
#X obj 269 271 kick~ 100;
#X obj 269 295 *~ 0.5;
#X obj 366 297 *~ 0.25;
#X obj 463 297 *~ 0.75;
#X obj 567 764 *~ 0.05;
#X msg 1215 344 1 15 0 \, 0 500 10;
#X obj 1261 71 eseq 1 16 0;
#X obj 335 909 *~ 0.2;
#X connect 0 0 10 0;
#X connect 1 0 2 0;
#X connect 1 0 2 1;
#X connect 3 0 1 0;
#X connect 4 0 5 0;
#X connect 5 0 7 0;
#X connect 8 0 9 0;
#X connect 10 0 4 0;
#X connect 12 0 21 0;
#X connect 13 0 30 0;
#X connect 13 0 149 0;
#X connect 14 0 16 0;
#X connect 15 0 41 0;
#X connect 16 0 15 0;
#X connect 16 1 41 1;
#X connect 19 0 23 0;
#X connect 20 0 22 0;
#X connect 21 0 39 0;
#X connect 22 0 19 0;
#X connect 23 0 24 2;
#X connect 24 0 17 0;
#X connect 25 0 26 0;
#X connect 26 0 24 0;
#X connect 27 0 28 0;
#X connect 27 1 24 1;
#X connect 28 0 29 0;
#X connect 29 0 25 0;
#X connect 31 0 33 0;
#X connect 33 0 32 0;
#X connect 35 0 36 0;
#X connect 36 0 34 0;
#X connect 38 0 20 0;
#X connect 39 0 42 0;
#X connect 39 1 37 0;
#X connect 41 0 27 0;
#X connect 42 0 43 0;
#X connect 43 0 114 0;
#X connect 44 0 46 0;
#X connect 45 0 44 0;
#X connect 46 0 145 0;
#X connect 48 0 52 0;
#X connect 49 0 51 0;
#X connect 51 0 147 0;
#X connect 52 0 49 0;
#X connect 53 0 57 0;
#X connect 54 0 56 0;
#X connect 56 0 148 0;
#X connect 57 0 54 0;
#X connect 58 0 79 0;
#X connect 58 0 82 0;
#X connect 58 0 86 0;
#X connect 59 0 71 0;
#X connect 60 0 59 1;
#X connect 62 0 65 0;
#X connect 63 0 62 0;
#X connect 64 0 63 0;
#X connect 65 0 69 0;
#X connect 66 0 106 0;
#X connect 67 0 71 1;
#X connect 67 0 72 1;
#X connect 67 0 77 0;
#X connect 68 0 62 0;
#X connect 69 0 66 0;
#X connect 70 0 68 1;
#X connect 71 0 72 0;
#X connect 72 0 75 0;
#X connect 73 0 60 0;
#X connect 74 0 87 0;
#X connect 75 0 61 0;
#X connect 76 0 75 1;
#X connect 77 0 76 0;
#X connect 78 0 68 0;
#X connect 79 0 74 0;
#X connect 80 0 85 0;
#X connect 81 0 59 0;
#X connect 82 0 80 0;
#X connect 83 0 59 0;
#X connect 84 0 59 0;
#X connect 85 0 81 0;
#X connect 86 0 84 0;
#X connect 87 0 83 0;
#X connect 88 0 89 0;
#X connect 90 0 91 0;
#X connect 91 0 88 1;
#X connect 93 0 58 0;
#X connect 94 0 93 0;
#X connect 95 0 96 0;
#X connect 95 1 94 0;
#X connect 95 2 93 1;
#X connect 97 0 73 0;
#X connect 98 0 152 0;
#X connect 100 0 103 0;
#X connect 100 0 117 0;
#X connect 100 1 107 0;
#X connect 101 0 100 0;
#X connect 102 0 104 0;
#X connect 103 0 102 0;
#X connect 104 0 105 0;
#X connect 105 0 95 0;
#X connect 106 0 67 0;
#X connect 107 0 108 0;
#X connect 108 0 103 0;
#X connect 109 0 110 0;
#X connect 110 0 111 0;
#X connect 111 0 115 0;
#X connect 112 0 113 0;
#X connect 113 0 114 1;
#X connect 114 0 14 0;
#X connect 115 0 112 0;
#X connect 116 0 109 0;
#X connect 117 0 116 0;
#X connect 118 0 64 0;
#X connect 119 0 130 0;
#X connect 120 0 139 0;
#X connect 121 0 138 0;
#X connect 122 0 120 0;
#X connect 123 0 124 0;
#X connect 124 0 134 0;
#X connect 125 0 119 0;
#X connect 125 0 122 0;
#X connect 125 0 135 0;
#X connect 126 0 130 1;
#X connect 127 0 150 0;
#X connect 128 0 129 0;
#X connect 128 1 143 0;
#X connect 128 2 125 1;
#X connect 130 0 141 0;
#X connect 132 0 144 0;
#X connect 134 0 136 0;
#X connect 135 0 121 0;
#X connect 136 0 128 0;
#X connect 137 0 123 0;
#X connect 138 0 130 0;
#X connect 139 0 130 0;
#X connect 140 0 151 0;
#X connect 141 0 142 0;
#X connect 143 0 125 0;
#X connect 144 0 133 0;
#X connect 145 0 146 0;
#X connect 146 0 47 0;
#X connect 147 0 50 0;
#X connect 148 0 55 0;
#X connect 149 0 11 0;
#X connect 150 0 126 0;
#X connect 151 0 137 0;
#X connect 152 0 99 0;
