#N canvas 0 39 1512 916 12;
#X declare -path ../../lib;
#X obj 14 46 loadbang;
#X obj 14 70 tgl 15 0 empty empty empty 17 7 0 10 #fcfcfc #000000 #000000 0 1;
#X obj 16 390 clip~ -1 1;
#X obj 16 414 dac~;
#X obj 16 342 catch~ out;
#X obj 14 90 metro 100;
#X obj 13 12 declare -path ../../lib;
#X obj 14 113 bng 50 250 50 0 empty empty empty 0 -10 0 12 #c7c6ff #0400ff #ffffff;
#X obj 14 168 s clock;
#X obj 172 115 r clock;
#X obj 172 163 bng 19 250 50 0 empty empty empty 0 -10 0 12 #fcfcfc #000000 #000000;
#X obj 172 212 throw~ out;
#X obj 172 139 eseq 5 8 0;
#X obj 172 187 kick~ 100;
#X obj 499 141 r clock;
#X obj 499 189 bng 19 250 50 0 empty empty empty 0 -10 0 12 #fcfcfc #000000 #000000;
#X obj 499 261 throw~ out;
#X obj 499 213 snare~;
#X obj 499 165 eseq 1 8 4;
#X obj 305 139 r clock;
#X obj 305 187 bng 19 250 50 0 empty empty empty 0 -10 0 12 #fcfcfc #000000 #000000;
#X obj 305 259 throw~ out;
#X obj 386 60 s counter-reset;
#X obj 386 36 bng 19 250 50 0 empty empty empty 0 -10 0 12 #fcfcfc #000000 #000000;
#X obj 400 140 r clock;
#X obj 400 188 bng 19 250 50 0 empty empty empty 0 -10 0 12 #fcfcfc #000000 #000000;
#X obj 400 260 throw~ out;
#X obj 400 212 hat~;
#X obj 400 164 eseq 13 16 0;
#X obj 400 236 *~ 0.75;
#X obj 305 211 snare~;
#X obj 305 163 eseq 1 16 7;
#X obj 843 248 saw~;
#X obj 882 248 saw~;
#X obj 941 248 saw~;
#X obj 1004 246 saw~;
#X obj 882 220 ttet 7;
#X msg 921 183 4;
#X obj 941 220 ttet 7;
#X msg 980 183 8;
#X obj 1004 220 ttet 7;
#X msg 1043 184 13;
#X obj 882 272 *~ 0.5;
#X obj 941 272 *~ 0.25;
#X obj 1004 272 *~ 0.1;
#X obj 841 500 *~;
#X obj 914 464 vline~;
#X obj 172 163 bng 19 250 50 0 empty empty empty 0 -10 0 12 #fcfcfc #000000 #000000;
#X obj 250 164 bng 19 250 50 0 empty empty empty 0 -10 0 12 #fcfcfc #000000 #000000;
#X obj 250 188 bern 3;
#X obj 305 235 *~ 0.15;
#X obj 842 663 throw~ out;
#X obj 810 129 t b f;
#X floatatom 842 177 5 0 0 0 - - - 0;
#X obj 1201 199 bng 19 250 50 0 empty empty empty 0 -10 0 12 #fcfcfc #000000 #000000;
#X obj 1201 148 r clock;
#X obj 1201 223 t b b;
#X obj 1234 344 sel 0 1 2, f 15;
#X msg 1265 399 220;
#X obj 1185 423 ttet 7;
#X obj 1357 438 ttet 7;
#X floatatom 1264 489 5 0 0 0 - - - 0;
#X obj 1234 271 counter;
#X obj 1234 295 % 3;
#X floatatom 1234 319 5 0 0 0 - - - 0;
#X obj 1264 512 s cbase;
#X obj 810 102 r cbase;
#X msg 1415 408 -6;
#X msg 1335 408 220;
#X msg 1179 397 220;
#X obj 304 504 ttet 7;
#X msg 317 447 4;
#X obj 363 504 ttet 7;
#X msg 376 447 8;
#X obj 426 505 ttet 7;
#X msg 439 448 13;
#X obj 324 577 *~ 0.5;
#X obj 383 577 *~ 0.25;
#X obj 446 577 *~ 0.1;
#X obj 232 399 t b f;
#X floatatom 264 447 5 0 0 0 - - - 0;
#X obj 232 372 r abase;
#X obj 263 744 *~;
#X obj 388 728 vline~;
#X obj 263 925 throw~ out;
#X msg 388 705 1 5 0 \, 0 75 5;
#X obj 530 623 bng 19 250 50 0 empty empty empty 0 -10 0 12 #fcfcfc #000000 #000000;
#X obj 530 647 t b b;
#X msg 633 730 440;
#X obj 691 658 bng 19 250 50 0 empty empty empty 0 -10 0 12 #fcfcfc #000000 #000000;
#X obj 652 777 ttet 7;
#X floatatom 652 801 5 0 0 0 - - - 0;
#X obj 652 824 s abase;
#X floatatom 691 754 5 0 0 0 - - - 0;
#X obj 510 714 r abase;
#X floatatom 510 762 5 0 0 0 - - - 0;
#X obj 263 768 lop~;
#X obj 263 792 lop~;
#X obj 510 738 sqrt;
#X floatatom 510 809 5 0 0 0 - - - 0;
#X obj 510 785 pow 1.9;
#X obj 691 706 % 16;
#X obj 263 901 *~ 0.35;
#X obj 271 817 delwrite~ abuf 1000;
#X obj 490 854 delread~ abuf 1000;
#X obj 362 854 delread~ abuf 500;
#X obj 362 902 throw~ out;
#X obj 362 878 *~ 0.15;
#X obj 530 567 r clock;
#X obj 530 594 eseq 5 8 0;
#X msg 518 899 99, f 7;
#X obj 502 920 rev1~;
#X obj 517 878 loadbang;
#X obj 1201 175 eseq 1 32 0;
#X msg 914 441 1 300 0 \, 0 3000 300;
#X obj 866 595 rev1~;
#X obj 882 549 loadbang;
#X obj 1085 413 r cbase;
#X obj 1085 437 * 2;
#X obj 841 524 lop~;
#X obj 841 548 lop~;
#X floatatom 1085 461 5 0 0 0 - - - 0;
#X msg 882 572 35;
#X msg 1224 398 -4;
#X obj 1265 445 ttet 7;
#X msg 1304 420 -3;
#X obj 842 627 *~ 0.25;
#X obj 499 237 *~ 0.5;
#X obj 16 366 *~ 0.75;
#X obj 691 730 - 5;
#X obj 446 551 square~;
#X obj 324 553 square~;
#X obj 383 553 square~;
#X obj 265 553 square~;
#X obj 691 682 counter 6;
#X connect 0 0 1 0;
#X connect 1 0 5 0;
#X connect 2 0 3 0;
#X connect 2 0 3 1;
#X connect 4 0 128 0;
#X connect 5 0 7 0;
#X connect 7 0 8 0;
#X connect 9 0 12 0;
#X connect 10 0 13 0;
#X connect 12 0 10 0;
#X connect 12 0 47 0;
#X connect 12 1 48 0;
#X connect 13 0 11 0;
#X connect 14 0 18 0;
#X connect 15 0 17 0;
#X connect 17 0 127 0;
#X connect 18 0 15 0;
#X connect 19 0 31 0;
#X connect 20 0 30 0;
#X connect 23 0 22 0;
#X connect 24 0 28 0;
#X connect 25 0 27 0;
#X connect 27 0 29 0;
#X connect 28 0 25 0;
#X connect 29 0 26 0;
#X connect 30 0 50 0;
#X connect 31 0 20 0;
#X connect 32 0 45 0;
#X connect 33 0 42 0;
#X connect 34 0 43 0;
#X connect 35 0 44 0;
#X connect 36 0 33 0;
#X connect 37 0 36 1;
#X connect 38 0 34 0;
#X connect 39 0 38 1;
#X connect 40 0 35 0;
#X connect 41 0 40 1;
#X connect 42 0 45 0;
#X connect 43 0 45 0;
#X connect 44 0 45 0;
#X connect 45 0 119 0;
#X connect 46 0 45 1;
#X connect 48 0 49 0;
#X connect 49 0 30 0;
#X connect 50 0 21 0;
#X connect 52 0 37 0;
#X connect 52 0 39 0;
#X connect 52 0 41 0;
#X connect 52 1 53 0;
#X connect 53 0 32 0;
#X connect 53 0 36 0;
#X connect 53 0 38 0;
#X connect 53 0 40 0;
#X connect 54 0 56 0;
#X connect 55 0 113 0;
#X connect 56 0 114 0;
#X connect 56 1 62 0;
#X connect 57 0 123 0;
#X connect 57 0 69 0;
#X connect 57 1 58 0;
#X connect 57 1 125 0;
#X connect 57 2 68 0;
#X connect 57 2 67 0;
#X connect 58 0 124 0;
#X connect 59 0 61 0;
#X connect 60 0 61 0;
#X connect 61 0 65 0;
#X connect 62 0 63 0;
#X connect 63 0 64 0;
#X connect 64 0 57 0;
#X connect 66 0 52 0;
#X connect 67 0 60 1;
#X connect 68 0 60 0;
#X connect 69 0 59 0;
#X connect 70 0 131 0;
#X connect 71 0 70 1;
#X connect 72 0 132 0;
#X connect 73 0 72 1;
#X connect 74 0 130 0;
#X connect 75 0 74 1;
#X connect 76 0 82 0;
#X connect 77 0 82 0;
#X connect 78 0 82 0;
#X connect 79 0 71 0;
#X connect 79 0 73 0;
#X connect 79 0 75 0;
#X connect 79 1 80 0;
#X connect 80 0 70 0;
#X connect 80 0 72 0;
#X connect 80 0 74 0;
#X connect 80 0 133 0;
#X connect 81 0 79 0;
#X connect 82 0 96 0;
#X connect 83 0 82 1;
#X connect 85 0 83 0;
#X connect 86 0 87 0;
#X connect 87 0 85 0;
#X connect 87 1 88 0;
#X connect 87 1 89 0;
#X connect 88 0 90 0;
#X connect 89 0 134 0;
#X connect 90 0 91 0;
#X connect 91 0 92 0;
#X connect 93 0 90 1;
#X connect 94 0 98 0;
#X connect 95 0 100 0;
#X connect 96 0 97 0;
#X connect 97 0 102 0;
#X connect 97 0 103 0;
#X connect 98 0 95 0;
#X connect 99 0 96 1;
#X connect 99 0 97 1;
#X connect 100 0 99 0;
#X connect 101 0 129 0;
#X connect 102 0 84 0;
#X connect 104 0 107 0;
#X connect 105 0 111 0;
#X connect 105 0 107 0;
#X connect 107 0 106 0;
#X connect 108 0 109 0;
#X connect 109 0 86 0;
#X connect 110 0 111 1;
#X connect 111 0 107 0;
#X connect 112 0 110 0;
#X connect 113 0 54 0;
#X connect 114 0 46 0;
#X connect 115 0 126 0;
#X connect 116 0 122 0;
#X connect 117 0 118 0;
#X connect 118 0 121 0;
#X connect 119 0 120 0;
#X connect 120 0 115 0;
#X connect 120 0 126 0;
#X connect 121 0 119 1;
#X connect 121 0 120 1;
#X connect 122 0 115 1;
#X connect 123 0 59 1;
#X connect 124 0 61 0;
#X connect 125 0 124 1;
#X connect 126 0 51 0;
#X connect 127 0 16 0;
#X connect 128 0 2 0;
#X connect 129 0 93 0;
#X connect 130 0 78 0;
#X connect 131 0 76 0;
#X connect 132 0 77 0;
#X connect 133 0 82 0;
#X connect 134 0 101 0;
