#N canvas 0 38 1512 916 12;
#X declare -path ../../lib;
#X obj 772 117 loadbang;
#X obj 706 983 clip~ -1 1;
#X obj 706 1007 dac~;
#X obj 706 959 catch~ out;
#X obj 772 166 metro 100;
#X obj 457 94 declare -path ../../lib;
#X obj 457 168 bng 19 250 50 0 empty empty empty 0 -10 0 12 #ffffff #ff8300 #000000;
#X obj 457 192 kick~;
#X obj 457 240 throw~ out;
#X obj 715 185 bng 36 250 50 0 empty empty empty 0 -10 0 24 #e3c6ff #9c00ff #000000;
#N canvas 0 22 450 278 (subpatch) 0;
#X coords 0 1 100 -1 540 960 1 0 0;
#X restore 1226 43 graph;
#X obj 715 227 s clock;
#X obj 457 119 r clock;
#X obj 240 20 bng 19 250 50 0 empty empty empty 0 -10 0 12 #fcfcfc #000000 #000000;
#X obj 240 44 s counter-reset;
#X obj 635 168 bng 19 250 50 0 empty empty empty 0 -10 0 12 #ffffff #ff8300 #000000;
#X obj 635 240 throw~ out;
#X obj 635 119 r clock;
#X obj 635 192 snare~;
#X floatatom 382 450 5 0 0 0 - - - 0;
#X obj 382 527 ttet 7;
#X msg 382 500 220;
#X obj 382 475 t b f, f 6;
#X obj 772 141 tgl 19 0 empty empty empty 0 -10 0 12 #fcfcfc #000000 #000000 0 1;
#X obj 353 622 ks~, f 13;
#X msg 334 595 5 5 0;
#X obj 596 868 throw~ out;
#X obj 543 305 r clock;
#X obj 596 818 catch~ pluck;
#X obj 353 767 throw~ pluck;
#X floatatom 611 454 5 0 0 0 - - - 0;
#X obj 611 531 ttet 7;
#X msg 611 504 220;
#X obj 611 479 t b f, f 6;
#X obj 582 626 ks~, f 13;
#X obj 582 768 throw~ pluck;
#X obj 611 381 counter 4;
#X obj 611 429 - 7;
#X obj 457 216 *~ 0.75;
#X obj 635 144 eseq 1 8 0;
#X obj 457 144 eseq 1 4 0;
#X obj 859 166 bng 19 250 50 0 empty empty empty 0 -10 0 12 #ffffff #ff8300 #000000;
#X obj 859 190 kick~;
#X obj 859 238 throw~ out;
#X obj 859 117 r clock;
#X obj 859 142 eseq 3 8 2;
#X obj 859 214 *~ 0.5;
#X obj 635 216 *~ 0.75;
#X obj 956 165 bng 19 250 50 0 empty empty empty 0 -10 0 12 #ffffff #ff8300 #000000;
#X obj 956 237 throw~ out;
#X obj 956 116 r clock;
#X obj 956 189 hat~;
#X obj 956 141 eseq 4 8 0;
#X obj 956 213 *~ 0.75;
#X floatatom 955 616 5 0 0 0 - - - 0;
#X obj 834 691 acidfilter~, f 35;
#X obj 955 591 * 10;
#X obj 1008 591 * 5;
#X floatatom 1008 617 5 0 0 0 - - - 0;
#X obj 955 639 pack f f;
#X msg 955 664 5 55 \$1 \$2;
#X obj 847 515 saw~;
#X obj 885 515 saw~;
#X obj 950 516 saw~;
#X obj 950 540 *~ 0.999;
#X obj 885 540 *~ 1.001;
#X obj 847 591 *~ 1;
#X obj 845 433 ttet 7;
#X floatatom 884 409 5 0 0 0 - - - 0;
#X obj 845 457 s afreq;
#X obj 847 484 r afreq;
#X obj 1066 476 r afreq;
#X obj 1066 500 t b f;
#X obj 1066 524 s aenv;
#X obj 834 798 *~;
#X obj 876 736 r aenv;
#X msg 876 760 1 5 0 \, 0 75 5;
#X obj 876 784 vline~;
#X obj 834 861 throw~ out;
#X obj 884 304 r clock;
#X obj 1097 827 snapshot~;
#X obj 1156 778 metro 10;
#X obj 1156 754 tgl 19 0 empty empty empty 0 -10 0 12 #fcfcfc #000000 #000000 0 1;
#X obj 1156 729 loadbang;
#X floatatom 1097 851 5 0 0 0 - - - 0;
#X obj 1097 874 + 1;
#X msg 845 409 110;
#X obj 1095 695 osc~ 0.1;
#X obj 1097 898 * 3;
#X obj 1097 922 + 5;
#X obj 1056 278 counter;
#X obj 1056 302 % 2;
#X obj 1056 356 sel 0;
#X floatatom 1056 326 5 0 0 0 - - - 0;
#X obj 884 329 counter 2;
#X obj 884 377 - 4;
#X obj 884 353 %;
#X msg 1056 380 7;
#X msg 1118 381 5;
#X obj 834 822 *~ 0.15;
#X obj 1056 231 tgl 19 0 empty empty empty 0 -10 0 12 #fcfcfc #000000 #000000 0 1;
#X obj 1056 206 loadbang;
#X obj 1056 254 metro 10000;
#X obj 382 399 % 7;
#X obj 462 498 r clock;
#X obj 462 546 + 2000;
#X msg 411 597 \$1 0.99;
#X floatatom 462 570 5 0 0 0 - - - 0;
#X obj 462 522 random 2500;
#X obj 695 474 r clock;
#X floatatom 695 546 5 0 0 0 - - - 0;
#X obj 695 498 random 3500;
#X obj 543 378 bng 19 250 50 0 empty empty empty 0 -10 0 12 #fcfcfc #000000 #000000;
#X obj 146 686 tgl 19 0 empty empty empty 0 -10 0 12 #fcfcfc #000000 #000000 0 1;
#X obj 146 661 loadbang;
#X obj 146 805 s pluckmode;
#X obj 634 681 sel 0;
#X msg 634 705 1, f 2;
#X obj 582 741 *~;
#X msg 666 705 0, f 2;
#X obj 695 522 + 2500;
#X obj 405 651 r pluckmode;
#X msg 405 699 1, f 2;
#X msg 437 699 0, f 2;
#X obj 353 742 *~;
#X obj 405 675 sel 1;
#X obj 146 733 counter;
#X obj 146 757 % 2;
#X floatatom 146 781 5 0 0 0 - - - 0;
#X msg 641 601 \$1 0.99;
#X obj 634 656 r pluckmode;
#X obj 220 279 r clock;
#X obj 220 352 bng 19 250 50 0 empty empty empty 0 -10 0 12 #fcfcfc #000000 #000000;
#X obj 382 425 - 7;
#X obj 611 405 % 7;
#X obj 382 375 counter 4;
#X obj 146 709 metro 10000;
#X obj 543 330 eseq 5 8 0;
#X obj 636 336 bern 4;
#X obj 220 304 eseq 3 8 0;
#X obj 287 329 bern 3;
#X obj 596 844 *~ 0.15;
#X msg 563 598 5 20 0;
#X connect 0 0 23 0;
#X connect 1 0 2 0;
#X connect 1 0 2 1;
#X connect 3 0 1 0;
#X connect 4 0 9 0;
#X connect 6 0 7 0;
#X connect 7 0 38 0;
#X connect 9 0 11 0;
#X connect 12 0 40 0;
#X connect 13 0 14 0;
#X connect 15 0 18 0;
#X connect 17 0 39 0;
#X connect 18 0 47 0;
#X connect 19 0 22 0;
#X connect 20 0 24 1;
#X connect 20 0 25 0;
#X connect 21 0 20 0;
#X connect 22 0 21 0;
#X connect 22 1 20 1;
#X connect 23 0 4 0;
#X connect 24 0 124 0;
#X connect 25 0 24 0;
#X connect 27 0 137 0;
#X connect 28 0 141 0;
#X connect 30 0 33 0;
#X connect 31 0 34 1;
#X connect 31 0 142 0;
#X connect 32 0 31 0;
#X connect 33 0 32 0;
#X connect 33 1 31 1;
#X connect 34 0 118 0;
#X connect 36 0 134 0;
#X connect 37 0 30 0;
#X connect 38 0 8 0;
#X connect 39 0 15 0;
#X connect 40 0 6 0;
#X connect 41 0 42 0;
#X connect 42 0 46 0;
#X connect 44 0 45 0;
#X connect 45 0 41 0;
#X connect 46 0 43 0;
#X connect 47 0 16 0;
#X connect 48 0 51 0;
#X connect 50 0 52 0;
#X connect 51 0 53 0;
#X connect 52 0 48 0;
#X connect 53 0 49 0;
#X connect 54 0 59 0;
#X connect 55 0 74 0;
#X connect 56 0 54 0;
#X connect 57 0 58 0;
#X connect 58 0 59 1;
#X connect 59 0 60 0;
#X connect 60 0 55 1;
#X connect 61 0 66 0;
#X connect 62 0 65 0;
#X connect 63 0 64 0;
#X connect 64 0 66 0;
#X connect 65 0 66 0;
#X connect 66 0 55 0;
#X connect 67 0 69 0;
#X connect 68 0 67 1;
#X connect 70 0 61 0;
#X connect 70 0 62 0;
#X connect 70 0 63 0;
#X connect 71 0 72 0;
#X connect 72 0 73 0;
#X connect 72 1 57 0;
#X connect 72 1 56 0;
#X connect 74 0 99 0;
#X connect 75 0 76 0;
#X connect 76 0 77 0;
#X connect 77 0 74 1;
#X connect 79 0 94 0;
#X connect 80 0 84 0;
#X connect 81 0 80 0;
#X connect 82 0 81 0;
#X connect 83 0 82 0;
#X connect 84 0 85 0;
#X connect 85 0 88 0;
#X connect 86 0 67 0;
#X connect 87 0 80 0;
#X connect 88 0 89 0;
#X connect 89 0 55 2;
#X connect 90 0 91 0;
#X connect 91 0 93 0;
#X connect 92 0 97 0;
#X connect 92 1 98 0;
#X connect 93 0 92 0;
#X connect 94 0 96 0;
#X connect 95 0 68 0;
#X connect 95 0 86 0;
#X connect 96 0 95 0;
#X connect 97 0 96 1;
#X connect 98 0 96 1;
#X connect 100 0 102 0;
#X connect 101 0 100 0;
#X connect 102 0 90 0;
#X connect 103 0 133 0;
#X connect 104 0 108 0;
#X connect 105 0 107 0;
#X connect 106 0 24 2;
#X connect 107 0 106 0;
#X connect 108 0 105 0;
#X connect 109 0 111 0;
#X connect 110 0 129 0;
#X connect 111 0 120 0;
#X connect 112 0 36 0;
#X connect 113 0 136 0;
#X connect 114 0 113 0;
#X connect 116 0 117 0;
#X connect 116 1 119 0;
#X connect 117 0 118 1;
#X connect 118 0 35 0;
#X connect 119 0 118 1;
#X connect 120 0 110 0;
#X connect 121 0 125 0;
#X connect 122 0 124 1;
#X connect 123 0 124 1;
#X connect 124 0 29 0;
#X connect 125 0 122 0;
#X connect 125 1 123 0;
#X connect 126 0 127 0;
#X connect 127 0 128 0;
#X connect 128 0 115 0;
#X connect 129 0 34 2;
#X connect 130 0 116 0;
#X connect 131 0 139 0;
#X connect 132 0 135 0;
#X connect 133 0 19 0;
#X connect 134 0 37 0;
#X connect 135 0 103 0;
#X connect 136 0 126 0;
#X connect 137 0 112 0;
#X connect 137 1 138 0;
#X connect 138 0 112 0;
#X connect 139 0 132 0;
#X connect 139 1 140 0;
#X connect 140 0 132 0;
#X connect 141 0 26 0;
#X connect 142 0 34 0;
