#N canvas 0 38 1512 916 12;
#X declare -path ../../lib;
#X obj 772 117 loadbang;
#X obj 706 983 clip~ -1 1;
#X obj 706 1007 dac~;
#X obj 706 959 catch~ out;
#X obj 772 166 metro 100;
#X obj 715 185 bng 36 250 50 0 empty empty empty 0 -10 0 24 #e3c6ff #9c00ff #000000;
#N canvas 0 22 450 278 (subpatch) 0;
#X coords 0 1 100 -1 540 960 1 0 0;
#X restore 1226 43 graph;
#X obj 715 227 s clock;
#X obj 489 31 bng 19 250 50 0 empty empty empty 0 -10 0 12 #fcfcfc #000000 #000000;
#X obj 490 55 s counter-reset;
#X obj 772 141 tgl 19 0 empty empty empty 0 -10 0 12 #fcfcfc #000000 #000000 0 1;
#X obj 582 849 throw~ out;
#X obj 611 260 r clock;
#X obj 582 800 catch~ pluck;
#X floatatom 611 454 5 0 0 0 - - - 0;
#X obj 611 531 ttet 7;
#X msg 611 504 220;
#X obj 611 479 t b f, f 6;
#X obj 582 652 throw~ pluck;
#X obj 1097 922 + 5;
#X floatatom 668 551 5 0 0 0 - - - 0;
#X obj 668 503 random 3500;
#X obj 611 308 bng 19 250 50 0 empty empty empty 0 -10 0 12 #fcfcfc #000000 #000000;
#X obj 668 527 + 2500;
#X msg 641 601 \$1 0.99;
#X obj 582 825 *~ 0.15;
#X obj 582 626 ks~, f 13;
#X floatatom 514 566 5 0 0 0 - - - 0;
#X msg 563 598 5 \$1 0;
#X obj 611 555 t b f;
#X obj 514 518 random 20;
#X obj 513 542 + 5;
#X obj 611 428 % 8;
#X obj 644 824 delwrite~ pbuf 1000;
#X obj 984 715 delread~ pbuf 500;
#X obj 984 767 throw~ pluck;
#X obj 984 740 *~ 0.25;
#X obj 996 687 throw~ pluck;
#X obj 996 635 delread~ pbuf 900;
#X obj 996 660 *~ 0.15;
#X obj 611 381 counter 2;
#X obj 66 645 delread~ pbuf 1000;
#X obj 66 719 rev1~;
#X msg 82 697 99;
#X obj 66 767 throw~ pverb;
#X obj 211 588 catch~ pverb;
#X obj 211 739 throw~ out;
#X obj 316 669 snapshot~;
#X obj 414 612 tgl 19 0 empty empty empty 0 -10 0 12 #fcfcfc #000000 #000000 0 1;
#X obj 414 588 loadbang;
#X floatatom 316 693 5 0 0 0 - - - 0;
#X obj 211 715 *~;
#X obj 66 743 *~ 0.2;
#X obj 82 672 loadbang;
#X obj 414 635 metro 1;
#X obj 316 588 phasor~ 0.01;
#X obj 643 357 s pnote1;
#X obj 668 480 r pnote1;
#X obj 316 716 > 0.995;
#X floatatom 316 740 5 0 0 0 - - - 0;
#X obj 316 763 sel 1;
#X obj 422 722 delay 10000;
#X obj 879 252 r clock;
#X floatatom 879 446 5 0 0 0 - - - 0;
#X obj 879 523 ttet 7;
#X msg 879 496 220;
#X obj 879 471 t b f, f 6;
#X obj 850 644 throw~ pluck;
#X floatatom 936 543 5 0 0 0 - - - 0;
#X obj 936 495 random 3500;
#X obj 879 300 bng 19 250 50 0 empty empty empty 0 -10 0 12 #fcfcfc #000000 #000000;
#X obj 936 519 + 2500;
#X msg 909 593 \$1 0.99;
#X obj 850 618 ks~, f 13;
#X obj 879 324 t b b;
#X floatatom 782 558 5 0 0 0 - - - 0;
#X msg 831 590 5 \$1 0;
#X obj 879 547 t b f;
#X obj 782 510 random 20;
#X obj 781 534 + 5;
#X obj 879 373 counter 2;
#X obj 879 420 % 8;
#X obj 879 277 eseq 1 16 8;
#X obj 879 397 + 5;
#X obj 911 349 s pnote2;
#X obj 936 472 r pnote2;
#X obj 611 405 + 0;
#X obj 611 332 t b b;
#X obj 611 285 eseq 1 16 0;
#X obj 457 94 declare -path ../../lib;
#X connect 0 0 10 0;
#X connect 1 0 2 0;
#X connect 1 0 2 1;
#X connect 3 0 1 0;
#X connect 4 0 5 0;
#X connect 5 0 7 0;
#X connect 8 0 9 0;
#X connect 10 0 4 0;
#X connect 12 0 88 0;
#X connect 13 0 25 0;
#X connect 13 0 33 0;
#X connect 14 0 17 0;
#X connect 15 0 29 0;
#X connect 16 0 15 0;
#X connect 17 0 16 0;
#X connect 17 1 15 1;
#X connect 20 0 24 0;
#X connect 21 0 23 0;
#X connect 22 0 87 0;
#X connect 23 0 20 0;
#X connect 24 0 26 2;
#X connect 25 0 11 0;
#X connect 26 0 18 0;
#X connect 27 0 28 0;
#X connect 28 0 26 0;
#X connect 29 0 30 0;
#X connect 29 1 26 1;
#X connect 30 0 31 0;
#X connect 31 0 27 0;
#X connect 32 0 14 0;
#X connect 34 0 36 0;
#X connect 36 0 35 0;
#X connect 38 0 39 0;
#X connect 39 0 37 0;
#X connect 40 0 86 0;
#X connect 41 0 42 0;
#X connect 42 0 52 0;
#X connect 43 0 42 1;
#X connect 45 0 51 0;
#X connect 47 0 50 0;
#X connect 48 0 54 0;
#X connect 49 0 48 0;
#X connect 50 0 51 1;
#X connect 50 0 58 0;
#X connect 51 0 46 0;
#X connect 52 0 44 0;
#X connect 53 0 43 0;
#X connect 54 0 47 0;
#X connect 55 0 47 0;
#X connect 57 0 21 0;
#X connect 58 0 59 0;
#X connect 59 0 60 0;
#X connect 60 0 48 0;
#X connect 60 0 61 0;
#X connect 61 0 48 0;
#X connect 62 0 82 0;
#X connect 63 0 66 0;
#X connect 64 0 77 0;
#X connect 65 0 64 0;
#X connect 66 0 65 0;
#X connect 66 1 64 1;
#X connect 68 0 72 0;
#X connect 69 0 71 0;
#X connect 70 0 74 0;
#X connect 71 0 68 0;
#X connect 72 0 73 2;
#X connect 73 0 67 0;
#X connect 74 0 80 0;
#X connect 74 1 84 0;
#X connect 75 0 76 0;
#X connect 76 0 73 0;
#X connect 77 0 78 0;
#X connect 77 1 73 1;
#X connect 78 0 79 0;
#X connect 79 0 75 0;
#X connect 80 0 83 0;
#X connect 81 0 63 0;
#X connect 82 0 70 0;
#X connect 83 0 81 0;
#X connect 85 0 69 0;
#X connect 86 0 32 0;
#X connect 87 0 40 0;
#X connect 87 1 56 0;
#X connect 88 0 22 0;
