#N canvas 0 37 1512 916 12;
#X declare -path ../../lib;
#X obj 1145 712 loadbang;
#X obj 1145 735 tgl 15 0 empty empty empty 17 7 0 10 #fcfcfc #000000 #000000 0 1;
#X obj 45 821 clip~ -1 1;
#X obj 45 845 dac~;
#X obj 45 797 catch~ out;
#X obj 1145 756 metro 100;
#X obj 219 34 declare -path ../../lib;
#X obj 938 589 eseq, f 8;
#X obj 1090 832 s \$0-b;
#X obj 938 540 r \$0-b;
#X obj 991 540 loadbang;
#X obj 938 613 bng 19 250 50 0 empty empty empty 0 -10 0 12 #ffffff #ff0400 #000000;
#X obj 938 637 kick~;
#X obj 938 685 throw~ out;
#X msg 991 565 3 7 0;
#X obj 938 758 eseq, f 8;
#X obj 938 709 r \$0-b;
#X obj 991 709 loadbang;
#X obj 938 782 bng 19 250 50 0 empty empty empty 0 -10 0 12 #ffffff #ff8300 #000000;
#X obj 938 806 kick~;
#X obj 938 854 throw~ out;
#X msg 991 734 1 4 0;
#X obj 938 661 *~ 0.05;
#X obj 938 830 *~ 0.2;
#X obj 936 340 eseq, f 8;
#X obj 936 291 r \$0-b;
#X obj 989 291 loadbang;
#X obj 936 364 bng 19 250 50 0 empty empty empty 0 -10 0 12 #ffffff #0400ff #000000;
#X obj 989 514 throw~ out;
#X obj 989 466 snare~;
#X msg 989 316 1 8 4;
#X obj 989 364 bng 19 250 50 0 empty empty empty 0 -10 0 12 #0400ff #ffffff #000000;
#X obj 989 490 *~;
#X obj 944 88 eseq, f 8;
#X obj 944 39 r \$0-b;
#X obj 997 39 loadbang;
#X obj 944 113 bng 19 250 50 0 empty empty empty 0 -10 0 12 #ffffff #faff00 #000000;
#X obj 958 264 throw~ out;
#X obj 997 113 bng 19 250 50 0 empty empty empty 0 -10 0 12 #faff00 #ffffff #000000;
#X obj 958 240 *~;
#X obj 944 213 hat~;
#X obj 997 138 bern 2;
#X msg 997 64 6 7 0;
#X obj 457 500 ttet 7;
#X msg 457 474 220;
#X obj 553 529 * 0.5;
#X obj 495 529 * 2;
#X obj 597 529 * 0.25;
#X obj 598 650 *~;
#X obj 616 624 vline~;
#X obj 599 870 throw~ out;
#X obj 457 447 loadbang;
#X obj 523 447 random 3;
#X obj 219 141 eseq, f 10;
#X obj 219 92 r \$0-b;
#X obj 270 92 loadbang;
#X obj 219 165 bng 19 250 50 0 empty empty empty 0 -10 0 12 #ffffff #00ff04 #000000;
#X obj 286 165 bng 19 250 50 0 empty empty empty 0 -10 0 12 #00ff04 #ffffff #000000;
#X obj 598 674 *~;
#X msg 616 602 1 5 0 \, 0 100 5;
#X obj 523 471 * 4;
#X obj 266 262 s v1;
#X obj 219 239 t b f b, f 14;
#X obj 314 263 s e1;
#X obj 219 262 s r1;
#X obj 523 423 r r1;
#X obj 616 578 r e1;
#X obj 632 652 r v1;
#X msg 286 212 0.025;
#X obj 597 553 square~;
#X obj 553 553 saw~;
#X obj 599 846 acidfilter~;
#X obj 671 693 + 1;
#X obj 671 717 * 2500;
#X obj 723 692 + 2;
#X msg 636 777 0 100 \$1 \$2;
#X msg 673 824 3;
#X obj 704 148 ttet 7;
#X obj 704 61 loadbang;
#X msg 270 117 3 10 3;
#X obj 458 553 saw~;
#X obj 495 553 square~;
#X obj 791 124 ttet 7;
#X obj 791 197 lop~;
#X obj 791 221 lop~;
#X obj 704 194 lop~;
#X obj 704 218 lop~;
#X obj 782 301 vline~;
#X obj 704 319 *~;
#X obj 704 443 throw~ out;
#X obj 782 254 r e2;
#X obj 743 124 r n21;
#X obj 830 101 r n22;
#X obj 1267 559 bng 19 250 50 0 empty empty empty 0 -10 0 12 #ffffff #faff00 #000000;
#X obj 1268 715 osc~ 0.1;
#X obj 1269 813 snapshot~;
#X obj 1280 787 metro 1;
#X obj 1280 764 tgl 19 0 empty empty empty 0 -10 0 12 #fcfcfc #000000 #000000 0 1;
#X obj 1269 837 s lfo1;
#X obj 671 662 r lfo1;
#X obj 1267 408 bng 19 250 50 0 empty empty empty 0 -10 0 12 #ffffff #0400ff #000000;
#X obj 1267 258 bng 19 250 50 0 empty empty empty 0 -10 0 12 #fcfcfc #ff0400 #000000;
#X obj 535 368 + 4;
#X obj 535 391 s n22;
#X obj 490 391 s n21;
#X obj 452 391 s e2;
#X obj 503 341 t b f;
#X obj 1267 384 eseq, f 8;
#X msg 1320 360 1 4 0;
#X obj 1267 534 eseq, f 8;
#X obj 1267 510 r \$0-b;
#X obj 1320 486 loadbang;
#X msg 1306 607 4;
#X msg 1320 510 1 8 2;
#X obj 1267 233 eseq, f 8;
#X obj 1267 107 bng 19 250 50 0 empty empty empty 0 -10 0 12 #ffffff #ff8300 #000000;
#X obj 1267 83 eseq, f 8;
#X msg 1320 209 1 18 1;
#X obj 713 368 delread~ dbuf2 500;
#X obj 713 344 delwrite~ dbuf2 1000;
#X obj 713 394 delread~ dbuf2 800;
#X obj 791 148 * 0.5;
#X msg 782 279 1 5 0 \, 0 125 5;
#X obj 636 748 pack f f;
#X obj 672 800 loadbang;
#X obj 723 718 * 1500;
#X obj 832 172 * 2.5;
#X obj 744 172 * 2.5;
#X obj 704 418 *~ 0.015;
#X obj 1267 584 bern 8;
#X obj 286 189 bern 2;
#X obj 1267 432 bern 2;
#X msg 1306 455 7;
#X msg 1267 455 14;
#X msg 1306 305 10;
#X msg 1267 305 20;
#X msg 1267 607 8;
#X obj 1267 282 bern 4;
#X obj 1267 130 bern 16;
#X msg 1313 153 13;
#X msg 1267 153 18;
#X msg 997 163 0.05;
#X obj 944 188 t b f;
#X msg 944 139 0.1;
#X msg 989 413 0.05;
#X obj 989 441 t b f;
#X msg 936 390 0.1;
#X obj 989 388 bern 8;
#X obj 1267 360 r \$0-b;
#X obj 1320 337 loadbang;
#X obj 1267 209 r \$0-b;
#X obj 1319 186 loadbang;
#X obj 1320 35 loadbang;
#X obj 1267 58 r \$0-b;
#X obj 1090 790 bng 36 250 50 0 empty empty empty 0 -10 0 24 #e3c6ff #9c00ff #000000;
#X obj 1267 329 s n2;
#X obj 1267 178 s n2;
#X obj 1267 632 s n2;
#X obj 1267 478 s n2;
#X obj 503 316 r n2;
#X msg 1320 59 1 12 2;
#X obj 1280 740 loadbang;
#X obj 791 173 saw~;
#X obj 704 171 saw~;
#X msg 219 189 0.04;
#X msg 704 87 220;
#N canvas 0 22 450 278 (subpatch) 0;
#X coords 0 1 100 -1 540 960 1 0 0;
#X restore 1417 30 graph;
#X connect 0 0 1 0;
#X connect 1 0 5 0;
#X connect 2 0 3 0;
#X connect 2 0 3 1;
#X connect 4 0 2 0;
#X connect 5 0 154 0;
#X connect 7 0 11 0;
#X connect 9 0 7 0;
#X connect 10 0 14 0;
#X connect 11 0 12 0;
#X connect 12 0 22 0;
#X connect 14 0 7 1;
#X connect 15 0 18 0;
#X connect 16 0 15 0;
#X connect 17 0 21 0;
#X connect 18 0 19 0;
#X connect 19 0 23 0;
#X connect 21 0 15 1;
#X connect 22 0 13 0;
#X connect 23 0 20 0;
#X connect 24 0 27 0;
#X connect 24 1 31 0;
#X connect 25 0 24 0;
#X connect 26 0 30 0;
#X connect 27 0 146 0;
#X connect 29 0 32 0;
#X connect 30 0 24 1;
#X connect 31 0 147 0;
#X connect 32 0 28 0;
#X connect 33 0 36 0;
#X connect 33 1 38 0;
#X connect 34 0 33 0;
#X connect 35 0 42 0;
#X connect 36 0 143 0;
#X connect 38 0 41 0;
#X connect 39 0 37 0;
#X connect 40 0 39 0;
#X connect 41 0 141 0;
#X connect 42 0 33 1;
#X connect 43 0 46 0;
#X connect 43 0 45 0;
#X connect 43 0 47 0;
#X connect 43 0 80 0;
#X connect 44 0 43 0;
#X connect 45 0 70 0;
#X connect 46 0 81 0;
#X connect 47 0 69 0;
#X connect 48 0 58 0;
#X connect 49 0 48 1;
#X connect 51 0 44 0;
#X connect 52 0 60 0;
#X connect 53 0 56 0;
#X connect 53 1 57 0;
#X connect 54 0 53 0;
#X connect 55 0 79 0;
#X connect 56 0 164 0;
#X connect 57 0 130 0;
#X connect 58 0 71 0;
#X connect 59 0 49 0;
#X connect 60 0 43 1;
#X connect 62 0 64 0;
#X connect 62 1 61 0;
#X connect 62 2 63 0;
#X connect 65 0 52 0;
#X connect 66 0 59 0;
#X connect 67 0 58 1;
#X connect 68 0 62 0;
#X connect 69 0 48 0;
#X connect 70 0 48 0;
#X connect 71 0 50 0;
#X connect 72 0 73 0;
#X connect 73 0 123 0;
#X connect 74 0 125 0;
#X connect 75 0 71 1;
#X connect 76 0 71 2;
#X connect 77 0 127 0;
#X connect 77 0 163 0;
#X connect 78 0 165 0;
#X connect 79 0 53 1;
#X connect 80 0 48 0;
#X connect 81 0 48 0;
#X connect 82 0 121 0;
#X connect 83 0 84 0;
#X connect 84 0 88 0;
#X connect 85 0 86 0;
#X connect 86 0 88 0;
#X connect 87 0 88 1;
#X connect 88 0 119 0;
#X connect 88 0 128 0;
#X connect 90 0 122 0;
#X connect 91 0 77 1;
#X connect 92 0 82 1;
#X connect 93 0 129 0;
#X connect 94 0 95 0;
#X connect 95 0 98 0;
#X connect 96 0 95 0;
#X connect 97 0 96 0;
#X connect 99 0 72 0;
#X connect 99 0 74 0;
#X connect 100 0 131 0;
#X connect 101 0 137 0;
#X connect 102 0 103 0;
#X connect 106 0 105 0;
#X connect 106 1 102 0;
#X connect 106 1 104 0;
#X connect 107 0 100 0;
#X connect 108 0 107 1;
#X connect 109 0 93 0;
#X connect 110 0 109 0;
#X connect 111 0 113 0;
#X connect 112 0 157 0;
#X connect 113 0 109 1;
#X connect 114 0 101 0;
#X connect 115 0 138 0;
#X connect 116 0 115 0;
#X connect 117 0 114 1;
#X connect 118 0 128 0;
#X connect 120 0 128 0;
#X connect 121 0 126 0;
#X connect 121 0 162 0;
#X connect 122 0 87 0;
#X connect 123 0 75 0;
#X connect 124 0 76 0;
#X connect 125 0 123 1;
#X connect 126 0 83 1;
#X connect 126 0 84 1;
#X connect 127 0 85 1;
#X connect 127 0 86 1;
#X connect 128 0 89 0;
#X connect 129 0 136 0;
#X connect 129 1 112 0;
#X connect 130 0 68 0;
#X connect 131 0 133 0;
#X connect 131 1 132 0;
#X connect 132 0 158 0;
#X connect 133 0 158 0;
#X connect 134 0 155 0;
#X connect 135 0 155 0;
#X connect 136 0 157 0;
#X connect 137 0 135 0;
#X connect 137 1 134 0;
#X connect 138 0 140 0;
#X connect 138 1 139 0;
#X connect 139 0 156 0;
#X connect 140 0 156 0;
#X connect 141 0 142 0;
#X connect 142 0 40 0;
#X connect 142 1 39 1;
#X connect 143 0 142 0;
#X connect 144 0 145 0;
#X connect 145 0 29 0;
#X connect 145 1 32 1;
#X connect 146 0 145 0;
#X connect 147 0 144 0;
#X connect 148 0 107 0;
#X connect 149 0 108 0;
#X connect 150 0 114 0;
#X connect 151 0 117 0;
#X connect 152 0 160 0;
#X connect 153 0 116 0;
#X connect 154 0 8 0;
#X connect 159 0 106 0;
#X connect 160 0 116 1;
#X connect 161 0 97 0;
#X connect 162 0 83 0;
#X connect 163 0 85 0;
#X connect 164 0 62 0;
#X connect 165 0 77 0;
#X connect 165 0 82 0;
