#N canvas 0 38 1512 916 12;
#X declare -path ../../lib;
#X obj 1133 306 loadbang;
#X obj 33 608 clip~ -1 1;
#X obj 33 632 dac~;
#X obj 33 583 catch~ out;
#X obj 1076 374 bng 36 250 50 0 empty empty empty 0 -10 0 24 #e3c6ff #9c00ff #000000;
#N canvas 0 22 450 278 (subpatch) 0;
#X coords 0 1 100 -1 540 960 1 0 0;
#X restore 1291 40 graph;
#X obj 1076 416 s clock;
#X obj 240 20 bng 19 250 50 0 empty empty empty 0 -10 0 12 #fcfcfc #000000 #000000;
#X obj 240 44 s counter-reset;
#X floatatom 636 467 5 0 0 0 - - - 0;
#X floatatom 696 469 5 0 0 0 - - - 0;
#X floatatom 774 470 5 0 0 0 - - - 0;
#X obj 576 270 r clock;
#X obj 636 543 ttet 7;
#X obj 733 880 *~;
#X obj 751 855 vline~;
#X obj 733 977 throw~ out;
#X obj 696 542 ttet 7;
#X obj 774 545 ttet 7;
#X obj 636 492 t b f, f 6;
#X obj 696 491 t b f, f 6;
#X obj 774 494 t b f, f 6;
#X obj 576 370 t b b, f 9;
#X obj 576 397 s etrig;
#X obj 751 807 r etrig;
#X obj 636 398 counter;
#X obj 1133 330 tgl 19 0 empty empty empty 0 -10 0 12 #fcfcfc #000000 #000000 0 1;
#X obj 733 904 lop~ 750;
#X obj 733 928 lop~ 750;
#X obj 576 321 bng 42 250 50 0 empty empty empty 0 -10 0 24 #ffc7c6 #ff0400 #000000;
#X obj 509 270 loadbang;
#X obj 696 423 % 5;
#X obj 636 422 % 5;
#X obj 774 422 % 5;
#X obj 696 398 counter 2;
#X obj 774 398 counter 2;
#X obj 696 447 + 4;
#X obj 774 447 + 9;
#X floatatom 852 470 5 0 0 0 - - - 0;
#X obj 852 545 ttet 7;
#X obj 852 494 t b f, f 6;
#X obj 852 422 % 5;
#X obj 852 398 counter 4;
#X obj 852 447 - 3;
#X obj 852 593 *~ 0.25;
#X floatatom 929 470 5 0 0 0 - - - 0;
#X obj 929 545 ttet 7;
#X obj 929 494 t b f, f 6;
#X obj 929 398 counter 7;
#X obj 929 422 % 8;
#X obj 929 447 - 5;
#X obj 929 593 *~ 0.15;
#X obj 1151 634 snapshot~;
#X floatatom 1151 658 5 0 0 0 - - - 0;
#X obj 1151 602 square~;
#X obj 1151 505 snapshot~;
#X floatatom 1151 577 5 0 0 0 - - - 0;
#X obj 1152 771 vline~;
#X obj 1060 833 *~;
#X obj 1060 936 throw~ out;
#X obj 1151 681 sel 1;
#X obj 1151 705 bng 36 250 50 0 empty empty empty 0 -10 0 12 #c7c6ff #0400ff #000000;
#X obj 636 664 s~ chordout;
#X obj 733 783 r~ chordout;
#X obj 1060 748 r~ chordout;
#X obj 1151 398 osc~ 0.5;
#X msg 1152 747 1 5 0 \, 0 5 5;
#X obj 1161 423 saw~ 0.2;
#X obj 1060 884 vcf~, f 10;
#X msg 1134 859 5;
#X obj 1169 448 square~ 0.1;
#X obj 774 569 saw~;
#X obj 852 569 saw~;
#X obj 929 569 saw~;
#X obj 696 569 saw~;
#X obj 636 568 saw~;
#X obj 576 296 eseq 1 64 0;
#X obj 1133 355 metro 100;
#X msg 774 519 220;
#X msg 636 517 55;
#X msg 696 516 110;
#X msg 929 519 110;
#X msg 852 519 55;
#X msg 1093 859 250;
#X obj 394 495 vline~;
#X obj 376 518 *~;
#X obj 376 423 r~ chordout;
#X obj 374 773 delread4~ pbuf;
#X obj 374 673 +;
#X obj 374 596 eseq 1 16 0;
#X obj 374 571 r clock;
#X obj 374 620 bng 19 250 50 0 empty empty empty 0 -10 0 12 #fcfcfc #000000 #000000;
#X obj 461 571 r clock;
#X obj 461 620 bng 19 250 50 0 empty empty empty 0 -10 0 12 #fcfcfc #000000 #000000;
#X obj 461 596 eseq 1 27 0;
#X floatatom 374 747 5 0 0 0 - - - 0;
#X obj 374 1001 throw~ out;
#X obj 394 447 r clock;
#X obj 376 542 delwrite~ pbuf 5000;
#X obj 374 723 % 5000;
#X msg 394 471 1 5 0 \, 0 40 5;
#X obj 374 860 acidfilter~;
#X msg 411 834 10 50 25000 2500;
#X msg 537 834 5;
#X obj 573 765 osc~ 0.5;
#X obj 573 861 snapshot~;
#X obj 573 885 + 1;
#X obj 573 909 / 2;
#X floatatom 573 956 5 0 0 0 - - - 0;
#X obj 374 973 *~;
#X obj 573 803 *~ 1;
#X obj 638 764 saw~ 0.1;
#X obj 389 939 rev1~;
#X msg 751 831 1 4000 0 \, 0 500 4000;
#X msg 405 914 50;
#X obj 37 342 lop~ 750;
#X obj 37 366 lop~ 750;
#X obj 37 415 throw~ out;
#X obj 55 290 vline~;
#X obj 37 318 *~;
#X obj 37 163 r~ chordout;
#X obj 55 193 r clock;
#X obj 167 291 vline~;
#X msg 167 267 1 5 0 \, 0 40 5;
#X obj 167 194 r clock;
#X obj 167 218 eseq 1 13 4;
#X obj 55 217 eseq 3 8 0;
#X msg 55 266 1 5 0 \, 0 100 5;
#X obj 405 888 loadbang;
#X obj 411 803 loadbang;
#X obj 31 689 tgl 19 0 empty empty empty 0 -10 0 12 #fcfcfc #000000 #000000 0 1;
#X obj 31 713 metro 1;
#X obj 31 664 loadbang;
#X obj 31 737 s arate;
#X obj 583 831 r arate;
#X obj 1183 474 r arate;
#X obj 1211 602 r arate;
#X obj 1151 529 + 1.75;
#X obj 1151 553 * 7;
#X obj 1151 473 *~;
#X obj 1093 833 loadbang;
#X obj 55 241 bng 19 250 50 0 empty empty empty 0 -10 0 12 #fcfcfc #000000 #000000;
#X obj 167 242 bng 19 250 50 0 empty empty empty 0 -10 0 12 #fcfcfc #000000 #000000;
#X obj 374 642 counter 2;
#X obj 461 643 counter 5;
#X obj 374 697 * 100;
#X obj 239 70 declare -path ../../lib;
#X obj 721 65 % 7;
#X obj 721 89 - 4;
#X floatatom 721 121 5 0 0 0 - - - 0;
#X obj 682 145 ttet 7;
#X obj 721 41 counter 4;
#X obj 923 65 % 7;
#X floatatom 923 121 5 0 0 0 - - - 0;
#X obj 884 145 ttet 7;
#X obj 923 89 - 0;
#X obj 1127 71 % 7;
#X floatatom 1127 127 5 0 0 0 - - - 0;
#X obj 1088 151 ttet 7;
#X obj 1060 910 *~ 0.1;
#X obj 733 952 *~ 0.15;
#X obj 573 932 * 0.05;
#X obj 37 390 *~ 0.1;
#X obj 1127 95 + 4;
#X obj 923 41 counter 2;
#X obj 765 169 vline~;
#X obj 682 226 *~;
#X msg 765 145 1 5 0 \, 0 100 5;
#X obj 774 314 throw~ out;
#X obj 966 169 vline~;
#X obj 884 230 *~;
#X msg 966 145 1 5 0 \, 0 100 5;
#X obj 1169 174 vline~;
#X obj 1088 232 *~;
#X msg 1169 150 1 5 0 \, 0 100 5;
#X obj 682 250 throw~ arp;
#X obj 774 203 catch~ arp;
#X obj 884 254 throw~ arp;
#X obj 1088 257 throw~ arp;
#X obj 720 -22 r clock;
#X obj 720 2 eseq 3 8 3;
#X obj 922 -23 r clock;
#X obj 1127 -23 r clock;
#X obj 922 1 eseq 5 8 0;
#X obj 1127 47 counter 4;
#X obj 1127 1 eseq 9 32 0;
#X obj 682 169 saw~;
#X obj 884 173 saw~;
#X obj 1088 175 saw~;
#X obj 774 239 lop~ 550;
#X obj 774 263 lop~ 550;
#X msg 682 122 220;
#X msg 884 122 220;
#X msg 1088 128 220;
#X obj 774 288 *~ 0.15;
#X connect 0 0 26 0;
#X connect 1 0 2 0;
#X connect 1 0 2 1;
#X connect 3 0 1 0;
#X connect 4 0 6 0;
#X connect 7 0 8 0;
#X connect 9 0 19 0;
#X connect 10 0 20 0;
#X connect 11 0 21 0;
#X connect 12 0 76 0;
#X connect 13 0 75 0;
#X connect 14 0 27 0;
#X connect 15 0 14 1;
#X connect 17 0 74 0;
#X connect 18 0 71 0;
#X connect 19 0 79 0;
#X connect 19 1 13 1;
#X connect 20 0 80 0;
#X connect 20 1 17 1;
#X connect 21 0 78 0;
#X connect 21 1 18 1;
#X connect 22 0 23 0;
#X connect 22 1 25 0;
#X connect 22 1 34 0;
#X connect 22 1 35 0;
#X connect 22 1 42 0;
#X connect 22 1 48 0;
#X connect 24 0 113 0;
#X connect 25 0 32 0;
#X connect 26 0 77 0;
#X connect 27 0 28 0;
#X connect 28 0 160 0;
#X connect 29 0 22 0;
#X connect 30 0 29 0;
#X connect 31 0 36 0;
#X connect 32 0 9 0;
#X connect 33 0 37 0;
#X connect 34 0 31 0;
#X connect 35 0 33 0;
#X connect 36 0 10 0;
#X connect 37 0 11 0;
#X connect 38 0 40 0;
#X connect 39 0 72 0;
#X connect 40 0 82 0;
#X connect 40 1 39 1;
#X connect 41 0 43 0;
#X connect 42 0 41 0;
#X connect 43 0 38 0;
#X connect 44 0 62 0;
#X connect 45 0 47 0;
#X connect 46 0 73 0;
#X connect 47 0 81 0;
#X connect 47 1 46 1;
#X connect 48 0 49 0;
#X connect 49 0 50 0;
#X connect 50 0 45 0;
#X connect 51 0 62 0;
#X connect 52 0 53 0;
#X connect 53 0 60 0;
#X connect 54 0 52 0;
#X connect 55 0 137 0;
#X connect 56 0 54 0;
#X connect 57 0 58 1;
#X connect 58 0 68 0;
#X connect 60 0 61 0;
#X connect 61 0 66 0;
#X connect 63 0 14 0;
#X connect 64 0 58 0;
#X connect 65 0 139 0;
#X connect 66 0 57 0;
#X connect 67 0 139 0;
#X connect 68 0 159 0;
#X connect 69 0 68 2;
#X connect 70 0 139 1;
#X connect 71 0 62 0;
#X connect 72 0 44 0;
#X connect 73 0 51 0;
#X connect 74 0 62 0;
#X connect 75 0 62 0;
#X connect 76 0 29 0;
#X connect 77 0 4 0;
#X connect 78 0 18 0;
#X connect 79 0 13 0;
#X connect 80 0 17 0;
#X connect 81 0 46 0;
#X connect 82 0 39 0;
#X connect 83 0 68 1;
#X connect 84 0 85 1;
#X connect 85 0 98 0;
#X connect 86 0 85 0;
#X connect 87 0 101 0;
#X connect 88 0 145 0;
#X connect 89 0 91 0;
#X connect 90 0 89 0;
#X connect 91 0 143 0;
#X connect 92 0 94 0;
#X connect 93 0 144 0;
#X connect 94 0 93 0;
#X connect 95 0 87 0;
#X connect 97 0 100 0;
#X connect 99 0 95 0;
#X connect 100 0 84 0;
#X connect 101 0 112 0;
#X connect 101 0 109 0;
#X connect 102 0 101 1;
#X connect 103 0 101 2;
#X connect 104 0 110 0;
#X connect 105 0 106 0;
#X connect 106 0 107 0;
#X connect 107 0 161 0;
#X connect 108 0 109 1;
#X connect 109 0 96 0;
#X connect 110 0 105 0;
#X connect 111 0 110 0;
#X connect 112 0 109 0;
#X connect 113 0 15 0;
#X connect 114 0 112 1;
#X connect 115 0 116 0;
#X connect 116 0 162 0;
#X connect 118 0 119 1;
#X connect 119 0 115 0;
#X connect 120 0 119 0;
#X connect 121 0 126 0;
#X connect 122 0 119 1;
#X connect 123 0 122 0;
#X connect 124 0 125 0;
#X connect 125 0 142 0;
#X connect 126 0 141 0;
#X connect 127 0 118 0;
#X connect 128 0 114 0;
#X connect 129 0 102 0;
#X connect 129 0 103 0;
#X connect 130 0 131 0;
#X connect 131 0 133 0;
#X connect 132 0 130 0;
#X connect 134 0 105 0;
#X connect 135 0 55 0;
#X connect 136 0 52 0;
#X connect 137 0 138 0;
#X connect 138 0 56 0;
#X connect 139 0 55 0;
#X connect 140 0 83 0;
#X connect 140 0 69 0;
#X connect 141 0 127 0;
#X connect 142 0 123 0;
#X connect 143 0 88 0;
#X connect 144 0 88 1;
#X connect 145 0 99 0;
#X connect 147 0 148 0;
#X connect 148 0 149 0;
#X connect 148 0 191 0;
#X connect 149 0 150 1;
#X connect 150 0 186 0;
#X connect 151 0 147 0;
#X connect 152 0 155 0;
#X connect 153 0 154 1;
#X connect 154 0 187 0;
#X connect 155 0 153 0;
#X connect 155 0 192 0;
#X connect 156 0 163 0;
#X connect 157 0 158 1;
#X connect 158 0 188 0;
#X connect 159 0 59 0;
#X connect 160 0 16 0;
#X connect 161 0 108 0;
#X connect 162 0 117 0;
#X connect 163 0 157 0;
#X connect 163 0 193 0;
#X connect 164 0 152 0;
#X connect 165 0 166 1;
#X connect 166 0 175 0;
#X connect 167 0 165 0;
#X connect 169 0 170 1;
#X connect 170 0 177 0;
#X connect 171 0 169 0;
#X connect 172 0 173 1;
#X connect 173 0 178 0;
#X connect 174 0 172 0;
#X connect 179 0 180 0;
#X connect 180 0 151 0;
#X connect 180 0 167 0;
#X connect 181 0 183 0;
#X connect 182 0 185 0;
#X connect 183 0 164 0;
#X connect 183 0 171 0;
#X connect 184 0 156 0;
#X connect 185 0 174 0;
#X connect 185 0 184 0;
#X connect 186 0 166 0;
#X connect 187 0 170 0;
#X connect 188 0 173 0;
#X connect 189 0 190 0;
#X connect 190 0 194 0;
#X connect 191 0 150 0;
#X connect 192 0 154 0;
#X connect 193 0 158 0;
#X connect 194 0 168 0;
