#N canvas 0 38 1512 916 12;
#X declare -path ../../lib;
#X obj 772 117 loadbang;
#X obj 706 983 clip~ -1 1;
#X obj 706 1007 dac~;
#X obj 706 959 catch~ out;
#X obj 772 166 metro 100;
#X obj 457 94 declare -path ../../lib;
#X obj 457 168 bng 19 250 50 0 empty empty empty 0 -10 0 12 #ffffff #ff8300 #000000;
#X obj 457 192 kick~;
#X obj 457 240 throw~ out;
#X obj 457 482 ttet 7;
#X obj 515 641 *~;
#X obj 533 615 vline~;
#X obj 515 874 throw~ out;
#X obj 515 688 *~;
#X msg 533 593 1 5 0 \, 0 100 5;
#X obj 504 426 s v1;
#X obj 457 401 t b f b, f 14;
#X obj 552 426 s e1;
#X obj 533 569 r e1;
#X obj 533 664 r v1;
#X obj 515 847 acidfilter~;
#X obj 623 620 osc~ 0.1;
#X obj 624 718 snapshot~;
#X obj 635 692 metro 1;
#X obj 635 669 tgl 19 0 empty empty empty 0 -10 0 12 #fcfcfc #000000 #000000 0 1;
#X obj 528 785 pack f f;
#X obj 715 185 bng 36 250 50 0 empty empty empty 0 -10 0 24 #e3c6ff #9c00ff #000000;
#X obj 635 645 loadbang;
#N canvas 0 22 450 278 (subpatch) 0;
#X coords 0 1 100 -1 540 960 1 0 0;
#X restore 446 84 graph;
#X floatatom 624 815 5 0 0 0 - - - 0;
#X obj 715 227 s clock;
#X obj 457 119 r clock;
#X msg 528 814 0 50 \$1 \$2;
#X obj 624 789 * 3;
#X obj 624 765 + 4;
#X obj 240 20 bng 19 250 50 0 empty empty empty 0 -10 0 12 #fcfcfc #000000 #000000;
#X obj 240 44 s counter-reset;
#X obj 457 144 eseq 1 4 0;
#X obj 548 168 bng 19 250 50 0 empty empty empty 0 -10 0 12 #ffffff #ff8300 #000000;
#X obj 548 192 kick~;
#X obj 548 240 throw~ out;
#X obj 548 119 r clock;
#X obj 548 144 eseq 1 5 3;
#X obj 635 168 bng 19 250 50 0 empty empty empty 0 -10 0 12 #ffffff #ff8300 #000000;
#X obj 635 240 throw~ out;
#X obj 635 119 r clock;
#X obj 635 144 eseq 1 8 0;
#X obj 635 192 snare~;
#X obj 514 1020 throw~ out;
#X obj 514 899 r clock;
#X obj 514 924 eseq 6 8 0;
#X obj 514 971 hat~;
#X obj 609 898 bng 19 250 50 0 empty empty empty 0 -10 0 12 #ffffff #ff8300 #000000;
#X obj 609 946 bng 19 250 50 0 empty empty empty 0 -10 0 12 #fcfcfc #ff8300 #000000;
#X obj 609 970 snare~;
#X obj 609 1018 throw~ out;
#X obj 609 922 eseq 1 4 1;
#X obj 609 994 *~ 0.075;
#X obj 457 268 r clock;
#X obj 457 317 bng 19 250 50 0 empty empty empty 0 -10 0 12 #ffffff #00ff04 #000000;
#X obj 523 318 bng 19 250 50 0 empty empty empty 0 -10 0 12 #ffffff #00ff04 #000000;
#X obj 514 948 bng 19 250 50 0 empty empty empty 0 -10 0 12 #ffffff #ff8300 #000000;
#X msg 457 456 110;
#X obj 830 281 saw~;
#X obj 773 254 ttet 7;
#X msg 773 231 220;
#X floatatom 883 189 5 0 0 0 - - - 0;
#X obj 830 311 *~;
#X obj 867 282 vline~;
#X obj 830 356 lop~;
#X obj 830 380 lop~;
#X obj 830 432 throw~ out;
#X obj 851 95 r clock;
#X obj 851 118 t b b;
#X msg 867 255 1 5 0 \, 0 250 5;
#X obj 456 293 eseq 3 8 0;
#X msg 496 456 -4;
#X obj 524 343 bern 3;
#X obj 883 165 % 7;
#X obj 883 212 - 2;
#X floatatom 698 525 5 0 0 0 - - - 0;
#X obj 698 487 % 7;
#X floatatom 758 532 5 0 0 0 - - - 0;
#X obj 758 486 % 7;
#X floatatom 830 533 5 0 0 0 - - - 0;
#X obj 576 296 eseq 1 64 0;
#X obj 576 272 r clock;
#X obj 705 609 ttet 7;
#X msg 705 583 220;
#X obj 707 820 *~;
#X obj 829 744 vline~;
#X obj 707 926 throw~ out;
#X obj 758 609 ttet 7;
#X msg 758 583 220;
#X obj 820 608 ttet 7;
#X msg 820 582 220;
#X obj 698 557 t b f;
#X obj 758 554 t b f;
#X obj 830 557 t b f;
#X obj 883 141 counter 2;
#X obj 877 337 pow 1.4;
#X obj 758 658 *~ 0.75;
#X obj 820 657 *~ 0.5;
#X obj 576 370 t b b, f 9;
#X obj 576 397 s etrig;
#X obj 829 681 r etrig;
#X msg 829 705 1 4000 0 \, 0 100 4000, f 10;
#X obj 758 634 saw~;
#X obj 820 632 sinabs~;
#X obj 705 634 saw~;
#X obj 698 463 counter;
#X obj 830 461 counter 6;
#X obj 830 485 % 7;
#X obj 758 462 counter 4;
#X obj 457 640 s afreq;
#X obj 528 724 r afreq;
#X obj 851 141 bng 24 250 50 0 empty empty empty 0 -10 0 24 #ffc7c6 #ff0400 #000000;
#X obj 773 281 s lfreq;
#X obj 877 312 r lfreq;
#X obj 772 141 tgl 19 0 empty empty empty 0 -10 0 12 #fcfcfc #000000 #000000 0 1;
#X obj 707 850 lop~ 750;
#X obj 707 874 lop~ 750;
#X obj 842 828 vline~;
#X obj 842 773 r etrig;
#X obj 824 853 *~;
#X obj 824 924 delwrite~ pbuf 1000;
#X obj 646 266 delread~ pbuf 100;
#X obj 685 317 throw~ out;
#X obj 685 293 *~ 0.05;
#X msg 842 800 1 5 0 \, 0 75 5;
#X obj 726 392 throw~ out;
#X obj 726 368 *~ 0.05;
#X obj 685 341 delread~ pbuf 200;
#X obj 581 570 throw~ out;
#X obj 531 451 delread~ pbuf 400;
#X obj 824 876 lop~ 1250;
#X obj 824 900 lop~ 1250;
#X obj 580 521 rev1~;
#X msg 596 498 85;
#X obj 581 546 *~ 0.1;
#X obj 596 474 loadbang;
#X obj 707 902 *~ 0.04;
#X obj 457 216 *~ 0.3;
#X obj 548 216 *~ 0.2;
#X obj 514 995 *~ 0.15;
#X obj 635 216 *~ 0.2;
#X obj 830 408 *~ 0.025;
#X obj 581 755 * 25;
#X obj 528 755 * 15;
#X msg 457 341 0.5;
#X msg 524 367 0.25;
#X obj 458 544 square~;
#X obj 515 544 square~;
#X obj 514 520 * 0.25;
#X obj 576 321 bng 42 250 50 0 empty empty empty 0 -10 0 24 #c6ffc7 #00ff04 #000000;
#X obj 758 509 + 4;
#X obj 830 509 + 5;
#X connect 0 0 119 0;
#X connect 1 0 2 0;
#X connect 1 0 2 1;
#X connect 3 0 1 0;
#X connect 4 0 26 0;
#X connect 6 0 7 0;
#X connect 7 0 142 0;
#X connect 9 0 114 0;
#X connect 9 0 151 0;
#X connect 9 0 153 0;
#X connect 10 0 13 0;
#X connect 11 0 10 1;
#X connect 13 0 20 0;
#X connect 14 0 11 0;
#X connect 16 0 76 0;
#X connect 16 0 62 0;
#X connect 16 1 15 0;
#X connect 16 2 17 0;
#X connect 18 0 14 0;
#X connect 19 0 13 1;
#X connect 20 0 12 0;
#X connect 21 0 22 0;
#X connect 22 0 34 0;
#X connect 23 0 22 0;
#X connect 24 0 23 0;
#X connect 25 0 32 0;
#X connect 26 0 30 0;
#X connect 27 0 24 0;
#X connect 29 0 20 2;
#X connect 31 0 37 0;
#X connect 32 0 20 1;
#X connect 33 0 29 0;
#X connect 34 0 33 0;
#X connect 35 0 36 0;
#X connect 37 0 6 0;
#X connect 38 0 39 0;
#X connect 39 0 143 0;
#X connect 41 0 42 0;
#X connect 42 0 38 0;
#X connect 43 0 47 0;
#X connect 45 0 46 0;
#X connect 46 0 43 0;
#X connect 47 0 145 0;
#X connect 49 0 50 0;
#X connect 50 0 61 0;
#X connect 50 1 52 0;
#X connect 51 0 144 0;
#X connect 52 0 56 0;
#X connect 53 0 54 0;
#X connect 54 0 57 0;
#X connect 56 0 53 0;
#X connect 57 0 55 0;
#X connect 58 0 75 0;
#X connect 59 0 149 0;
#X connect 60 0 77 0;
#X connect 61 0 51 0;
#X connect 62 0 9 0;
#X connect 63 0 67 0;
#X connect 64 0 63 0;
#X connect 64 0 117 0;
#X connect 65 0 64 0;
#X connect 66 0 79 0;
#X connect 67 0 69 0;
#X connect 68 0 67 1;
#X connect 69 0 70 0;
#X connect 70 0 146 0;
#X connect 72 0 73 0;
#X connect 73 0 116 0;
#X connect 73 1 99 0;
#X connect 74 0 68 0;
#X connect 75 0 59 0;
#X connect 75 1 60 0;
#X connect 76 0 9 1;
#X connect 77 0 150 0;
#X connect 78 0 66 0;
#X connect 79 0 64 1;
#X connect 79 0 65 0;
#X connect 80 0 96 0;
#X connect 81 0 80 0;
#X connect 82 0 97 0;
#X connect 83 0 155 0;
#X connect 84 0 98 0;
#X connect 85 0 154 0;
#X connect 86 0 85 0;
#X connect 87 0 109 0;
#X connect 88 0 87 0;
#X connect 89 0 120 0;
#X connect 90 0 89 1;
#X connect 92 0 107 0;
#X connect 93 0 92 0;
#X connect 94 0 108 0;
#X connect 95 0 94 0;
#X connect 96 0 88 0;
#X connect 96 1 87 1;
#X connect 97 0 93 0;
#X connect 97 1 92 1;
#X connect 98 0 95 0;
#X connect 98 1 94 1;
#X connect 99 0 78 0;
#X connect 100 0 69 1;
#X connect 100 0 70 1;
#X connect 101 0 89 0;
#X connect 101 0 124 0;
#X connect 102 0 89 0;
#X connect 102 0 124 0;
#X connect 103 0 104 0;
#X connect 103 1 113 0;
#X connect 103 1 110 0;
#X connect 103 1 111 0;
#X connect 105 0 106 0;
#X connect 106 0 90 0;
#X connect 107 0 101 0;
#X connect 108 0 102 0;
#X connect 109 0 89 0;
#X connect 109 0 124 0;
#X connect 110 0 81 0;
#X connect 111 0 112 0;
#X connect 112 0 156 0;
#X connect 113 0 83 0;
#X connect 115 0 147 0;
#X connect 115 0 148 0;
#X connect 116 0 74 0;
#X connect 118 0 100 0;
#X connect 119 0 4 0;
#X connect 120 0 121 0;
#X connect 121 0 141 0;
#X connect 122 0 124 1;
#X connect 123 0 129 0;
#X connect 124 0 135 0;
#X connect 126 0 128 0;
#X connect 128 0 127 0;
#X connect 129 0 122 0;
#X connect 131 0 130 0;
#X connect 132 0 131 0;
#X connect 134 0 137 0;
#X connect 134 0 139 0;
#X connect 135 0 136 0;
#X connect 136 0 125 0;
#X connect 137 0 139 0;
#X connect 138 0 137 1;
#X connect 139 0 133 0;
#X connect 140 0 138 0;
#X connect 141 0 91 0;
#X connect 142 0 8 0;
#X connect 143 0 40 0;
#X connect 144 0 48 0;
#X connect 145 0 44 0;
#X connect 146 0 71 0;
#X connect 147 0 25 1;
#X connect 148 0 25 0;
#X connect 149 0 16 0;
#X connect 150 0 16 0;
#X connect 151 0 10 0;
#X connect 152 0 10 0;
#X connect 153 0 152 0;
#X connect 154 0 103 0;
#X connect 155 0 82 0;
#X connect 156 0 84 0;
