#N canvas 192 92 663 477 12;
#X obj 7 6 tgl 15 0 empty empty empty 17 7 0 10 -262144 -1 -1 1 1;
#X msg 7 25 \; pd dsp \$1;
#X obj 8 72 tgl 15 0 empty empty empty 17 7 0 10 -262144 -1 -1 1 1
;
#X obj 8 172 nbx 5 14 -1e+37 1e+37 0 0 empty empty empty 0 -8 0 10
-262144 -1 -1 51 256;
#X obj 8 203 mtof;
#X obj 73 249 mtof;
#X obj 135 250 mtof;
#X obj 198 249 mtof;
#X obj 73 204 + 4;
#X obj 135 204 + 7;
#X obj 73 228 nbx 5 14 -1e+37 1e+37 0 0 empty empty empty 0 -8 0 10
-262144 -1 -1 55 256;
#X obj 135 228 nbx 5 14 -1e+37 1e+37 0 0 empty empty empty 0 -8 0 10
-262144 -1 -1 58 256;
#X obj 198 228 nbx 5 14 -1e+37 1e+37 0 0 empty empty empty 0 -8 0 10
-262144 -1 -1 61 256;
#X obj 198 203 + 10;
#X obj 135 312 *~;
#X obj 83 351 dac~ 1 2;
#X obj 167 313 vsl 15 50 0 0.3 0 0 empty empty empty 0 -9 0 10 -262144
-1 -1 100 1;
#X obj 8 146 + 48;
#X obj 135 275 phasor~;
#X obj 8 120 random 12;
#X obj 8 95 metro 2000;
#X obj 73 275 phasor~;
#X obj 8 275 phasor~;
#X obj 198 275 phasor~;
#X connect 0 0 1 0;
#X connect 2 0 20 0;
#X connect 3 0 4 0;
#X connect 3 0 8 0;
#X connect 3 0 9 0;
#X connect 3 0 13 0;
#X connect 4 0 22 0;
#X connect 5 0 21 0;
#X connect 6 0 18 0;
#X connect 7 0 23 0;
#X connect 8 0 10 0;
#X connect 9 0 11 0;
#X connect 10 0 5 0;
#X connect 11 0 6 0;
#X connect 12 0 7 0;
#X connect 13 0 12 0;
#X connect 14 0 15 1;
#X connect 14 0 15 0;
#X connect 16 0 14 1;
#X connect 17 0 3 0;
#X connect 18 0 14 0;
#X connect 19 0 17 0;
#X connect 20 0 19 0;
#X connect 21 0 14 0;
#X connect 22 0 14 0;
#X connect 23 0 14 0;
