#N canvas 483 442 450 300 12;
#X obj 22 33 metro 1000;
#X obj 22 63 random 12;
#X floatatom 22 92 5 0 0 0 - - -;
#X obj 22 10 tgl 15 0 empty empty empty 17 7 0 10 -262144 -1 -1 0 1
;
#X obj 22 151 mtof;
#X obj 22 245 dac~;
#X obj 22 178 osc~;
#X obj 22 122 + 48;
#X obj 22 209 *~ 0;
#X msg 74 178 0;
#X msg 118 178 1;
#X connect 0 0 1 0;
#X connect 1 0 2 0;
#X connect 2 0 7 0;
#X connect 3 0 0 0;
#X connect 4 0 6 0;
#X connect 6 0 8 0;
#X connect 7 0 4 0;
#X connect 8 0 5 0;
#X connect 8 0 5 1;
#X connect 9 0 8 1;
#X connect 10 0 8 1;
