#N canvas 265 120 852 526 12;
#X obj 24 197 kick;
#X obj 22 13 bng 15 250 50 0 empty empty empty 17 7 0 10 -262144 -1
-1;
#X obj 23 64 f 1;
#X obj 56 64 + 1;
#X obj 23 91 mod 4;
#X obj 23 118 select 0 1 2 3;
#X obj 22 35 metro 235;
#X obj 80 197 hat;
#X obj 35 264 dac~;
#X connect 0 0 8 0;
#X connect 0 0 8 1;
#X connect 1 0 6 0;
#X connect 2 0 3 0;
#X connect 2 0 4 0;
#X connect 3 0 2 1;
#X connect 4 0 5 0;
#X connect 5 0 0 0;
#X connect 5 0 7 0;
#X connect 5 2 0 0;
#X connect 5 3 7 0;
#X connect 6 0 2 0;
#X connect 7 0 8 0;
#X connect 7 0 8 1;
