#N canvas 149 42 954 830 12;
#X obj 422 416 outlet~;
#X obj 423 204 *;
#X obj 313 -14 inlet;
#X obj 313 10 bng 19 250 50 0 empty empty empty 0 -10 0 12 #fcfcfc #000000 #000000;
#X floatatom 423 228 5 0 0 0 - - - 0;
#X obj 441 131 *;
#X floatatom 441 155 5 0 0 0 - - - 0;
#X obj 441 178 ctof;
#X msg 408 72 1200;
#X obj 408 97 /;
#X obj 461 78 unpack f f;
#X obj 461 54 inlet;
#X obj 373 126 inlet;
#X msg 373 150 set \$1;
#X obj 313 34 t b b;
#X msg 373 175 240;
#X obj 373 250 tri~;
#X obj 423 250 sinabs~;
#X obj 373 274 *~ 0.25;
#X connect 1 0 4 0;
#X connect 2 0 3 0;
#X connect 3 0 14 0;
#X connect 4 0 17 0;
#X connect 5 0 6 0;
#X connect 6 0 7 0;
#X connect 7 0 1 1;
#X connect 8 0 9 0;
#X connect 9 0 5 0;
#X connect 10 0 9 1;
#X connect 10 0 8 0;
#X connect 10 1 5 1;
#X connect 11 0 10 0;
#X connect 12 0 13 0;
#X connect 13 0 15 0;
#X connect 14 0 15 0;
#X connect 14 1 8 0;
#X connect 15 0 1 0;
#X connect 15 0 16 0;
#X connect 16 0 18 0;
#X connect 17 0 0 0;
#X connect 18 0 0 0;
