#N canvas 732 25 649 847 12;
#X obj 128 396 vcf~, f 29;
#X floatatom 328 374 5 0 0 1 reso - - 0;
#X obj 328 421 outlet~;
#X obj 128 117 inlet~;
#X obj 228 202 vline~;
#X text 159 69 \$1 - cutoff filter attack;
#X text 160 88 \$2 - cutoff filter decay;
#X obj 228 273 *~;
#X floatatom 246 250 5 0 0 1 mag - - 0;
#X obj 228 349 +~;
#X floatatom 246 327 5 0 0 1 floor - - 0;
#X obj 723 156 inlet;
#X obj 405 179 unpack f f f f, f 33;
#X obj 405 203 s \$0-fatk;
#X obj 557 203 s \$0-fmag;
#X obj 633 203 s \$0-fflr;
#X obj 228 119 r \$0-fatk;
#X obj 246 304 r \$0-fflr;
#X obj 246 226 r \$0-fmag;
#X obj 481 203 s \$0-fdec;
#X obj 304 119 r \$0-fdec;
#X obj 405 155 inlet;
#X obj 723 202 s \$0-reso;
#X obj 328 349 r \$0-reso;
#X msg 228 177 1 \$1 0 \, 0 \$2 \$1;
#X obj 228 145 pack f f;
#X connect 0 1 2 0;
#X connect 1 0 0 2;
#X connect 3 0 0 0;
#X connect 4 0 7 0;
#X connect 7 0 9 0;
#X connect 8 0 7 1;
#X connect 9 0 0 1;
#X connect 10 0 9 1;
#X connect 11 0 22 0;
#X connect 12 0 13 0;
#X connect 12 1 19 0;
#X connect 12 2 14 0;
#X connect 12 3 15 0;
#X connect 16 0 25 0;
#X connect 17 0 10 0;
#X connect 18 0 8 0;
#X connect 20 0 25 1;
#X connect 21 0 12 0;
#X connect 23 0 1 0;
#X connect 24 0 4 0;
#X connect 25 0 24 0;
