#N canvas 1927 49 450 300 12;
#X obj 96 145 pack f f;
#X obj 96 226 vline~;
#X text 104 178 go to 1 over atk ms \, then go to 0 over decay ms after
atk is done, f 65;
#X msg 96 200 1 \$1 0 \, 0 \$2 \$1;
#X obj 96 118 inlet;
#X obj 149 117 inlet;
#X obj 96 250 outlet~;
#X connect 0 0 3 0;
#X connect 1 0 6 0;
#X connect 3 0 1 0;
#X connect 4 0 0 0;
#X connect 5 0 0 1;
