#N canvas 447 411 586 378 12;
#X obj 323 27 inlet~;
#X obj 376 100 snapshot~;
#X obj 376 183 sum;
#X obj 431 175 bng 19 250 50 0 empty empty empty 0 -10 0 12 #fcfcfc #000000 #000000;
#X obj 431 199 counter;
#X floatatom 431 223 5 0 0 0 - - - 0;
#X floatatom 376 208 6 0 0 0 - - - 0;
#X obj 413 247 /;
#X floatatom 413 271 5 0 0 0 - - - 0;
#X obj 376 124 abs;
#X obj 376 148 t f b;
#X obj 413 294 outlet;
#X obj 376 27 inlet;
#X connect 0 0 1 0;
#X connect 1 0 9 0;
#X connect 2 0 6 0;
#X connect 3 0 4 0;
#X connect 4 0 5 0;
#X connect 5 0 7 1;
#X connect 6 0 7 0;
#X connect 7 0 8 0;
#X connect 8 0 11 0;
#X connect 9 0 10 0;
#X connect 10 0 2 0;
#X connect 10 1 3 0;
#X connect 12 0 1 0;
