#N canvas 63 101 450 300 12;
#X floatatom 218 122 5 0 0 0 - - - 0;
#X obj 218 145 sel 0;
#X obj 217 5 inlet;
#X obj 218 99 random;
#X obj 218 206 outlet;
#X obj 250 175 outlet;
#X floatatom 257 77 5 0 0 0 - - - 0;
#X obj 258 54 f \$1;
#X obj 217 30 t b b;
#X connect 0 0 1 0;
#X connect 1 0 4 0;
#X connect 1 1 5 0;
#X connect 2 0 8 0;
#X connect 3 0 0 0;
#X connect 6 0 3 1;
#X connect 7 0 6 0;
#X connect 8 0 3 0;
#X connect 8 1 7 0;
