#N canvas 640 347 794 442 12;
#X obj 154 113 vline~;
#X obj 154 161 *~;
#X obj 223 140 noise~;
#X obj 262 378 outlet~;
#X obj 154 64 inlet;
#X obj 154 185 *~ 1;
#X obj 262 354 *~ 1;
#X obj 79 379 delwrite~ \$0-clap 50;
#X obj 265 307 catch~ \$0-feedback;
#X obj 298 257 throw~ \$0-feedback;
#X obj 450 256 throw~ \$0-feedback;
#X obj 154 137 pow~ 2.5;
#X msg 154 89 1 0 0 \, 0 11 0 \, 1 0 11 \, 0 12 11 \, 1 0 23 \, 0 8 23 \, 1 0 31 \, 0 50 31, f 64;
#X obj 154 281 hip~ 750;
#X obj 154 257 hip~ 750;
#X obj 154 234 lop~ 2500;
#X obj 154 209 lop~ 2500;
#X obj 298 209 lop~ 1200;
#X obj 298 232 lop~ 1200;
#X obj 450 207 lop~ 600;
#X obj 450 231 lop~ 600;
#X obj 298 181 *~ 0.4;
#X obj 450 180 *~ 0.4;
#X obj 297 156 delread~ \$0-clap 5;
#X obj 449 156 delread~ \$0-clap 10;
#X connect 0 0 11 0;
#X connect 1 0 5 0;
#X connect 2 0 1 1;
#X connect 4 0 12 0;
#X connect 5 0 16 0;
#X connect 6 0 3 0;
#X connect 6 0 7 0;
#X connect 8 0 6 0;
#X connect 11 0 1 0;
#X connect 12 0 0 0;
#X connect 13 0 6 0;
#X connect 14 0 13 0;
#X connect 15 0 14 0;
#X connect 16 0 15 0;
#X connect 17 0 18 0;
#X connect 18 0 9 0;
#X connect 19 0 20 0;
#X connect 20 0 10 0;
#X connect 21 0 17 0;
#X connect 22 0 19 0;
#X connect 23 0 21 0;
#X connect 24 0 22 0;
