#N canvas 84 114 662 443 12;
#X obj 206 142 inlet;
#X obj 206 382 outlet;
#X obj 224 171 r counter-reset;
#X msg 224 195 0;
#X obj 424 331 spigot;
#X obj 441 281 f \$1;
#X floatatom 424 355 5 0 0 0 - - - 0;
#X obj 424 434 s \$0-inc;
#X obj 288 289 r \$0-inc;
#X obj 270 312 +;
#X floatatom 206 357 5 0 0 0 - - - 0;
#X obj 206 278 f 0;
#X obj 482 349 spigot;
#X obj 482 320 f 1;
#X floatatom 482 373 5 0 0 0 - - - 0;
#X obj 521 298 <= 0;
#X floatatom 523 326 5 0 0 0 - - - 0;
#X obj 270 252 t f b b b, f 18;
#X connect 0 0 11 0;
#X connect 2 0 3 0;
#X connect 3 0 11 1;
#X connect 4 0 6 0;
#X connect 5 0 4 0;
#X connect 5 0 4 1;
#X connect 5 0 15 0;
#X connect 6 0 7 0;
#X connect 8 0 9 1;
#X connect 9 0 11 1;
#X connect 9 0 10 0;
#X connect 10 0 1 0;
#X connect 11 0 17 0;
#X connect 12 0 14 0;
#X connect 13 0 12 0;
#X connect 14 0 7 0;
#X connect 15 0 16 0;
#X connect 16 0 12 1;
#X connect 17 0 9 0;
#X connect 17 1 13 0;
#X connect 17 2 5 0;
#X connect 17 3 5 0;
