#N canvas 84 114 662 443 12;
#X obj 206 278 f;
#X obj 206 142 inlet;
#X obj 206 382 outlet;
#X obj 224 171 r counter-reset;
#X msg 224 195 0;
#X obj 424 383 f 1;
#X obj 424 331 spigot;
#X obj 424 302 f \$1;
#X floatatom 424 355 5 0 0 0 - - - 0;
#X obj 424 434 s \$0-inc;
#X obj 288 289 r \$0-inc;
#X floatatom 424 407 5 0 0 0 - - - 0;
#X obj 270 312 +;
#X floatatom 206 357 5 0 0 0 - - - 0;
#X obj 270 252 t f b b, f 18;
#X connect 0 0 13 0;
#X connect 0 0 14 0;
#X connect 1 0 0 0;
#X connect 3 0 4 0;
#X connect 4 0 0 1;
#X connect 5 0 11 0;
#X connect 6 0 8 0;
#X connect 7 0 6 0;
#X connect 7 0 6 1;
#X connect 8 0 5 0;
#X connect 10 0 12 1;
#X connect 11 0 9 0;
#X connect 12 0 0 1;
#X connect 13 0 2 0;
#X connect 14 0 12 0;
#X connect 14 1 7 0;
#X connect 14 2 5 0;
