#N canvas 0 38 1440 847 12;
#X floatatom 928 561 5 0 0 0 point\ in\ cycle - - 0;
#X obj 928 608 *;
#X obj 928 760 <;
#X obj 928 808 select 1;
#X obj 928 833 bng 15 250 50 0 empty empty on 17 7 0 10 #fcfcfc #000000 #000000;
#X obj 981 833 bng 15 250 50 0 empty empty off 17 7 0 10 #fcfcfc #000000 #000000;
#X obj 928 854 outlet;
#X obj 981 854 outlet;
#X obj 928 388 inlet;
#X floatatom 928 439 5 0 0 0 beats - - 0;
#X obj 1074 385 inlet;
#X obj 928 536 +;
#X obj 1074 411 unpack f f f;
#X obj 928 687 %;
#X obj 928 486 %;
#X floatatom 1074 494 4 0 0 1 offset - - 0;
#X floatatom 1169 493 4 0 0 1 notes - - 0;
#X floatatom 1252 494 4 0 0 1 len - - 0;
#X floatatom 928 636 5 0 0 0 point\ in\ cycle\ *\ num\ notes - - 0;
#X floatatom 928 711 5 0 0 0 point\ in\ cycle\ *\ num\ notes\ %\ length - - 0;
#X floatatom 928 784 5 0 0 0 point\ in\ cycle\ *\ num\ notes\ %\ length\ <\ num\ notes - - 0;
#X obj 1074 435 s \$0-notes;
#X obj 1165 435 s \$0-len;
#X obj 1236 435 s \$0-offset;
#X obj 1074 470 r \$0-offset;
#X obj 1169 469 r \$0-notes;
#X obj 1252 470 r \$0-len;
#X obj 946 462 r \$0-len;
#X obj 946 511 r \$0-offset;
#X obj 946 583 r \$0-notes;
#X obj 946 661 r \$0-len;
#X obj 946 734 r \$0-notes;
#X obj 1078 277 f \$1;
#X obj 1078 252 loadbang;
#X floatatom 1078 301 5 0 0 0 - - - 0;
#X obj 1164 254 loadbang;
#X floatatom 1164 303 5 0 0 0 - - - 0;
#X obj 1164 279 f \$2;
#X obj 1238 252 loadbang;
#X floatatom 1238 301 5 0 0 0 - - - 0;
#X obj 1238 277 f \$3;
#X obj 1078 327 s \$0-notes;
#X obj 1164 329 s \$0-len;
#X obj 1238 327 s \$0-offset;
#X obj 928 414 counter;
#X connect 0 0 1 0;
#X connect 1 0 18 0;
#X connect 2 0 20 0;
#X connect 3 0 4 0;
#X connect 3 1 5 0;
#X connect 4 0 6 0;
#X connect 5 0 7 0;
#X connect 8 0 44 0;
#X connect 9 0 14 0;
#X connect 10 0 12 0;
#X connect 11 0 0 0;
#X connect 12 0 21 0;
#X connect 12 1 22 0;
#X connect 12 2 23 0;
#X connect 13 0 19 0;
#X connect 14 0 11 0;
#X connect 18 0 13 0;
#X connect 19 0 2 0;
#X connect 20 0 3 0;
#X connect 24 0 15 0;
#X connect 25 0 16 0;
#X connect 26 0 17 0;
#X connect 27 0 14 1;
#X connect 28 0 11 1;
#X connect 29 0 1 1;
#X connect 30 0 13 1;
#X connect 31 0 2 1;
#X connect 32 0 34 0;
#X connect 33 0 32 0;
#X connect 34 0 41 0;
#X connect 35 0 37 0;
#X connect 36 0 42 0;
#X connect 37 0 36 0;
#X connect 38 0 40 0;
#X connect 39 0 43 0;
#X connect 40 0 39 0;
#X connect 44 0 9 0;
