#N canvas 535 283 450 300 12;
#X obj 23 89 noise~;
#X obj 119 114 vline~;
#X obj 23 114 *~ 0.1;
#X obj 69 181 *~;
#X msg 119 90 1 5 0 \, 0.1 45 5 \, 0 5 50;
#X obj 22 45 inlet;
#X obj 69 205 outlet~;
#X connect 0 0 2 0;
#X connect 1 0 3 1;
#X connect 2 0 3 0;
#X connect 3 0 6 0;
#X connect 4 0 1 0;
#X connect 5 0 4 0;
