#N canvas 472 346 794 442 12;
#X obj 484 241 vline~;
#X obj 434 308 *~;
#X obj 452 75 inlet;
#X obj 110 223 square~;
#X obj 110 199 * 2;
#X obj 171 223 square~;
#X obj 171 199 * 3;
#X obj 232 223 square~;
#X obj 232 199 * 4.16;
#X obj 293 223 square~;
#X obj 293 199 * 5.43;
#X obj 354 223 square~;
#X obj 354 199 * 6.79;
#X obj 414 223 square~;
#X obj 414 199 * 8.12;
#X obj 484 265 pow~ 4;
#X obj 110 125 loadbang;
#X obj 110 295 hip~ 5000;
#X obj 110 319 hip~ 5000;
#X obj 110 343 hip~ 5000;
#X obj 110 367 hip~ 5000;
#X obj 110 271 bp~ 10000 20;
#X obj 484 127 f \$1;
#X msg 110 150 40;
#X obj 484 156 spigot;
#X obj 452 99 t b b;
#X obj 434 332 outlet~;
#X obj 484 191 f 50;
#X msg 484 217 1 5 0 \, 0 \$1 5;
#X connect 0 0 15 0;
#X connect 1 0 26 0;
#X connect 2 0 25 0;
#X connect 3 0 21 0;
#X connect 4 0 3 0;
#X connect 5 0 21 0;
#X connect 6 0 5 0;
#X connect 7 0 21 0;
#X connect 8 0 7 0;
#X connect 9 0 21 0;
#X connect 10 0 9 0;
#X connect 12 0 11 0;
#X connect 13 0 21 0;
#X connect 14 0 13 0;
#X connect 15 0 1 1;
#X connect 16 0 23 0;
#X connect 17 0 18 0;
#X connect 18 0 19 0;
#X connect 19 0 20 0;
#X connect 20 0 1 0;
#X connect 21 0 17 0;
#X connect 22 0 24 1;
#X connect 22 0 24 0;
#X connect 23 0 4 0;
#X connect 23 0 14 0;
#X connect 23 0 12 0;
#X connect 23 0 10 0;
#X connect 23 0 8 0;
#X connect 23 0 6 0;
#X connect 24 0 27 0;
#X connect 25 0 27 0;
#X connect 25 1 22 0;
#X connect 27 0 28 0;
#X connect 28 0 0 0;
