#N canvas 443 180 711 568 12;
#X obj 25 289 sqrt~;
#X obj 25 338 cos~;
#X obj 44 461 vline~;
#X obj 26 529 *~;
#X obj 301 104 inlet;
#X obj 26 555 outlet~;
#X obj 25 264 vline~;
#X obj 242 298 f 5;
#X obj 162 191 f \$1;
#X obj 216 191 f \$2;
#X obj 216 215 spigot;
#X floatatom 216 239 5 0 0 0 - - - 0;
#X obj 162 216 spigot;
#X floatatom 162 240 5 0 0 0 - - - 0;
#X obj 242 322 s \$0-atk;
#X obj 162 298 f 175;
#X obj 162 322 s \$0-decay;
#X obj 44 366 r \$0-atk;
#X obj 118 364 r \$0-decay;
#X obj 44 413 pack f f;
#X floatatom 118 388 5 0 0 0 - - - 0;
#X floatatom 44 390 5 0 0 0 - - - 0;
#X msg 44 437 1 \$1 0 \, 0 \$2 \$1;
#X msg 25 240 0 0 0 \, 1 225 0;
#X obj 25 313 *~ 15;
#X obj 301 129 t b b b;
#X obj 301 199 s \$0-bang;
#X obj 25 212 r \$0-bang;
#X connect 0 0 24 0;
#X connect 1 0 3 0;
#X connect 2 0 3 1;
#X connect 3 0 5 0;
#X connect 4 0 25 0;
#X connect 6 0 0 0;
#X connect 7 0 14 0;
#X connect 8 0 12 0;
#X connect 8 0 12 1;
#X connect 9 0 10 0;
#X connect 9 0 10 1;
#X connect 10 0 11 0;
#X connect 11 0 7 0;
#X connect 12 0 13 0;
#X connect 13 0 15 0;
#X connect 15 0 16 0;
#X connect 17 0 21 0;
#X connect 18 0 20 0;
#X connect 19 0 22 0;
#X connect 20 0 19 1;
#X connect 21 0 19 0;
#X connect 22 0 2 0;
#X connect 23 0 6 0;
#X connect 24 0 1 0;
#X connect 25 0 26 0;
#X connect 25 1 9 0;
#X connect 25 1 8 0;
#X connect 25 2 7 0;
#X connect 25 2 15 0;
#X connect 27 0 23 0;
