#N canvas 731 456 546 351 12;
#X obj 23 90 sqrt~;
#X obj 23 139 cos~;
#X obj 23 66 line~;
#X msg 23 41 0 \, 1 225;
#X obj 128 65 vline~;
#X obj 111 225 *~;
#X obj 23 114 *~ 15;
#X obj 23 7 inlet;
#X obj 111 251 outlet~;
#X msg 128 41 1 5 0 \, 0 250 25;
#X connect 0 0 6 0;
#X connect 1 0 5 0;
#X connect 2 0 0 0;
#X connect 3 0 2 0;
#X connect 4 0 5 1;
#X connect 5 0 8 0;
#X connect 6 0 1 0;
#X connect 7 0 3 0;
#X connect 7 0 9 0;
#X connect 9 0 4 0;
