#N canvas 541 38 971 916 12;
#X obj 156 228 vline~;
#X obj 13 269 *~;
#X obj 336 764 *~;
#X obj 336 788 s~ \$0-feedback;
#X obj 20 322 r~ \$0-feedback;
#X floatatom 320 369 5 0 0 0 - - - 0;
#X obj 334 460 /;
#X floatatom 334 484 5 0 0 0 - - - 0;
#X msg 294 425 1000;
#X obj 320 392 t b f;
#X obj 336 519 delread4~ \$0-kp;
#X obj 336 591 lop~;
#X obj 336 615 lop~;
#X obj 13 347 delwrite~ \$0-kp 20;
#X obj 351 148 inlet;
#X text 690 525 arguments 6: exciter? 1: attack 2: decay 3: pitch 4: damping 5: feedback;
#X obj 420 148 inlet;
#X obj 502 148 inlet;
#X obj 502 173 unpack f f;
#X obj 502 197 s \$0-damping;
#X obj 597 197 s \$0-fbamt;
#X obj 420 172 s \$0-pitch;
#X obj 320 345 r \$0-pitch;
#X obj 354 716 min;
#X msg 386 689 0.99;
#X obj 354 641 r \$0-fbamt;
#X floatatom 354 740 5 0 0 0 - - - 0;
#X obj 354 665 t f b;
#X obj 387 572 r \$0-damping;
#X obj 156 74 r \$0-ads;
#X obj 351 173 s \$0-ads;
#X obj 156 98 unpack f f f;
#X obj 156 178 pack f f f, f 12;
#X obj 219 132 +;
#X floatatom 219 156 5 0 0 0 - - - 0;
#X msg 156 204 1 \$1 0 \, 0 \$2 \$3;
#X obj 707 146 inlet~;
#X obj 725 177 avg~, f 8;
#X obj 778 122 tgl 19 0 empty empty empty 0 -10 0 12 #fcfcfc #000000 #000000 0 1;
#X obj 778 97 loadbang;
#X obj 707 264 *~;
#X floatatom 725 240 5 0 0 0 - - - 0;
#X obj 725 216 > 0;
#X obj 912 213 == 0;
#X floatatom 912 237 5 0 0 0 - - - 0;
#X obj 858 237 noise~;
#X obj 858 264 *~;
#X obj 858 288 throw~ \$0-exciter;
#X obj 707 288 throw~ \$0-exciter;
#X obj 353 544 outlet~;
#X obj 13 226 catch~ \$0-exciter;
#X obj 778 146 metro 100;
#X connect 0 0 1 1;
#X connect 1 0 13 0;
#X connect 2 0 3 0;
#X connect 4 0 13 0;
#X connect 5 0 9 0;
#X connect 6 0 7 0;
#X connect 7 0 10 0;
#X connect 8 0 6 0;
#X connect 9 0 8 0;
#X connect 9 1 6 1;
#X connect 10 0 11 0;
#X connect 10 0 49 0;
#X connect 11 0 12 0;
#X connect 12 0 2 0;
#X connect 14 0 30 0;
#X connect 16 0 21 0;
#X connect 17 0 18 0;
#X connect 18 0 19 0;
#X connect 18 1 20 0;
#X connect 22 0 5 0;
#X connect 23 0 26 0;
#X connect 24 0 23 1;
#X connect 25 0 27 0;
#X connect 26 0 2 1;
#X connect 27 0 23 0;
#X connect 27 1 24 0;
#X connect 28 0 11 1;
#X connect 28 0 12 1;
#X connect 29 0 31 0;
#X connect 31 0 32 0;
#X connect 31 1 32 1;
#X connect 31 1 33 0;
#X connect 31 2 33 1;
#X connect 32 0 35 0;
#X connect 33 0 34 0;
#X connect 34 0 32 2;
#X connect 35 0 0 0;
#X connect 36 0 37 0;
#X connect 36 0 40 0;
#X connect 37 0 42 0;
#X connect 37 0 43 0;
#X connect 38 0 51 0;
#X connect 39 0 38 0;
#X connect 40 0 48 0;
#X connect 41 0 40 1;
#X connect 42 0 41 0;
#X connect 43 0 44 0;
#X connect 44 0 46 1;
#X connect 45 0 46 0;
#X connect 46 0 47 0;
#X connect 50 0 1 0;
#X connect 51 0 37 1;
