#N canvas 192 231 809 535 12;
#X obj 490 265 phasor~;
#X obj 490 289 *~ 2;
#X obj 490 313 -~ 1;
#X obj 490 241 inlet;
#X obj 490 337 outlet~;
#X connect 0 0 1 0;
#X connect 1 0 2 0;
#X connect 2 0 4 0;
#X connect 3 0 0 0;
