#N canvas 0 26 1440 847 12;
#X obj 177 232 noise~;
#X obj 275 184 vline~;
#X obj 210 320 *~;
#X obj 100 115 +~;
#X obj 100 139 osc~;
#X obj 100 234 *~;
#X obj 385 45 inlet;
#X obj 209 694 outlet~;
#X obj 432 614 *~;
#X msg 450 585 1;
#X obj 450 561 delay;
#X msg 482 535 1;
#X obj 385 70 s \$0-bang;
#X obj 275 107 r \$0-bang;
#X obj 450 477 r \$0-bang;
#X obj 228 407 r \$0-bang;
#X obj 228 434 f 1000;
#X obj 269 458 vcf~ 4;
#X obj 343 457 vcf~ 1;
#X obj 362 434 f 3975;
#X obj 209 458 vcf~ 3;
#X obj 100 163 hip~ 500;
#X obj 52 74 sig~ 325;
#X obj 118 50 osc~ 275;
#X obj 118 74 *~ 75;
#X obj 275 133 f 75;
#X msg 275 158 1 0 0.25 \, 0 \$1 0.25;
#X obj 177 256 hip~ 3000;
#X obj 288 435 f 8500;
#X connect 0 0 27 0;
#X connect 1 0 5 1;
#X connect 1 0 2 1;
#X connect 2 0 17 0;
#X connect 2 0 18 0;
#X connect 2 0 20 0;
#X connect 3 0 4 0;
#X connect 4 0 21 0;
#X connect 5 0 2 0;
#X connect 6 0 12 0;
#X connect 8 0 7 0;
#X connect 9 0 8 1;
#X connect 10 0 9 0;
#X connect 11 0 10 1;
#X connect 13 0 25 0;
#X connect 14 0 10 0;
#X connect 14 0 11 0;
#X connect 15 0 16 0;
#X connect 15 0 19 0;
#X connect 15 0 28 0;
#X connect 16 0 20 1;
#X connect 17 1 7 0;
#X connect 18 1 7 0;
#X connect 19 0 18 1;
#X connect 20 1 7 0;
#X connect 21 0 5 0;
#X connect 22 0 3 0;
#X connect 23 0 24 0;
#X connect 24 0 3 1;
#X connect 25 0 26 0;
#X connect 26 0 1 0;
#X connect 27 0 2 0;
#X connect 28 0 17 1;
