#N canvas 448 192 809 535 12;
#X obj 490 235 inlet;
#X obj 490 265 phasor~;
#X obj 627 210 f \$1;
#X obj 627 185 loadbang;
#X floatatom 627 234 5 0 0 0 - - - 0;
#X obj 596 178 bng 19 250 50 0 empty empty empty 0 -10 0 12 #fcfcfc #000000 #000000;
#X obj 490 317 -~ 0.5;
#X obj 490 292 expr~ $v1 > 0.5;
#X obj 490 341 *~ 2;
#X obj 490 364 outlet~;
#X connect 0 0 1 0;
#X connect 1 0 7 0;
#X connect 2 0 4 0;
#X connect 3 0 2 0;
#X connect 4 0 1 0;
#X connect 5 0 2 0;
#X connect 6 0 8 0;
#X connect 7 0 6 0;
#X connect 8 0 9 0;
