#N canvas 246 388 450 300 12;
#X obj 211 181 +;
#X obj 211 208 outlet;
#X obj 176 108 inlet;
#X obj 176 181 f 0;
#X obj 176 132 t b f;
#X connect 0 0 3 1;
#X connect 0 0 1 0;
#X connect 2 0 4 0;
#X connect 3 0 0 0;
#X connect 4 0 3 0;
#X connect 4 1 0 1;
