#N canvas 275 39 1183 915 12;
#X obj 489 405 delread4~ tapedelay;
#X obj 489 381 vline~;
#X obj 489 628 s~ \$0-feedback;
#X obj 711 316 r~ \$0-feedback;
#X obj 489 601 *~;
#X floatatom 507 578 5 0 0.98 0 - - - 0;
#X obj 321 558 *~;
#X floatatom 339 532 5 0 1 0 - - - 0;
#X floatatom 197 525 5 0 1 0 - - - 0;
#X obj 179 551 *~;
#X msg 489 356 \$1 100 0;
#X obj 489 309 r \$0-delay-time;
#X obj 118 220 hsl 164 19 0 10000 0 0 \$0-delay-time empty delay\ time -2 -10 0 12 #fcfcfc #000000 #000000 0 1;
#X floatatom 489 333 5 0 0 0 - - - 0;
#X obj 118 265 hsl 164 19 0 0.98 0 0 \$0-feedback-level empty feedback -2 -10 0 12 #fcfcfc #000000 #000000 0 1;
#X obj 506 553 r \$0-feedback-level;
#X obj 119 362 hsl 70 19 0 1 0 0 \$0-dry-mix empty dry -2 -10 0 12 #fcfcfc #000000 #000000 0 1;
#X obj 210 362 hsl 70 19 0 1 0 0 \$0-wet-mix empty wet -2 -10 0 12 #fcfcfc #000000 #000000 0 1;
#X obj 197 502 r \$0-dry-mix;
#X obj 339 507 r \$0-wet-mix;
#X obj 509 434 s~ \$0-delay;
#X obj 321 482 r~ \$0-delay;
#X obj 119 313 hsl 70 19 0 20000 0 0 \$0-lop-cutoff empty lop\ cutoff -2 -10 0 12 #fcfcfc #000000 #000000 0 1;
#X obj 211 314 hsl 70 19 0 1000 0 0 \$0-hip-cutoff empty hip\ cutoff -2 -10 0 12 #fcfcfc #000000 #000000 0 1;
#X obj 489 463 lop~;
#X obj 489 487 lop~;
#X obj 629 441 r \$0-lop-cutoff;
#X obj 623 497 r \$0-hip-cutoff;
#X obj 489 511 hip~;
#X floatatom 629 465 5 0 0 0 - - - 0;
#X floatatom 623 521 5 0 0 0 - - - 0;
#X obj 520 171 inlet~;
#X obj 520 195 s~ \$0-dry;
#X obj 179 473 r~ \$0-dry;
#X obj 249 648 outlet~;
#X obj 693 282 r~ \$0-dry;
#X obj 697 343 delwrite~ tapedelay 10000;
#X connect 0 0 20 0;
#X connect 0 0 24 0;
#X connect 1 0 0 0;
#X connect 3 0 36 0;
#X connect 4 0 2 0;
#X connect 5 0 4 1;
#X connect 6 0 34 0;
#X connect 7 0 6 1;
#X connect 8 0 9 1;
#X connect 9 0 34 0;
#X connect 10 0 1 0;
#X connect 11 0 13 0;
#X connect 13 0 10 0;
#X connect 15 0 5 0;
#X connect 18 0 8 0;
#X connect 19 0 7 0;
#X connect 21 0 6 0;
#X connect 24 0 25 0;
#X connect 25 0 28 0;
#X connect 26 0 29 0;
#X connect 27 0 30 0;
#X connect 28 0 4 0;
#X connect 29 0 24 1;
#X connect 29 0 25 1;
#X connect 30 0 28 1;
#X connect 31 0 32 0;
#X connect 33 0 9 0;
#X connect 35 0 36 0;
#X coords 0 -1 1 1 200 300 1 100 100;
