#N canvas 0 38 1512 916 12;
#X obj 552 369 inlet;
#X obj 889 317 f \$1;
#X floatatom 889 341 4 0 0 0 - - - 0;
#X obj 552 418 s \$0-freq;
#X obj 623 418 s \$0-notes;
#X obj 748 594 ctof;
#X obj 748 494 r \$0-notes;
#X obj 748 536 *;
#X floatatom 748 560 5 0 0 1 convert\ notes\ to\ cents - - 0;
#X obj 835 495 r \$0-cents-div;
#X obj 766 619 r \$0-freq;
#X obj 748 643 *;
#X floatatom 748 667 5 0 0 1 get\ frequencty\ of\ new\ note - - 0;
#X obj 748 690 outlet;
#X obj 822 242 loadbang;
#X obj 856 440 s \$0-cents-div;
#X floatatom 856 415 14 0 0 1 get\ frequency\ division\ of\ the\ octave - - 0;
#X msg 824 345 1200;
#X obj 822 267 t b b;
#X obj 856 389 /;
#X obj 623 369 inlet;
#X connect 0 0 3 0;
#X connect 1 0 2 0;
#X connect 2 0 19 1;
#X connect 5 0 11 0;
#X connect 6 0 7 0;
#X connect 7 0 8 0;
#X connect 8 0 5 0;
#X connect 9 0 7 1;
#X connect 10 0 11 1;
#X connect 11 0 12 0;
#X connect 12 0 13 0;
#X connect 14 0 18 0;
#X connect 16 0 15 0;
#X connect 17 0 19 0;
#X connect 18 0 17 0;
#X connect 18 1 1 0;
#X connect 19 0 16 0;
#X connect 20 0 4 0;
