#N canvas 151 102 450 395 12;
#X obj 73 51 noise~;
#X obj 73 163 snapshot~;
#X obj 88 108 tgl 19 0 empty empty empty 0 -10 0 12 #fcfcfc #000000 #000000 0 1;
#X obj 88 83 loadbang;
#X obj 274 34 inlet;
#X obj 274 107 s \$0-rate;
#X obj 149 107 r \$0-rate;
#X obj 129 230 r \$0-prob;
#X obj 74 341 outlet;
#X obj 73 187 + 1;
#X floatatom 73 237 5 0 0 0 - - - 0;
#X obj 73 211 / 2;
#X obj 88 132 metro;
#X msg 283 82 100;
#X obj 283 59 loadbang;
#X obj 73 288 moses;
#X floatatom 129 254 5 0 0 0 - - - 0;
#X obj 359 83 f \$1;
#X obj 359 58 loadbang;
#X floatatom 359 107 5 0 0 0 - - - 0;
#X obj 359 130 s \$0-prob;
#X obj 73 312 bng 19 250 50 0 empty empty empty 0 -10 0 12 #fcfcfc #000000 #000000;
#X connect 0 0 1 0;
#X connect 1 0 9 0;
#X connect 2 0 12 0;
#X connect 3 0 2 0;
#X connect 4 0 5 0;
#X connect 6 0 12 1;
#X connect 7 0 16 0;
#X connect 9 0 11 0;
#X connect 10 0 15 0;
#X connect 11 0 10 0;
#X connect 12 0 1 0;
#X connect 13 0 5 0;
#X connect 14 0 13 0;
#X connect 15 0 21 0;
#X connect 16 0 15 1;
#X connect 17 0 19 0;
#X connect 18 0 17 0;
#X connect 19 0 20 0;
#X connect 21 0 8 0;
