#N canvas 102 313 450 395 12;
#X obj 73 51 noise~;
#X obj 73 101 snapshot~;
#X obj 274 34 inlet;
#X obj 129 168 r \$0-prob;
#X obj 73 281 outlet;
#X obj 73 125 + 1;
#X floatatom 73 175 5 0 0 0 - - - 0;
#X obj 73 149 / 2;
#X obj 73 226 moses;
#X floatatom 129 192 5 0 0 0 - - - 0;
#X obj 359 83 f \$1;
#X obj 359 58 loadbang;
#X floatatom 359 107 5 0 0 0 - - - 0;
#X obj 359 130 s \$0-prob;
#X obj 73 256 bng 19 250 50 0 empty empty empty 0 -10 0 12 #fcfcfc #000000 #000000;
#X obj 274 58 s \$0-bang;
#X obj 80 75 r \$0-bang;
#X obj 130 282 outlet;
#X obj 130 257 bng 19 250 50 0 empty empty empty 0 -10 0 12 #fcfcfc #000000 #000000;
#X connect 0 0 1 0;
#X connect 1 0 5 0;
#X connect 2 0 15 0;
#X connect 3 0 9 0;
#X connect 5 0 7 0;
#X connect 6 0 8 0;
#X connect 7 0 6 0;
#X connect 8 0 14 0;
#X connect 8 1 18 0;
#X connect 9 0 8 1;
#X connect 10 0 12 0;
#X connect 11 0 10 0;
#X connect 12 0 13 0;
#X connect 14 0 4 0;
#X connect 16 0 1 0;
#X connect 18 0 17 0;
