#N canvas 0 38 1512 916 12;
#X obj 292 27 inlet;
#X obj 284 683 tone~;
#X obj 292 51 t f b, f 12;
#X obj 373 99 bng 19 250 50 0 empty empty empty 0 -10 0 12 #fcfcfc #000000 #000000;
#X obj 373 99 bng 19 250 50 0 empty empty empty 0 -10 0 12 #fcfcfc #000000 #000000;
#X obj 292 314 outlet~;
#X obj 284 706 throw~ \$0-out;
#X obj 292 288 catch~ \$0-out;
#X obj 373 125 delay 1000;
#X obj 373 149 s \$0-b1;
#X obj 597 65 r \$0-b1;
#X obj 292 75 s \$0-midi;
#X obj 284 659 r \$0-midi;
#X obj 597 168 delay 1000;
#X obj 597 192 s \$0-b2;
#X obj 691 141 bng 19 250 50 0 empty empty empty 0 -10 0 12 #fcfcfc #000000 #000000;
#X obj 691 141 bng 19 250 50 0 empty empty empty 0 -10 0 12 #fcfcfc #000000 #000000;
#X obj 691 167 delay 1000;
#X obj 691 67 r \$0-b2;
#X obj 609 585 r \$0-midi;
#X obj 547 636 +;
#X floatatom 547 660 5 0 0 0 - - - 0;
#X obj 547 585 r \$0-b2;
#X obj 459 584 r \$0-midi;
#X obj 397 635 +;
#X floatatom 397 659 5 0 0 0 - - - 0;
#X obj 397 584 r \$0-b1;
#X obj 397 688 tone~;
#X obj 397 712 throw~ \$0-out;
#X obj 547 688 tone~;
#X obj 547 712 throw~ \$0-out;
#X msg 397 608 10;
#X msg 547 609 14;
#X obj 691 191 outlet;
#X obj 597 89 bng 19 250 50 0 empty empty empty 0 -10 0 12 #fcfcfc #000000 #000000;
#X obj 373 75 bin2 0.25;
#X obj 597 141 bng 19 250 50 0 empty empty empty 0 -10 0 12 #fcfcfc #000000 #000000;
#X obj 691 117 bin2 0.5;
#X obj 597 117 bin2 0.6;
#X connect 0 0 2 0;
#X connect 1 0 6 0;
#X connect 2 0 11 0;
#X connect 2 1 35 0;
#X connect 3 0 8 0;
#X connect 7 0 5 0;
#X connect 8 0 9 0;
#X connect 10 0 34 0;
#X connect 12 0 1 0;
#X connect 13 0 14 0;
#X connect 15 0 17 0;
#X connect 17 0 33 0;
#X connect 18 0 37 0;
#X connect 19 0 20 1;
#X connect 20 0 21 0;
#X connect 21 0 29 0;
#X connect 22 0 32 0;
#X connect 23 0 24 1;
#X connect 24 0 25 0;
#X connect 25 0 27 0;
#X connect 26 0 31 0;
#X connect 27 0 28 0;
#X connect 29 0 30 0;
#X connect 31 0 24 0;
#X connect 32 0 20 0;
#X connect 34 0 38 0;
#X connect 35 0 3 0;
#X connect 35 0 4 0;
#X connect 36 0 13 0;
#X connect 37 0 15 0;
#X connect 37 0 16 0;
#X connect 38 0 36 0;
