#N canvas 0 38 1512 916 12;
#X obj 679 804 clip~ -1 1;
#X obj 679 852 dac~;
#X obj 567 334 leaf~;
#X obj 613 334 leaf~;
#X obj 660 334 leaf~;
#X obj 652 425 throw~ leafsig;
#X obj 679 566 catch~ leafsig;
#X obj 528 140 bng 32 250 50 0 empty empty empty 0 -10 0 24 #ffffff #c6ffc7 #000000;
#X obj 605 139 bng 19 250 50 0 empty empty empty 0 -10 0 12 #fcfcfc #000000 #000000;
#X obj 679 141 bng 19 250 50 0 empty empty empty 0 -10 0 12 #fcfcfc #000000 #000000;
#X obj 896 399 throw~ leafsig;
#X obj 678 616 throw~ out;
#X obj 680 750 catch~ out;
#X obj 567 308 mtof;
#X obj 706 334 leaf~;
#X obj 749 142 bng 19 250 50 0 empty empty empty 0 -10 0 12 #fcfcfc #000000 #000000;
#X obj 613 308 mtof;
#X obj 660 309 mtof;
#X obj 706 310 mtof;
#X obj 896 146 delread~ feedback 100;
#X obj 687 590 delwrite~ feedback 100;
#X msg 567 282 60;
#X msg 613 282 67;
#X msg 706 284 72;
#X obj 914 176 noise~;
#X obj 914 255 snapshot~;
#X obj 651 229 s note;
#X obj 925 204 r note;
#X obj 925 228 bng 19 250 50 0 empty empty empty 0 -10 0 12 #fcfcfc #000000 #000000;
#X floatatom 914 352 5 0 0 0 - - - 0;
#X obj 896 375 *~;
#X obj 914 279 + 1;
#X obj 914 303 / 8;
#X obj 914 327 + 0.65;
#X msg 660 283 64;
#X obj 528 116 bin 0.15;
#X obj 605 115 bin 0.15;
#X obj 679 117 bin 0.15;
#X obj 749 118 bin 0.15;
#X obj 679 777 *~ 0.25;
#X connect 0 0 1 0;
#X connect 0 0 1 1;
#X connect 2 0 5 0;
#X connect 3 0 5 0;
#X connect 4 0 5 0;
#X connect 6 0 11 0;
#X connect 6 0 20 0;
#X connect 7 0 21 0;
#X connect 7 0 26 0;
#X connect 8 0 22 0;
#X connect 8 0 26 0;
#X connect 9 0 34 0;
#X connect 9 0 26 0;
#X connect 12 0 39 0;
#X connect 13 0 2 0;
#X connect 14 0 5 0;
#X connect 15 0 23 0;
#X connect 15 0 26 0;
#X connect 16 0 3 0;
#X connect 17 0 4 0;
#X connect 18 0 14 0;
#X connect 19 0 30 0;
#X connect 21 0 13 0;
#X connect 22 0 16 0;
#X connect 23 0 18 0;
#X connect 24 0 25 0;
#X connect 25 0 31 0;
#X connect 27 0 28 0;
#X connect 28 0 25 0;
#X connect 29 0 30 1;
#X connect 30 0 10 0;
#X connect 31 0 32 0;
#X connect 32 0 33 0;
#X connect 33 0 29 0;
#X connect 34 0 17 0;
#X connect 35 0 7 0;
#X connect 36 0 8 0;
#X connect 37 0 9 0;
#X connect 38 0 15 0;
#X connect 39 0 0 0;
