#N canvas 0 38 1512 916 12;
#X obj 679 804 clip~ -1 1;
#X obj 679 852 dac~;
#X obj 567 334 leaf~;
#X obj 613 334 leaf~;
#X obj 660 334 leaf~;
#X obj 652 425 throw~ leafsig;
#X obj 679 566 catch~ leafsig;
#X obj 528 140 bng 19 250 50 0 empty empty empty 0 -10 0 12 #fcfcfc #000000 #000000;
#X obj 605 139 bng 19 250 50 0 empty empty empty 0 -10 0 12 #fcfcfc #000000 #000000;
#X obj 679 141 bng 19 250 50 0 empty empty empty 0 -10 0 12 #fcfcfc #000000 #000000;
#X obj 679 777 *~ 0.05;
#X obj 869 429 throw~ leafsig;
#X obj 719 602 s~ reader;
#X obj 680 719 throw~ out;
#X obj 680 750 catch~ out;
#X obj 528 116 bin 0.05;
#X obj 605 115 bin 0.05;
#X obj 679 117 bin 0.05;
#X obj 567 308 mtof;
#X obj 706 334 leaf~;
#X obj 749 142 bng 19 250 50 0 empty empty empty 0 -10 0 12 #fcfcfc #000000 #000000;
#X obj 749 118 bin 0.05;
#X obj 613 308 mtof;
#X obj 660 309 mtof;
#X obj 706 310 mtof;
#X obj 869 380 delread~ feedback 100;
#X obj 688 652 delwrite~ feedback 100;
#X msg 528 166 72;
#X msg 605 165 75;
#X msg 679 163 79;
#X msg 749 164 83;
#X obj 869 405 *~ 0.9;
#X connect 0 0 1 0;
#X connect 0 0 1 1;
#X connect 2 0 5 0;
#X connect 3 0 5 0;
#X connect 4 0 5 0;
#X connect 6 0 12 0;
#X connect 6 0 13 0;
#X connect 6 0 26 0;
#X connect 7 0 27 0;
#X connect 8 0 28 0;
#X connect 9 0 29 0;
#X connect 10 0 0 0;
#X connect 14 0 10 0;
#X connect 15 0 7 0;
#X connect 16 0 8 0;
#X connect 17 0 9 0;
#X connect 18 0 2 0;
#X connect 19 0 5 0;
#X connect 20 0 30 0;
#X connect 21 0 20 0;
#X connect 22 0 3 0;
#X connect 23 0 4 0;
#X connect 24 0 19 0;
#X connect 25 0 31 0;
#X connect 27 0 18 0;
#X connect 28 0 22 0;
#X connect 29 0 23 0;
#X connect 30 0 24 0;
#X connect 31 0 11 0;
