#N canvas 0 38 1512 916 12;
#X obj 1060 664 clip~ -1 1;
#X obj 1060 691 dac~;
#X obj 755 255 throw~ leafsig;
#X obj 815 436 catch~ leafsig;
#X obj 755 89 bng 32 250 50 0 empty empty empty 0 -10 0 24 #ffffff #c6ffc7 #000000;
#X obj 896 400 throw~ leafsig;
#X obj 815 761 throw~ out;
#X obj 1060 612 catch~ out;
#X obj 896 146 delread~ feedback 100;
#X obj 848 460 delwrite~ feedback 100;
#X msg 755 126 60;
#X obj 914 176 noise~;
#X obj 914 255 snapshot~;
#X obj 925 228 bng 19 250 50 0 empty empty empty 0 -10 0 12 #fcfcfc #ff0400 #000000;
#X floatatom 914 352 5 0 0 0 - - - 0;
#X obj 896 375 *~;
#X obj 914 279 + 1;
#X obj 914 303 / 8;
#X obj 914 327 + 0.65;
#X obj 755 179 leaf2~;
#X obj 832 533 rev1~;
#X obj 794 206 bng 19 250 50 0 empty empty empty 0 -10 0 12 #fcfcfc #0400ff #000000;
#X obj 850 700 vline~;
#X obj 832 724 *~;
#X msg 848 509 99.5;
#X obj 848 484 loadbang;
#X obj 755 65 bin 0.5;
#X obj 1060 637 *~ 0.05;
#X obj 794 230 s \$0-thrd;
#X obj 850 557 r \$0-thrd;
#X obj 1059 561 *~;
#X obj 850 581 random 50;
#X obj 850 605 / 100;
#X msg 850 676 \$1 2500 0 \, 0 7500 2500;
#X floatatom 850 653 5 0 0 0 - - - 0;
#X obj 850 629 + 0.5;
#X obj 1077 373 r \$0-thrd;
#X obj 1077 396 random 50;
#X msg 1077 493 \$1 2500 0 \, 0 7500 2500;
#X floatatom 1077 468 5 0 0 0 - - - 0;
#X obj 1059 585 throw~ out;
#X obj 1077 517 vline~;
#X obj 1077 420 / 200;
#X obj 1059 320 lop~ 1000;
#X obj 1059 344 lop~ 1000;
#X obj 1059 266 abs~;
#X obj 1059 242 osc~;
#X obj 763 153 s mnote;
#X obj 1059 146 r mnote;
#X obj 1104 190 + 3;
#X obj 1146 190 + 7;
#X obj 1104 264 abs~;
#X obj 1104 240 osc~;
#X obj 1146 263 abs~;
#X obj 1146 239 osc~;
#X obj 1059 294 +~;
#X obj 1059 216 mtof;
#X obj 1104 215 mtof;
#X obj 1146 215 mtof;
#X obj 1077 444 + 0.25;
#X obj 925 204 r mnote;
#X connect 0 0 1 0;
#X connect 0 0 1 1;
#X connect 3 0 20 0;
#X connect 3 0 6 0;
#X connect 3 0 9 0;
#X connect 4 0 10 0;
#X connect 7 0 27 0;
#X connect 8 0 15 0;
#X connect 10 0 47 0;
#X connect 10 0 19 0;
#X connect 11 0 12 0;
#X connect 12 0 16 0;
#X connect 13 0 12 0;
#X connect 14 0 15 1;
#X connect 15 0 5 0;
#X connect 16 0 17 0;
#X connect 17 0 18 0;
#X connect 18 0 14 0;
#X connect 19 0 2 0;
#X connect 19 1 21 0;
#X connect 20 0 23 0;
#X connect 21 0 28 0;
#X connect 22 0 23 1;
#X connect 23 0 6 0;
#X connect 24 0 20 1;
#X connect 25 0 24 0;
#X connect 26 0 4 0;
#X connect 27 0 0 0;
#X connect 29 0 31 0;
#X connect 30 0 40 0;
#X connect 31 0 32 0;
#X connect 32 0 35 0;
#X connect 33 0 22 0;
#X connect 34 0 33 0;
#X connect 35 0 34 0;
#X connect 36 0 37 0;
#X connect 37 0 42 0;
#X connect 38 0 41 0;
#X connect 39 0 38 0;
#X connect 41 0 30 1;
#X connect 42 0 59 0;
#X connect 43 0 44 0;
#X connect 44 0 30 0;
#X connect 45 0 55 0;
#X connect 46 0 45 0;
#X connect 48 0 49 0;
#X connect 48 0 50 0;
#X connect 48 0 56 0;
#X connect 49 0 57 0;
#X connect 50 0 58 0;
#X connect 51 0 55 0;
#X connect 52 0 51 0;
#X connect 53 0 55 0;
#X connect 54 0 53 0;
#X connect 55 0 43 0;
#X connect 56 0 46 0;
#X connect 57 0 52 0;
#X connect 58 0 54 0;
#X connect 59 0 39 0;
#X connect 60 0 13 0;
