#N canvas 0 38 1512 916 12;
#X obj 310 551 vline~;
#X obj 292 575 *~;
#X obj 292 315 osc~;
#X obj 292 27 inlet;
#X obj 292 53 t b f, f 11;
#X obj 292 802 outlet~;
#X obj 370 311 osc~;
#X obj 370 335 *~ 0.25;
#X obj 370 287 * 2;
#X obj 292 401 +~;
#X obj 445 312 osc~;
#X obj 445 336 *~ 0.05;
#X obj 445 288 * 3.88;
#X msg 310 526 1 1 0 \, 0 \$1 10;
#X floatatom 310 503 5 0 0 0 - - - 0;
#X obj 310 479 + 25;
#X obj 310 455 random 200;
#X obj 310 602 noise~;
#X obj 310 681 snapshot~;
#X obj 321 654 bng 19 250 50 0 empty empty empty 0 -10 0 12 #fcfcfc #000000 #000000;
#X floatatom 310 753 5 0 0 0 - - - 0;
#X obj 310 705 + 1;
#X obj 292 775 *~;
#X obj 310 729 / 2;
#X obj 292 78 s \$0-bang;
#X obj 366 78 s \$0-midi;
#X obj 292 222 r \$0-midi;
#X obj 310 430 r \$0-bang;
#X obj 321 630 r \$0-bang;
#X obj 292 246 mtof;
#X connect 0 0 1 1;
#X connect 1 0 22 0;
#X connect 2 0 9 0;
#X connect 3 0 4 0;
#X connect 4 0 24 0;
#X connect 4 1 25 0;
#X connect 6 0 7 0;
#X connect 7 0 9 0;
#X connect 8 0 6 0;
#X connect 9 0 1 0;
#X connect 10 0 11 0;
#X connect 11 0 9 0;
#X connect 12 0 10 0;
#X connect 13 0 0 0;
#X connect 14 0 13 0;
#X connect 15 0 14 0;
#X connect 16 0 15 0;
#X connect 17 0 18 0;
#X connect 18 0 21 0;
#X connect 19 0 18 0;
#X connect 20 0 22 1;
#X connect 21 0 23 0;
#X connect 22 0 5 0;
#X connect 23 0 20 0;
#X connect 26 0 29 0;
#X connect 27 0 16 0;
#X connect 28 0 19 0;
#X connect 29 0 2 0;
#X connect 29 0 12 0;
#X connect 29 0 8 0;
