#N canvas 113 38 971 916 12;
#X obj 336 764 *~;
#X obj 336 788 s~ \$0-feedback;
#X obj 20 322 r~ \$0-feedback;
#X obj 336 519 delread4~ \$0-kp;
#X obj 336 591 lop~;
#X obj 336 615 lop~;
#X text 690 525 arguments 6: exciter? 1: attack 2: decay 3: pitch 4: damping 5: feedback;
#X obj 502 148 inlet;
#X obj 502 173 unpack f f;
#X obj 502 197 s \$0-damping;
#X obj 597 197 s \$0-fbamt;
#X obj 354 716 min;
#X msg 386 689 0.99;
#X obj 354 641 r \$0-fbamt;
#X floatatom 354 740 5 0 0 0 - - - 0;
#X obj 354 665 t f b;
#X obj 387 572 r \$0-damping;
#X obj 366 149 inlet~;
#X obj 366 172 throw~ \$0-exciter;
#X obj 353 544 outlet~;
#X obj 13 294 catch~ \$0-exciter;
#X obj 13 347 delwrite~ \$0-kp 1000;
#X connect 0 0 1 0;
#X connect 2 0 21 0;
#X connect 3 0 4 0;
#X connect 3 0 19 0;
#X connect 4 0 5 0;
#X connect 5 0 0 0;
#X connect 7 0 8 0;
#X connect 8 0 9 0;
#X connect 8 1 10 0;
#X connect 11 0 14 0;
#X connect 12 0 11 1;
#X connect 13 0 15 0;
#X connect 14 0 0 1;
#X connect 15 0 11 0;
#X connect 15 1 12 0;
#X connect 16 0 4 1;
#X connect 16 0 5 1;
#X connect 17 0 18 0;
#X connect 20 0 21 0;
