#N canvas 0 545 1440 847 12;
#X obj 504 262 ping~, f 35;
#X obj 504 187 t b b b, f 24;
#X msg 746 238 3.8, f 4;
#X obj 910 324 *;
#X obj 910 237 line, f 7;
#X floatatom 910 261 5 0 0 0 - - - 0;
#X obj 910 348 s \$0-pitch;
#X obj 625 237 r \$0-pitch;
#X obj 586 212 s \$0-pitchtrig;
#X obj 504 100 inlet;
#X obj 504 286 outlet~;
#X obj 944 299 inlet;
#X obj 910 146 r \$0-pitchtrig;
#X obj 1039 190 delay 100;
#X msg 910 213 1 0 0 \, 1.25 100 0;
#X msg 1039 214 1 0 0 \, 0 100 0;
#X obj 910 285 * 2;
#X connect 0 0 10 0;
#X connect 1 0 0 0;
#X connect 1 1 8 0;
#X connect 1 2 2 0;
#X connect 2 0 0 2;
#X connect 3 0 6 0;
#X connect 4 0 5 0;
#X connect 5 0 16 0;
#X connect 7 0 0 1;
#X connect 9 0 1 0;
#X connect 11 0 3 1;
#X connect 12 0 13 0;
#X connect 12 0 14 0;
#X connect 13 0 15 0;
#X connect 14 0 4 0;
#X connect 15 0 4 0;
#X connect 16 0 3 0;
