#N canvas 0 38 1440 847 12;
#X declare -path ../../lib;
#X obj 14 46 loadbang;
#X obj 16 390 clip~ -1 1;
#X obj 16 414 dac~;
#X obj 16 366 *~ 1;
#X obj 16 342 catch~ out;
#X obj 14 93 metro 100;
#X obj 13 12 declare -path ../../lib;
#X obj 14 118 s clock;
#X obj 14 70 tgl 19 0 empty empty empty 0 -10 0 12 #fcfcfc #000000 #000000 0 1;
#X obj 215 153 r clock;
#X obj 215 356 throw~ out;
#X obj 215 200 t b b;
#X obj 215 178 bng 19 250 50 0 empty empty empty 0 -10 0 12 #fcfcfc #000000 #000000;
#X obj 215 303 karplusdrop~;
#X obj 418 155 r clock;
#X obj 418 353 throw~ out;
#X obj 418 202 t b b;
#X obj 418 180 bng 19 250 50 0 empty empty empty 0 -10 0 12 #fcfcfc #000000 #000000;
#X obj 418 305 karplusdrop~;
#X msg 499 257 220;
#X obj 296 279 ttet 7;
#X obj 545 229 % 7;
#X obj 499 281 ttet 7;
#X obj 494 652 r clock;
#X obj 494 750 throw~ out;
#X obj 494 700 kick~ 100;
#X obj 315 78 s counter-reset;
#X obj 315 52 bng 19 250 50 0 empty empty empty 0 -10 0 12 #fcfcfc #000000 #000000;
#X obj 494 675 eseq 5 16 0;
#X obj 702 284 ttet 7;
#X obj 642 99 r clock;
#X obj 642 124 bng 19 250 50 0 empty empty empty 0 -10 0 12 #fcfcfc #000000 #000000;
#X obj 642 172 bng 19 250 50 0 empty empty empty 0 -10 0 12 #fcfcfc #000000 #000000;
#X obj 642 196 t b b;
#X obj 870 291 *;
#X floatatom 870 314 5 0 0 0 - - - 0;
#X obj 804 306 t f b;
#X obj 642 433 throw~ out;
#X msg 702 260 440;
#X obj 767 229 counter 3;
#X obj 642 365 ks~, f 24;
#X obj 587 652 r clock;
#X obj 587 749 throw~ out;
#X obj 587 724 *~ 0.5;
#X obj 587 700 hh~;
#X obj 587 675 eseq 7 8 0;
#X obj 673 652 r clock;
#X obj 673 750 throw~ out;
#X obj 673 675 eseq 1 8 4;
#X obj 673 700 clap~;
#X obj 767 253 % 7;
#X msg 870 337 \$1 0.9;
#X obj 870 267 f 6;
#X msg 642 313 1 5 0;
#X obj 1010 279 ttet 7;
#X obj 950 94 r clock;
#X obj 950 119 bng 19 250 50 0 empty empty empty 0 -10 0 12 #fcfcfc #000000 #000000;
#X obj 950 167 bng 19 250 50 0 empty empty empty 0 -10 0 12 #fcfcfc #000000 #000000;
#X obj 950 191 t b b;
#X obj 1178 286 *;
#X floatatom 1178 309 5 0 0 0 - - - 0;
#X obj 1112 301 t f b;
#X obj 950 437 throw~ out;
#X obj 950 360 ks~, f 24;
#X obj 1075 248 % 7;
#X obj 950 143 eseq 3 4 0;
#X obj 1075 224 counter 4;
#X obj 1075 272 - 5;
#X msg 1010 255 110;
#X msg 1178 332 \$1 0.99;
#X obj 1178 262 f 8;
#X obj 1139 426 tri~;
#X msg 950 308 1 2.5 0;
#X obj 809 415 square~;
#X obj 642 148 eseq 5 8 0;
#X obj 673 724 *~ 0.5;
#X obj 767 277 - 7;
#X obj 757 728 snare~;
#X obj 757 776 throw~ out;
#X obj 757 704 bern 5;
#X obj 757 752 *~ 0.04;
#X obj 847 654 r clock;
#X obj 847 751 throw~ out;
#X obj 847 702 hh~ 200;
#X obj 847 677 eseq 1 16 10;
#X obj 847 726 *~ 0.75;
#X obj 494 724 *~ 0.75;
#X msg 296 255 220;
#X obj 335 254 f 0;
#X obj 545 205 counter 4;
#X obj 642 390 *~ 0.03;
#X obj 950 385 *~ 0.075;
#X obj 311 489 drop~;
#X obj 311 634 throw~ out;
#X obj 328 597 delwrite~ dropbuf 500;
#X obj 484 511 random 10;
#X obj 484 535 / 20;
#X obj 313 556 *~;
#X floatatom 484 583 5 0 0 0 - - - 0;
#X obj 375 499 *~ 0.3;
#X obj 375 475 delread~ dropbuf 200;
#X obj 484 559 + 0.3;
#X obj 353 384 bern 4;
#X connect 0 0 8 0;
#X connect 1 0 2 0;
#X connect 1 0 2 1;
#X connect 3 0 1 0;
#X connect 4 0 3 0;
#X connect 5 0 7 0;
#X connect 8 0 5 0;
#X connect 9 0 12 0;
#X connect 11 0 13 0;
#X connect 11 1 87 0;
#X connect 11 1 88 0;
#X connect 12 0 11 0;
#X connect 13 0 10 0;
#X connect 14 0 17 0;
#X connect 16 0 18 0;
#X connect 16 0 102 0;
#X connect 16 1 19 0;
#X connect 16 1 89 0;
#X connect 17 0 16 0;
#X connect 18 0 15 0;
#X connect 19 0 22 0;
#X connect 20 0 13 1;
#X connect 21 0 22 1;
#X connect 22 0 18 1;
#X connect 22 0 92 1;
#X connect 23 0 28 0;
#X connect 25 0 86 0;
#X connect 27 0 26 0;
#X connect 28 0 25 0;
#X connect 29 0 36 0;
#X connect 29 0 40 1;
#X connect 29 0 73 0;
#X connect 30 0 31 0;
#X connect 31 0 74 0;
#X connect 32 0 33 0;
#X connect 33 0 53 0;
#X connect 33 1 38 0;
#X connect 33 1 39 0;
#X connect 34 0 35 0;
#X connect 35 0 51 0;
#X connect 36 0 34 1;
#X connect 36 1 52 0;
#X connect 38 0 29 0;
#X connect 39 0 50 0;
#X connect 40 0 90 0;
#X connect 41 0 45 0;
#X connect 43 0 42 0;
#X connect 44 0 43 0;
#X connect 45 0 44 0;
#X connect 46 0 48 0;
#X connect 48 0 49 0;
#X connect 48 1 79 0;
#X connect 49 0 75 0;
#X connect 50 0 76 0;
#X connect 51 0 40 2;
#X connect 52 0 34 0;
#X connect 53 0 40 0;
#X connect 54 0 61 0;
#X connect 54 0 63 1;
#X connect 54 0 71 0;
#X connect 55 0 56 0;
#X connect 56 0 65 0;
#X connect 57 0 58 0;
#X connect 58 0 72 0;
#X connect 58 1 68 0;
#X connect 58 1 66 0;
#X connect 59 0 60 0;
#X connect 60 0 69 0;
#X connect 61 0 59 1;
#X connect 61 1 70 0;
#X connect 63 0 91 0;
#X connect 64 0 67 0;
#X connect 65 0 57 0;
#X connect 66 0 64 0;
#X connect 67 0 54 1;
#X connect 68 0 54 0;
#X connect 69 0 63 2;
#X connect 70 0 59 0;
#X connect 71 0 63 3;
#X connect 72 0 63 0;
#X connect 73 0 40 3;
#X connect 74 0 32 0;
#X connect 75 0 47 0;
#X connect 76 0 29 1;
#X connect 77 0 80 0;
#X connect 79 0 77 0;
#X connect 80 0 78 0;
#X connect 81 0 84 0;
#X connect 83 0 85 0;
#X connect 84 0 83 0;
#X connect 85 0 82 0;
#X connect 86 0 24 0;
#X connect 87 0 20 0;
#X connect 88 0 20 1;
#X connect 89 0 21 0;
#X connect 90 0 37 0;
#X connect 91 0 62 0;
#X connect 92 0 97 0;
#X connect 95 0 96 0;
#X connect 96 0 101 0;
#X connect 97 0 93 0;
#X connect 97 0 94 0;
#X connect 98 0 97 1;
#X connect 99 0 97 0;
#X connect 100 0 99 0;
#X connect 101 0 98 0;
#X connect 102 0 92 0;
#X connect 102 0 95 0;
