#N canvas 5 107 1440 847 12;
#X declare -path ../../lib;
#X obj 13 12 declare -path ../../lib;
#X obj 145 85 inlet;
#X obj 68 85 inlet;
#X obj 145 109 s \$0-pitch;
#X obj 68 109 s \$0-trig;
#X obj 68 269 drop~;
#X obj 68 190 t b b;
#X obj 68 168 bng 19 250 50 0 empty empty empty 0 -10 0 12 #fcfcfc #000000 #000000;
#X obj 75 438 ks~, f 30;
#X obj 181 293 t b b;
#X obj 68 144 r \$0-trig;
#X obj 181 246 r \$0-trig;
#X obj 252 317 r \$0-pitch;
#X obj 213 341 *;
#X floatatom 213 364 5 0 0 0 - - - 0;
#X obj 100 244 r \$0-pitch;
#X obj 68 293 s~ \$0-dropexc;
#X obj 283 414 r~ \$0-dropexc;
#X obj 144 411 r \$0-pitch;
#X obj 75 462 outlet~;
#X msg 213 387 \$1 0.8;
#X msg 75 413 5 3 0;
#X obj 213 317 f 10;
#X connect 1 0 3 0;
#X connect 2 0 4 0;
#X connect 5 0 16 0;
#X connect 6 0 5 0;
#X connect 7 0 6 0;
#X connect 8 0 19 0;
#X connect 9 0 21 0;
#X connect 9 1 22 0;
#X connect 10 0 7 0;
#X connect 11 0 9 0;
#X connect 12 0 13 1;
#X connect 13 0 14 0;
#X connect 14 0 20 0;
#X connect 15 0 5 1;
#X connect 17 0 8 3;
#X connect 18 0 8 1;
#X connect 20 0 8 2;
#X connect 21 0 8 0;
#X connect 22 0 13 0;
