#N canvas 72 107 1440 847 12;
#X obj 501 233 bob~, f 30;
#X obj 501 208 vline~;
#X obj 501 79 inlet;
#X obj 656 54 inlet;
#X obj 581 80 inlet;
#X obj 656 103 s \$0-reso;
#X obj 656 78 min 3.99;
#X obj 581 103 s \$0-freq;
#X obj 501 136 r \$0-trig;
#X obj 501 103 s \$0-trig;
#X obj 501 160 bng 19 250 50 0 empty empty empty 0 -10 0 12 #fcfcfc #000000 #000000;
#X msg 501 184 1 0 0 \, 0 1 0;
#X obj 708 185 r \$0-reso;
#X floatatom 708 209 5 0 0 0 - - - 0;
#X obj 604 184 r \$0-freq;
#X floatatom 604 208 5 0 0 0 - - - 0;
#X obj 501 258 outlet~;
#X connect 0 0 16 0;
#X connect 1 0 0 0;
#X connect 2 0 9 0;
#X connect 3 0 6 0;
#X connect 4 0 7 0;
#X connect 6 0 5 0;
#X connect 8 0 10 0;
#X connect 10 0 11 0;
#X connect 11 0 1 0;
#X connect 12 0 13 0;
#X connect 13 0 0 2;
#X connect 14 0 15 0;
#X connect 15 0 0 1;
