#N canvas 21 107 1440 847 12;
#X declare -path ../../lib;
#X obj 14 46 loadbang;
#X obj 16 390 clip~ -1 1;
#X obj 16 414 dac~;
#X obj 16 342 catch~ out;
#X obj 13 12 declare -path ../../lib;
#X obj 14 118 s clock;
#X obj 14 70 tgl 19 0 empty empty empty 0 -10 0 12 #fcfcfc #000000 #000000 0 1;
#X obj 315 78 s counter-reset;
#X obj 315 52 bng 19 250 50 0 empty empty empty 0 -10 0 12 #fcfcfc #000000 #000000;
#X obj 14 93 metro 300;
#X obj 16 366 *~ 0.05;
#X msg 239 552 220;
#X obj 486 391 throw~ out;
#X obj 304 608 wind~;
#X msg 336 585 3.9;
#X obj 239 609 tri~;
#X obj 393 620 wind~;
#X obj 304 632 *~ 2;
#X msg 425 597 3.99;
#X obj 193 607 tri~;
#X obj 193 631 *~ 0.5;
#X obj 193 583 * 1.25;
#X obj 487 337 ks~, f 33;
#X obj 561 109 bng 19 250 50 0 empty empty empty 0 -10 0 12 #fcfcfc #000000 #000000;
#X obj 842 406 throw~ out;
#X obj 842 347 ks~, f 33;
#X obj 914 94 bng 19 250 50 0 empty empty empty 0 -10 0 12 #fcfcfc #000000 #000000;
#X obj 304 725 s~ drone;
#X obj 714 314 r~ drone;
#X obj 1093 323 r~ drone;
#X obj 987 247 counter 5;
#X obj 987 271 % 11;
#X obj 606 285 % 11;
#X obj 606 261 counter 3;
#X obj 561 85 eseq 1 32 0;
#X obj 561 60 r clock;
#X obj 914 44 r clock;
#X obj 987 295 - 7;
#X obj 1132 177 osc~ 0.1;
#X obj 1155 224 snapshot~;
#X obj 1225 203 metro 1;
#X obj 1226 177 tgl 19 0 empty empty empty 0 -10 0 12 #fcfcfc #000000 #000000 0 1;
#X floatatom 1155 272 5 0 0 0 - - - 0;
#X obj 1132 201 *~ 0.25;
#X msg 1017 323 7500 \$1;
#X obj 692 133 osc~ 0.1;
#X obj 692 181 snapshot~;
#X obj 785 159 metro 1;
#X obj 786 133 tgl 19 0 empty empty empty 0 -10 0 12 #fcfcfc #000000 #000000 0 1;
#X floatatom 692 229 5 0 0 0 - - - 0;
#X obj 692 157 *~ 0.25;
#X obj 304 664 *~;
#X obj 472 623 tri~ 0.1;
#X msg 638 314 2500 \$1;
#X msg 562 284 55;
#X obj 692 204 + 0.7;
#X msg 486 311 100 1000 9010;
#X msg 842 320 100 1000 9010;
#X msg 941 293 55;
#X obj 1155 248 + 0.7;
#X obj 914 70 eseq 1 32 16;
#X obj 562 312 ttet 7;
#X obj 941 321 ttet 7;
#X connect 0 0 6 0;
#X connect 1 0 2 0;
#X connect 1 0 2 1;
#X connect 3 0 10 0;
#X connect 6 0 9 0;
#X connect 8 0 7 0;
#X connect 9 0 5 0;
#X connect 10 0 1 0;
#X connect 11 0 14 0;
#X connect 11 0 13 0;
#X connect 11 0 15 0;
#X connect 11 0 18 0;
#X connect 11 0 16 0;
#X connect 11 0 21 0;
#X connect 13 0 17 0;
#X connect 14 0 13 1;
#X connect 16 0 51 0;
#X connect 17 0 51 0;
#X connect 18 0 16 1;
#X connect 19 0 20 0;
#X connect 21 0 19 0;
#X connect 22 0 12 0;
#X connect 23 0 56 0;
#X connect 23 0 53 0;
#X connect 23 0 54 0;
#X connect 23 0 33 0;
#X connect 25 0 24 0;
#X connect 26 0 57 0;
#X connect 26 0 44 0;
#X connect 26 0 58 0;
#X connect 26 0 30 0;
#X connect 28 0 22 3;
#X connect 29 0 25 3;
#X connect 30 0 31 0;
#X connect 31 0 37 0;
#X connect 32 0 61 1;
#X connect 33 0 32 0;
#X connect 34 0 23 0;
#X connect 35 0 34 0;
#X connect 36 0 60 0;
#X connect 37 0 62 1;
#X connect 38 0 43 0;
#X connect 39 0 59 0;
#X connect 40 0 39 0;
#X connect 41 0 40 0;
#X connect 42 0 44 0;
#X connect 43 0 39 0;
#X connect 44 0 25 2;
#X connect 45 0 50 0;
#X connect 46 0 55 0;
#X connect 47 0 46 0;
#X connect 48 0 47 0;
#X connect 49 0 53 0;
#X connect 50 0 46 0;
#X connect 51 0 27 0;
#X connect 52 0 51 1;
#X connect 53 0 22 2;
#X connect 54 0 61 0;
#X connect 55 0 49 0;
#X connect 56 0 22 0;
#X connect 57 0 25 0;
#X connect 58 0 62 0;
#X connect 59 0 42 0;
#X connect 60 0 26 0;
#X connect 61 0 22 1;
#X connect 62 0 25 1;
