#N canvas 72 107 1440 847 12;
#X obj 501 289 bob~, f 30;
#X obj 656 54 inlet;
#X obj 581 80 inlet;
#X obj 656 103 s \$0-reso;
#X obj 656 78 min 3.99;
#X obj 581 103 s \$0-freq;
#X obj 708 241 r \$0-reso;
#X floatatom 708 265 5 0 0 0 - - - 0;
#X obj 604 240 r \$0-freq;
#X floatatom 604 264 5 0 0 0 - - - 0;
#X obj 501 314 outlet~;
#X obj 501 243 noise~;
#X connect 0 0 10 0;
#X connect 1 0 4 0;
#X connect 2 0 5 0;
#X connect 4 0 3 0;
#X connect 6 0 7 0;
#X connect 7 0 0 2;
#X connect 8 0 9 0;
#X connect 9 0 0 1;
#X connect 11 0 0 0;
