#N canvas 21 168 1440 847 12;
#X declare -path ../../lib;
#X obj 14 46 loadbang;
#X obj 16 390 clip~ -1 1;
#X obj 16 414 dac~;
#X obj 16 342 catch~ out;
#X obj 13 12 declare -path ../../lib;
#X obj 14 118 s clock;
#X obj 14 70 tgl 19 0 empty empty empty 0 -10 0 12 #fcfcfc #000000 #000000 0 1;
#X obj 315 78 s counter-reset;
#X obj 315 52 bng 19 250 50 0 empty empty empty 0 -10 0 12 #fcfcfc #000000 #000000;
#X obj 519 389 wind~, f 17;
#X obj 14 93 metro 300;
#X obj 519 414 throw~ out;
#X obj 673 391 wind~, f 17;
#X obj 673 415 throw~ out;
#X obj 16 366 *~ 0.05;
#X obj 837 392 wind~, f 17;
#X obj 837 418 throw~ out;
#X obj 731 362 ttet 7;
#X msg 731 338 220;
#X obj 895 365 ttet 7;
#X msg 895 341 220;
#X msg 952 370 3.9;
#X msg 789 366 3.9;
#X msg 634 367 3.9;
#X obj 577 352 ttet 7;
#X msg 577 328 220;
#X floatatom 770 279 5 0 0 0 - - - 0;
#X obj 754 156 +~ 1;
#X obj 754 180 *~ 3;
#X obj 771 256 snapshot~;
#X obj 770 231 metro 1;
#X obj 769 205 tgl 19 0 empty empty empty 0 -10 0 12 #fcfcfc #000000 #000000 0 1;
#X obj 770 337 + 4;
#X obj 934 342 + 7;
#X obj 754 132 osc~ 0.05;
#X obj 577 288 loadbang;
#X obj 701 280 loadbang;
#X obj 894 292 loadbang;
#X connect 0 0 6 0;
#X connect 1 0 2 0;
#X connect 1 0 2 1;
#X connect 3 0 14 0;
#X connect 6 0 10 0;
#X connect 8 0 7 0;
#X connect 9 0 11 0;
#X connect 10 0 5 0;
#X connect 12 0 13 0;
#X connect 14 0 1 0;
#X connect 15 0 16 0;
#X connect 17 0 12 1;
#X connect 18 0 17 0;
#X connect 19 0 15 1;
#X connect 20 0 19 0;
#X connect 21 0 15 2;
#X connect 22 0 12 2;
#X connect 23 0 9 2;
#X connect 24 0 9 1;
#X connect 25 0 24 0;
#X connect 26 0 24 1;
#X connect 26 0 32 0;
#X connect 26 0 33 0;
#X connect 27 0 28 0;
#X connect 28 0 29 0;
#X connect 29 0 26 0;
#X connect 30 0 29 0;
#X connect 31 0 30 0;
#X connect 32 0 17 1;
#X connect 34 0 27 0;
#X connect 35 0 25 0;
#X connect 35 0 23 0;
#X connect 36 0 18 0;
#X connect 36 0 22 0;
#X connect 37 0 20 0;
#X connect 37 0 21 0;
