#N canvas 0 38 1440 847 12;
#X declare -path ../../lib;
#X obj 14 46 loadbang;
#X obj 16 390 clip~ -1 1;
#X obj 16 414 dac~;
#X obj 16 366 *~ 1;
#X obj 16 342 catch~ out;
#X obj 14 93 metro 100;
#X obj 13 12 declare -path ../../lib;
#X obj 14 118 s clock;
#X obj 14 70 tgl 19 0 empty empty empty 0 -10 0 12 #fcfcfc #000000 #000000 0 1;
#X connect 0 0 8 0;
#X connect 1 0 2 0;
#X connect 1 0 2 1;
#X connect 3 0 1 0;
#X connect 4 0 3 0;
#X connect 5 0 7 0;
#X connect 8 0 5 0;
